G04*
G04 #@! TF.GenerationSoftware,Altium Limited,CircuitStudio,1.5.2 (30)*
G04*
G04 Layer_Color=65535*
%FSLAX44Y44*%
%MOMM*%
G71*
G01*
G75*
%ADD37C,0.2000*%
%ADD38C,0.4000*%
%ADD39C,0.3000*%
%ADD41C,0.2540*%
%ADD49C,0.1000*%
%ADD50C,0.1500*%
%ADD66C,0.1270*%
%ADD67C,0.2500*%
G36*
X643726Y691471D02*
X644012D01*
X643053Y688648D01*
X642768D01*
X642545Y688000D01*
X642155D01*
X643555Y692119D01*
X643948D01*
X643726Y691471D01*
D02*
G37*
G36*
X644961Y692116D02*
X645013Y692113D01*
X645077Y692106D01*
X645148Y692100D01*
X645226Y692087D01*
X645310Y692071D01*
X645394Y692052D01*
X645484Y692026D01*
X645571Y691993D01*
X645655Y691955D01*
X645735Y691913D01*
X645813Y691861D01*
X645881Y691800D01*
X645939Y691732D01*
X645942Y691729D01*
X645952Y691713D01*
X645965Y691693D01*
X645981Y691661D01*
X645997Y691623D01*
X646016Y691574D01*
X646036Y691516D01*
X646052Y691452D01*
X646065Y691377D01*
X646074Y691297D01*
X646081Y691206D01*
X646077Y691110D01*
X646068Y691006D01*
X646052Y690893D01*
X646023Y690774D01*
X645984Y690645D01*
X645587Y689474D01*
X645584Y689468D01*
X645581Y689455D01*
X645571Y689429D01*
X645558Y689400D01*
X645542Y689358D01*
X645523Y689313D01*
X645500Y689261D01*
X645474Y689206D01*
X645445Y689148D01*
X645410Y689084D01*
X645374Y689019D01*
X645335Y688952D01*
X645290Y688887D01*
X645242Y688819D01*
X645193Y688755D01*
X645139Y688690D01*
X645135Y688687D01*
X645126Y688674D01*
X645110Y688658D01*
X645087Y688635D01*
X645058Y688606D01*
X645023Y688574D01*
X644984Y688539D01*
X644939Y688503D01*
X644887Y688461D01*
X644836Y688419D01*
X644774Y688377D01*
X644713Y688335D01*
X644645Y688290D01*
X644577Y688252D01*
X644503Y688213D01*
X644426Y688177D01*
X644423Y688174D01*
X644406Y688171D01*
X644384Y688161D01*
X644352Y688148D01*
X644313Y688136D01*
X644268Y688123D01*
X644213Y688106D01*
X644152Y688090D01*
X644087Y688071D01*
X644013Y688055D01*
X643935Y688042D01*
X643855Y688029D01*
X643768Y688016D01*
X643677Y688006D01*
X643584Y688003D01*
X643487Y688000D01*
X642832D01*
X643053Y688648D01*
X643771D01*
X643800Y688652D01*
X643836Y688655D01*
X643877Y688658D01*
X643926Y688664D01*
X643977Y688674D01*
X644032Y688687D01*
X644090Y688700D01*
X644148Y688716D01*
X644210Y688736D01*
X644271Y688761D01*
X644332Y688790D01*
X644390Y688823D01*
X644448Y688858D01*
X644452Y688861D01*
X644461Y688868D01*
X644477Y688881D01*
X644497Y688897D01*
X644523Y688919D01*
X644552Y688945D01*
X644584Y688977D01*
X644616Y689013D01*
X644652Y689052D01*
X644687Y689097D01*
X644726Y689145D01*
X644761Y689200D01*
X644793Y689255D01*
X644826Y689316D01*
X644858Y689384D01*
X644884Y689452D01*
X645297Y690668D01*
Y690671D01*
X645303Y690684D01*
X645306Y690703D01*
X645316Y690732D01*
X645323Y690764D01*
X645329Y690800D01*
X645335Y690842D01*
X645342Y690887D01*
X645345Y690981D01*
Y691032D01*
X645339Y691081D01*
X645329Y691129D01*
X645313Y691174D01*
X645290Y691219D01*
X645265Y691261D01*
X645261Y691264D01*
X645258Y691271D01*
X645248Y691281D01*
X645232Y691293D01*
X645216Y691310D01*
X645193Y691329D01*
X645164Y691345D01*
X645132Y691368D01*
X645097Y691387D01*
X645055Y691403D01*
X645006Y691423D01*
X644955Y691439D01*
X644897Y691452D01*
X644832Y691461D01*
X644761Y691468D01*
X644687Y691471D01*
X644012D01*
X644232Y692119D01*
X644942D01*
X644961Y692116D01*
D02*
G37*
G36*
X648819Y692161D02*
X648852D01*
X648890Y692155D01*
X648932Y692152D01*
X648977Y692145D01*
X649074Y692126D01*
X649177Y692097D01*
X649229Y692077D01*
X649281Y692058D01*
X649329Y692032D01*
X649377Y692003D01*
X649381Y692000D01*
X649387Y691997D01*
X649400Y691987D01*
X649416Y691974D01*
X649439Y691958D01*
X649461Y691936D01*
X649487Y691913D01*
X649513Y691887D01*
X649542Y691855D01*
X649571Y691819D01*
X649597Y691784D01*
X649626Y691742D01*
X649655Y691697D01*
X649681Y691652D01*
X649703Y691600D01*
X649723Y691545D01*
Y691542D01*
X649726Y691532D01*
X649732Y691516D01*
X649739Y691494D01*
X649745Y691464D01*
X649752Y691429D01*
X649758Y691390D01*
X649764Y691348D01*
X649771Y691297D01*
X649774Y691245D01*
X649777Y691187D01*
Y691123D01*
Y691058D01*
X649774Y690987D01*
X649764Y690916D01*
X649755Y690839D01*
X649058D01*
Y690842D01*
Y690848D01*
Y690858D01*
X649061Y690874D01*
Y690890D01*
Y690910D01*
Y690958D01*
X649055Y691013D01*
X649048Y691071D01*
X649035Y691129D01*
X649016Y691187D01*
Y691190D01*
X649013Y691193D01*
X649003Y691213D01*
X648990Y691239D01*
X648971Y691271D01*
X648945Y691306D01*
X648913Y691345D01*
X648874Y691381D01*
X648829Y691413D01*
X648823Y691416D01*
X648806Y691426D01*
X648781Y691439D01*
X648745Y691455D01*
X648703Y691468D01*
X648652Y691481D01*
X648594Y691490D01*
X648529Y691494D01*
X648493D01*
X648471Y691490D01*
X648439Y691487D01*
X648403Y691481D01*
X648361Y691474D01*
X648319Y691464D01*
X648271Y691452D01*
X648219Y691435D01*
X648168Y691416D01*
X648113Y691394D01*
X648058Y691368D01*
X648003Y691336D01*
X647948Y691300D01*
X647894Y691258D01*
X647890Y691255D01*
X647881Y691248D01*
X647868Y691236D01*
X647848Y691216D01*
X647823Y691193D01*
X647797Y691164D01*
X647768Y691129D01*
X647736Y691090D01*
X647700Y691048D01*
X647664Y691000D01*
X647629Y690948D01*
X647597Y690893D01*
X647561Y690832D01*
X647529Y690764D01*
X647500Y690697D01*
X647471Y690623D01*
X647087Y689493D01*
Y689490D01*
X647081Y689477D01*
X647074Y689455D01*
X647068Y689429D01*
X647058Y689393D01*
X647052Y689355D01*
X647042Y689313D01*
X647036Y689265D01*
X647026Y689165D01*
X647023Y689110D01*
X647026Y689058D01*
X647032Y689006D01*
X647042Y688955D01*
X647058Y688906D01*
X647077Y688861D01*
Y688858D01*
X647084Y688852D01*
X647090Y688839D01*
X647103Y688826D01*
X647116Y688806D01*
X647135Y688787D01*
X647158Y688768D01*
X647184Y688745D01*
X647216Y688723D01*
X647248Y688703D01*
X647287Y688684D01*
X647332Y688664D01*
X647381Y688652D01*
X647432Y688639D01*
X647490Y688632D01*
X647555Y688629D01*
X647581D01*
X647600Y688632D01*
X647626Y688635D01*
X647652Y688639D01*
X647684Y688642D01*
X647719Y688652D01*
X647800Y688671D01*
X647890Y688700D01*
X647935Y688719D01*
X647984Y688742D01*
X648036Y688768D01*
X648084Y688797D01*
X648087Y688800D01*
X648097Y688803D01*
X648110Y688813D01*
X648129Y688829D01*
X648152Y688845D01*
X648177Y688868D01*
X648206Y688890D01*
X648239Y688919D01*
X648274Y688952D01*
X648310Y688990D01*
X648345Y689029D01*
X648384Y689071D01*
X648423Y689119D01*
X648458Y689168D01*
X648493Y689223D01*
X648529Y689281D01*
X649226D01*
X649223Y689277D01*
X649216Y689261D01*
X649203Y689242D01*
X649187Y689213D01*
X649168Y689177D01*
X649142Y689136D01*
X649113Y689090D01*
X649081Y689039D01*
X649045Y688984D01*
X649006Y688929D01*
X648919Y688810D01*
X648819Y688690D01*
X648710Y688574D01*
X648706Y688571D01*
X648697Y688561D01*
X648681Y688545D01*
X648658Y688526D01*
X648629Y688500D01*
X648597Y688471D01*
X648558Y688439D01*
X648516Y688406D01*
X648468Y688371D01*
X648419Y688332D01*
X648364Y688294D01*
X648306Y688255D01*
X648184Y688181D01*
X648055Y688116D01*
X648052Y688113D01*
X648039Y688110D01*
X648019Y688103D01*
X647993Y688090D01*
X647961Y688081D01*
X647923Y688068D01*
X647881Y688052D01*
X647832Y688039D01*
X647781Y688023D01*
X647723Y688010D01*
X647664Y687993D01*
X647600Y687984D01*
X647468Y687964D01*
X647400Y687961D01*
X647329Y687958D01*
X647287D01*
X647255Y687961D01*
X647216Y687964D01*
X647171Y687968D01*
X647123Y687974D01*
X647071Y687981D01*
X646955Y688003D01*
X646897Y688019D01*
X646835Y688036D01*
X646774Y688058D01*
X646716Y688081D01*
X646661Y688110D01*
X646610Y688142D01*
X646606Y688145D01*
X646597Y688152D01*
X646584Y688161D01*
X646568Y688177D01*
X646545Y688197D01*
X646523Y688219D01*
X646497Y688245D01*
X646471Y688277D01*
X646442Y688313D01*
X646413Y688352D01*
X646387Y688397D01*
X646361Y688442D01*
X646336Y688493D01*
X646316Y688548D01*
X646297Y688610D01*
X646284Y688671D01*
Y688674D01*
X646281Y688687D01*
Y688706D01*
X646277Y688732D01*
X646274Y688768D01*
Y688806D01*
Y688852D01*
Y688903D01*
X646277Y688961D01*
X646284Y689026D01*
X646290Y689093D01*
X646303Y689165D01*
X646319Y689242D01*
X646336Y689323D01*
X646358Y689406D01*
X646387Y689493D01*
X646771Y690623D01*
X646774Y690629D01*
X646777Y690645D01*
X646787Y690668D01*
X646800Y690703D01*
X646819Y690745D01*
X646839Y690794D01*
X646861Y690848D01*
X646890Y690906D01*
X646919Y690968D01*
X646955Y691036D01*
X646993Y691103D01*
X647032Y691171D01*
X647077Y691242D01*
X647126Y691313D01*
X647174Y691381D01*
X647229Y691445D01*
X647232Y691448D01*
X647242Y691461D01*
X647258Y691477D01*
X647281Y691503D01*
X647310Y691532D01*
X647342Y691564D01*
X647381Y691600D01*
X647426Y691642D01*
X647474Y691684D01*
X647526Y691726D01*
X647581Y691771D01*
X647642Y691816D01*
X647706Y691858D01*
X647771Y691900D01*
X647842Y691942D01*
X647913Y691977D01*
X647916Y691981D01*
X647932Y691987D01*
X647952Y691993D01*
X647981Y692006D01*
X648019Y692019D01*
X648061Y692036D01*
X648110Y692055D01*
X648168Y692071D01*
X648226Y692087D01*
X648294Y692106D01*
X648361Y692123D01*
X648436Y692135D01*
X648513Y692148D01*
X648594Y692158D01*
X648674Y692161D01*
X648758Y692165D01*
X648793D01*
X648819Y692161D01*
D02*
G37*
G36*
X641590Y688000D02*
X640861D01*
X640855Y688781D01*
X641164D01*
X641384Y689429D01*
X640851D01*
X640855Y688781D01*
X639268D01*
X638732Y688000D01*
X638000D01*
X640948Y692119D01*
X641442D01*
X641590Y688000D01*
D02*
G37*
%LPC*%
G36*
X640839Y691068D02*
X639714Y689429D01*
X640851D01*
X640839Y691068D01*
D02*
G37*
G36*
X639714Y689429D02*
X639216D01*
X638993Y688781D01*
X639268D01*
X639714Y689429D01*
D02*
G37*
%LPD*%
D37*
X1144000Y487500D02*
G03*
X1149000Y482500I5000J0D01*
G01*
X1149000Y503500D02*
G03*
X1144000Y498500I0J-5000D01*
G01*
X1186000Y498500D02*
G03*
X1181000Y503500I-5000J0D01*
G01*
X1181000Y482500D02*
G03*
X1186000Y487500I0J5000D01*
G01*
X1185700Y349200D02*
G03*
X1185700Y349200I-1000J0D01*
G01*
X1143500Y401000D02*
G03*
X1148500Y406000I0J5000D01*
G01*
X1127500Y406000D02*
G03*
X1132500Y401000I5000J0D01*
G01*
X1132500Y443000D02*
G03*
X1127500Y438000I0J-5000D01*
G01*
X1148500Y438000D02*
G03*
X1143500Y443000I-5000J0D01*
G01*
X1082000Y413500D02*
G03*
X1087000Y408500I5000J0D01*
G01*
X1087000Y429500D02*
G03*
X1082000Y424500I0J-5000D01*
G01*
X1124000Y424500D02*
G03*
X1119000Y429500I-5000J0D01*
G01*
X1119000Y408500D02*
G03*
X1124000Y413500I0J5000D01*
G01*
X1083000Y379000D02*
G03*
X1088000Y374000I5000J0D01*
G01*
X1088000Y395000D02*
G03*
X1083000Y390000I0J-5000D01*
G01*
X1125000Y390000D02*
G03*
X1120000Y395000I-5000J0D01*
G01*
X1120000Y374000D02*
G03*
X1125000Y379000I0J5000D01*
G01*
X1141500Y359000D02*
G03*
X1136500Y354000I0J-5000D01*
G01*
X1157500Y354000D02*
G03*
X1152500Y359000I-5000J0D01*
G01*
X1152500Y317000D02*
G03*
X1157500Y322000I0J5000D01*
G01*
X1136500Y322000D02*
G03*
X1141500Y317000I5000J0D01*
G01*
X1118500Y313000D02*
G03*
X1113500Y308000I0J-5000D01*
G01*
X1134500Y308000D02*
G03*
X1129500Y313000I-5000J0D01*
G01*
X1129500Y271000D02*
G03*
X1134500Y276000I0J5000D01*
G01*
X1113500Y276000D02*
G03*
X1118500Y271000I5000J0D01*
G01*
X950000Y538588D02*
G03*
X950000Y538588I-1000J0D01*
G01*
X949000Y404000D02*
G03*
X949000Y404000I-1000J0D01*
G01*
X902500Y307544D02*
G03*
X907500Y312544I0J5000D01*
G01*
X886500Y312544D02*
G03*
X891500Y307544I5000J0D01*
G01*
X891500Y349544D02*
G03*
X886500Y344544I0J-5000D01*
G01*
X907500Y344544D02*
G03*
X902500Y349544I-5000J0D01*
G01*
X926500Y440000D02*
G03*
X931500Y445000I0J5000D01*
G01*
X910500Y445000D02*
G03*
X915500Y440000I5000J0D01*
G01*
X915500Y482000D02*
G03*
X910500Y477000I0J-5000D01*
G01*
X931500Y477000D02*
G03*
X926500Y482000I-5000J0D01*
G01*
X494500Y474544D02*
G03*
X499500Y469544I5000J0D01*
G01*
X510500Y469544D02*
G03*
X515500Y474544I0J5000D01*
G01*
X515500Y506544D02*
G03*
X510500Y511544I-5000J0D01*
G01*
X499500Y511544D02*
G03*
X494500Y506544I0J-5000D01*
G01*
X611500Y506544D02*
G03*
X606500Y511544I-5000J0D01*
G01*
X595500Y511544D02*
G03*
X590500Y506544I0J-5000D01*
G01*
X590500Y474544D02*
G03*
X595500Y469544I5000J0D01*
G01*
X606500Y469544D02*
G03*
X611500Y474544I0J5000D01*
G01*
X480950Y375094D02*
G03*
X480950Y375094I-1000J0D01*
G01*
X357500Y319544D02*
G03*
X362500Y314544I5000J0D01*
G01*
X373500Y314544D02*
G03*
X378500Y319544I0J5000D01*
G01*
X378500Y351544D02*
G03*
X373500Y356544I-5000J0D01*
G01*
X362500Y356544D02*
G03*
X357500Y351544I0J-5000D01*
G01*
X459150Y358544D02*
G03*
X459150Y358544I-1000J0D01*
G01*
X496500Y354544D02*
G03*
X491500Y359544I-5000J0D01*
G01*
X480500Y359544D02*
G03*
X475500Y354544I0J-5000D01*
G01*
X475500Y322544D02*
G03*
X480500Y317544I5000J0D01*
G01*
X491500Y317544D02*
G03*
X496500Y322544I0J5000D01*
G01*
X536500Y323544D02*
G03*
X541500Y318544I5000J0D01*
G01*
X552500Y318544D02*
G03*
X557500Y323544I0J5000D01*
G01*
X557500Y355544D02*
G03*
X552500Y360544I-5000J0D01*
G01*
X541500Y360544D02*
G03*
X536500Y355544I0J-5000D01*
G01*
X663050Y1044450D02*
G03*
X663050Y1044450I-1000J0D01*
G01*
X633000Y943500D02*
G03*
X628000Y948500I-5000J0D01*
G01*
X628000Y927500D02*
G03*
X633000Y932500I0J5000D01*
G01*
X591000Y932500D02*
G03*
X596000Y927500I5000J0D01*
G01*
X596000Y948500D02*
G03*
X591000Y943500I0J-5000D01*
G01*
X657000Y931500D02*
G03*
X662000Y926500I5000J0D01*
G01*
X662000Y947500D02*
G03*
X657000Y942500I0J-5000D01*
G01*
X699000Y942500D02*
G03*
X694000Y947500I-5000J0D01*
G01*
X694000Y926500D02*
G03*
X699000Y931500I0J5000D01*
G01*
X634000Y767700D02*
G03*
X629000Y772700I-5000J0D01*
G01*
X629000Y751700D02*
G03*
X634000Y756700I0J5000D01*
G01*
X592000Y756700D02*
G03*
X597000Y751700I5000J0D01*
G01*
X597000Y772700D02*
G03*
X592000Y767700I0J-5000D01*
G01*
X543000Y665500D02*
G03*
X538000Y660500I0J-5000D01*
G01*
X538000Y649500D02*
G03*
X543000Y644500I5000J0D01*
G01*
X575000Y644500D02*
G03*
X580000Y649500I0J5000D01*
G01*
X580000Y660500D02*
G03*
X575000Y665500I-5000J0D01*
G01*
X571000Y725500D02*
G03*
X576000Y730500I0J5000D01*
G01*
X576000Y741500D02*
G03*
X571000Y746500I-5000J0D01*
G01*
X539000Y746500D02*
G03*
X534000Y741500I0J-5000D01*
G01*
X534000Y730500D02*
G03*
X539000Y725500I5000J0D01*
G01*
X554050Y674550D02*
G03*
X549050Y669550I0J-5000D01*
G01*
X559050D02*
G03*
X554050Y674550I-5000J0D01*
G01*
X576457Y663800D02*
G03*
X576457Y663800I-2828J0D01*
G01*
X455000Y682150D02*
G03*
X455000Y682150I-1000J0D01*
G01*
X423000Y916450D02*
G03*
X423000Y916450I-1000J0D01*
G01*
X392850Y653000D02*
G03*
X392850Y653000I-1000J0D01*
G01*
X315000Y930500D02*
G03*
X310000Y925500I0J-5000D01*
G01*
X310000Y914500D02*
G03*
X315000Y909500I5000J0D01*
G01*
X347000Y909500D02*
G03*
X352000Y914500I0J5000D01*
G01*
X352000Y925500D02*
G03*
X347000Y930500I-5000J0D01*
G01*
X621457Y833800D02*
G03*
X621457Y833800I-2828J0D01*
G01*
X604050Y839550D02*
G03*
X599050Y844550I-5000J0D01*
G01*
D02*
G03*
X594050Y839550I0J-5000D01*
G01*
X315000Y795500D02*
G03*
X310000Y790500I0J-5000D01*
G01*
X310000Y779500D02*
G03*
X315000Y774500I5000J0D01*
G01*
X347000Y774500D02*
G03*
X352000Y779500I0J5000D01*
G01*
X352000Y790500D02*
G03*
X347000Y795500I-5000J0D01*
G01*
X412000Y770500D02*
G03*
X417000Y775500I0J5000D01*
G01*
X417000Y786500D02*
G03*
X412000Y791500I-5000J0D01*
G01*
X380000Y791500D02*
G03*
X375000Y786500I0J-5000D01*
G01*
X375000Y775500D02*
G03*
X380000Y770500I5000J0D01*
G01*
X411460Y795500D02*
G03*
X416460Y800500I0J5000D01*
G01*
X416460Y811500D02*
G03*
X411460Y816500I-5000J0D01*
G01*
X379460Y816500D02*
G03*
X374460Y811500I0J-5000D01*
G01*
X374460Y800500D02*
G03*
X379460Y795500I5000J0D01*
G01*
X745000Y645850D02*
G03*
X745000Y645850I-1000J0D01*
G01*
X706050Y645620D02*
G03*
X701050Y650620I-5000J0D01*
G01*
D02*
G03*
X696050Y645620I0J-5000D01*
G01*
X544400Y931700D02*
G03*
X544400Y931700I-1000J0D01*
G01*
X898500Y533000D02*
G03*
X893500Y528000I0J-5000D01*
G01*
X914500Y528000D02*
G03*
X909500Y533000I-5000J0D01*
G01*
X909500Y491000D02*
G03*
X914500Y496000I0J5000D01*
G01*
X893500Y496000D02*
G03*
X898500Y491000I5000J0D01*
G01*
X897500Y399000D02*
G03*
X892500Y394000I0J-5000D01*
G01*
X913500Y394000D02*
G03*
X908500Y399000I-5000J0D01*
G01*
X908500Y357000D02*
G03*
X913500Y362000I0J5000D01*
G01*
X892500Y362000D02*
G03*
X897500Y357000I5000J0D01*
G01*
X1055000Y469300D02*
G03*
X1055000Y469300I-1000J0D01*
G01*
X1069000Y316500D02*
Y337500D01*
X1109000D01*
X1069000Y316500D02*
X1109000D01*
Y337500D01*
X1083500Y492000D02*
X1104500D01*
X1083500D02*
Y532000D01*
X1104500Y492000D02*
Y532000D01*
X1083500D02*
X1104500D01*
X1059500Y492000D02*
X1080500D01*
X1059500D02*
Y532000D01*
X1080500Y492000D02*
Y532000D01*
X1059500D02*
X1080500D01*
X1035500Y492000D02*
X1056500D01*
X1035500D02*
Y532000D01*
X1056500Y492000D02*
Y532000D01*
X1035500D02*
X1056500D01*
X1011500Y492000D02*
X1032500D01*
X1011500D02*
Y532000D01*
X1032500Y492000D02*
Y532000D01*
X1011500D02*
X1032500D01*
X1186000Y487500D02*
Y498500D01*
X1144000Y487500D02*
Y498500D01*
X1149000Y482500D02*
X1181000Y482500D01*
X1149000Y503500D02*
X1181000Y503500D01*
X1145000Y458500D02*
Y479500D01*
X1185000D01*
X1145000Y458500D02*
X1185000D01*
Y479500D01*
X1215600Y431700D02*
X1227700D01*
X1215600Y342300D02*
X1227700D01*
X1254900Y431700D02*
X1269800D01*
Y342300D02*
Y431700D01*
X1254900Y342300D02*
X1269800D01*
X1132500Y443000D02*
X1143500D01*
X1132500Y401000D02*
X1143500D01*
X1148500Y406000D02*
X1148500Y438000D01*
X1127500Y406000D02*
X1127500Y438000D01*
X1124000Y413500D02*
Y424500D01*
X1082000Y413500D02*
Y424500D01*
X1087000Y408500D02*
X1119000Y408500D01*
X1087000Y429500D02*
X1119000Y429500D01*
X1125000Y379000D02*
Y390000D01*
X1083000Y379000D02*
Y390000D01*
X1088000Y374000D02*
X1120000Y374000D01*
X1088000Y395000D02*
X1120000Y395000D01*
X1112500Y318000D02*
X1133500D01*
X1112500D02*
Y358000D01*
X1133500Y318000D02*
Y358000D01*
X1112500D02*
X1133500D01*
X1141500Y317000D02*
X1152500D01*
X1141500Y359000D02*
X1152500D01*
X1136500Y322000D02*
X1136500Y354000D01*
X1157500Y322000D02*
X1157500Y354000D01*
X1118500Y271000D02*
X1129500D01*
X1118500Y313000D02*
X1129500D01*
X1113500Y276000D02*
X1113500Y308000D01*
X1134500Y276000D02*
X1134500Y308000D01*
X995500Y412000D02*
X1016500D01*
Y372000D02*
Y412000D01*
X995500Y372000D02*
Y412000D01*
Y372000D02*
X1016500D01*
X849350Y552150D02*
Y577500D01*
X852850Y552150D02*
Y577500D01*
X849350Y552150D02*
X849400Y552100D01*
X852900D01*
X878300D02*
Y577500D01*
X849350D02*
X1106600D01*
X852900Y552100D02*
X1106600D01*
X1107096Y552099D02*
Y577499D01*
X853700Y472200D02*
Y534430D01*
Y462040D02*
Y472200D01*
X763530Y462040D02*
X853700D01*
X763530D02*
Y534430D01*
X853700D01*
X853700Y339300D02*
Y401530D01*
Y329140D02*
Y339300D01*
X763530Y329140D02*
X853700D01*
X763530D02*
Y401530D01*
X853700D01*
X849350Y272750D02*
Y298100D01*
X852850Y272750D02*
Y298100D01*
X849350Y272750D02*
X849400Y272700D01*
X852900D01*
X878300D02*
Y298100D01*
X849350D02*
X1106600D01*
X852900Y272700D02*
X1106600D01*
X1107096Y272699D02*
Y298099D01*
X910500Y348544D02*
X931500D01*
Y308544D02*
Y348544D01*
X910500Y308544D02*
Y348544D01*
Y308544D02*
X931500D01*
X891500Y349544D02*
X902500D01*
X891500Y307544D02*
X902500D01*
X907500Y312544D02*
X907500Y344544D01*
X886500Y312544D02*
X886500Y344544D01*
X861500Y308544D02*
X882500D01*
X861500D02*
Y348544D01*
X882500Y308544D02*
Y348544D01*
X861500D02*
X882500D01*
X915500Y482000D02*
X926500D01*
X915500Y440000D02*
X926500D01*
X931500Y445000D02*
X931500Y477000D01*
X910500Y445000D02*
X910500Y477000D01*
X886500Y481000D02*
X907500D01*
Y441000D02*
Y481000D01*
X886500Y441000D02*
Y481000D01*
Y441000D02*
X907500D01*
X861500D02*
X882500D01*
X861500D02*
Y481000D01*
X882500Y441000D02*
Y481000D01*
X861500D02*
X882500D01*
X575001Y375540D02*
X646001D01*
X562001Y388540D02*
X575001Y375540D01*
Y459540D02*
X646001D01*
X562001Y446540D02*
X575001Y459540D01*
X646001Y375540D02*
Y400040D01*
Y435040D02*
Y459540D01*
X562001Y388540D02*
Y400040D01*
Y435040D02*
Y446540D01*
X470500Y511544D02*
X491500D01*
Y471544D02*
Y511544D01*
X470500Y471544D02*
Y511544D01*
Y471544D02*
X491500D01*
X515500Y474544D02*
X515500Y506544D01*
X494500Y474544D02*
X494500Y506544D01*
X499500Y511544D02*
X510500D01*
X499500Y469544D02*
X510500D01*
X518500Y511544D02*
X539500D01*
Y471544D02*
Y511544D01*
X518500Y471544D02*
Y511544D01*
Y471544D02*
X539500D01*
X542500D02*
X563500D01*
X542500D02*
Y511544D01*
X563500Y471544D02*
Y511544D01*
X542500D02*
X563500D01*
X566500Y471544D02*
X587500D01*
X566500D02*
Y511544D01*
X587500Y471544D02*
Y511544D01*
X566500D02*
X587500D01*
X590500Y474544D02*
X590500Y506544D01*
X611500Y474544D02*
X611500Y506544D01*
X595500Y469544D02*
X606500D01*
X595500Y511544D02*
X606500D01*
X266000Y283544D02*
Y354544D01*
X279000Y367544D01*
X350000Y283544D02*
Y354544D01*
X337000Y367544D02*
X350000Y354544D01*
X266000Y283544D02*
X290500D01*
X325500D02*
X350000D01*
X279000Y367544D02*
X290500D01*
X325500D02*
X337000D01*
X378500Y319544D02*
X378500Y351544D01*
X357500Y319544D02*
X357500Y351544D01*
X362500Y356544D02*
X373500D01*
X362500Y314544D02*
X373500D01*
X475500Y322544D02*
X475500Y354544D01*
X496500Y322544D02*
X496500Y354544D01*
X480500Y317544D02*
X491500D01*
X480500Y359544D02*
X491500D01*
X506500D02*
X527500D01*
Y319544D02*
Y359544D01*
X506500Y319544D02*
Y359544D01*
Y319544D02*
X527500D01*
X557500Y323544D02*
X557500Y355544D01*
X536500Y323544D02*
X536500Y355544D01*
X541500Y360544D02*
X552500D01*
X541500Y318544D02*
X552500D01*
X561633Y319568D02*
Y357568D01*
X569633Y365568D01*
X607633Y319568D02*
Y357568D01*
X599633Y365568D02*
X607633Y357568D01*
X561633Y319568D02*
X576633D01*
X592633D02*
X607633D01*
X569633Y365568D02*
X576633D01*
X592633D02*
X599633D01*
X767500Y1001000D02*
X788500D01*
Y961000D02*
Y1001000D01*
X767500Y961000D02*
Y1001000D01*
Y961000D02*
X788500D01*
X781500Y824000D02*
X802500D01*
X781500D02*
Y864000D01*
X802500Y824000D02*
Y864000D01*
X781500D02*
X802500D01*
X760000Y989500D02*
Y1010500D01*
X720000Y989500D02*
X760000D01*
X720000Y1010500D02*
X760000D01*
X720000Y989500D02*
Y1010500D01*
X591000Y932500D02*
Y943500D01*
X633000Y932500D02*
Y943500D01*
X596000Y948500D02*
X628000Y948500D01*
X596000Y927500D02*
X628000Y927500D01*
X699000Y931500D02*
Y942500D01*
X657000Y931500D02*
Y942500D01*
X662000Y926500D02*
X694000Y926500D01*
X662000Y947500D02*
X694000Y947500D01*
X650500Y872000D02*
X671500D01*
X650500D02*
Y912000D01*
X671500Y872000D02*
Y912000D01*
X650500D02*
X671500D01*
X676500Y872000D02*
X697500D01*
X676500D02*
Y912000D01*
X697500Y872000D02*
Y912000D01*
X676500D02*
X697500D01*
X676500Y865000D02*
X697500D01*
Y825000D02*
Y865000D01*
X676500Y825000D02*
Y865000D01*
Y825000D02*
X697500D01*
X651500D02*
X672500D01*
X651500D02*
Y865000D01*
X672500Y825000D02*
Y865000D01*
X651500D02*
X672500D01*
X592000Y756700D02*
Y767700D01*
X634000Y756700D02*
Y767700D01*
X597000Y772700D02*
X629000Y772700D01*
X597000Y751700D02*
X629000Y751700D01*
X543000Y644500D02*
X575000Y644500D01*
X543000Y665500D02*
X575000Y665500D01*
X580000Y649500D02*
Y660500D01*
X538000Y649500D02*
Y660500D01*
X539000Y746500D02*
X571000Y746500D01*
X539000Y725500D02*
X571000Y725500D01*
X534000Y730500D02*
Y741500D01*
X576000Y730500D02*
Y741500D01*
X538800Y669550D02*
X549050D01*
X538800D02*
Y720050D01*
X559050Y669550D02*
X569050D01*
Y720050D01*
X538800D02*
X569050D01*
X451000Y626500D02*
Y647500D01*
X491000D01*
X451000Y626500D02*
X491000D01*
Y647500D01*
X338000Y654500D02*
Y675500D01*
X378000D01*
X338000Y654500D02*
X378000D01*
Y675500D01*
X446460Y930500D02*
Y951500D01*
X406460Y930500D02*
X446460D01*
X406460Y951500D02*
X446460D01*
X406460Y930500D02*
Y951500D01*
X446000Y954500D02*
Y975500D01*
X406000Y954500D02*
X446000D01*
X406000Y975500D02*
X446000D01*
X406000Y954500D02*
Y975500D01*
X358500Y720000D02*
X379500D01*
Y680000D02*
Y720000D01*
X358500Y680000D02*
Y720000D01*
Y680000D02*
X379500D01*
X424500Y693000D02*
X445500D01*
Y653000D02*
Y693000D01*
X424500Y653000D02*
Y693000D01*
Y653000D02*
X445500D01*
X423960Y772000D02*
X444960D01*
X423960D02*
Y812000D01*
X444960Y772000D02*
Y812000D01*
X423960D02*
X444960D01*
X315000Y909500D02*
X347000Y909500D01*
X315000Y930500D02*
X347000Y930500D01*
X352000Y914500D02*
Y925500D01*
X310000Y914500D02*
Y925500D01*
X583800Y890050D02*
X614050D01*
Y839550D02*
Y890050D01*
X604050Y839550D02*
X614050D01*
X583800D02*
Y890050D01*
Y839550D02*
X594050D01*
X1186300Y601405D02*
Y713700D01*
Y723860D01*
X1276470D01*
Y601405D02*
Y723860D01*
X1186300Y601405D02*
X1276470D01*
X1186300Y756520D02*
Y818750D01*
Y828910D01*
X1276470D01*
Y756520D02*
Y828910D01*
X1186300Y756520D02*
X1276470D01*
X1047350Y864250D02*
X1072700D01*
X1047350Y860750D02*
X1072700D01*
X1047300Y864200D02*
X1047350Y864250D01*
X1047300Y860700D02*
Y864200D01*
Y835300D02*
X1072700D01*
Y607000D02*
Y864250D01*
X1047300Y607000D02*
Y860700D01*
X1047299Y606504D02*
X1072699D01*
X403460Y930500D02*
Y951500D01*
X363460Y930500D02*
X403460D01*
X363460Y951500D02*
X403460D01*
X363460Y930500D02*
Y951500D01*
X315000Y774500D02*
X347000Y774500D01*
X315000Y795500D02*
X347000Y795500D01*
X352000Y779500D02*
Y790500D01*
X310000Y779500D02*
Y790500D01*
X351000Y805500D02*
Y826500D01*
X311000Y805500D02*
X351000D01*
X311000Y826500D02*
X351000D01*
X311000Y805500D02*
Y826500D01*
X351810Y833560D02*
Y854560D01*
X311810Y833560D02*
X351810D01*
X311810Y854560D02*
X351810D01*
X311810Y833560D02*
Y854560D01*
X380000Y791500D02*
X412000Y791500D01*
X380000Y770500D02*
X412000Y770500D01*
X375000Y775500D02*
Y786500D01*
X417000Y775500D02*
Y786500D01*
X379460Y816500D02*
X411460Y816500D01*
X379460Y795500D02*
X411460Y795500D01*
X374460Y800500D02*
Y811500D01*
X416460Y800500D02*
Y811500D01*
X368470Y642700D02*
X430700D01*
X440860D01*
Y552530D02*
Y642700D01*
X368470Y552530D02*
X440860D01*
X368470D02*
Y642700D01*
X822350Y864250D02*
X847700D01*
X822350Y860750D02*
X847700D01*
X822300Y864200D02*
X822350Y864250D01*
X822300Y860700D02*
Y864200D01*
Y835300D02*
X847700D01*
Y607000D02*
Y864250D01*
X822300Y607000D02*
Y860700D01*
X822299Y606504D02*
X847699D01*
X621000Y899500D02*
Y920500D01*
X581000Y899500D02*
X621000D01*
X581000Y920500D02*
X621000D01*
X581000Y899500D02*
Y920500D01*
X403000Y954460D02*
Y975460D01*
X363000Y954460D02*
X403000D01*
X363000Y975460D02*
X403000D01*
X363000Y954460D02*
Y975460D01*
X1022000Y373500D02*
Y394500D01*
X1062000D01*
X1022000Y373500D02*
X1062000D01*
Y394500D01*
X898500Y491000D02*
X909500D01*
X898500Y533000D02*
X909500D01*
X893500Y496000D02*
X893500Y528000D01*
X914500Y496000D02*
X914500Y528000D01*
X897500Y357000D02*
X908500D01*
X897500Y399000D02*
X908500D01*
X892500Y362000D02*
X892500Y394000D01*
X913500Y362000D02*
X913500Y394000D01*
X878000Y545000D02*
Y547666D01*
Y546333D01*
X870003D01*
X871336Y545000D01*
X861320Y473470D02*
X858654D01*
X859987D01*
Y465473D01*
X861320Y466805D01*
X860000Y362000D02*
X857334D01*
X858667D01*
Y354003D01*
X860000Y355336D01*
X852900Y304450D02*
Y307116D01*
Y305783D01*
X844903D01*
X846236Y304450D01*
X1178680Y712430D02*
X1181346D01*
X1180013D01*
Y720427D01*
X1178680Y719094D01*
Y817480D02*
X1181346D01*
X1180013D01*
Y825477D01*
X1178680Y824145D01*
X1079050Y860700D02*
X1081716D01*
X1080383D01*
Y868697D01*
X1079050Y867365D01*
X429430Y650320D02*
Y647654D01*
Y648987D01*
X437427D01*
X436095Y650320D01*
X854050Y860700D02*
X856716D01*
X855383D01*
Y868697D01*
X854050Y867365D01*
D38*
X1226000Y1002200D02*
G03*
X1226000Y1002200I-2000J0D01*
G01*
X297000Y1167800D02*
G03*
X297000Y1167800I-2000J0D01*
G01*
D39*
X1056000Y947810D02*
G03*
X1056000Y947810I-1000J0D01*
G01*
X374810Y520191D02*
G03*
X374810Y520191I-1500J0D01*
G01*
D41*
X1158750Y532500D02*
G03*
X1158750Y532500I-20000J0D01*
G01*
X1189500Y292500D02*
G03*
X1189500Y292500I-20000J0D01*
G01*
X855000Y428750D02*
G03*
X855000Y428750I-20000J0D01*
G01*
X327000Y555000D02*
G03*
X327000Y555000I-32000J0D01*
G01*
X662000D02*
G03*
X662000Y555000I-32000J0D01*
G01*
X1147000Y633000D02*
G03*
X1147000Y633000I-32000J0D01*
G01*
X338000Y1210000D02*
G03*
X338000Y1210000I-32000J0D01*
G01*
X1238000D02*
G03*
X1238000Y1210000I-32000J0D01*
G01*
X327000Y637000D02*
G03*
X327000Y637000I-32000J0D01*
G01*
X1116500Y575735D02*
Y560500D01*
Y568117D01*
X1126657D01*
Y575735D01*
Y560500D01*
X1131735Y563039D02*
X1134274Y560500D01*
X1139353D01*
X1141892Y563039D01*
Y573196D01*
X1139353Y575735D01*
X1134274D01*
X1131735Y573196D01*
Y570657D01*
X1134274Y568117D01*
X1141892D01*
X1161515Y319000D02*
X1176750D01*
X1169133D01*
Y329157D01*
X1161515D01*
X1176750D01*
X1164054Y334235D02*
X1161515Y336774D01*
Y341853D01*
X1164054Y344392D01*
X1166593D01*
X1169133Y341853D01*
X1171672Y344392D01*
X1174211D01*
X1176750Y341853D01*
Y336774D01*
X1174211Y334235D01*
X1171672D01*
X1169133Y336774D01*
X1166593Y334235D01*
X1164054D01*
X1169133Y336774D02*
Y341853D01*
X804393Y484752D02*
Y469517D01*
Y477135D01*
X814550D01*
Y484752D01*
Y469517D01*
X819628Y484752D02*
X829785D01*
Y482213D01*
X819628Y472056D01*
Y469517D01*
X332000Y591235D02*
Y576000D01*
Y583618D01*
X342157D01*
Y591235D01*
Y576000D01*
X357392Y591235D02*
X352313Y588696D01*
X347235Y583618D01*
Y578539D01*
X349774Y576000D01*
X354853D01*
X357392Y578539D01*
Y581078D01*
X354853Y583618D01*
X347235D01*
X564000Y584235D02*
Y569000D01*
Y576618D01*
X574157D01*
Y584235D01*
Y569000D01*
X589392Y584235D02*
X579235D01*
Y576618D01*
X584313Y579157D01*
X586853D01*
X589392Y576618D01*
Y571539D01*
X586853Y569000D01*
X581774D01*
X579235Y571539D01*
X551000Y912000D02*
Y918998D01*
X554499D01*
X555665Y917831D01*
Y915499D01*
X554499Y914333D01*
X551000D01*
X553333D02*
X555665Y912000D01*
X557998Y917831D02*
X559164Y918998D01*
X561497D01*
X562663Y917831D01*
Y916665D01*
X561497Y915499D01*
X560330D01*
X561497D01*
X562663Y914333D01*
Y913166D01*
X561497Y912000D01*
X559164D01*
X557998Y913166D01*
X564995Y917831D02*
X566162Y918998D01*
X568494D01*
X569661Y917831D01*
Y916665D01*
X568494Y915499D01*
X569661Y914333D01*
Y913166D01*
X568494Y912000D01*
X566162D01*
X564995Y913166D01*
Y914333D01*
X566162Y915499D01*
X564995Y916665D01*
Y917831D01*
X566162Y915499D02*
X568494D01*
X857250Y1117087D02*
Y1101852D01*
X864867D01*
X867407Y1104391D01*
Y1114548D01*
X864867Y1117087D01*
X857250D01*
X880103Y1101852D02*
X875024D01*
X872485Y1104391D01*
Y1109470D01*
X875024Y1112009D01*
X880103D01*
X882642Y1109470D01*
Y1106930D01*
X872485D01*
X887720Y1101852D02*
X895338D01*
X897877Y1104391D01*
X895338Y1106930D01*
X890259D01*
X887720Y1109470D01*
X890259Y1112009D01*
X897877D01*
X902955Y1101852D02*
X908034D01*
X905494D01*
Y1112009D01*
X902955D01*
X920730Y1096774D02*
X923269D01*
X925808Y1099313D01*
Y1112009D01*
X918190D01*
X915651Y1109470D01*
Y1104391D01*
X918190Y1101852D01*
X925808D01*
X930886D02*
Y1112009D01*
X938504D01*
X941043Y1109470D01*
Y1101852D01*
X948660Y1112009D02*
X953739D01*
X956278Y1109470D01*
Y1101852D01*
X948660D01*
X946121Y1104391D01*
X948660Y1106930D01*
X956278D01*
X963895Y1114548D02*
Y1112009D01*
X961356D01*
X966435D01*
X963895D01*
Y1104391D01*
X966435Y1101852D01*
X976591D02*
X981670D01*
X984209Y1104391D01*
Y1109470D01*
X981670Y1112009D01*
X976591D01*
X974052Y1109470D01*
Y1104391D01*
X976591Y1101852D01*
X989287Y1112009D02*
Y1101852D01*
Y1106930D01*
X991826Y1109470D01*
X994366Y1112009D01*
X996905D01*
X1004522Y1104391D02*
X1007061Y1101852D01*
X1012140D01*
X1014679Y1104391D01*
Y1114548D01*
X1012140Y1117087D01*
X1007061D01*
X1004522Y1114548D01*
Y1112009D01*
X1007061Y1109470D01*
X1014679D01*
D49*
X1046750Y308250D02*
Y315248D01*
X1050249D01*
X1051415Y314081D01*
Y311749D01*
X1050249Y310583D01*
X1046750D01*
X1049083D02*
X1051415Y308250D01*
X1053748D02*
X1056080D01*
X1054914D01*
Y315248D01*
X1053748Y314081D01*
X1059579Y315248D02*
X1064244D01*
Y314081D01*
X1059579Y309416D01*
Y308250D01*
X1084000Y542000D02*
Y548998D01*
X1087499D01*
X1088665Y547831D01*
Y545499D01*
X1087499Y544333D01*
X1084000D01*
X1086333D02*
X1088665Y542000D01*
X1095663D02*
X1090998D01*
X1095663Y546665D01*
Y547831D01*
X1094497Y548998D01*
X1092164D01*
X1090998Y547831D01*
X1097996Y548998D02*
X1102661D01*
Y547831D01*
X1097996Y543166D01*
Y542000D01*
X1060000D02*
Y548998D01*
X1063499D01*
X1064665Y547831D01*
Y545499D01*
X1063499Y544333D01*
X1060000D01*
X1062333D02*
X1064665Y542000D01*
X1066998Y547831D02*
X1068164Y548998D01*
X1070497D01*
X1071663Y547831D01*
Y546665D01*
X1070497Y545499D01*
X1069330D01*
X1070497D01*
X1071663Y544333D01*
Y543166D01*
X1070497Y542000D01*
X1068164D01*
X1066998Y543166D01*
X1077494Y542000D02*
Y548998D01*
X1073996Y545499D01*
X1078661D01*
X1036000Y542000D02*
Y548998D01*
X1039499D01*
X1040665Y547831D01*
Y545499D01*
X1039499Y544333D01*
X1036000D01*
X1038333D02*
X1040665Y542000D01*
X1047663D02*
X1042998D01*
X1047663Y546665D01*
Y547831D01*
X1046497Y548998D01*
X1044164D01*
X1042998Y547831D01*
X1049995D02*
X1051162Y548998D01*
X1053494D01*
X1054661Y547831D01*
Y543166D01*
X1053494Y542000D01*
X1051162D01*
X1049995Y543166D01*
Y547831D01*
X1012000Y542000D02*
Y548998D01*
X1015499D01*
X1016665Y547831D01*
Y545499D01*
X1015499Y544333D01*
X1012000D01*
X1014333D02*
X1016665Y542000D01*
X1018998D02*
X1021330D01*
X1020164D01*
Y548998D01*
X1018998Y547831D01*
X1024829D02*
X1025995Y548998D01*
X1028328D01*
X1029494Y547831D01*
Y546665D01*
X1028328Y545499D01*
X1029494Y544333D01*
Y543166D01*
X1028328Y542000D01*
X1025995D01*
X1024829Y543166D01*
Y544333D01*
X1025995Y545499D01*
X1024829Y546665D01*
Y547831D01*
X1025995Y545499D02*
X1028328D01*
X1124665Y493831D02*
X1123499Y494998D01*
X1121166D01*
X1120000Y493831D01*
Y489166D01*
X1121166Y488000D01*
X1123499D01*
X1124665Y489166D01*
X1126998D02*
X1128164Y488000D01*
X1130497D01*
X1131663Y489166D01*
Y493831D01*
X1130497Y494998D01*
X1128164D01*
X1126998Y493831D01*
Y492665D01*
X1128164Y491499D01*
X1131663D01*
X1133996Y493831D02*
X1135162Y494998D01*
X1137494D01*
X1138661Y493831D01*
Y489166D01*
X1137494Y488000D01*
X1135162D01*
X1133996Y489166D01*
Y493831D01*
X1122000Y466000D02*
Y472998D01*
X1125499D01*
X1126665Y471831D01*
Y469499D01*
X1125499Y468333D01*
X1122000D01*
X1124333D02*
X1126665Y466000D01*
X1128998Y471831D02*
X1130164Y472998D01*
X1132497D01*
X1133663Y471831D01*
Y470665D01*
X1132497Y469499D01*
X1133663Y468333D01*
Y467166D01*
X1132497Y466000D01*
X1130164D01*
X1128998Y467166D01*
Y468333D01*
X1130164Y469499D01*
X1128998Y470665D01*
Y471831D01*
X1130164Y469499D02*
X1132497D01*
X1135995Y471831D02*
X1137162Y472998D01*
X1139494D01*
X1140661Y471831D01*
Y467166D01*
X1139494Y466000D01*
X1137162D01*
X1135995Y467166D01*
Y471831D01*
X1172665Y440831D02*
X1171499Y441998D01*
X1169166D01*
X1168000Y440831D01*
Y436166D01*
X1169166Y435000D01*
X1171499D01*
X1172665Y436166D01*
X1174998Y435000D02*
Y441998D01*
X1179663Y435000D01*
Y441998D01*
X1181995D02*
X1186661D01*
Y440831D01*
X1181995Y436166D01*
Y435000D01*
X1114665Y452831D02*
X1113499Y453998D01*
X1111166D01*
X1110000Y452831D01*
Y448166D01*
X1111166Y447000D01*
X1113499D01*
X1114665Y448166D01*
X1121663Y447000D02*
X1116998D01*
X1121663Y451665D01*
Y452831D01*
X1120497Y453998D01*
X1118164D01*
X1116998Y452831D01*
X1128661Y447000D02*
X1123996D01*
X1128661Y451665D01*
Y452831D01*
X1127494Y453998D01*
X1125162D01*
X1123996Y452831D01*
X1097665Y438831D02*
X1096499Y439998D01*
X1094166D01*
X1093000Y438831D01*
Y434166D01*
X1094166Y433000D01*
X1096499D01*
X1097665Y434166D01*
X1104663Y433000D02*
X1099998D01*
X1104663Y437665D01*
Y438831D01*
X1103497Y439998D01*
X1101164D01*
X1099998Y438831D01*
X1111661Y439998D02*
X1109328Y438831D01*
X1106995Y436499D01*
Y434166D01*
X1108162Y433000D01*
X1110494D01*
X1111661Y434166D01*
Y435333D01*
X1110494Y436499D01*
X1106995D01*
X1084665Y369831D02*
X1083499Y370998D01*
X1081166D01*
X1080000Y369831D01*
Y365166D01*
X1081166Y364000D01*
X1083499D01*
X1084665Y365166D01*
X1091663Y364000D02*
X1086998D01*
X1091663Y368665D01*
Y369831D01*
X1090497Y370998D01*
X1088164D01*
X1086998Y369831D01*
X1093996D02*
X1095162Y370998D01*
X1097494D01*
X1098661Y369831D01*
Y368665D01*
X1097494Y367499D01*
X1096328D01*
X1097494D01*
X1098661Y366333D01*
Y365166D01*
X1097494Y364000D01*
X1095162D01*
X1093996Y365166D01*
X1113000Y364000D02*
Y370998D01*
X1116499D01*
X1117665Y369831D01*
Y367499D01*
X1116499Y366333D01*
X1113000D01*
X1115333D02*
X1117665Y364000D01*
X1119998D02*
X1122330D01*
X1121164D01*
Y370998D01*
X1119998Y369831D01*
X1130494Y370998D02*
X1125829D01*
Y367499D01*
X1128162Y368665D01*
X1129328D01*
X1130494Y367499D01*
Y365166D01*
X1129328Y364000D01*
X1126995D01*
X1125829Y365166D01*
X1142665Y369831D02*
X1141499Y370998D01*
X1139166D01*
X1138000Y369831D01*
Y365166D01*
X1139166Y364000D01*
X1141499D01*
X1142665Y365166D01*
X1149663Y364000D02*
X1144998D01*
X1149663Y368665D01*
Y369831D01*
X1148497Y370998D01*
X1146164D01*
X1144998Y369831D01*
X1151995D02*
X1153162Y370998D01*
X1155494D01*
X1156661Y369831D01*
Y365166D01*
X1155494Y364000D01*
X1153162D01*
X1151995Y365166D01*
Y369831D01*
X1140169Y286665D02*
X1139002Y285499D01*
Y283166D01*
X1140169Y282000D01*
X1144834D01*
X1146000Y283166D01*
Y285499D01*
X1144834Y286665D01*
X1146000Y293663D02*
Y288998D01*
X1141335Y293663D01*
X1140169D01*
X1139002Y292497D01*
Y290164D01*
X1140169Y288998D01*
X1146000Y295996D02*
Y298328D01*
Y297162D01*
X1139002D01*
X1140169Y295996D01*
X1034000Y326844D02*
Y333842D01*
X1037499D01*
X1038665Y332676D01*
Y330343D01*
X1037499Y329177D01*
X1034000D01*
X1036333D02*
X1038665Y326844D01*
X1040998D02*
X1043330D01*
X1042164D01*
Y333842D01*
X1040998Y332676D01*
X1050328Y326844D02*
Y333842D01*
X1046829Y330343D01*
X1051494D01*
X990000Y383000D02*
X983002D01*
Y386499D01*
X984168Y387665D01*
X986501D01*
X987667Y386499D01*
Y383000D01*
Y385333D02*
X990000Y387665D01*
X984168Y389998D02*
X983002Y391164D01*
Y393497D01*
X984168Y394663D01*
X985335D01*
X986501Y393497D01*
Y392330D01*
Y393497D01*
X987667Y394663D01*
X988834D01*
X990000Y393497D01*
Y391164D01*
X988834Y389998D01*
X983002Y401661D02*
Y396996D01*
X986501D01*
X985335Y399328D01*
Y400494D01*
X986501Y401661D01*
X988834D01*
X990000Y400494D01*
Y398162D01*
X988834Y396996D01*
X839168Y559665D02*
X838002Y558499D01*
Y556166D01*
X839168Y555000D01*
X843834D01*
X845000Y556166D01*
Y558499D01*
X843834Y559665D01*
X845000Y561998D02*
X838002D01*
X845000Y566663D01*
X838002D01*
X843834Y568996D02*
X845000Y570162D01*
Y572494D01*
X843834Y573661D01*
X839168D01*
X838002Y572494D01*
Y570162D01*
X839168Y568996D01*
X840335D01*
X841501Y570162D01*
Y573661D01*
X853000Y548998D02*
Y542000D01*
X856499D01*
X857665Y543166D01*
Y547831D01*
X856499Y548998D01*
X853000D01*
X864663D02*
X859998D01*
Y545499D01*
X862330Y546665D01*
X863497D01*
X864663Y545499D01*
Y543166D01*
X863497Y542000D01*
X861164D01*
X859998Y543166D01*
X831665Y544831D02*
X830499Y545998D01*
X828166D01*
X827000Y544831D01*
Y540166D01*
X828166Y539000D01*
X830499D01*
X831665Y540166D01*
X833998Y539000D02*
Y545998D01*
X838663Y539000D01*
Y545998D01*
X840995Y544831D02*
X842162Y545998D01*
X844494D01*
X845661Y544831D01*
Y543665D01*
X844494Y542499D01*
X845661Y541333D01*
Y540166D01*
X844494Y539000D01*
X842162D01*
X840995Y540166D01*
Y541333D01*
X842162Y542499D01*
X840995Y543665D01*
Y544831D01*
X842162Y542499D02*
X844494D01*
X868665Y425831D02*
X867499Y426998D01*
X865166D01*
X864000Y425831D01*
Y421166D01*
X865166Y420000D01*
X867499D01*
X868665Y421166D01*
X870998Y420000D02*
Y426998D01*
X875663Y420000D01*
Y426998D01*
X882661D02*
X880328Y425831D01*
X877996Y423499D01*
Y421166D01*
X879162Y420000D01*
X881494D01*
X882661Y421166D01*
Y422333D01*
X881494Y423499D01*
X877996D01*
X838168Y275665D02*
X837002Y274499D01*
Y272166D01*
X838168Y271000D01*
X842834D01*
X844000Y272166D01*
Y274499D01*
X842834Y275665D01*
X844000Y277998D02*
X837002D01*
X844000Y282663D01*
X837002D01*
X844000Y284995D02*
Y287328D01*
Y286162D01*
X837002D01*
X838168Y284995D01*
Y290827D02*
X837002Y291993D01*
Y294326D01*
X838168Y295492D01*
X842834D01*
X844000Y294326D01*
Y291993D01*
X842834Y290827D01*
X838168D01*
X940665Y542166D02*
Y546831D01*
X939499Y547998D01*
X937166D01*
X936000Y546831D01*
Y542166D01*
X937166Y541000D01*
X939499D01*
X938333Y543333D02*
X940665Y541000D01*
X939499D02*
X940665Y542166D01*
X942998Y547998D02*
X947663D01*
Y546831D01*
X942998Y542166D01*
Y541000D01*
X943665Y346166D02*
Y350831D01*
X942499Y351998D01*
X940166D01*
X939000Y350831D01*
Y346166D01*
X940166Y345000D01*
X942499D01*
X941333Y347333D02*
X943665Y345000D01*
X942499D02*
X943665Y346166D01*
X950663Y351998D02*
X948330Y350831D01*
X945998Y348499D01*
Y346166D01*
X947164Y345000D01*
X949497D01*
X950663Y346166D01*
Y347333D01*
X949497Y348499D01*
X945998D01*
X862000Y415298D02*
Y408300D01*
X865499D01*
X866665Y409466D01*
Y414132D01*
X865499Y415298D01*
X862000D01*
X872497Y408300D02*
Y415298D01*
X868998Y411799D01*
X873663D01*
X951500Y316000D02*
X944502D01*
Y319499D01*
X945668Y320665D01*
X948001D01*
X949167Y319499D01*
Y316000D01*
Y318333D02*
X951500Y320665D01*
Y322998D02*
Y325330D01*
Y324164D01*
X944502D01*
X945668Y322998D01*
X944502Y333494D02*
X945668Y331162D01*
X948001Y328829D01*
X950334D01*
X951500Y329995D01*
Y332328D01*
X950334Y333494D01*
X949167D01*
X948001Y332328D01*
Y328829D01*
X936169Y320665D02*
X935002Y319499D01*
Y317166D01*
X936169Y316000D01*
X940834D01*
X942000Y317166D01*
Y319499D01*
X940834Y320665D01*
X942000Y322998D02*
Y325330D01*
Y324164D01*
X935002D01*
X936169Y322998D01*
X940834Y328829D02*
X942000Y329995D01*
Y332328D01*
X940834Y333494D01*
X936169D01*
X935002Y332328D01*
Y329995D01*
X936169Y328829D01*
X937335D01*
X938501Y329995D01*
Y333494D01*
X838000Y315000D02*
Y321998D01*
X841499D01*
X842665Y320831D01*
Y318499D01*
X841499Y317333D01*
X838000D01*
X840333D02*
X842665Y315000D01*
X844998D02*
X847330D01*
X846164D01*
Y321998D01*
X844998Y320831D01*
X850829D02*
X851995Y321998D01*
X854328D01*
X855494Y320831D01*
Y319665D01*
X854328Y318499D01*
X853162D01*
X854328D01*
X855494Y317333D01*
Y316166D01*
X854328Y315000D01*
X851995D01*
X850829Y316166D01*
X947169Y448665D02*
X946002Y447499D01*
Y445166D01*
X947169Y444000D01*
X951834D01*
X953000Y445166D01*
Y447499D01*
X951834Y448665D01*
X953000Y455663D02*
Y450998D01*
X948335Y455663D01*
X947169D01*
X946002Y454497D01*
Y452164D01*
X947169Y450998D01*
X946002Y462661D02*
Y457995D01*
X949501D01*
X948335Y460328D01*
Y461494D01*
X949501Y462661D01*
X951834D01*
X953000Y461494D01*
Y459162D01*
X951834Y457995D01*
X943416Y444000D02*
X936418D01*
Y447499D01*
X937585Y448665D01*
X939917D01*
X941083Y447499D01*
Y444000D01*
Y446333D02*
X943416Y448665D01*
Y455663D02*
Y450998D01*
X938751Y455663D01*
X937585D01*
X936418Y454497D01*
Y452164D01*
X937585Y450998D01*
Y457995D02*
X936418Y459162D01*
Y461494D01*
X937585Y462661D01*
X938751D01*
X939917Y461494D01*
Y460328D01*
Y461494D01*
X941083Y462661D01*
X942250D01*
X943416Y461494D01*
Y459162D01*
X942250Y457995D01*
X867000Y431250D02*
Y438248D01*
X870499D01*
X871665Y437081D01*
Y434749D01*
X870499Y433583D01*
X867000D01*
X869333D02*
X871665Y431250D01*
X873998D02*
X876330D01*
X875164D01*
Y438248D01*
X873998Y437081D01*
X879829Y432416D02*
X880995Y431250D01*
X883328D01*
X884494Y432416D01*
Y437081D01*
X883328Y438248D01*
X880995D01*
X879829Y437081D01*
Y435915D01*
X880995Y434749D01*
X884494D01*
X631665Y470831D02*
X630499Y471998D01*
X628166D01*
X627000Y470831D01*
Y466166D01*
X628166Y465000D01*
X630499D01*
X631665Y466166D01*
X633998D02*
X635164Y465000D01*
X637497D01*
X638663Y466166D01*
Y470831D01*
X637497Y471998D01*
X635164D01*
X633998Y470831D01*
Y469665D01*
X635164Y468499D01*
X638663D01*
X481000Y519000D02*
X474002D01*
Y522499D01*
X475168Y523665D01*
X477501D01*
X478667Y522499D01*
Y519000D01*
Y521333D02*
X481000Y523665D01*
Y525998D02*
Y528330D01*
Y527164D01*
X474002D01*
X475168Y525998D01*
X489169Y524665D02*
X488002Y523499D01*
Y521166D01*
X489169Y520000D01*
X493834D01*
X495000Y521166D01*
Y523499D01*
X493834Y524665D01*
X488002Y531663D02*
X489169Y529330D01*
X491501Y526998D01*
X493834D01*
X495000Y528164D01*
Y530497D01*
X493834Y531663D01*
X492667D01*
X491501Y530497D01*
Y526998D01*
X528600Y519000D02*
X521602D01*
Y522499D01*
X522769Y523665D01*
X525101D01*
X526267Y522499D01*
Y519000D01*
Y521333D02*
X528600Y523665D01*
X521602Y530663D02*
Y525998D01*
X525101D01*
X523935Y528330D01*
Y529497D01*
X525101Y530663D01*
X527434D01*
X528600Y529497D01*
Y527164D01*
X527434Y525998D01*
X542000Y519000D02*
X535002D01*
Y522499D01*
X536169Y523665D01*
X538501D01*
X539667Y522499D01*
Y519000D01*
Y521333D02*
X542000Y523665D01*
Y525998D02*
Y528330D01*
Y527164D01*
X535002D01*
X536169Y525998D01*
X542000Y531829D02*
Y534162D01*
Y532995D01*
X535002D01*
X536169Y531829D01*
X595000Y518588D02*
X588002D01*
Y522087D01*
X589169Y523253D01*
X591501D01*
X592667Y522087D01*
Y518588D01*
Y520921D02*
X595000Y523253D01*
Y525586D02*
Y527919D01*
Y526752D01*
X588002D01*
X589169Y525586D01*
X595000Y536082D02*
Y531417D01*
X590335Y536082D01*
X589169D01*
X588002Y534916D01*
Y532584D01*
X589169Y531417D01*
X618568Y488665D02*
X617402Y487499D01*
Y485166D01*
X618568Y484000D01*
X623234D01*
X624400Y485166D01*
Y487499D01*
X623234Y488665D01*
X624400Y490998D02*
Y493330D01*
Y492164D01*
X617402D01*
X618568Y490998D01*
X617402Y496829D02*
Y501494D01*
X618568D01*
X623234Y496829D01*
X624400D01*
X466002Y384500D02*
X471834D01*
X473000Y385666D01*
Y387999D01*
X471834Y389165D01*
X466002D01*
Y396163D02*
Y391498D01*
X469501D01*
X468335Y393830D01*
Y394997D01*
X469501Y396163D01*
X471834D01*
X473000Y394997D01*
Y392664D01*
X471834Y391498D01*
X273665Y383831D02*
X272499Y384998D01*
X270166D01*
X269000Y383831D01*
Y379166D01*
X270166Y378000D01*
X272499D01*
X273665Y379166D01*
X275998Y378000D02*
X278330D01*
X277164D01*
Y384998D01*
X275998Y383831D01*
X281829Y378000D02*
X284162D01*
X282995D01*
Y384998D01*
X281829Y383831D01*
X380168Y299665D02*
X379002Y298499D01*
Y296166D01*
X380168Y295000D01*
X384834D01*
X386000Y296166D01*
Y298499D01*
X384834Y299665D01*
X386000Y301998D02*
Y304330D01*
Y303164D01*
X379002D01*
X380168Y301998D01*
X379002Y312494D02*
X380168Y310162D01*
X382501Y307829D01*
X384834D01*
X386000Y308995D01*
Y311328D01*
X384834Y312494D01*
X383667D01*
X382501Y311328D01*
Y307829D01*
X404002Y300000D02*
X411000D01*
Y303499D01*
X409834Y304665D01*
X405168D01*
X404002Y303499D01*
Y300000D01*
X405168Y306998D02*
X404002Y308164D01*
Y310497D01*
X405168Y311663D01*
X406335D01*
X407501Y310497D01*
Y309330D01*
Y310497D01*
X408667Y311663D01*
X409834D01*
X411000Y310497D01*
Y308164D01*
X409834Y306998D01*
X435294Y306665D02*
X430629D01*
X429462Y305499D01*
Y303166D01*
X430629Y302000D01*
X435294D01*
X436460Y303166D01*
Y305499D01*
X434127Y304333D02*
X436460Y306665D01*
Y305499D02*
X435294Y306665D01*
X429462Y313663D02*
Y308998D01*
X432961D01*
X431795Y311330D01*
Y312497D01*
X432961Y313663D01*
X435294D01*
X436460Y312497D01*
Y310164D01*
X435294Y308998D01*
X478168Y296665D02*
X477002Y295499D01*
Y293166D01*
X478168Y292000D01*
X482834D01*
X484000Y293166D01*
Y295499D01*
X482834Y296665D01*
X477002Y298998D02*
Y303663D01*
X478168D01*
X482834Y298998D01*
X484000D01*
X508000Y289544D02*
X501002D01*
Y293043D01*
X502169Y294209D01*
X504501D01*
X505667Y293043D01*
Y289544D01*
Y291877D02*
X508000Y294209D01*
Y296542D02*
Y298874D01*
Y297708D01*
X501002D01*
X502169Y296542D01*
Y302373D02*
X501002Y303540D01*
Y305872D01*
X502169Y307038D01*
X506834D01*
X508000Y305872D01*
Y303540D01*
X506834Y302373D01*
X502169D01*
X530168Y294209D02*
X529002Y293043D01*
Y290710D01*
X530168Y289544D01*
X534834D01*
X536000Y290710D01*
Y293043D01*
X534834Y294209D01*
X536000Y296542D02*
Y298874D01*
Y297708D01*
X529002D01*
X530168Y296542D01*
Y302373D02*
X529002Y303540D01*
Y305872D01*
X530168Y307038D01*
X534834D01*
X536000Y305872D01*
Y303540D01*
X534834Y302373D01*
X530168D01*
X562169Y299665D02*
X561003Y298499D01*
Y296166D01*
X562169Y295000D01*
X566834D01*
X568001Y296166D01*
Y298499D01*
X566834Y299665D01*
X562169Y301998D02*
X561003Y303164D01*
Y305497D01*
X562169Y306663D01*
X563335D01*
X564502Y305497D01*
X565668Y306663D01*
X566834D01*
X568001Y305497D01*
Y303164D01*
X566834Y301998D01*
X565668D01*
X564502Y303164D01*
X563335Y301998D01*
X562169D01*
X564502Y303164D02*
Y305497D01*
X528600Y973998D02*
Y968166D01*
X529766Y967000D01*
X532099D01*
X533265Y968166D01*
Y973998D01*
X514000Y733998D02*
Y728166D01*
X515166Y727000D01*
X517499D01*
X518665Y728166D01*
Y733998D01*
X520998Y732831D02*
X522164Y733998D01*
X524497D01*
X525663Y732831D01*
Y731665D01*
X524497Y730499D01*
X523330D01*
X524497D01*
X525663Y729333D01*
Y728166D01*
X524497Y727000D01*
X522164D01*
X520998Y728166D01*
X358412Y726964D02*
Y733962D01*
X361911D01*
X363077Y732795D01*
Y730463D01*
X361911Y729297D01*
X358412D01*
X360745D02*
X363077Y726964D01*
X365410Y732795D02*
X366576Y733962D01*
X368909D01*
X370075Y732795D01*
Y731629D01*
X368909Y730463D01*
X367742D01*
X368909D01*
X370075Y729297D01*
Y728130D01*
X368909Y726964D01*
X366576D01*
X365410Y728130D01*
X372407Y732795D02*
X373574Y733962D01*
X375906D01*
X377073Y732795D01*
Y731629D01*
X375906Y730463D01*
X374740D01*
X375906D01*
X377073Y729297D01*
Y728130D01*
X375906Y726964D01*
X373574D01*
X372407Y728130D01*
X336000Y682000D02*
Y688998D01*
X339499D01*
X340665Y687831D01*
Y685499D01*
X339499Y684333D01*
X336000D01*
X338333D02*
X340665Y682000D01*
X342998Y687831D02*
X344164Y688998D01*
X346497D01*
X347663Y687831D01*
Y686665D01*
X346497Y685499D01*
X345330D01*
X346497D01*
X347663Y684333D01*
Y683166D01*
X346497Y682000D01*
X344164D01*
X342998Y683166D01*
X349995Y687831D02*
X351162Y688998D01*
X353494D01*
X354661Y687831D01*
Y686665D01*
X353494Y685499D01*
X354661Y684333D01*
Y683166D01*
X353494Y682000D01*
X351162D01*
X349995Y683166D01*
Y684333D01*
X351162Y685499D01*
X349995Y686665D01*
Y687831D01*
X351162Y685499D02*
X353494D01*
X497000Y633000D02*
Y639998D01*
X500499D01*
X501665Y638831D01*
Y636499D01*
X500499Y635333D01*
X497000D01*
X499333D02*
X501665Y633000D01*
X503998Y638831D02*
X505164Y639998D01*
X507497D01*
X508663Y638831D01*
Y637665D01*
X507497Y636499D01*
X506330D01*
X507497D01*
X508663Y635333D01*
Y634166D01*
X507497Y633000D01*
X505164D01*
X503998Y634166D01*
X510995Y633000D02*
X513328D01*
X512162D01*
Y639998D01*
X510995Y638831D01*
X424596Y700010D02*
Y707008D01*
X428095D01*
X429261Y705841D01*
Y703509D01*
X428095Y702343D01*
X424596D01*
X426929D02*
X429261Y700010D01*
X436259D02*
X431594D01*
X436259Y704675D01*
Y705841D01*
X435093Y707008D01*
X432760D01*
X431594Y705841D01*
X438591Y701176D02*
X439758Y700010D01*
X442090D01*
X443257Y701176D01*
Y705841D01*
X442090Y707008D01*
X439758D01*
X438591Y705841D01*
Y704675D01*
X439758Y703509D01*
X443257D01*
X501665Y656166D02*
Y660831D01*
X500499Y661998D01*
X498166D01*
X497000Y660831D01*
Y656166D01*
X498166Y655000D01*
X500499D01*
X499333Y657333D02*
X501665Y655000D01*
X500499D02*
X501665Y656166D01*
X507497Y655000D02*
Y661998D01*
X503998Y658499D01*
X508663D01*
X389509Y700222D02*
Y704887D01*
X388343Y706054D01*
X386010D01*
X384844Y704887D01*
Y700222D01*
X386010Y699056D01*
X388343D01*
X387177Y701389D02*
X389509Y699056D01*
X388343D02*
X389509Y700222D01*
X391842Y704887D02*
X393008Y706054D01*
X395341D01*
X396507Y704887D01*
Y703721D01*
X395341Y702555D01*
X394174D01*
X395341D01*
X396507Y701389D01*
Y700222D01*
X395341Y699056D01*
X393008D01*
X391842Y700222D01*
X560665Y637831D02*
X559499Y638998D01*
X557166D01*
X556000Y637831D01*
Y633166D01*
X557166Y632000D01*
X559499D01*
X560665Y633166D01*
X567663Y638998D02*
X562998D01*
Y635499D01*
X565330Y636665D01*
X566497D01*
X567663Y635499D01*
Y633166D01*
X566497Y632000D01*
X564164D01*
X562998Y633166D01*
X547665Y757831D02*
X546499Y758998D01*
X544166D01*
X543000Y757831D01*
Y753166D01*
X544166Y752000D01*
X546499D01*
X547665Y753166D01*
X553497Y752000D02*
Y758998D01*
X549998Y755499D01*
X554663D01*
X356000Y879998D02*
Y874166D01*
X357166Y873000D01*
X359499D01*
X360665Y874166D01*
Y879998D01*
X362998D02*
X367663D01*
Y878831D01*
X362998Y874166D01*
Y873000D01*
X412540Y984000D02*
Y990998D01*
X416039D01*
X417205Y989831D01*
Y987499D01*
X416039Y986333D01*
X412540D01*
X414873D02*
X417205Y984000D01*
X424203D02*
X419538D01*
X424203Y988665D01*
Y989831D01*
X423037Y990998D01*
X420704D01*
X419538Y989831D01*
X426535D02*
X427702Y990998D01*
X430034D01*
X431201Y989831D01*
Y988665D01*
X430034Y987499D01*
X431201Y986333D01*
Y985166D01*
X430034Y984000D01*
X427702D01*
X426535Y985166D01*
Y986333D01*
X427702Y987499D01*
X426535Y988665D01*
Y989831D01*
X427702Y987499D02*
X430034D01*
X338000Y957960D02*
Y964958D01*
X341499D01*
X342665Y963791D01*
Y961459D01*
X341499Y960293D01*
X338000D01*
X340333D02*
X342665Y957960D01*
X344998Y963791D02*
X346164Y964958D01*
X348497D01*
X349663Y963791D01*
Y962625D01*
X348497Y961459D01*
X347330D01*
X348497D01*
X349663Y960293D01*
Y959126D01*
X348497Y957960D01*
X346164D01*
X344998Y959126D01*
X356661Y957960D02*
X351996D01*
X356661Y962625D01*
Y963791D01*
X355494Y964958D01*
X353162D01*
X351996Y963791D01*
X428000Y920000D02*
Y926998D01*
X431499D01*
X432665Y925831D01*
Y923499D01*
X431499Y922333D01*
X428000D01*
X430333D02*
X432665Y920000D01*
X439663D02*
X434998D01*
X439663Y924665D01*
Y925831D01*
X438497Y926998D01*
X436164D01*
X434998Y925831D01*
X441996Y920000D02*
X444328D01*
X443162D01*
Y926998D01*
X441996Y925831D01*
X338000Y941000D02*
Y947998D01*
X341499D01*
X342665Y946832D01*
Y944499D01*
X341499Y943333D01*
X338000D01*
X340333D02*
X342665Y941000D01*
X349663D02*
X344998D01*
X349663Y945665D01*
Y946832D01*
X348497Y947998D01*
X346164D01*
X344998Y946832D01*
X356661Y947998D02*
X351996D01*
Y944499D01*
X354328Y945665D01*
X355494D01*
X356661Y944499D01*
Y942166D01*
X355494Y941000D01*
X353162D01*
X351996Y942166D01*
X423974Y819118D02*
Y826116D01*
X427473D01*
X428639Y824949D01*
Y822617D01*
X427473Y821451D01*
X423974D01*
X426307D02*
X428639Y819118D01*
X435637D02*
X430972D01*
X435637Y823783D01*
Y824949D01*
X434471Y826116D01*
X432138D01*
X430972Y824949D01*
X442635Y819118D02*
X437970D01*
X442635Y823783D01*
Y824949D01*
X441468Y826116D01*
X439136D01*
X437970Y824949D01*
X289000Y813000D02*
Y819998D01*
X292499D01*
X293665Y818831D01*
Y816499D01*
X292499Y815333D01*
X289000D01*
X291333D02*
X293665Y813000D01*
X300663D02*
X295998D01*
X300663Y817665D01*
Y818831D01*
X299497Y819998D01*
X297164D01*
X295998Y818831D01*
X307661Y819998D02*
X305328Y818831D01*
X302995Y816499D01*
Y814166D01*
X304162Y813000D01*
X306494D01*
X307661Y814166D01*
Y815333D01*
X306494Y816499D01*
X302995D01*
X289000Y838000D02*
Y844998D01*
X292499D01*
X293665Y843831D01*
Y841499D01*
X292499Y840333D01*
X289000D01*
X291333D02*
X293665Y838000D01*
X295998Y843831D02*
X297164Y844998D01*
X299497D01*
X300663Y843831D01*
Y842665D01*
X299497Y841499D01*
X298330D01*
X299497D01*
X300663Y840333D01*
Y839166D01*
X299497Y838000D01*
X297164D01*
X295998Y839166D01*
X302995Y843831D02*
X304162Y844998D01*
X306494D01*
X307661Y843831D01*
Y839166D01*
X306494Y838000D01*
X304162D01*
X302995Y839166D01*
Y843831D01*
X363168Y774665D02*
X362002Y773499D01*
Y771166D01*
X363168Y770000D01*
X367834D01*
X369000Y771166D01*
Y773499D01*
X367834Y774665D01*
X369000Y776998D02*
Y779330D01*
Y778164D01*
X362002D01*
X363168Y776998D01*
X369000Y787494D02*
Y782829D01*
X364335Y787494D01*
X363168D01*
X362002Y786328D01*
Y783996D01*
X363168Y782829D01*
Y804665D02*
X362002Y803499D01*
Y801166D01*
X363168Y800000D01*
X367834D01*
X369000Y801166D01*
Y803499D01*
X367834Y804665D01*
X369000Y806998D02*
Y809330D01*
Y808164D01*
X362002D01*
X363168Y806998D01*
Y812829D02*
X362002Y813996D01*
Y816328D01*
X363168Y817494D01*
X364335D01*
X365501Y816328D01*
Y815162D01*
Y816328D01*
X366667Y817494D01*
X367834D01*
X369000Y816328D01*
Y813996D01*
X367834Y812829D01*
X292665Y788831D02*
X291499Y789998D01*
X289166D01*
X288000Y788831D01*
Y784166D01*
X289166Y783000D01*
X291499D01*
X292665Y784166D01*
X294998Y783000D02*
X297330D01*
X296164D01*
Y789998D01*
X294998Y788831D01*
X304328Y783000D02*
Y789998D01*
X300829Y786499D01*
X305494D01*
X314681Y943303D02*
X313515Y944470D01*
X311182D01*
X310016Y943303D01*
Y938638D01*
X311182Y937472D01*
X313515D01*
X314681Y938638D01*
X317014Y937472D02*
X319346D01*
X318180D01*
Y944470D01*
X317014Y943303D01*
X327510Y944470D02*
X322845D01*
Y940971D01*
X325178Y942137D01*
X326344D01*
X327510Y940971D01*
Y938638D01*
X326344Y937472D01*
X324011D01*
X322845Y938638D01*
X565480Y904136D02*
Y898304D01*
X566646Y897138D01*
X568979D01*
X570145Y898304D01*
Y904136D01*
X577143Y897138D02*
X572478D01*
X577143Y901803D01*
Y902969D01*
X575977Y904136D01*
X573644D01*
X572478Y902969D01*
X673900Y1015998D02*
Y1010166D01*
X675066Y1009000D01*
X677399D01*
X678565Y1010166D01*
Y1015998D01*
X680898Y1009000D02*
X683230D01*
X682064D01*
Y1015998D01*
X680898Y1014831D01*
X653000Y916000D02*
Y922998D01*
X656499D01*
X657665Y921832D01*
Y919499D01*
X656499Y918333D01*
X653000D01*
X655333D02*
X657665Y916000D01*
X659998Y917166D02*
X661164Y916000D01*
X663497D01*
X664663Y917166D01*
Y921832D01*
X663497Y922998D01*
X661164D01*
X659998Y921832D01*
Y920665D01*
X661164Y919499D01*
X664663D01*
X682000Y814000D02*
Y820998D01*
X685499D01*
X686665Y819831D01*
Y817499D01*
X685499Y816333D01*
X682000D01*
X684333D02*
X686665Y814000D01*
X688998Y819831D02*
X690164Y820998D01*
X692497D01*
X693663Y819831D01*
Y818665D01*
X692497Y817499D01*
X693663Y816333D01*
Y815166D01*
X692497Y814000D01*
X690164D01*
X688998Y815166D01*
Y816333D01*
X690164Y817499D01*
X688998Y818665D01*
Y819831D01*
X690164Y817499D02*
X692497D01*
X681000Y916000D02*
Y922998D01*
X684499D01*
X685665Y921832D01*
Y919499D01*
X684499Y918333D01*
X681000D01*
X683333D02*
X685665Y916000D01*
X687998Y922998D02*
X692663D01*
Y921832D01*
X687998Y917166D01*
Y916000D01*
X656050Y813000D02*
Y819998D01*
X659549D01*
X660715Y818831D01*
Y816499D01*
X659549Y815333D01*
X656050D01*
X658383D02*
X660715Y813000D01*
X667713Y819998D02*
X665380Y818831D01*
X663048Y816499D01*
Y814166D01*
X664214Y813000D01*
X666547D01*
X667713Y814166D01*
Y815333D01*
X666547Y816499D01*
X663048D01*
X789000Y949000D02*
Y955998D01*
X792499D01*
X793665Y954831D01*
Y952499D01*
X792499Y951333D01*
X789000D01*
X791333D02*
X793665Y949000D01*
X799497D02*
Y955998D01*
X795998Y952499D01*
X800663D01*
X799967Y806235D02*
X792970D01*
Y809734D01*
X794136Y810900D01*
X796469D01*
X797635Y809734D01*
Y806235D01*
Y808567D02*
X799967Y810900D01*
X794136Y813232D02*
X792970Y814399D01*
Y816731D01*
X794136Y817897D01*
X795302D01*
X796469Y816731D01*
Y815565D01*
Y816731D01*
X797635Y817897D01*
X798801D01*
X799967Y816731D01*
Y814399D01*
X798801Y813232D01*
X703000Y997000D02*
Y1003998D01*
X706499D01*
X707665Y1002831D01*
Y1000499D01*
X706499Y999333D01*
X703000D01*
X705333D02*
X707665Y997000D01*
X714663D02*
X709998D01*
X714663Y1001665D01*
Y1002831D01*
X713497Y1003998D01*
X711164D01*
X709998Y1002831D01*
X730665Y838166D02*
Y842831D01*
X729499Y843998D01*
X727166D01*
X726000Y842831D01*
Y838166D01*
X727166Y837000D01*
X729499D01*
X728333Y839333D02*
X730665Y837000D01*
X729499D02*
X730665Y838166D01*
X737663Y837000D02*
X732998D01*
X737663Y841665D01*
Y842831D01*
X736497Y843998D01*
X734164D01*
X732998Y842831D01*
X719665Y966166D02*
Y970832D01*
X718499Y971998D01*
X716166D01*
X715000Y970832D01*
Y966166D01*
X716166Y965000D01*
X718499D01*
X717333Y967333D02*
X719665Y965000D01*
X718499D02*
X719665Y966166D01*
X721998Y965000D02*
X724330D01*
X723164D01*
Y971998D01*
X721998Y970832D01*
X594665Y958831D02*
X593499Y959998D01*
X591166D01*
X590000Y958831D01*
Y954166D01*
X591166Y953000D01*
X593499D01*
X594665Y954166D01*
X596998Y958831D02*
X598164Y959998D01*
X600497D01*
X601663Y958831D01*
Y957665D01*
X600497Y956499D01*
X599330D01*
X600497D01*
X601663Y955333D01*
Y954166D01*
X600497Y953000D01*
X598164D01*
X596998Y954166D01*
X676665Y957831D02*
X675499Y958998D01*
X673166D01*
X672000Y957831D01*
Y953166D01*
X673166Y952000D01*
X675499D01*
X676665Y953166D01*
X683663Y952000D02*
X678998D01*
X683663Y956665D01*
Y957831D01*
X682497Y958998D01*
X680164D01*
X678998Y957831D01*
X447002Y1006000D02*
X454000D01*
Y1009499D01*
X452834Y1010665D01*
X448168D01*
X447002Y1009499D01*
Y1006000D01*
X454000Y1012998D02*
Y1015330D01*
Y1014164D01*
X447002D01*
X448168Y1012998D01*
Y1018829D02*
X447002Y1019995D01*
Y1022328D01*
X448168Y1023494D01*
X452834D01*
X454000Y1022328D01*
Y1019995D01*
X452834Y1018829D01*
X448168D01*
X524665Y1002998D02*
X520000D01*
Y999499D01*
X522333D01*
X520000D01*
Y996000D01*
X526998D02*
X529330D01*
X528164D01*
Y1002998D01*
X526998Y1001832D01*
X470271Y927716D02*
Y932381D01*
X469105Y933548D01*
X466772D01*
X465606Y932381D01*
Y927716D01*
X466772Y926550D01*
X469105D01*
X467939Y928883D02*
X470271Y926550D01*
X469105D02*
X470271Y927716D01*
X472604Y926550D02*
X474936D01*
X473770D01*
Y933548D01*
X472604Y932381D01*
X483100Y926550D02*
X478435D01*
X483100Y931215D01*
Y932381D01*
X481934Y933548D01*
X479602D01*
X478435Y932381D01*
X726000Y824998D02*
Y818000D01*
X729499D01*
X730665Y819166D01*
Y823831D01*
X729499Y824998D01*
X726000D01*
X732998Y818000D02*
X735330D01*
X734164D01*
Y824998D01*
X732998Y823831D01*
X640665Y783831D02*
X639499Y784998D01*
X637166D01*
X636000Y783831D01*
Y779166D01*
X637166Y778000D01*
X639499D01*
X640665Y779166D01*
X642998Y778000D02*
X645330D01*
X644164D01*
Y784998D01*
X642998Y783831D01*
X835978Y885207D02*
X834811Y886373D01*
X832479D01*
X831312Y885207D01*
Y880541D01*
X832479Y879375D01*
X834811D01*
X835978Y880541D01*
X838310Y879375D02*
Y886373D01*
X842975Y879375D01*
Y886373D01*
X845308Y879375D02*
X847641D01*
X846474D01*
Y886373D01*
X845308Y885207D01*
X1051911Y882710D02*
X1050744Y883877D01*
X1048412D01*
X1047246Y882710D01*
Y878045D01*
X1048412Y876879D01*
X1050744D01*
X1051911Y878045D01*
X1054243Y876879D02*
Y883877D01*
X1058909Y876879D01*
Y883877D01*
X1065906Y876879D02*
X1061241D01*
X1065906Y881544D01*
Y882710D01*
X1064740Y883877D01*
X1062408D01*
X1061241Y882710D01*
X1182257Y841859D02*
X1181091Y843026D01*
X1178758D01*
X1177592Y841859D01*
Y837194D01*
X1178758Y836028D01*
X1181091D01*
X1182257Y837194D01*
X1184590Y836028D02*
Y843026D01*
X1189255Y836028D01*
Y843026D01*
X1191588Y841859D02*
X1192754Y843026D01*
X1195086D01*
X1196253Y841859D01*
Y840693D01*
X1195086Y839527D01*
X1193920D01*
X1195086D01*
X1196253Y838361D01*
Y837194D01*
X1195086Y836028D01*
X1192754D01*
X1191588Y837194D01*
X1182406Y736711D02*
X1181240Y737877D01*
X1178907D01*
X1177741Y736711D01*
Y732045D01*
X1178907Y730879D01*
X1181240D01*
X1182406Y732045D01*
X1184739Y730879D02*
Y737877D01*
X1189404Y730879D01*
Y737877D01*
X1195235Y730879D02*
Y737877D01*
X1191737Y734378D01*
X1196402D01*
X354169Y621665D02*
X353002Y620499D01*
Y618166D01*
X354169Y617000D01*
X358834D01*
X360000Y618166D01*
Y620499D01*
X358834Y621665D01*
X360000Y623998D02*
X353002D01*
X360000Y628663D01*
X353002D01*
Y635661D02*
Y630995D01*
X356501D01*
X355335Y633328D01*
Y634494D01*
X356501Y635661D01*
X358834D01*
X360000Y634494D01*
Y632162D01*
X358834Y630995D01*
X742665Y931998D02*
X740333D01*
X741499D01*
Y926166D01*
X740333Y925000D01*
X739166D01*
X738000Y926166D01*
X744998Y925000D02*
X747330D01*
X746164D01*
Y931998D01*
X744998Y930831D01*
X636000Y801998D02*
Y796166D01*
X637166Y795000D01*
X639499D01*
X640665Y796166D01*
Y801998D01*
X646497Y795000D02*
Y801998D01*
X642998Y798499D01*
X647663D01*
X698139Y759869D02*
Y754038D01*
X699305Y752871D01*
X701638D01*
X702804Y754038D01*
Y759869D01*
X709802Y752871D02*
X705136D01*
X709802Y757537D01*
Y758703D01*
X708635Y759869D01*
X706303D01*
X705136Y758703D01*
X712134D02*
X713300Y759869D01*
X715633D01*
X716799Y758703D01*
Y754038D01*
X715633Y752871D01*
X713300D01*
X712134Y754038D01*
Y758703D01*
X457454Y749440D02*
Y742442D01*
X460953D01*
X462119Y743608D01*
Y748273D01*
X460953Y749440D01*
X457454D01*
X469117Y742442D02*
X464452D01*
X469117Y747107D01*
Y748273D01*
X467951Y749440D01*
X465618D01*
X464452Y748273D01*
X348000Y1236998D02*
Y1230000D01*
Y1233499D01*
X352665D01*
Y1236998D01*
Y1230000D01*
X354998D02*
X357330D01*
X356164D01*
Y1236998D01*
X354998Y1235831D01*
X1136000Y1236998D02*
Y1230000D01*
Y1233499D01*
X1140665D01*
Y1236998D01*
Y1230000D01*
X1147663D02*
X1142998D01*
X1147663Y1234665D01*
Y1235831D01*
X1146497Y1236998D01*
X1144164D01*
X1142998Y1235831D01*
X1082768Y679246D02*
Y672248D01*
Y675747D01*
X1087433D01*
Y679246D01*
Y672248D01*
X1089766Y678080D02*
X1090932Y679246D01*
X1093265D01*
X1094431Y678080D01*
Y676913D01*
X1093265Y675747D01*
X1092098D01*
X1093265D01*
X1094431Y674581D01*
Y673414D01*
X1093265Y672248D01*
X1090932D01*
X1089766Y673414D01*
X277000Y687998D02*
Y681000D01*
Y684499D01*
X281665D01*
Y687998D01*
Y681000D01*
X287497D02*
Y687998D01*
X283998Y684499D01*
X288663D01*
X1182665Y987831D02*
X1181499Y988998D01*
X1179166D01*
X1178000Y987831D01*
Y983166D01*
X1179166Y982000D01*
X1181499D01*
X1182665Y983166D01*
X1184998Y982000D02*
Y988998D01*
X1189663Y982000D01*
Y988998D01*
X1191995Y980834D02*
X1196661D01*
X1198993Y988998D02*
X1201326D01*
X1200160D01*
Y982000D01*
X1198993D01*
X1201326D01*
X1204825D02*
Y988998D01*
X1209490Y982000D01*
Y988998D01*
X355665Y1010832D02*
X354499Y1011998D01*
X352166D01*
X351000Y1010832D01*
Y1006166D01*
X352166Y1005000D01*
X354499D01*
X355665Y1006166D01*
X357998Y1005000D02*
Y1011998D01*
X362663Y1005000D01*
Y1011998D01*
X364995Y1003834D02*
X369661D01*
X375492Y1011998D02*
X373159D01*
X371993Y1010832D01*
Y1006166D01*
X373159Y1005000D01*
X375492D01*
X376658Y1006166D01*
Y1010832D01*
X375492Y1011998D01*
X378991D02*
Y1006166D01*
X380157Y1005000D01*
X382490D01*
X383656Y1006166D01*
Y1011998D01*
X385989D02*
X390654D01*
X388321D01*
Y1005000D01*
X897091Y412021D02*
X895925Y413188D01*
X893592D01*
X892426Y412021D01*
Y407356D01*
X893592Y406190D01*
X895925D01*
X897091Y407356D01*
X899424Y406190D02*
X901756D01*
X900590D01*
Y413188D01*
X899424Y412021D01*
X905255D02*
X906422Y413188D01*
X908754D01*
X909920Y412021D01*
Y410855D01*
X908754Y409689D01*
X909920Y408523D01*
Y407356D01*
X908754Y406190D01*
X906422D01*
X905255Y407356D01*
Y408523D01*
X906422Y409689D01*
X905255Y410855D01*
Y412021D01*
X906422Y409689D02*
X908754D01*
X898245Y545883D02*
X897079Y547050D01*
X894746D01*
X893580Y545883D01*
Y541218D01*
X894746Y540052D01*
X897079D01*
X898245Y541218D01*
X905243Y540052D02*
X900578D01*
X905243Y544717D01*
Y545883D01*
X904077Y547050D01*
X901744D01*
X900578Y545883D01*
X911074Y540052D02*
Y547050D01*
X907576Y543551D01*
X912241D01*
X1022000Y401542D02*
Y408540D01*
X1025499D01*
X1026665Y407374D01*
Y405041D01*
X1025499Y403875D01*
X1022000D01*
X1024333D02*
X1026665Y401542D01*
X1033663D02*
X1028998D01*
X1033663Y406207D01*
Y407374D01*
X1032497Y408540D01*
X1030164D01*
X1028998Y407374D01*
X1039494Y401542D02*
Y408540D01*
X1035995Y405041D01*
X1040661D01*
X1018794Y484264D02*
Y478432D01*
X1019960Y477266D01*
X1022293D01*
X1023459Y478432D01*
Y484264D01*
X1030457D02*
X1028124Y483097D01*
X1025792Y480765D01*
Y478432D01*
X1026958Y477266D01*
X1029291D01*
X1030457Y478432D01*
Y479599D01*
X1029291Y480765D01*
X1025792D01*
X326306Y536731D02*
Y529733D01*
X330971D01*
X333304D02*
X335636D01*
X334470D01*
Y536731D01*
X333304Y535564D01*
X937667Y744499D02*
X936501D01*
Y743333D01*
X937667D01*
Y744499D01*
X936501Y745665D01*
X934168D01*
X933002Y744499D01*
Y742166D01*
X934168Y741000D01*
X938834D01*
X940000Y742166D01*
Y745665D01*
X935335Y749164D02*
Y751497D01*
X936501Y752663D01*
X940000D01*
Y749164D01*
X938834Y747998D01*
X937667Y749164D01*
Y752663D01*
X933002Y759661D02*
X940000D01*
Y756162D01*
X938834Y754995D01*
X936501D01*
X935335Y756162D01*
Y759661D01*
Y761993D02*
X940000D01*
X937667D01*
X936501Y763159D01*
X935335Y764326D01*
Y765492D01*
X940000Y772490D02*
Y770157D01*
X938834Y768991D01*
X936501D01*
X935335Y770157D01*
Y772490D01*
X936501Y773656D01*
X937667D01*
Y768991D01*
X940000Y775989D02*
X935335D01*
Y779488D01*
X936501Y780654D01*
X940000D01*
X942333Y785319D02*
Y786485D01*
X941166Y787652D01*
X935335D01*
Y784153D01*
X936501Y782987D01*
X938834D01*
X940000Y784153D01*
Y787652D01*
Y789984D02*
Y792317D01*
Y791151D01*
X935335D01*
Y789984D01*
X940000Y795816D02*
X935335D01*
Y799315D01*
X936501Y800481D01*
X940000D01*
Y806312D02*
Y803980D01*
X938834Y802813D01*
X936501D01*
X935335Y803980D01*
Y806312D01*
X936501Y807479D01*
X937667D01*
Y802813D01*
X940000Y813310D02*
Y810977D01*
X938834Y809811D01*
X936501D01*
X935335Y810977D01*
Y813310D01*
X936501Y814476D01*
X937667D01*
Y809811D01*
X935335Y816809D02*
X940000D01*
X937667D01*
X936501Y817975D01*
X935335Y819141D01*
Y820308D01*
X575002Y788000D02*
Y792665D01*
Y790333D01*
X582000D01*
X575002Y799663D02*
Y794998D01*
X582000D01*
Y799663D01*
X578501Y794998D02*
Y797330D01*
X582000Y801995D02*
X575002D01*
X577335Y804328D01*
X575002Y806661D01*
X582000D01*
Y808993D02*
X575002D01*
Y812492D01*
X576169Y813658D01*
X578501D01*
X579667Y812492D01*
Y808993D01*
X623000Y679998D02*
X627665D01*
X625333D01*
Y673000D01*
X634663Y679998D02*
X629998D01*
Y673000D01*
X634663D01*
X629998Y676499D02*
X632330D01*
X636996Y673000D02*
Y679998D01*
X639328Y677665D01*
X641661Y679998D01*
Y673000D01*
X643993D02*
Y679998D01*
X647492D01*
X648658Y678831D01*
Y676499D01*
X647492Y675333D01*
X643993D01*
X624000Y667998D02*
Y663333D01*
X626333Y661000D01*
X628665Y663333D01*
Y667998D01*
X630998D02*
Y661000D01*
X634497D01*
X635663Y662166D01*
Y663333D01*
X634497Y664499D01*
X630998D01*
X634497D01*
X635663Y665665D01*
Y666832D01*
X634497Y667998D01*
X630998D01*
X637995Y661000D02*
Y665665D01*
X640328Y667998D01*
X642661Y665665D01*
Y661000D01*
Y664499D01*
X637995D01*
X644993Y667998D02*
X649658D01*
X647326D01*
Y661000D01*
X616000Y699000D02*
Y703665D01*
X618333Y705998D01*
X620665Y703665D01*
Y699000D01*
Y702499D01*
X616000D01*
X627663Y704831D02*
X626497Y705998D01*
X624164D01*
X622998Y704831D01*
Y700166D01*
X624164Y699000D01*
X626497D01*
X627663Y700166D01*
X641658Y704831D02*
X640492Y705998D01*
X638159D01*
X636993Y704831D01*
Y700166D01*
X638159Y699000D01*
X640492D01*
X641658Y700166D01*
X643991Y705998D02*
Y700166D01*
X645157Y699000D01*
X647490D01*
X648656Y700166D01*
Y705998D01*
X650989Y699000D02*
Y705998D01*
X654488D01*
X655654Y704831D01*
Y702499D01*
X654488Y701333D01*
X650989D01*
X653321D02*
X655654Y699000D01*
X1199000Y456000D02*
X1256000D01*
X1199000D02*
Y573000D01*
X1257000D01*
X1199000Y317000D02*
X1256000D01*
X1199000Y260000D02*
Y317000D01*
D50*
X262000Y599000D02*
X1249000D01*
X256000Y260000D02*
Y1260000D01*
X1256000Y260000D02*
Y1260000D01*
X256000Y260000D02*
X1256000D01*
X256000Y1260000D02*
X1256000D01*
D66*
X1052700Y339750D02*
X1058500D01*
Y349000D01*
Y358250D01*
X1052700D02*
X1058500D01*
X1030750Y340000D02*
Y348000D01*
Y349000D02*
Y358250D01*
Y339750D02*
X1036550D01*
X1030750Y358250D02*
X1036550D01*
X955000Y504588D02*
Y520588D01*
X923000Y504588D02*
Y520588D01*
X954000Y370000D02*
Y386000D01*
X922000Y370000D02*
Y386000D01*
X530250Y399544D02*
Y439544D01*
X479750Y399544D02*
Y439544D01*
X464400Y331044D02*
Y344044D01*
X433600Y331044D02*
Y344044D01*
X455250Y331044D02*
X464400D01*
X433600D02*
X442750D01*
X796950Y925250D02*
X799625D01*
Y886750D02*
Y925250D01*
X796950Y886750D02*
X799625D01*
X788500Y858500D02*
Y863500D01*
X763500Y858500D02*
Y863500D01*
X761000Y861000D02*
X766000D01*
X752375Y886750D02*
X755050D01*
X752375D02*
Y925250D01*
X755050D01*
X662250Y980000D02*
Y1020000D01*
X611750Y980000D02*
Y1020000D01*
X504950Y1007250D02*
X507625D01*
Y968750D02*
Y1007250D01*
X504950Y968750D02*
X507625D01*
X496500Y940500D02*
Y945500D01*
X471500Y940500D02*
Y945500D01*
X469000Y943000D02*
X474000D01*
X460375Y968750D02*
X463050D01*
X460375D02*
Y1007250D01*
X463050D01*
X526100Y1020400D02*
Y1021600D01*
X517900Y1020400D02*
Y1021600D01*
X468500Y688400D02*
X481500D01*
X468500Y657600D02*
X481500D01*
Y679250D02*
Y688400D01*
Y657600D02*
Y666750D01*
X371700Y852000D02*
Y892000D01*
X422200Y852000D02*
Y892000D01*
X385600Y667500D02*
Y680500D01*
X416400Y667500D02*
Y680500D01*
X385600D02*
X394750D01*
X407250D02*
X416400D01*
X466500Y841550D02*
X531500D01*
Y911400D01*
X466500Y841550D02*
Y911400D01*
X680500Y645000D02*
X721500D01*
X680500Y747000D02*
X721500D01*
X595500Y963000D02*
Y1033000D01*
X544500Y963000D02*
Y1033000D01*
X1179000Y1008800D02*
Y1161200D01*
X1269000D01*
Y1008800D02*
Y1161200D01*
X1179000Y1008800D02*
X1269000D01*
X340000D02*
Y1161200D01*
X250000Y1008800D02*
X340000D01*
X250000D02*
Y1161200D01*
X340000D01*
X1048500Y931500D02*
Y1086500D01*
X857500Y931500D02*
X1048500D01*
X857500D02*
Y1086500D01*
X1048500D01*
X1024000Y419000D02*
Y424500D01*
X1064000Y419000D02*
Y424500D01*
X1024000Y453500D02*
Y459000D01*
X1064000Y453500D02*
Y459000D01*
X1024000Y419000D02*
X1029500D01*
X1058500D02*
X1064000D01*
X1024000Y459000D02*
X1029500D01*
X1058500D02*
X1064000D01*
X429560Y510691D02*
X452960D01*
Y385691D02*
Y510691D01*
X327960Y385691D02*
X351360D01*
X429560D02*
X452960D01*
X327960Y510691D02*
X351360D01*
X327960Y385691D02*
Y510691D01*
D67*
X864000Y504000D02*
X880000D01*
X864000Y538000D02*
X880000D01*
X863000Y369000D02*
X879000D01*
X863000Y403000D02*
X879000D01*
X397000Y320544D02*
X413000D01*
X397000Y354544D02*
X413000D01*
X778000Y832000D02*
Y848000D01*
X744000Y832000D02*
Y848000D01*
X777000Y795000D02*
Y811000D01*
X743000Y795000D02*
Y811000D01*
X737000Y984000D02*
X753000D01*
X737000Y950000D02*
X753000D01*
X465000Y701000D02*
X481000D01*
X465000Y735000D02*
X481000D01*
X604000Y777749D02*
X620000D01*
X604000Y811749D02*
X620000D01*
M02*
