G04*
G04 #@! TF.GenerationSoftware,Altium Limited,CircuitStudio,1.5.2 (30)*
G04*
G04 Layer_Color=13948096*
%FSLAX44Y44*%
%MOMM*%
G71*
G01*
G75*
%ADD37C,0.2000*%
%ADD41C,0.2540*%
%ADD49C,0.1000*%
%ADD50C,0.1500*%
D37*
X208530Y395470D02*
X298700D01*
X208530D02*
Y467860D01*
X298700D01*
Y457700D02*
Y467860D01*
Y395470D02*
Y457700D01*
X660530Y222530D02*
Y312700D01*
X588140Y222530D02*
X660530D01*
X588140D02*
Y312700D01*
X598300D01*
X660530D01*
X306320Y456430D02*
X303654D01*
X304987D01*
Y464427D01*
X306320Y463094D01*
X599570Y320320D02*
Y317654D01*
Y318987D01*
X591573D01*
X592906Y320320D01*
D41*
X295567Y489160D02*
X298106Y491699D01*
X303185D01*
X305724Y489160D01*
Y479003D01*
X303185Y476464D01*
X298106D01*
X295567Y479003D01*
X290489Y476464D02*
Y491699D01*
X280332Y476464D01*
Y491699D01*
X275254Y476464D02*
X270175D01*
X272715D01*
Y491699D01*
X275254Y489160D01*
X252401Y476464D02*
X262558D01*
X252401Y486621D01*
Y489160D01*
X254940Y491699D01*
X260019D01*
X262558Y489160D01*
X648825Y342576D02*
X651365Y345115D01*
X656443D01*
X658982Y342576D01*
Y332419D01*
X656443Y329880D01*
X651365D01*
X648825Y332419D01*
X643747Y329880D02*
Y345115D01*
X633590Y329880D01*
Y345115D01*
X628512Y329880D02*
X623434D01*
X625973D01*
Y345115D01*
X628512Y342576D01*
X615816Y329880D02*
X610738D01*
X613277D01*
Y345115D01*
X615816Y342576D01*
D49*
X1199000Y456000D02*
X1256000D01*
X1199000D02*
Y573000D01*
X1257000D01*
X1199000Y317000D02*
X1256000D01*
X1199000Y260000D02*
Y317000D01*
D50*
X256000Y260000D02*
Y1260000D01*
X1256000Y260000D02*
Y1260000D01*
X256000Y260000D02*
X1256000D01*
X256000Y1260000D02*
X1256000D01*
M02*
