G04*
G04 #@! TF.GenerationSoftware,Altium Limited,CircuitStudio,1.5.2 (30)*
G04*
G04 Layer_Physical_Order=2*
G04 Layer_Color=16711680*
%FSLAX44Y44*%
%MOMM*%
G71*
G01*
G75*
%ADD34R,2.1000X2.1000*%
%ADD36C,1.0000*%
%ADD37C,0.2000*%
%ADD39C,0.3000*%
%ADD40C,0.5000*%
%ADD41C,0.2540*%
%ADD43C,2.0000*%
%ADD44C,0.7000*%
%ADD46C,0.6000*%
%ADD49C,0.1000*%
%ADD50C,0.1500*%
%ADD51C,4.0000*%
%ADD52C,0.6500*%
%ADD53C,1.2580*%
%ADD54R,1.8000X1.8000*%
%ADD55C,1.8000*%
%ADD56R,1.8000X1.8000*%
%ADD57C,6.0000*%
%ADD58C,2.1000*%
%ADD59R,1.9800X1.9800*%
%ADD60C,1.9350*%
%ADD61C,1.9800*%
%ADD62C,0.7500*%
%ADD63C,0.7400*%
%ADD64C,0.8000*%
%ADD65C,1.2700*%
G36*
X1251645Y264355D02*
X808000D01*
Y595000D01*
X1251645D01*
Y264355D01*
D02*
G37*
G36*
X668500D02*
X260355D01*
Y597410D01*
X668500D01*
Y264355D01*
D02*
G37*
G36*
X1251645Y600000D02*
X1122376D01*
X1122225Y601270D01*
X1125087Y601957D01*
X1129818Y603917D01*
X1134186Y606593D01*
X1138080Y609920D01*
X1141407Y613814D01*
X1144083Y618181D01*
X1146043Y622914D01*
X1147239Y627894D01*
X1147404Y630000D01*
X1082596D01*
X1082761Y627894D01*
X1083957Y622914D01*
X1085917Y618181D01*
X1088593Y613814D01*
X1091920Y609920D01*
X1095814Y606593D01*
X1100182Y603917D01*
X1104913Y601957D01*
X1107775Y601270D01*
X1107624Y600000D01*
X260355D01*
Y970000D01*
X1020406D01*
X1062673Y944776D01*
X1062866Y944707D01*
X1063038Y944595D01*
X1063338Y944540D01*
X1063625Y944437D01*
X1063830Y944448D01*
X1064032Y944410D01*
X1064330Y944473D01*
X1064634Y944489D01*
X1064819Y944577D01*
X1065020Y944620D01*
X1065272Y944792D01*
X1065547Y944923D01*
X1065684Y945075D01*
X1065853Y945191D01*
X1066020Y945447D01*
X1066224Y945673D01*
X1066293Y945866D01*
X1066404Y946038D01*
X1070405Y956038D01*
X1070459Y956331D01*
X1070561Y956612D01*
X1070551Y956823D01*
X1070590Y957032D01*
X1070528Y957323D01*
X1070514Y957621D01*
X1070424Y957813D01*
X1070380Y958020D01*
X1070212Y958266D01*
X1070085Y958536D01*
X1069929Y958679D01*
X1069809Y958853D01*
X1069559Y959016D01*
X1069339Y959217D01*
X1053505Y968776D01*
X1053846Y970000D01*
X1251645D01*
Y600000D01*
D02*
G37*
%LPC*%
G36*
X643001Y443964D02*
Y438584D01*
X648380D01*
X647766Y440067D01*
X646341Y441925D01*
X644484Y443349D01*
X643001Y443964D01*
D02*
G37*
G36*
X637001D02*
X635517Y443349D01*
X633660Y441925D01*
X632235Y440067D01*
X631621Y438584D01*
X637001D01*
Y443964D01*
D02*
G37*
G36*
X1047000Y444500D02*
Y442000D01*
X1049500D01*
X1048499Y443499D01*
X1047000Y444500D01*
D02*
G37*
G36*
X1041000D02*
X1039501Y443499D01*
X1038500Y442000D01*
X1041000D01*
Y444500D01*
D02*
G37*
G36*
X1049500Y436000D02*
X1047000D01*
Y433500D01*
X1048499Y434501D01*
X1049500Y436000D01*
D02*
G37*
G36*
X1041000D02*
X1038500D01*
X1039501Y434501D01*
X1041000Y433500D01*
Y436000D01*
D02*
G37*
G36*
X297245Y442000D02*
X289000D01*
Y433755D01*
X289013Y433757D01*
X291820Y434920D01*
X294230Y436770D01*
X296080Y439180D01*
X297243Y441987D01*
X297245Y442000D01*
D02*
G37*
G36*
X283000D02*
X274755D01*
X274757Y441987D01*
X275920Y439180D01*
X277770Y436770D01*
X280180Y434920D01*
X282987Y433757D01*
X283000Y433755D01*
Y442000D01*
D02*
G37*
G36*
X1141000Y454500D02*
Y452000D01*
X1143500D01*
X1142499Y453499D01*
X1141000Y454500D01*
D02*
G37*
G36*
X1135000D02*
X1133501Y453499D01*
X1132500Y452000D01*
X1135000D01*
Y454500D01*
D02*
G37*
G36*
X520175Y475365D02*
X518468Y475141D01*
X516877Y474482D01*
X515511Y473433D01*
X514462Y472067D01*
X513803Y470476D01*
X513579Y468769D01*
X513803Y467062D01*
X514462Y465471D01*
X515511Y464105D01*
X516877Y463056D01*
X518468Y462397D01*
X520175Y462173D01*
X521882Y462397D01*
X523473Y463056D01*
X524839Y464105D01*
X525888Y465471D01*
X526547Y467062D01*
X526771Y468769D01*
X526547Y470476D01*
X525888Y472067D01*
X524839Y473433D01*
X523473Y474482D01*
X521882Y475141D01*
X520175Y475365D01*
D02*
G37*
G36*
X924000Y549967D02*
X921679Y549661D01*
X919517Y548765D01*
X917660Y547340D01*
X916235Y545483D01*
X915339Y543321D01*
X915033Y541000D01*
X915339Y538679D01*
X916235Y536517D01*
X917660Y534660D01*
X919517Y533235D01*
X921679Y532339D01*
X924000Y532033D01*
X926321Y532339D01*
X927195Y532701D01*
X935391Y524505D01*
Y479127D01*
X934517Y478765D01*
X932660Y477340D01*
X931235Y475483D01*
X930339Y473321D01*
X930033Y471000D01*
X930339Y468679D01*
X931235Y466517D01*
X932660Y464660D01*
X934517Y463235D01*
X936679Y462339D01*
X939000Y462033D01*
X941321Y462339D01*
X943483Y463235D01*
X945340Y464660D01*
X946765Y466517D01*
X947661Y468679D01*
X947967Y471000D01*
X947661Y473321D01*
X946765Y475483D01*
X945340Y477340D01*
X943483Y478765D01*
X942609Y479127D01*
Y526000D01*
X942335Y527381D01*
X941552Y528552D01*
X932299Y537805D01*
X932661Y538679D01*
X932967Y541000D01*
X932661Y543321D01*
X931765Y545483D01*
X930340Y547340D01*
X928483Y548765D01*
X926321Y549661D01*
X924000Y549967D01*
D02*
G37*
G36*
X1143500Y446000D02*
X1141000D01*
Y443500D01*
X1142499Y444501D01*
X1143500Y446000D01*
D02*
G37*
G36*
X1135000D02*
X1132500D01*
X1133501Y444501D01*
X1135000Y443500D01*
Y446000D01*
D02*
G37*
G36*
X289000Y456245D02*
Y448000D01*
X297245D01*
X297243Y448013D01*
X296080Y450820D01*
X294230Y453230D01*
X291820Y455080D01*
X289013Y456243D01*
X289000Y456245D01*
D02*
G37*
G36*
X283000D02*
X282987Y456243D01*
X280180Y455080D01*
X277770Y453230D01*
X275920Y450820D01*
X274757Y448013D01*
X274755Y448000D01*
X283000D01*
Y456245D01*
D02*
G37*
G36*
X838000Y451104D02*
Y431750D01*
X857354D01*
X857214Y433169D01*
X855925Y437417D01*
X853832Y441333D01*
X851015Y444765D01*
X847583Y447582D01*
X843667Y449675D01*
X839419Y450964D01*
X838000Y451104D01*
D02*
G37*
G36*
X857354Y425750D02*
X838000D01*
Y406396D01*
X839419Y406536D01*
X843667Y407825D01*
X847583Y409918D01*
X851015Y412735D01*
X853832Y416167D01*
X855925Y420083D01*
X857214Y424331D01*
X857354Y425750D01*
D02*
G37*
G36*
X832000D02*
X812646D01*
X812786Y424331D01*
X814075Y420083D01*
X816168Y416167D01*
X818985Y412735D01*
X822417Y409918D01*
X826333Y407825D01*
X830581Y406536D01*
X832000Y406396D01*
Y425750D01*
D02*
G37*
G36*
X356880Y412000D02*
X351500D01*
Y406620D01*
X352983Y407235D01*
X354840Y408660D01*
X356265Y410517D01*
X356880Y412000D01*
D02*
G37*
G36*
X345500D02*
X340120D01*
X340735Y410517D01*
X342160Y408660D01*
X344017Y407235D01*
X345500Y406620D01*
Y412000D01*
D02*
G37*
G36*
X1175000Y421967D02*
X1172679Y421661D01*
X1170517Y420765D01*
X1168660Y419340D01*
X1167235Y417483D01*
X1166339Y415321D01*
X1166033Y413000D01*
X1166339Y410679D01*
X1167235Y408517D01*
X1167395Y408308D01*
Y402270D01*
X1166125Y401749D01*
X1164435Y402878D01*
X1162000Y403362D01*
X1159565Y402878D01*
X1157501Y401499D01*
X1156122Y399435D01*
X1155638Y397000D01*
X1155680Y396785D01*
X1092505Y333609D01*
X1056000D01*
X1054619Y333335D01*
X1053448Y332552D01*
X1017835Y296939D01*
X1006556D01*
Y273859D01*
X1029636D01*
Y296939D01*
X1029636Y296939D01*
X1029636D01*
X1029169Y298065D01*
X1038713Y307609D01*
X1039887Y307123D01*
Y296939D01*
X1031956D01*
Y273859D01*
X1055036D01*
Y296939D01*
X1047105D01*
Y308505D01*
X1059991Y321391D01*
X1095500D01*
X1096881Y321665D01*
X1098052Y322448D01*
X1157427Y381823D01*
X1158501Y382501D01*
X1160565Y381122D01*
X1163000Y380638D01*
X1165435Y381122D01*
X1166275Y381683D01*
X1167395Y381085D01*
Y367692D01*
X1167235Y367483D01*
X1166339Y365321D01*
X1166033Y363000D01*
X1166339Y360679D01*
X1167235Y358517D01*
X1168660Y356660D01*
X1170517Y355235D01*
X1172679Y354339D01*
X1175000Y354033D01*
X1177321Y354339D01*
X1179483Y355235D01*
X1181340Y356660D01*
X1182765Y358517D01*
X1183661Y360679D01*
X1183967Y363000D01*
X1183661Y365321D01*
X1182765Y367483D01*
X1182605Y367692D01*
Y408308D01*
X1182765Y408517D01*
X1183661Y410679D01*
X1183967Y413000D01*
X1183661Y415321D01*
X1182765Y417483D01*
X1181340Y419340D01*
X1179483Y420765D01*
X1177321Y421661D01*
X1175000Y421967D01*
D02*
G37*
G36*
X1027500Y398542D02*
X1025000D01*
Y396042D01*
X1026499Y397043D01*
X1027500Y398542D01*
D02*
G37*
G36*
X1025000Y407042D02*
Y404542D01*
X1027500D01*
X1026499Y406041D01*
X1025000Y407042D01*
D02*
G37*
G36*
X1019000D02*
X1017501Y406041D01*
X1016500Y404542D01*
X1019000D01*
Y407042D01*
D02*
G37*
G36*
X648380Y432584D02*
X643001D01*
Y427204D01*
X644484Y427819D01*
X646341Y429244D01*
X647766Y431101D01*
X648380Y432584D01*
D02*
G37*
G36*
X637001D02*
X631621D01*
X632235Y431101D01*
X633660Y429244D01*
X635517Y427819D01*
X637001Y427204D01*
Y432584D01*
D02*
G37*
G36*
X832000Y451104D02*
X830581Y450964D01*
X826333Y449675D01*
X822417Y447582D01*
X818985Y444765D01*
X816168Y441333D01*
X814075Y437417D01*
X812786Y433169D01*
X812646Y431750D01*
X832000D01*
Y451104D01*
D02*
G37*
G36*
X972000Y497967D02*
X969679Y497661D01*
X967517Y496765D01*
X965660Y495340D01*
X964235Y493483D01*
X963339Y491321D01*
X963033Y489000D01*
X963339Y486679D01*
X963395Y486544D01*
Y428895D01*
X962125Y428369D01*
X952163Y438331D01*
X950902Y439173D01*
X949416Y439469D01*
X943013D01*
X942765Y440067D01*
X941340Y441925D01*
X939483Y443349D01*
X937321Y444245D01*
X935000Y444551D01*
X932679Y444245D01*
X930517Y443349D01*
X928660Y441925D01*
X927235Y440067D01*
X926339Y437905D01*
X926033Y435584D01*
X926339Y433263D01*
X927235Y431101D01*
X928660Y429244D01*
X930517Y427819D01*
X932679Y426923D01*
X935000Y426617D01*
X937321Y426923D01*
X939483Y427819D01*
X941340Y429244D01*
X942765Y431101D01*
X943013Y431699D01*
X947807D01*
X956115Y423391D01*
Y355013D01*
X955517Y354765D01*
X953660Y353340D01*
X952235Y351483D01*
X951339Y349321D01*
X951033Y347000D01*
X951339Y344679D01*
X952235Y342517D01*
X953660Y340660D01*
X955517Y339235D01*
X957679Y338339D01*
X960000Y338033D01*
X962321Y338339D01*
X964483Y339235D01*
X966340Y340660D01*
X967765Y342517D01*
X968661Y344679D01*
X968967Y347000D01*
X968661Y349321D01*
X967765Y351483D01*
X966340Y353340D01*
X964483Y354765D01*
X963885Y355013D01*
Y398655D01*
X965155Y399280D01*
X966517Y398235D01*
X968679Y397339D01*
X971000Y397033D01*
X973321Y397339D01*
X975483Y398235D01*
X977340Y399660D01*
X978765Y401517D01*
X979127Y402391D01*
X982000D01*
X983381Y402665D01*
X984552Y403448D01*
X993805Y412701D01*
X994679Y412339D01*
X997000Y412033D01*
X999321Y412339D01*
X1001483Y413235D01*
X1003340Y414660D01*
X1004765Y416517D01*
X1005661Y418679D01*
X1005967Y421000D01*
X1005661Y423321D01*
X1004765Y425483D01*
X1003340Y427340D01*
X1001483Y428765D01*
X999321Y429661D01*
X997000Y429967D01*
X994679Y429661D01*
X992517Y428765D01*
X990660Y427340D01*
X989235Y425483D01*
X988339Y423321D01*
X988033Y421000D01*
X988339Y418679D01*
X988701Y417805D01*
X980505Y409609D01*
X979127D01*
X978765Y410483D01*
X978605Y410692D01*
Y483004D01*
X979765Y484517D01*
X980661Y486679D01*
X980967Y489000D01*
X980661Y491321D01*
X979765Y493483D01*
X978340Y495340D01*
X976483Y496765D01*
X974321Y497661D01*
X972000Y497967D01*
D02*
G37*
G36*
X1207000Y421803D02*
X1204741Y421354D01*
X1202826Y420074D01*
X1201546Y418159D01*
X1201097Y415900D01*
X1201546Y413641D01*
X1202826Y411726D01*
X1204741Y410446D01*
X1207000Y409996D01*
X1209259Y410446D01*
X1211174Y411726D01*
X1212454Y413641D01*
X1212903Y415900D01*
X1212454Y418159D01*
X1211174Y420074D01*
X1209259Y421354D01*
X1207000Y421803D01*
D02*
G37*
G36*
X297540Y431140D02*
X274460D01*
Y408060D01*
X297540D01*
Y431140D01*
D02*
G37*
G36*
X351500Y423380D02*
Y418000D01*
X356880D01*
X356265Y419483D01*
X354840Y421340D01*
X352983Y422765D01*
X351500Y423380D01*
D02*
G37*
G36*
X345500D02*
X344017Y422765D01*
X342160Y421340D01*
X340735Y419483D01*
X340120Y418000D01*
X345500D01*
Y423380D01*
D02*
G37*
G36*
X841000Y496540D02*
X837988Y496143D01*
X835180Y494980D01*
X832770Y493130D01*
X830920Y490720D01*
X829757Y487913D01*
X829360Y484900D01*
X829757Y481888D01*
X830920Y479080D01*
X832770Y476670D01*
X835180Y474820D01*
X837988Y473657D01*
X841000Y473260D01*
X844013Y473657D01*
X846820Y474820D01*
X849230Y476670D01*
X851080Y479080D01*
X852243Y481888D01*
X852639Y484900D01*
X852243Y487913D01*
X851080Y490720D01*
X849230Y493130D01*
X846820Y494980D01*
X844013Y496143D01*
X841000Y496540D01*
D02*
G37*
G36*
X508000Y526968D02*
Y521588D01*
X513380D01*
X512765Y523072D01*
X511340Y524929D01*
X509483Y526353D01*
X508000Y526968D01*
D02*
G37*
G36*
X502000D02*
X500517Y526353D01*
X498660Y524929D01*
X497235Y523072D01*
X496620Y521588D01*
X502000D01*
Y526968D01*
D02*
G37*
G36*
X556000Y527968D02*
Y522588D01*
X561380D01*
X560765Y524072D01*
X559340Y525929D01*
X557483Y527354D01*
X556000Y527968D01*
D02*
G37*
G36*
X550000D02*
X548517Y527354D01*
X546660Y525929D01*
X545234Y524072D01*
X544620Y522588D01*
X550000D01*
Y527968D01*
D02*
G37*
G36*
X838000Y521840D02*
X829460D01*
Y513300D01*
X838000D01*
Y521840D01*
D02*
G37*
G36*
X585380Y516588D02*
X580000D01*
Y511208D01*
X581483Y511823D01*
X583340Y513248D01*
X584765Y515105D01*
X585380Y516588D01*
D02*
G37*
G36*
X407610Y532011D02*
X405289Y531705D01*
X403127Y530809D01*
X401270Y529384D01*
X399845Y527527D01*
X398949Y525365D01*
X398643Y523044D01*
X398949Y520723D01*
X399845Y518561D01*
X401270Y516704D01*
X403127Y515279D01*
X405289Y514383D01*
X407610Y514077D01*
X409931Y514383D01*
X412093Y515279D01*
X413950Y516704D01*
X415375Y518561D01*
X416271Y520723D01*
X416577Y523044D01*
X416271Y525365D01*
X415375Y527527D01*
X413950Y529384D01*
X412093Y530809D01*
X409931Y531705D01*
X407610Y532011D01*
D02*
G37*
G36*
X852540Y521840D02*
X844000D01*
Y513300D01*
X852540D01*
Y521840D01*
D02*
G37*
G36*
X662404Y552000D02*
X633000D01*
Y522595D01*
X635106Y522761D01*
X640087Y523957D01*
X644818Y525917D01*
X649186Y528593D01*
X653080Y531920D01*
X656407Y535814D01*
X659083Y540182D01*
X661043Y544913D01*
X662239Y549894D01*
X662404Y552000D01*
D02*
G37*
G36*
X627000D02*
X597595D01*
X597761Y549894D01*
X598957Y544913D01*
X600917Y540182D01*
X603593Y535814D01*
X606920Y531920D01*
X610814Y528593D01*
X615182Y525917D01*
X619913Y523957D01*
X624894Y522761D01*
X627000Y522595D01*
Y552000D01*
D02*
G37*
G36*
X1141750Y554854D02*
Y535500D01*
X1161104D01*
X1160964Y536919D01*
X1159675Y541167D01*
X1157582Y545083D01*
X1154765Y548515D01*
X1151333Y551332D01*
X1147417Y553425D01*
X1143169Y554714D01*
X1141750Y554854D01*
D02*
G37*
G36*
X1135750D02*
X1134331Y554714D01*
X1130083Y553425D01*
X1126167Y551332D01*
X1122735Y548515D01*
X1119918Y545083D01*
X1117825Y541167D01*
X1116536Y536919D01*
X1116396Y535500D01*
X1135750D01*
Y554854D01*
D02*
G37*
G36*
X580000Y527968D02*
Y522588D01*
X585380D01*
X584765Y524072D01*
X583340Y525929D01*
X581483Y527354D01*
X580000Y527968D01*
D02*
G37*
G36*
X574000D02*
X572517Y527354D01*
X570659Y525929D01*
X569235Y524072D01*
X568620Y522588D01*
X574000D01*
Y527968D01*
D02*
G37*
G36*
X327405Y552000D02*
X298000D01*
Y522595D01*
X300106Y522761D01*
X305086Y523957D01*
X309818Y525917D01*
X314186Y528593D01*
X318080Y531920D01*
X321407Y535814D01*
X324083Y540182D01*
X326043Y544913D01*
X327239Y549894D01*
X327405Y552000D01*
D02*
G37*
G36*
X292000D02*
X262596D01*
X262761Y549894D01*
X263957Y544913D01*
X265917Y540182D01*
X268593Y535814D01*
X271920Y531920D01*
X275814Y528593D01*
X280182Y525917D01*
X284914Y523957D01*
X289894Y522761D01*
X292000Y522595D01*
Y552000D01*
D02*
G37*
G36*
X574000Y516588D02*
X568620D01*
X569235Y515105D01*
X570659Y513248D01*
X572517Y511823D01*
X574000Y511208D01*
Y516588D01*
D02*
G37*
G36*
X1141000Y487500D02*
Y485000D01*
X1143500D01*
X1142499Y486499D01*
X1141000Y487500D01*
D02*
G37*
G36*
X1135000D02*
X1133501Y486499D01*
X1132500Y485000D01*
X1135000D01*
Y487500D01*
D02*
G37*
G36*
X898000Y491500D02*
Y489000D01*
X900500D01*
X899499Y490499D01*
X898000Y491500D01*
D02*
G37*
G36*
X892000D02*
X890501Y490499D01*
X889500Y489000D01*
X892000D01*
Y491500D01*
D02*
G37*
G36*
X1143500Y479000D02*
X1141000D01*
Y476500D01*
X1142499Y477501D01*
X1143500Y479000D01*
D02*
G37*
G36*
X1135000D02*
X1132500D01*
X1133501Y477501D01*
X1135000Y476500D01*
Y479000D01*
D02*
G37*
G36*
X900500Y483000D02*
X898000D01*
Y480500D01*
X899499Y481501D01*
X900500Y483000D01*
D02*
G37*
G36*
X892000D02*
X889500D01*
X890501Y481501D01*
X892000Y480500D01*
Y483000D01*
D02*
G37*
G36*
X513380Y515588D02*
X508000D01*
Y510208D01*
X509483Y510823D01*
X511340Y512248D01*
X512765Y514105D01*
X513380Y515588D01*
D02*
G37*
G36*
X502000D02*
X496620D01*
X497235Y514105D01*
X498660Y512248D01*
X500517Y510823D01*
X502000Y510208D01*
Y515588D01*
D02*
G37*
G36*
X561380Y516588D02*
X556000D01*
Y511208D01*
X557483Y511823D01*
X559340Y513248D01*
X560765Y515105D01*
X561380Y516588D01*
D02*
G37*
G36*
X550000D02*
X544620D01*
X545234Y515105D01*
X546660Y513248D01*
X548517Y511823D01*
X550000Y511208D01*
Y516588D01*
D02*
G37*
G36*
X852540Y507300D02*
X844000D01*
Y498760D01*
X852540D01*
Y507300D01*
D02*
G37*
G36*
X838000D02*
X829460D01*
Y498760D01*
X838000D01*
Y507300D01*
D02*
G37*
G36*
X1161104Y529500D02*
X1141750D01*
Y510146D01*
X1143169Y510286D01*
X1147417Y511575D01*
X1151333Y513668D01*
X1154765Y516485D01*
X1157582Y519917D01*
X1159675Y523833D01*
X1160964Y528081D01*
X1161104Y529500D01*
D02*
G37*
G36*
X1135750D02*
X1116396D01*
X1116536Y528081D01*
X1117825Y523833D01*
X1119918Y519917D01*
X1122735Y516485D01*
X1126167Y513668D01*
X1130083Y511575D01*
X1134331Y510286D01*
X1135750Y510146D01*
Y529500D01*
D02*
G37*
G36*
X1019000Y398542D02*
X1016500D01*
X1017501Y397043D01*
X1019000Y396042D01*
Y398542D01*
D02*
G37*
G36*
X365000Y304500D02*
X359620D01*
X360235Y303017D01*
X361660Y301159D01*
X363517Y299735D01*
X365000Y299120D01*
Y304500D01*
D02*
G37*
G36*
X1172500Y314854D02*
Y295500D01*
X1191854D01*
X1191714Y296919D01*
X1190425Y301167D01*
X1188332Y305083D01*
X1185515Y308515D01*
X1182083Y311332D01*
X1178167Y313425D01*
X1173919Y314714D01*
X1172500Y314854D01*
D02*
G37*
G36*
X581633Y304524D02*
X576253D01*
X576868Y303040D01*
X578293Y301183D01*
X580150Y299758D01*
X581633Y299144D01*
Y304524D01*
D02*
G37*
G36*
X376380Y304500D02*
X371000D01*
Y299120D01*
X372483Y299735D01*
X374340Y301159D01*
X375765Y303017D01*
X376380Y304500D01*
D02*
G37*
G36*
X323044Y297924D02*
X321561Y297309D01*
X319704Y295884D01*
X318279Y294027D01*
X317664Y292544D01*
X323044D01*
Y297924D01*
D02*
G37*
G36*
X622245Y297000D02*
X614000D01*
Y288755D01*
X614012Y288757D01*
X616820Y289920D01*
X619230Y291770D01*
X621080Y294180D01*
X622243Y296987D01*
X622245Y297000D01*
D02*
G37*
G36*
X1166500Y314854D02*
X1165081Y314714D01*
X1160833Y313425D01*
X1156917Y311332D01*
X1153485Y308515D01*
X1150668Y305083D01*
X1148575Y301167D01*
X1147286Y296919D01*
X1147146Y295500D01*
X1166500D01*
Y314854D01*
D02*
G37*
G36*
X329044Y297924D02*
Y292544D01*
X334424D01*
X333809Y294027D01*
X332384Y295884D01*
X330527Y297309D01*
X329044Y297924D01*
D02*
G37*
G36*
X514000Y308500D02*
X508620D01*
X509235Y307017D01*
X510660Y305160D01*
X512517Y303735D01*
X514000Y303120D01*
Y308500D01*
D02*
G37*
G36*
X614000Y311245D02*
Y303000D01*
X622245D01*
X622243Y303013D01*
X621080Y305820D01*
X619230Y308230D01*
X616820Y310080D01*
X614012Y311243D01*
X614000Y311245D01*
D02*
G37*
G36*
X544000Y308500D02*
X538620D01*
X539235Y307017D01*
X540659Y305160D01*
X542517Y303735D01*
X544000Y303120D01*
Y308500D01*
D02*
G37*
G36*
X525380Y308500D02*
X520000D01*
Y303120D01*
X521483Y303735D01*
X523340Y305160D01*
X524765Y307017D01*
X525380Y308500D01*
D02*
G37*
G36*
X446000Y305800D02*
X440620D01*
X441235Y304317D01*
X442660Y302460D01*
X444517Y301035D01*
X446000Y300420D01*
Y305800D01*
D02*
G37*
G36*
X593013Y304524D02*
X587633D01*
Y299144D01*
X589117Y299758D01*
X590974Y301183D01*
X592398Y303040D01*
X593013Y304524D01*
D02*
G37*
G36*
X608000Y311245D02*
X607988Y311243D01*
X605180Y310080D01*
X602770Y308230D01*
X600920Y305820D01*
X599757Y303013D01*
X599755Y303000D01*
X608000D01*
Y311245D01*
D02*
G37*
G36*
X457380Y305800D02*
X452000D01*
Y300420D01*
X453483Y301035D01*
X455340Y302460D01*
X456765Y304317D01*
X457380Y305800D01*
D02*
G37*
G36*
X608000Y297000D02*
X599755D01*
X599757Y296987D01*
X600920Y294180D01*
X602770Y291770D01*
X605180Y289920D01*
X607988Y288757D01*
X608000Y288755D01*
Y297000D01*
D02*
G37*
G36*
X1105836Y296939D02*
X1082756D01*
Y273859D01*
X1105836D01*
Y296939D01*
D02*
G37*
G36*
X1080436Y282399D02*
X1071896D01*
Y273859D01*
X1080436D01*
Y282399D01*
D02*
G37*
G36*
X927940Y296940D02*
X904860D01*
Y273860D01*
X927940D01*
Y296940D01*
D02*
G37*
G36*
X902540D02*
X879460D01*
Y273860D01*
X902540D01*
Y296940D01*
D02*
G37*
G36*
X1191854Y289500D02*
X1172500D01*
Y270146D01*
X1173919Y270286D01*
X1178167Y271575D01*
X1182083Y273668D01*
X1185515Y276485D01*
X1188332Y279917D01*
X1190425Y283833D01*
X1191714Y288081D01*
X1191854Y289500D01*
D02*
G37*
G36*
X1166500D02*
X1147146D01*
X1147286Y288081D01*
X1148575Y283833D01*
X1150668Y279917D01*
X1153485Y276485D01*
X1156917Y273668D01*
X1160833Y271575D01*
X1165081Y270286D01*
X1166500Y270146D01*
Y289500D01*
D02*
G37*
G36*
X1065896Y282399D02*
X1057356D01*
Y273859D01*
X1065896D01*
Y282399D01*
D02*
G37*
G36*
X865600Y297040D02*
X862588Y296643D01*
X859780Y295480D01*
X857370Y293630D01*
X855520Y291220D01*
X854357Y288412D01*
X853960Y285400D01*
X854357Y282387D01*
X855520Y279580D01*
X857370Y277170D01*
X859780Y275320D01*
X862588Y274157D01*
X865600Y273760D01*
X868613Y274157D01*
X871420Y275320D01*
X873830Y277170D01*
X875680Y279580D01*
X876843Y282387D01*
X877240Y285400D01*
X876843Y288412D01*
X875680Y291220D01*
X873830Y293630D01*
X871420Y295480D01*
X868613Y296643D01*
X865600Y297040D01*
D02*
G37*
G36*
X1065896Y296939D02*
X1057356D01*
Y288399D01*
X1065896D01*
Y296939D01*
D02*
G37*
G36*
X334424Y286544D02*
X329044D01*
Y281164D01*
X330527Y281779D01*
X332384Y283204D01*
X333809Y285061D01*
X334424Y286544D01*
D02*
G37*
G36*
X647940Y311540D02*
X624860D01*
Y288460D01*
X647940D01*
Y311540D01*
D02*
G37*
G36*
X1080436Y296939D02*
X1071896D01*
Y288399D01*
X1080436D01*
Y296939D01*
D02*
G37*
G36*
X978740Y296940D02*
X955660D01*
Y273860D01*
X978740D01*
Y296940D01*
D02*
G37*
G36*
X953340D02*
X930260D01*
Y273860D01*
X953340D01*
Y296940D01*
D02*
G37*
G36*
X323044Y286544D02*
X317664D01*
X318279Y285061D01*
X319704Y283204D01*
X321561Y281779D01*
X323044Y281164D01*
Y286544D01*
D02*
G37*
G36*
X1004140Y296940D02*
X981060D01*
Y273860D01*
X1004140D01*
Y296940D01*
D02*
G37*
G36*
X555380Y308500D02*
X550000D01*
Y303120D01*
X551483Y303735D01*
X553340Y305160D01*
X554765Y307017D01*
X555380Y308500D01*
D02*
G37*
G36*
X1037000Y374500D02*
X1035501Y373499D01*
X1034500Y372000D01*
X1037000D01*
Y374500D01*
D02*
G37*
G36*
X852540Y374400D02*
X844000D01*
Y365860D01*
X852540D01*
Y374400D01*
D02*
G37*
G36*
X1067700Y418713D02*
X1065246Y418225D01*
X1063165Y416835D01*
X1061775Y414754D01*
X1061287Y412300D01*
X1061775Y409846D01*
X1063165Y407765D01*
X1065246Y406375D01*
X1065891Y406247D01*
Y391627D01*
X1065017Y391265D01*
X1063160Y389840D01*
X1061735Y387983D01*
X1060839Y385821D01*
X1060533Y383500D01*
X1060839Y381179D01*
X1061735Y379017D01*
X1063160Y377160D01*
X1065017Y375735D01*
X1067179Y374839D01*
X1069500Y374533D01*
X1071821Y374839D01*
X1073983Y375735D01*
X1075840Y377160D01*
X1077265Y379017D01*
X1078161Y381179D01*
X1078467Y383500D01*
X1078161Y385821D01*
X1077265Y387983D01*
X1075840Y389840D01*
X1073983Y391265D01*
X1073109Y391627D01*
Y409074D01*
X1073625Y409846D01*
X1074113Y412300D01*
X1073625Y414754D01*
X1072235Y416835D01*
X1070154Y418225D01*
X1067700Y418713D01*
D02*
G37*
G36*
X1043000Y374500D02*
Y372000D01*
X1045500D01*
X1044499Y373499D01*
X1043000Y374500D01*
D02*
G37*
G36*
X508350Y369956D02*
X502970D01*
X503585Y368473D01*
X505010Y366615D01*
X506867Y365191D01*
X508350Y364576D01*
Y369956D01*
D02*
G37*
G36*
X1045500Y366000D02*
X1043000D01*
Y363500D01*
X1044499Y364501D01*
X1045500Y366000D01*
D02*
G37*
G36*
X838000Y374400D02*
X829460D01*
Y365860D01*
X838000D01*
Y374400D01*
D02*
G37*
G36*
X519730Y369956D02*
X514350D01*
Y364576D01*
X515833Y365191D01*
X517690Y366615D01*
X519115Y368473D01*
X519730Y369956D01*
D02*
G37*
G36*
X852540Y388940D02*
X844000D01*
Y380400D01*
X852540D01*
Y388940D01*
D02*
G37*
G36*
X838000D02*
X829460D01*
Y380400D01*
X838000D01*
Y388940D01*
D02*
G37*
G36*
X1134000Y390000D02*
Y387500D01*
X1136500D01*
X1135499Y388999D01*
X1134000Y390000D01*
D02*
G37*
G36*
X1128000D02*
X1126501Y388999D01*
X1125500Y387500D01*
X1128000D01*
Y390000D01*
D02*
G37*
G36*
X514350Y381336D02*
Y375956D01*
X519730D01*
X519115Y377439D01*
X517690Y379296D01*
X515833Y380721D01*
X514350Y381336D01*
D02*
G37*
G36*
X508350D02*
X506867Y380721D01*
X505010Y379296D01*
X503585Y377439D01*
X502970Y375956D01*
X508350D01*
Y381336D01*
D02*
G37*
G36*
X1136500Y381500D02*
X1134000D01*
Y379000D01*
X1135499Y380001D01*
X1136500Y381500D01*
D02*
G37*
G36*
X1128000D02*
X1125500D01*
X1126501Y380001D01*
X1128000Y379000D01*
Y381500D01*
D02*
G37*
G36*
X1037000Y366000D02*
X1034500D01*
X1035501Y364501D01*
X1037000Y363500D01*
Y366000D01*
D02*
G37*
G36*
X452000Y317180D02*
Y311800D01*
X457380D01*
X456765Y313283D01*
X455340Y315140D01*
X453483Y316565D01*
X452000Y317180D01*
D02*
G37*
G36*
X446000D02*
X444517Y316565D01*
X442660Y315140D01*
X441235Y313283D01*
X440620Y311800D01*
X446000D01*
Y317180D01*
D02*
G37*
G36*
X520000Y319880D02*
Y314500D01*
X525380D01*
X524765Y315983D01*
X523340Y317840D01*
X521483Y319265D01*
X520000Y319880D01*
D02*
G37*
G36*
X514000D02*
X512517Y319265D01*
X510660Y317840D01*
X509235Y315983D01*
X508620Y314500D01*
X514000D01*
Y319880D01*
D02*
G37*
G36*
X371000Y315880D02*
Y310500D01*
X376380D01*
X375765Y311983D01*
X374340Y313840D01*
X372483Y315265D01*
X371000Y315880D01*
D02*
G37*
G36*
X365000D02*
X363517Y315265D01*
X361660Y313840D01*
X360235Y311983D01*
X359620Y310500D01*
X365000D01*
Y315880D01*
D02*
G37*
G36*
X587633Y315903D02*
Y310524D01*
X593013D01*
X592398Y312007D01*
X590974Y313864D01*
X589117Y315289D01*
X587633Y315903D01*
D02*
G37*
G36*
X581633D02*
X580150Y315289D01*
X578293Y313864D01*
X576868Y312007D01*
X576253Y310524D01*
X581633D01*
Y315903D01*
D02*
G37*
G36*
X1207000Y364003D02*
X1204741Y363554D01*
X1202826Y362274D01*
X1201546Y360359D01*
X1201097Y358100D01*
X1201546Y355841D01*
X1202826Y353926D01*
X1204741Y352646D01*
X1207000Y352197D01*
X1209259Y352646D01*
X1211174Y353926D01*
X1212454Y355841D01*
X1212903Y358100D01*
X1212454Y360359D01*
X1211174Y362274D01*
X1209259Y363554D01*
X1207000Y364003D01*
D02*
G37*
G36*
X471000Y355596D02*
X469293Y355372D01*
X467702Y354713D01*
X466336Y353664D01*
X465287Y352298D01*
X464628Y350707D01*
X464404Y349000D01*
X464628Y347293D01*
X465287Y345702D01*
X466336Y344336D01*
X467702Y343287D01*
X469293Y342628D01*
X471000Y342404D01*
X472707Y342628D01*
X474298Y343287D01*
X475664Y344336D01*
X476713Y345702D01*
X477372Y347293D01*
X477596Y349000D01*
X477372Y350707D01*
X476713Y352298D01*
X475664Y353664D01*
X474298Y354713D01*
X472707Y355372D01*
X471000Y355596D01*
D02*
G37*
G36*
X438000Y369596D02*
X436293Y369372D01*
X434702Y368713D01*
X433336Y367664D01*
X432287Y366298D01*
X431628Y364707D01*
X431404Y363000D01*
X431628Y361293D01*
X432287Y359702D01*
X433336Y358336D01*
X434702Y357287D01*
X436293Y356628D01*
X438000Y356404D01*
X439707Y356628D01*
X441298Y357287D01*
X442664Y358336D01*
X443713Y359702D01*
X444372Y361293D01*
X444596Y363000D01*
X444372Y364707D01*
X443713Y366298D01*
X442664Y367664D01*
X441298Y368713D01*
X439707Y369372D01*
X438000Y369596D01*
D02*
G37*
G36*
X1021000Y378467D02*
X1018679Y378161D01*
X1016517Y377265D01*
X1014660Y375840D01*
X1013235Y373983D01*
X1012339Y371821D01*
X1012033Y369500D01*
X1012339Y367179D01*
X1013235Y365017D01*
X1014660Y363160D01*
X1016517Y361735D01*
X1018679Y360839D01*
X1021000Y360533D01*
X1022121Y360681D01*
X1023391Y359567D01*
Y353325D01*
X1022121Y353072D01*
X1021963Y353453D01*
X1020547Y355298D01*
X1018703Y356713D01*
X1016555Y357603D01*
X1014250Y357906D01*
X1011945Y357603D01*
X1009797Y356713D01*
X1007952Y355298D01*
X1006537Y353453D01*
X1005647Y351305D01*
X1005344Y349000D01*
X1005647Y346695D01*
X1006537Y344547D01*
X1007952Y342702D01*
X1009797Y341287D01*
X1011945Y340397D01*
X1014250Y340094D01*
X1016555Y340397D01*
X1018703Y341287D01*
X1020547Y342702D01*
X1021963Y344547D01*
X1022121Y344928D01*
X1023391Y344675D01*
Y326747D01*
X1022436Y325909D01*
X1022000Y325967D01*
X1019679Y325661D01*
X1017517Y324765D01*
X1015660Y323340D01*
X1014235Y321483D01*
X1013339Y319321D01*
X1013033Y317000D01*
X1013339Y314679D01*
X1014235Y312517D01*
X1015660Y310660D01*
X1017517Y309235D01*
X1019679Y308339D01*
X1022000Y308033D01*
X1024321Y308339D01*
X1026483Y309235D01*
X1028340Y310660D01*
X1029765Y312517D01*
X1030661Y314679D01*
X1030967Y317000D01*
X1030661Y319321D01*
X1030204Y320424D01*
X1030335Y320619D01*
X1030609Y322000D01*
Y363500D01*
X1030335Y364881D01*
X1029552Y366052D01*
X1029299Y366305D01*
X1029661Y367179D01*
X1029967Y369500D01*
X1029661Y371821D01*
X1028765Y373983D01*
X1027340Y375840D01*
X1025483Y377265D01*
X1023321Y378161D01*
X1021000Y378467D01*
D02*
G37*
G36*
X550000Y319880D02*
Y314500D01*
X555380D01*
X554765Y315983D01*
X553340Y317840D01*
X551483Y319265D01*
X550000Y319880D01*
D02*
G37*
G36*
X544000D02*
X542517Y319265D01*
X540659Y317840D01*
X539235Y315983D01*
X538620Y314500D01*
X544000D01*
Y319880D01*
D02*
G37*
G36*
X841000Y363640D02*
X837987Y363243D01*
X835180Y362080D01*
X832770Y360230D01*
X830920Y357820D01*
X829757Y355013D01*
X829360Y352000D01*
X829757Y348988D01*
X830920Y346180D01*
X832770Y343770D01*
X835180Y341920D01*
X837987Y340757D01*
X841000Y340360D01*
X844013Y340757D01*
X846820Y341920D01*
X849230Y343770D01*
X851080Y346180D01*
X852243Y348988D01*
X852639Y352000D01*
X852243Y355013D01*
X851080Y357820D01*
X849230Y360230D01*
X846820Y362080D01*
X844013Y363243D01*
X841000Y363640D01*
D02*
G37*
G36*
X1049000Y357906D02*
X1046695Y357603D01*
X1044547Y356713D01*
X1042702Y355298D01*
X1041287Y353453D01*
X1040397Y351305D01*
X1040094Y349000D01*
X1040397Y346695D01*
X1041287Y344547D01*
X1042702Y342702D01*
X1044547Y341287D01*
X1046695Y340397D01*
X1049000Y340094D01*
X1051305Y340397D01*
X1053453Y341287D01*
X1055298Y342702D01*
X1056713Y344547D01*
X1057603Y346695D01*
X1057906Y349000D01*
X1057603Y351305D01*
X1056713Y353453D01*
X1055298Y355298D01*
X1053453Y356713D01*
X1051305Y357603D01*
X1049000Y357906D01*
D02*
G37*
G36*
X1196000Y698000D02*
X1187755D01*
X1187757Y697988D01*
X1188920Y695180D01*
X1190770Y692770D01*
X1193180Y690920D01*
X1195987Y689757D01*
X1196000Y689755D01*
Y698000D01*
D02*
G37*
G36*
X1210245D02*
X1202000D01*
Y689755D01*
X1202012Y689757D01*
X1204820Y690920D01*
X1207230Y692770D01*
X1209080Y695180D01*
X1210243Y697988D01*
X1210245Y698000D01*
D02*
G37*
G36*
X783000Y699350D02*
X780164D01*
X780287Y699052D01*
X781336Y697686D01*
X782702Y696637D01*
X783000Y696514D01*
Y699350D01*
D02*
G37*
G36*
X1071539Y707044D02*
X1048459D01*
Y683964D01*
X1071539D01*
Y707044D01*
D02*
G37*
G36*
X783000Y682786D02*
X782702Y682663D01*
X781336Y681614D01*
X780287Y680248D01*
X780164Y679950D01*
X783000D01*
Y682786D01*
D02*
G37*
G36*
X789000D02*
Y679950D01*
X791836D01*
X791713Y680248D01*
X790664Y681614D01*
X789298Y682663D01*
X789000Y682786D01*
D02*
G37*
G36*
X846539Y707044D02*
X823459D01*
Y683964D01*
X846539D01*
Y707044D01*
D02*
G37*
G36*
X791836Y699350D02*
X789000D01*
Y696514D01*
X789298Y696637D01*
X790664Y697686D01*
X791713Y699052D01*
X791836Y699350D01*
D02*
G37*
G36*
X1071540Y732540D02*
X1048460D01*
Y709460D01*
X1071540D01*
Y732540D01*
D02*
G37*
G36*
X993000Y718000D02*
X990164D01*
X990287Y717702D01*
X991336Y716336D01*
X992702Y715287D01*
X993000Y715164D01*
Y718000D01*
D02*
G37*
G36*
X1001836D02*
X999000D01*
Y715164D01*
X999298Y715287D01*
X1000664Y716336D01*
X1001713Y717702D01*
X1001836Y718000D01*
D02*
G37*
G36*
X789000Y708186D02*
Y705350D01*
X791836D01*
X791713Y705648D01*
X790664Y707014D01*
X789298Y708063D01*
X789000Y708186D01*
D02*
G37*
G36*
X1196000Y712245D02*
X1195987Y712243D01*
X1193180Y711080D01*
X1190770Y709230D01*
X1188920Y706820D01*
X1187757Y704013D01*
X1187755Y704000D01*
X1196000D01*
Y712245D01*
D02*
G37*
G36*
X1202000D02*
Y704000D01*
X1210245D01*
X1210243Y704013D01*
X1209080Y706820D01*
X1207230Y709230D01*
X1204820Y711080D01*
X1202012Y712243D01*
X1202000Y712245D01*
D02*
G37*
G36*
X783000Y708186D02*
X782702Y708063D01*
X781336Y707014D01*
X780287Y705648D01*
X780164Y705350D01*
X783000D01*
Y708186D01*
D02*
G37*
G36*
X1071539Y667104D02*
X1062999D01*
Y658564D01*
X1071539D01*
Y667104D01*
D02*
G37*
G36*
X504000Y705967D02*
X501679Y705661D01*
X499517Y704765D01*
X497660Y703340D01*
X496235Y701483D01*
X495339Y699321D01*
X495033Y697000D01*
X495339Y694679D01*
X496235Y692517D01*
X496395Y692308D01*
Y662150D01*
X495850Y661605D01*
X456692D01*
X456483Y661765D01*
X454321Y662661D01*
X452000Y662967D01*
X449679Y662661D01*
X447517Y661765D01*
X445660Y660340D01*
X444235Y658483D01*
X443339Y656321D01*
X443033Y654000D01*
X443339Y651679D01*
X444235Y649517D01*
X445660Y647660D01*
X447517Y646235D01*
X449679Y645339D01*
X452000Y645033D01*
X454321Y645339D01*
X456483Y646235D01*
X456692Y646395D01*
X499000D01*
X500968Y646654D01*
X501506Y646877D01*
X502803Y647414D01*
X504378Y648622D01*
X509378Y653622D01*
X510586Y655197D01*
X511123Y656494D01*
X511346Y657032D01*
X511605Y659000D01*
Y692308D01*
X511765Y692517D01*
X512661Y694679D01*
X512967Y697000D01*
X512661Y699321D01*
X511765Y701483D01*
X510340Y703340D01*
X508483Y704765D01*
X506321Y705661D01*
X504000Y705967D01*
D02*
G37*
G36*
X1210540Y687140D02*
X1187460D01*
Y664060D01*
X1210540D01*
Y687140D01*
D02*
G37*
G36*
X1056999Y667104D02*
X1048459D01*
Y658564D01*
X1056999D01*
Y667104D01*
D02*
G37*
G36*
X525600Y659836D02*
X525302Y659713D01*
X523936Y658664D01*
X522887Y657298D01*
X522764Y657000D01*
X525600D01*
Y659836D01*
D02*
G37*
G36*
X531600D02*
Y657000D01*
X534436D01*
X534313Y657298D01*
X533264Y658664D01*
X531898Y659713D01*
X531600Y659836D01*
D02*
G37*
G36*
X846539Y681644D02*
X823459D01*
Y658564D01*
X846539D01*
Y681644D01*
D02*
G37*
G36*
X993000Y667104D02*
X990164D01*
X990287Y666806D01*
X991336Y665440D01*
X992702Y664391D01*
X993000Y664268D01*
Y667104D01*
D02*
G37*
G36*
X999000Y675940D02*
Y673104D01*
X1001836D01*
X1001713Y673402D01*
X1000664Y674768D01*
X999298Y675817D01*
X999000Y675940D01*
D02*
G37*
G36*
X1056999Y681644D02*
X1048459D01*
Y673104D01*
X1056999D01*
Y681644D01*
D02*
G37*
G36*
X1071539D02*
X1062999D01*
Y673104D01*
X1071539D01*
Y681644D01*
D02*
G37*
G36*
X993000Y675940D02*
X992702Y675817D01*
X991336Y674768D01*
X990287Y673402D01*
X990164Y673104D01*
X993000D01*
Y675940D01*
D02*
G37*
G36*
X1001836Y667104D02*
X999000D01*
Y664268D01*
X999298Y664391D01*
X1000664Y665440D01*
X1001713Y666806D01*
X1001836Y667104D01*
D02*
G37*
G36*
X783000Y673950D02*
X780164D01*
X780287Y673652D01*
X781336Y672286D01*
X782702Y671237D01*
X783000Y671114D01*
Y673950D01*
D02*
G37*
G36*
X791836D02*
X789000D01*
Y671114D01*
X789298Y671237D01*
X790664Y672286D01*
X791713Y673652D01*
X791836Y673950D01*
D02*
G37*
G36*
X783000Y724750D02*
X780164D01*
X780287Y724452D01*
X781336Y723086D01*
X782702Y722037D01*
X783000Y721914D01*
Y724750D01*
D02*
G37*
G36*
X1071540Y834140D02*
X1048460D01*
Y811060D01*
X1071540D01*
Y834140D01*
D02*
G37*
G36*
X993000Y819600D02*
X990164D01*
X990287Y819302D01*
X991336Y817936D01*
X992702Y816887D01*
X993000Y816764D01*
Y819600D01*
D02*
G37*
G36*
X1001836D02*
X999000D01*
Y816764D01*
X999298Y816887D01*
X1000664Y817936D01*
X1001713Y819302D01*
X1001836Y819600D01*
D02*
G37*
G36*
X846540Y834140D02*
X823460D01*
Y811060D01*
X846540D01*
Y834140D01*
D02*
G37*
G36*
X1071540Y808740D02*
X1048460D01*
Y785660D01*
X1071540D01*
Y808740D01*
D02*
G37*
G36*
X1199000Y817690D02*
X1195987Y817293D01*
X1193180Y816130D01*
X1190770Y814280D01*
X1188920Y811870D01*
X1187757Y809062D01*
X1187360Y806050D01*
X1187757Y803037D01*
X1188920Y800230D01*
X1190770Y797820D01*
X1193180Y795970D01*
X1195987Y794807D01*
X1199000Y794410D01*
X1202012Y794807D01*
X1204820Y795970D01*
X1207230Y797820D01*
X1209080Y800230D01*
X1210243Y803037D01*
X1210639Y806050D01*
X1210243Y809062D01*
X1209080Y811870D01*
X1207230Y814280D01*
X1204820Y816130D01*
X1202012Y817293D01*
X1199000Y817690D01*
D02*
G37*
G36*
X731000Y812967D02*
X728679Y812661D01*
X726517Y811765D01*
X726308Y811605D01*
X648000D01*
X646032Y811346D01*
X645272Y811031D01*
X644197Y810586D01*
X642622Y809378D01*
X617622Y784378D01*
X616414Y782803D01*
X615877Y781506D01*
X615654Y780968D01*
X615395Y779000D01*
Y745692D01*
X615235Y745483D01*
X614339Y743321D01*
X614033Y741000D01*
X614339Y738679D01*
X615235Y736517D01*
X615395Y736308D01*
Y620692D01*
X615235Y620483D01*
X614339Y618321D01*
X614033Y616000D01*
X614339Y613679D01*
X615235Y611517D01*
X616660Y609660D01*
X618517Y608235D01*
X620679Y607339D01*
X623000Y607033D01*
X625321Y607339D01*
X627483Y608235D01*
X629340Y609660D01*
X630765Y611517D01*
X631661Y613679D01*
X631967Y616000D01*
X631661Y618321D01*
X630765Y620483D01*
X630605Y620692D01*
Y736308D01*
X630765Y736517D01*
X631661Y738679D01*
X631967Y741000D01*
X631661Y743321D01*
X630765Y745483D01*
X630605Y745692D01*
Y775850D01*
X651150Y796395D01*
X726308D01*
X726517Y796235D01*
X728679Y795339D01*
X731000Y795033D01*
X733321Y795339D01*
X735483Y796235D01*
X737340Y797660D01*
X738765Y799517D01*
X739661Y801679D01*
X739967Y804000D01*
X739661Y806321D01*
X738765Y808483D01*
X737340Y810340D01*
X735483Y811765D01*
X733321Y812661D01*
X731000Y812967D01*
D02*
G37*
G36*
X1026440Y961440D02*
X1001560D01*
Y936560D01*
X1003191D01*
X1003677Y935387D01*
X984449Y916158D01*
X866000D01*
X863643Y915689D01*
X861645Y914355D01*
X787645Y840355D01*
X786310Y838357D01*
X785842Y836000D01*
Y825551D01*
X783227Y822937D01*
X783000Y822967D01*
X780679Y822661D01*
X778517Y821765D01*
X776660Y820340D01*
X775235Y818483D01*
X774339Y816321D01*
X774033Y814000D01*
X774339Y811679D01*
X775235Y809517D01*
X776660Y807660D01*
X778517Y806235D01*
X780679Y805339D01*
X783000Y805033D01*
X785321Y805339D01*
X787483Y806235D01*
X789340Y807660D01*
X790765Y809517D01*
X791661Y811679D01*
X791967Y814000D01*
X791937Y814228D01*
X796355Y818645D01*
X797690Y820643D01*
X798158Y823000D01*
Y833449D01*
X868551Y903842D01*
X987000D01*
X989357Y904310D01*
X991355Y905645D01*
X1018355Y932645D01*
X1019690Y934643D01*
X1020071Y936560D01*
X1026440D01*
Y961440D01*
D02*
G37*
G36*
X763000Y952119D02*
X392000D01*
X390424Y951806D01*
X389087Y950913D01*
X366685Y928510D01*
X366321Y928661D01*
X364000Y928967D01*
X361679Y928661D01*
X359517Y927765D01*
X357660Y926340D01*
X356235Y924483D01*
X355339Y922321D01*
X355033Y920000D01*
X355339Y917679D01*
X356235Y915517D01*
X357660Y913660D01*
X359517Y912235D01*
X361679Y911339D01*
X364000Y911033D01*
X366321Y911339D01*
X368483Y912235D01*
X370340Y913660D01*
X371765Y915517D01*
X372661Y917679D01*
X372967Y920000D01*
X372661Y922321D01*
X372510Y922685D01*
X393706Y943881D01*
X761294D01*
X801490Y903685D01*
X801339Y903321D01*
X801033Y901000D01*
X801339Y898679D01*
X802235Y896517D01*
X803660Y894660D01*
X805517Y893235D01*
X807679Y892339D01*
X810000Y892033D01*
X812321Y892339D01*
X814483Y893235D01*
X816340Y894660D01*
X817765Y896517D01*
X818661Y898679D01*
X818967Y901000D01*
X818661Y903321D01*
X817765Y905483D01*
X816340Y907340D01*
X814483Y908765D01*
X812321Y909661D01*
X810000Y909967D01*
X807679Y909661D01*
X807315Y909510D01*
X765913Y950913D01*
X764576Y951806D01*
X763000Y952119D01*
D02*
G37*
G36*
X644000Y934967D02*
X641679Y934661D01*
X639517Y933765D01*
X637660Y932340D01*
X636235Y930483D01*
X635339Y928321D01*
X635033Y926000D01*
X635339Y923679D01*
X636235Y921517D01*
X637660Y919660D01*
X638352Y919129D01*
Y916542D01*
X637149Y916134D01*
X636990Y916340D01*
X635133Y917765D01*
X632971Y918661D01*
X630650Y918967D01*
X628329Y918661D01*
X626167Y917765D01*
X624310Y916340D01*
X622885Y914483D01*
X621989Y912321D01*
X621683Y910000D01*
X621989Y907679D01*
X622885Y905517D01*
X624310Y903660D01*
X625511Y902738D01*
Y835950D01*
X625902Y833983D01*
X627016Y832316D01*
X640366Y818966D01*
X642033Y817852D01*
X644000Y817461D01*
X736272D01*
X760166Y793566D01*
X761833Y792452D01*
X763800Y792061D01*
X823460D01*
Y785660D01*
X846540D01*
Y808740D01*
X823460D01*
Y802339D01*
X765929D01*
X742034Y826234D01*
X740367Y827347D01*
X738400Y827739D01*
X713092D01*
X712608Y829009D01*
X713765Y830517D01*
X714661Y832679D01*
X714967Y835000D01*
X714661Y837321D01*
X713765Y839483D01*
X712340Y841340D01*
X710483Y842765D01*
X708321Y843661D01*
X706000Y843967D01*
X703679Y843661D01*
X701517Y842765D01*
X699660Y841340D01*
X699129Y840648D01*
X661340D01*
X649649Y852340D01*
Y919129D01*
X650340Y919660D01*
X651765Y921517D01*
X652661Y923679D01*
X652967Y926000D01*
X652661Y928321D01*
X651765Y930483D01*
X650340Y932340D01*
X648483Y933765D01*
X646321Y934661D01*
X644000Y934967D01*
D02*
G37*
G36*
X892000Y961547D02*
X888753Y961120D01*
X885726Y959866D01*
X883128Y957872D01*
X881134Y955274D01*
X879880Y952247D01*
X879453Y949000D01*
X879880Y945752D01*
X881134Y942726D01*
X883128Y940128D01*
X885726Y938134D01*
X888753Y936880D01*
X892000Y936453D01*
X895247Y936880D01*
X898274Y938134D01*
X900872Y940128D01*
X902866Y942726D01*
X904120Y945752D01*
X904547Y949000D01*
X904120Y952247D01*
X902866Y955274D01*
X900872Y957872D01*
X898274Y959866D01*
X895247Y961120D01*
X892000Y961547D01*
D02*
G37*
G36*
X1060000Y859640D02*
X1056988Y859243D01*
X1054180Y858080D01*
X1051770Y856230D01*
X1049920Y853820D01*
X1048757Y851012D01*
X1048361Y848000D01*
X1048757Y844987D01*
X1049920Y842180D01*
X1051770Y839770D01*
X1054180Y837920D01*
X1056988Y836757D01*
X1060000Y836360D01*
X1063013Y836757D01*
X1065820Y837920D01*
X1068230Y839770D01*
X1070080Y842180D01*
X1071243Y844987D01*
X1071640Y848000D01*
X1071243Y851012D01*
X1070080Y853820D01*
X1068230Y856230D01*
X1065820Y858080D01*
X1063013Y859243D01*
X1060000Y859640D01*
D02*
G37*
G36*
X993000Y828436D02*
X992702Y828313D01*
X991336Y827264D01*
X990287Y825898D01*
X990164Y825600D01*
X993000D01*
Y828436D01*
D02*
G37*
G36*
X999000D02*
Y825600D01*
X1001836D01*
X1001713Y825898D01*
X1000664Y827264D01*
X999298Y828313D01*
X999000Y828436D01*
D02*
G37*
G36*
X835000Y859640D02*
X831988Y859243D01*
X829180Y858080D01*
X826770Y856230D01*
X824920Y853820D01*
X823757Y851012D01*
X823361Y848000D01*
X823757Y844987D01*
X824920Y842180D01*
X826770Y839770D01*
X829180Y837920D01*
X831988Y836757D01*
X835000Y836360D01*
X838012Y836757D01*
X840820Y837920D01*
X843230Y839770D01*
X845080Y842180D01*
X846243Y844987D01*
X846640Y848000D01*
X846243Y851012D01*
X845080Y853820D01*
X843230Y856230D01*
X840820Y858080D01*
X838012Y859243D01*
X835000Y859640D01*
D02*
G37*
G36*
X789000Y733586D02*
Y730750D01*
X791836D01*
X791713Y731048D01*
X790664Y732414D01*
X789298Y733463D01*
X789000Y733586D01*
D02*
G37*
G36*
X1071540Y757940D02*
X1048460D01*
Y734860D01*
X1071540D01*
Y757940D01*
D02*
G37*
G36*
X675000Y768967D02*
X672679Y768661D01*
X670517Y767765D01*
X668660Y766340D01*
X667235Y764483D01*
X666339Y762321D01*
X666033Y760000D01*
X666339Y757679D01*
X667235Y755517D01*
X668085Y754409D01*
X667458Y753139D01*
X664262D01*
X663340Y754340D01*
X661483Y755765D01*
X659321Y756661D01*
X657000Y756967D01*
X654679Y756661D01*
X652517Y755765D01*
X650660Y754340D01*
X649235Y752483D01*
X648339Y750321D01*
X648033Y748000D01*
X648339Y745679D01*
X649235Y743517D01*
X650660Y741660D01*
X652517Y740235D01*
X654679Y739339D01*
X657000Y739033D01*
X659321Y739339D01*
X661483Y740235D01*
X663340Y741660D01*
X664262Y742861D01*
X784872D01*
X807366Y720366D01*
X809034Y719252D01*
X811000Y718861D01*
X823460D01*
Y709460D01*
X846540D01*
Y732540D01*
X823460D01*
Y729139D01*
X813129D01*
X790634Y751634D01*
X788967Y752747D01*
X787000Y753139D01*
X683532D01*
X682827Y754409D01*
X683108Y754861D01*
X793872D01*
X805966Y742766D01*
X807634Y741652D01*
X809600Y741261D01*
X823460D01*
Y734860D01*
X846540D01*
Y757940D01*
X823460D01*
Y751539D01*
X811729D01*
X799634Y763634D01*
X797967Y764747D01*
X796000Y765139D01*
X682262D01*
X681340Y766340D01*
X679483Y767765D01*
X677321Y768661D01*
X675000Y768967D01*
D02*
G37*
G36*
X783000Y733586D02*
X782702Y733463D01*
X781336Y732414D01*
X780287Y731048D01*
X780164Y730750D01*
X783000D01*
Y733586D01*
D02*
G37*
G36*
X791836Y724750D02*
X789000D01*
Y721914D01*
X789298Y722037D01*
X790664Y723086D01*
X791713Y724452D01*
X791836Y724750D01*
D02*
G37*
G36*
X993000Y726836D02*
X992702Y726713D01*
X991336Y725664D01*
X990287Y724298D01*
X990164Y724000D01*
X993000D01*
Y726836D01*
D02*
G37*
G36*
X999000D02*
Y724000D01*
X1001836D01*
X1001713Y724298D01*
X1000664Y725664D01*
X999298Y726713D01*
X999000Y726836D01*
D02*
G37*
G36*
X395000Y861240D02*
X387650D01*
X386659Y861043D01*
X385819Y860481D01*
X385169Y859831D01*
X384607Y858991D01*
X384410Y858000D01*
Y836081D01*
X376836Y828590D01*
X336000D01*
X335009Y828393D01*
X334169Y827831D01*
X333169Y826831D01*
X331169Y824831D01*
X330607Y823991D01*
X330410Y823000D01*
Y812000D01*
Y722000D01*
X330607Y721009D01*
X331169Y720169D01*
X353169Y698169D01*
X354009Y697607D01*
X355000Y697410D01*
X388512Y697410D01*
X389410Y696512D01*
Y678600D01*
X389439Y678453D01*
X389427Y678304D01*
X389537Y677962D01*
X389607Y677609D01*
X389691Y677485D01*
X389736Y677342D01*
X391736Y673742D01*
X391969Y673468D01*
X392169Y673169D01*
X392293Y673086D01*
X392390Y672972D01*
X392710Y672807D01*
X393009Y672607D01*
X393156Y672578D01*
X393288Y672510D01*
X393647Y672480D01*
X394000Y672410D01*
X464000D01*
X464182Y672446D01*
X464366Y672436D01*
X464673Y672544D01*
X464991Y672607D01*
X465145Y672710D01*
X465320Y672772D01*
X465561Y672988D01*
X465831Y673169D01*
X465934Y673323D01*
X466072Y673446D01*
X472072Y681446D01*
X472212Y681739D01*
X472393Y682009D01*
X472429Y682190D01*
X472509Y682357D01*
X472526Y682682D01*
X472590Y683000D01*
Y738410D01*
X521000D01*
X521991Y738607D01*
X522831Y739169D01*
X523393Y740009D01*
X523590Y741000D01*
Y759584D01*
X524494Y760475D01*
X587058Y759569D01*
X587067Y759570D01*
X587077Y759568D01*
X587565Y759662D01*
X588052Y759751D01*
X588060Y759756D01*
X588069Y759758D01*
X588483Y760030D01*
X588900Y760301D01*
X588905Y760308D01*
X588913Y760314D01*
X589818Y761205D01*
X589823Y761213D01*
X589831Y761218D01*
X590107Y761631D01*
X590385Y762041D01*
X590387Y762050D01*
X590393Y762058D01*
X590490Y762546D01*
X590590Y763031D01*
X590588Y763040D01*
X590590Y763050D01*
Y851000D01*
X590393Y851991D01*
X590018Y852552D01*
X589831Y852831D01*
X589831D01*
Y852831D01*
X589552Y853018D01*
X588991Y853393D01*
X588000Y853590D01*
X585000Y853590D01*
X554000D01*
X553009Y853393D01*
X552169Y852831D01*
X551607Y851991D01*
X551410Y851000D01*
Y843073D01*
X545927Y837590D01*
X536000D01*
X535227Y837436D01*
X533831Y838831D01*
X532991Y839393D01*
X532000Y839590D01*
X515073D01*
X514831Y839831D01*
X513991Y840393D01*
X513000Y840590D01*
X512009Y840393D01*
X511169Y839831D01*
X509169Y837831D01*
X508607Y836991D01*
X508410Y836000D01*
Y831000D01*
X508410Y803073D01*
X471927Y766590D01*
X396073D01*
X395831Y766831D01*
X393190Y769473D01*
Y770000D01*
Y818067D01*
X395291Y820169D01*
X396831Y821709D01*
X397393Y822549D01*
X397590Y823540D01*
Y858650D01*
X397393Y859641D01*
X396831Y860481D01*
X395991Y861043D01*
X395000Y861240D01*
D02*
G37*
G36*
X1210540Y792190D02*
X1187460D01*
Y769110D01*
X1210540D01*
Y792190D01*
D02*
G37*
G36*
X993000Y777636D02*
X992702Y777513D01*
X991336Y776464D01*
X990287Y775098D01*
X990164Y774800D01*
X993000D01*
Y777636D01*
D02*
G37*
G36*
X999000D02*
Y774800D01*
X1001836D01*
X1001713Y775098D01*
X1000664Y776464D01*
X999298Y777513D01*
X999000Y777636D01*
D02*
G37*
G36*
X1001836Y768800D02*
X999000D01*
Y765964D01*
X999298Y766087D01*
X1000664Y767136D01*
X1001713Y768502D01*
X1001836Y768800D01*
D02*
G37*
G36*
X846540Y783340D02*
X823460D01*
Y760260D01*
X846540D01*
Y783340D01*
D02*
G37*
G36*
X1071540D02*
X1048460D01*
Y760260D01*
X1071540D01*
Y783340D01*
D02*
G37*
G36*
X993000Y768800D02*
X990164D01*
X990287Y768502D01*
X991336Y767136D01*
X992702Y766087D01*
X993000Y765964D01*
Y768800D01*
D02*
G37*
G36*
X846539Y630844D02*
X823459D01*
Y607764D01*
X846539D01*
Y630844D01*
D02*
G37*
G36*
X1071539D02*
X1048459D01*
Y607764D01*
X1071539D01*
Y630844D01*
D02*
G37*
G36*
X525600Y613000D02*
X522764D01*
X522887Y612702D01*
X523936Y611336D01*
X525302Y610287D01*
X525600Y610164D01*
Y613000D01*
D02*
G37*
G36*
X327405Y634000D02*
X298000D01*
Y604595D01*
X300106Y604761D01*
X305086Y605957D01*
X309818Y607917D01*
X314186Y610593D01*
X318080Y613920D01*
X321407Y617814D01*
X324083Y622182D01*
X326043Y626913D01*
X327239Y631894D01*
X327405Y634000D01*
D02*
G37*
G36*
X888000Y576340D02*
X879460D01*
Y567800D01*
X888000D01*
Y576340D01*
D02*
G37*
G36*
X902540D02*
X894000D01*
Y567800D01*
X902540D01*
Y576340D01*
D02*
G37*
G36*
X292000Y634000D02*
X262596D01*
X262761Y631894D01*
X263957Y626913D01*
X265917Y622182D01*
X268593Y617814D01*
X271920Y613920D01*
X275814Y610593D01*
X280182Y607917D01*
X284914Y605957D01*
X289894Y604761D01*
X292000Y604595D01*
Y634000D01*
D02*
G37*
G36*
X534436Y613000D02*
X531600D01*
Y610164D01*
X531898Y610287D01*
X533264Y611336D01*
X534313Y612702D01*
X534436Y613000D01*
D02*
G37*
G36*
X1210540Y636340D02*
X1187460D01*
Y613260D01*
X1210540D01*
Y636340D01*
D02*
G37*
G36*
X418000Y641639D02*
X414987Y641243D01*
X412180Y640080D01*
X409770Y638230D01*
X407920Y635820D01*
X406757Y633013D01*
X406361Y630000D01*
X406757Y626987D01*
X407920Y624180D01*
X409770Y621770D01*
X412180Y619920D01*
X414987Y618757D01*
X418000Y618360D01*
X421012Y618757D01*
X423820Y619920D01*
X426230Y621770D01*
X428080Y624180D01*
X429243Y626987D01*
X429640Y630000D01*
X429243Y633013D01*
X428080Y635820D01*
X426230Y638230D01*
X423820Y640080D01*
X421012Y641243D01*
X418000Y641639D01*
D02*
G37*
G36*
X389600Y627000D02*
X381060D01*
Y618460D01*
X389600D01*
Y627000D01*
D02*
G37*
G36*
X591836Y613000D02*
X589000D01*
Y610164D01*
X589298Y610287D01*
X590664Y611336D01*
X591713Y612702D01*
X591836Y613000D01*
D02*
G37*
G36*
X553000D02*
X550164D01*
X550287Y612702D01*
X551336Y611336D01*
X552702Y610287D01*
X553000Y610164D01*
Y613000D01*
D02*
G37*
G36*
X561836D02*
X559000D01*
Y610164D01*
X559298Y610287D01*
X560664Y611336D01*
X561713Y612702D01*
X561836Y613000D01*
D02*
G37*
G36*
X583000D02*
X580164D01*
X580287Y612702D01*
X581336Y611336D01*
X582702Y610287D01*
X583000Y610164D01*
Y613000D01*
D02*
G37*
G36*
X633000Y587405D02*
Y558000D01*
X662404D01*
X662239Y560106D01*
X661043Y565087D01*
X659083Y569818D01*
X656407Y574186D01*
X653080Y578080D01*
X649186Y581407D01*
X644818Y584083D01*
X640087Y586043D01*
X635106Y587239D01*
X633000Y587405D01*
D02*
G37*
G36*
X1080436Y576339D02*
X1057356D01*
Y553259D01*
X1080436D01*
Y576339D01*
D02*
G37*
G36*
X1105836D02*
X1082756D01*
Y553259D01*
X1105836D01*
Y576339D01*
D02*
G37*
G36*
X888000Y561800D02*
X879460D01*
Y553260D01*
X888000D01*
Y561800D01*
D02*
G37*
G36*
X1055036Y576339D02*
X1031956D01*
Y553259D01*
X1055036D01*
Y576339D01*
D02*
G37*
G36*
X1094000Y542413D02*
X1091546Y541925D01*
X1089465Y540535D01*
X1088847Y539609D01*
X1074423D01*
X1072454Y540925D01*
X1070000Y541413D01*
X1067546Y540925D01*
X1065577Y539609D01*
X1051153D01*
X1050535Y540535D01*
X1048454Y541925D01*
X1046000Y542413D01*
X1043546Y541925D01*
X1041465Y540535D01*
X1040847Y539609D01*
X1027153D01*
X1026535Y540535D01*
X1024454Y541925D01*
X1022000Y542413D01*
X1019546Y541925D01*
X1017465Y540535D01*
X1016075Y538454D01*
X1015587Y536000D01*
X1016075Y533546D01*
X1017465Y531465D01*
X1019546Y530075D01*
X1022000Y529587D01*
X1024454Y530075D01*
X1026535Y531465D01*
X1027153Y532391D01*
X1040847D01*
X1041465Y531465D01*
X1043546Y530075D01*
X1045391Y529708D01*
Y476853D01*
X1044465Y476235D01*
X1043075Y474154D01*
X1042587Y471700D01*
X1043075Y469246D01*
X1044465Y467165D01*
X1046546Y465775D01*
X1049000Y465287D01*
X1051454Y465775D01*
X1053535Y467165D01*
X1054925Y469246D01*
X1055413Y471700D01*
X1054925Y474154D01*
X1053535Y476235D01*
X1052609Y476853D01*
Y532391D01*
X1064179D01*
X1065465Y530465D01*
X1067546Y529075D01*
X1070000Y528587D01*
X1072454Y529075D01*
X1074535Y530465D01*
X1075821Y532391D01*
X1088847D01*
X1089465Y531465D01*
X1091546Y530075D01*
X1094000Y529587D01*
X1096454Y530075D01*
X1098535Y531465D01*
X1099925Y533546D01*
X1100413Y536000D01*
X1099925Y538454D01*
X1098535Y540535D01*
X1096454Y541925D01*
X1094000Y542413D01*
D02*
G37*
G36*
X865600Y576440D02*
X862588Y576043D01*
X859780Y574880D01*
X857370Y573030D01*
X855520Y570620D01*
X854357Y567812D01*
X853960Y564800D01*
X854357Y561787D01*
X855520Y558980D01*
X857370Y556570D01*
X859780Y554720D01*
X862588Y553557D01*
X865600Y553160D01*
X868613Y553557D01*
X871420Y554720D01*
X873830Y556570D01*
X875680Y558980D01*
X876843Y561787D01*
X877240Y564800D01*
X876843Y567812D01*
X875680Y570620D01*
X873830Y573030D01*
X871420Y574880D01*
X868613Y576043D01*
X865600Y576440D01*
D02*
G37*
G36*
X1029636Y576339D02*
X1006556D01*
Y553259D01*
X1029636D01*
Y576339D01*
D02*
G37*
G36*
X902540Y561800D02*
X894000D01*
Y553260D01*
X902540D01*
Y561800D01*
D02*
G37*
G36*
X292000Y587405D02*
X289894Y587239D01*
X284914Y586043D01*
X280182Y584083D01*
X275814Y581407D01*
X271920Y578080D01*
X268593Y574186D01*
X265917Y569818D01*
X263957Y565087D01*
X262761Y560106D01*
X262596Y558000D01*
X292000D01*
Y587405D01*
D02*
G37*
G36*
X298000D02*
Y558000D01*
X327405D01*
X327239Y560106D01*
X326043Y565087D01*
X324083Y569818D01*
X321407Y574186D01*
X318080Y578080D01*
X314186Y581407D01*
X309818Y584083D01*
X305086Y586043D01*
X300106Y587239D01*
X298000Y587405D01*
D02*
G37*
G36*
X627000D02*
X624894Y587239D01*
X619913Y586043D01*
X615182Y584083D01*
X610814Y581407D01*
X606920Y578080D01*
X603593Y574186D01*
X600917Y569818D01*
X598957Y565087D01*
X597761Y560106D01*
X597595Y558000D01*
X627000D01*
Y587405D01*
D02*
G37*
G36*
X1004140Y576340D02*
X981060D01*
Y553260D01*
X1004140D01*
Y576340D01*
D02*
G37*
G36*
X927940D02*
X904860D01*
Y553260D01*
X927940D01*
Y576340D01*
D02*
G37*
G36*
X953340D02*
X930260D01*
Y553260D01*
X953340D01*
Y576340D01*
D02*
G37*
G36*
X978740D02*
X955660D01*
Y553260D01*
X978740D01*
Y576340D01*
D02*
G37*
G36*
X1118000Y665405D02*
Y636000D01*
X1147404D01*
X1147239Y638106D01*
X1146043Y643086D01*
X1144083Y647819D01*
X1141407Y652186D01*
X1138080Y656080D01*
X1134186Y659407D01*
X1129818Y662083D01*
X1125087Y664043D01*
X1120106Y665239D01*
X1118000Y665405D01*
D02*
G37*
G36*
X993000Y650540D02*
X992702Y650417D01*
X991336Y649368D01*
X990287Y648002D01*
X990164Y647704D01*
X993000D01*
Y650540D01*
D02*
G37*
G36*
X791836Y648550D02*
X789000D01*
Y645714D01*
X789298Y645837D01*
X790664Y646886D01*
X791713Y648252D01*
X791836Y648550D01*
D02*
G37*
G36*
X1112000Y665405D02*
X1109894Y665239D01*
X1104913Y664043D01*
X1100182Y662083D01*
X1095814Y659407D01*
X1091920Y656080D01*
X1088593Y652186D01*
X1085917Y647819D01*
X1083957Y643086D01*
X1082761Y638106D01*
X1082596Y636000D01*
X1112000D01*
Y665405D01*
D02*
G37*
G36*
X404140Y641540D02*
X395600D01*
Y633000D01*
X404140D01*
Y641540D01*
D02*
G37*
G36*
X846539Y656244D02*
X823459D01*
Y633164D01*
X846539D01*
Y656244D01*
D02*
G37*
G36*
X1071539D02*
X1048459D01*
Y633164D01*
X1071539D01*
Y656244D01*
D02*
G37*
G36*
X783000Y648550D02*
X780164D01*
X780287Y648252D01*
X781336Y646886D01*
X782702Y645837D01*
X783000Y645714D01*
Y648550D01*
D02*
G37*
G36*
X298000Y669405D02*
Y640000D01*
X327405D01*
X327239Y642106D01*
X326043Y647086D01*
X324083Y651818D01*
X321407Y656186D01*
X318080Y660080D01*
X314186Y663407D01*
X309818Y666083D01*
X305086Y668043D01*
X300106Y669239D01*
X298000Y669405D01*
D02*
G37*
G36*
X440296Y648550D02*
X437460D01*
Y645714D01*
X437758Y645837D01*
X439124Y646886D01*
X440173Y648252D01*
X440296Y648550D01*
D02*
G37*
G36*
X431460D02*
X428624D01*
X428747Y648252D01*
X429796Y646886D01*
X431162Y645837D01*
X431460Y645714D01*
Y648550D01*
D02*
G37*
G36*
X292000Y669405D02*
X289894Y669239D01*
X284914Y668043D01*
X280182Y666083D01*
X275814Y663407D01*
X271920Y660080D01*
X268593Y656186D01*
X265917Y651818D01*
X263957Y647086D01*
X262761Y642106D01*
X262596Y640000D01*
X292000D01*
Y669405D01*
D02*
G37*
G36*
X1210540Y661740D02*
X1187460D01*
Y638660D01*
X1210540D01*
Y661740D01*
D02*
G37*
G36*
X993000Y641704D02*
X990164D01*
X990287Y641406D01*
X991336Y640040D01*
X992702Y638991D01*
X993000Y638868D01*
Y641704D01*
D02*
G37*
G36*
X1001836D02*
X999000D01*
Y638868D01*
X999298Y638991D01*
X1000664Y640040D01*
X1001713Y641406D01*
X1001836Y641704D01*
D02*
G37*
G36*
X389600Y641540D02*
X381060D01*
Y633000D01*
X389600D01*
Y641540D01*
D02*
G37*
G36*
X553000Y621836D02*
X552702Y621713D01*
X551336Y620664D01*
X550287Y619298D01*
X550164Y619000D01*
X553000D01*
Y621836D01*
D02*
G37*
G36*
X531600D02*
Y619000D01*
X534436D01*
X534313Y619298D01*
X533264Y620664D01*
X531898Y621713D01*
X531600Y621836D01*
D02*
G37*
G36*
X583000D02*
X582702Y621713D01*
X581336Y620664D01*
X580287Y619298D01*
X580164Y619000D01*
X583000D01*
Y621836D01*
D02*
G37*
G36*
X559000D02*
Y619000D01*
X561836D01*
X561713Y619298D01*
X560664Y620664D01*
X559298Y621713D01*
X559000Y621836D01*
D02*
G37*
G36*
X783000Y657386D02*
X782702Y657263D01*
X781336Y656214D01*
X780287Y654848D01*
X780164Y654550D01*
X783000D01*
Y657386D01*
D02*
G37*
G36*
X789000D02*
Y654550D01*
X791836D01*
X791713Y654848D01*
X790664Y656214D01*
X789298Y657263D01*
X789000Y657386D01*
D02*
G37*
G36*
X525600Y621836D02*
X525302Y621713D01*
X523936Y620664D01*
X522887Y619298D01*
X522764Y619000D01*
X525600D01*
Y621836D01*
D02*
G37*
G36*
X404140Y627000D02*
X395600D01*
Y618460D01*
X404140D01*
Y627000D01*
D02*
G37*
G36*
X999000Y650540D02*
Y647704D01*
X1001836D01*
X1001713Y648002D01*
X1000664Y649368D01*
X999298Y650417D01*
X999000Y650540D01*
D02*
G37*
G36*
X525600Y651000D02*
X522764D01*
X522887Y650702D01*
X523936Y649336D01*
X525302Y648287D01*
X525600Y648164D01*
Y651000D01*
D02*
G37*
G36*
X589000Y621836D02*
Y619000D01*
X591836D01*
X591713Y619298D01*
X590664Y620664D01*
X589298Y621713D01*
X589000Y621836D01*
D02*
G37*
G36*
X437460Y657386D02*
Y654550D01*
X440296D01*
X440173Y654848D01*
X439124Y656214D01*
X437758Y657263D01*
X437460Y657386D01*
D02*
G37*
G36*
X431460D02*
X431162Y657263D01*
X429796Y656214D01*
X428747Y654848D01*
X428624Y654550D01*
X431460D01*
Y657386D01*
D02*
G37*
G36*
X534436Y651000D02*
X531600D01*
Y648164D01*
X531898Y648287D01*
X533264Y649336D01*
X534313Y650702D01*
X534436Y651000D01*
D02*
G37*
%LPD*%
G36*
X638352Y903458D02*
Y850000D01*
X638352Y850000D01*
X638782Y847838D01*
X640006Y846006D01*
X655006Y831006D01*
X655006Y831006D01*
X656104Y830272D01*
X656838Y829781D01*
X659000Y829351D01*
X659000Y829352D01*
X698163D01*
X698399Y829009D01*
X697732Y827739D01*
X646128D01*
X635789Y838079D01*
Y902738D01*
X636990Y903660D01*
X637149Y903866D01*
X638352Y903458D01*
D02*
G37*
G36*
X395000Y823540D02*
X393460Y822000D01*
X390600Y819140D01*
Y770000D01*
Y768400D01*
X394000Y765000D01*
X395000Y764000D01*
X473000D01*
X511000Y802000D01*
X511000Y831000D01*
Y836000D01*
X513000Y838000D01*
X514000Y837000D01*
X532000D01*
X535000Y834000D01*
X536000Y835000D01*
X547000D01*
X554000Y842000D01*
Y851000D01*
X585000D01*
X588000Y851000D01*
Y763050D01*
X587095Y762158D01*
X521000Y763116D01*
Y741000D01*
X470000D01*
Y683000D01*
X464000Y675000D01*
X394000D01*
X392000Y678600D01*
Y700000D01*
X355000Y700000D01*
X333000Y722000D01*
Y812000D01*
Y823000D01*
X335000Y825000D01*
X336000Y826000D01*
X377900D01*
X387000Y835000D01*
Y858000D01*
X387650Y858650D01*
X395000D01*
Y823540D01*
D02*
G37*
%LPC*%
G36*
X346000Y754596D02*
X344293Y754372D01*
X342702Y753713D01*
X341336Y752664D01*
X340287Y751298D01*
X339628Y749707D01*
X339404Y748000D01*
X339628Y746293D01*
X340287Y744702D01*
X341336Y743336D01*
X342702Y742287D01*
X344293Y741628D01*
X346000Y741404D01*
X347707Y741628D01*
X349298Y742287D01*
X350664Y743336D01*
X351713Y744702D01*
X352372Y746293D01*
X352596Y748000D01*
X352372Y749707D01*
X351713Y751298D01*
X350664Y752664D01*
X349298Y753713D01*
X347707Y754372D01*
X346000Y754596D01*
D02*
G37*
G36*
X364000D02*
X362293Y754372D01*
X360702Y753713D01*
X359336Y752664D01*
X358287Y751298D01*
X357628Y749707D01*
X357404Y748000D01*
X357628Y746293D01*
X358287Y744702D01*
X359336Y743336D01*
X360702Y742287D01*
X362293Y741628D01*
X364000Y741404D01*
X365707Y741628D01*
X367298Y742287D01*
X368664Y743336D01*
X369713Y744702D01*
X370372Y746293D01*
X370596Y748000D01*
X370372Y749707D01*
X369713Y751298D01*
X368664Y752664D01*
X367298Y753713D01*
X365707Y754372D01*
X364000Y754596D01*
D02*
G37*
G36*
X385460D02*
X383753Y754372D01*
X382162Y753713D01*
X380796Y752664D01*
X379747Y751298D01*
X379088Y749707D01*
X378864Y748000D01*
X379088Y746293D01*
X379747Y744702D01*
X380796Y743336D01*
X382162Y742287D01*
X383753Y741628D01*
X385460Y741404D01*
X387167Y741628D01*
X388758Y742287D01*
X390124Y743336D01*
X391173Y744702D01*
X391832Y746293D01*
X392056Y748000D01*
X391832Y749707D01*
X391173Y751298D01*
X390124Y752664D01*
X388758Y753713D01*
X387167Y754372D01*
X385460Y754596D01*
D02*
G37*
G36*
X406000Y734346D02*
X404293Y734122D01*
X402702Y733463D01*
X401336Y732414D01*
X400287Y731048D01*
X399628Y729457D01*
X399404Y727750D01*
X399628Y726043D01*
X400287Y724452D01*
X401336Y723086D01*
X402702Y722037D01*
X404293Y721378D01*
X406000Y721153D01*
X407707Y721378D01*
X409298Y722037D01*
X410664Y723086D01*
X411713Y724452D01*
X412372Y726043D01*
X412596Y727750D01*
X412372Y729457D01*
X411713Y731048D01*
X410664Y732414D01*
X409298Y733463D01*
X407707Y734122D01*
X406000Y734346D01*
D02*
G37*
G36*
X426000Y752996D02*
X424293Y752772D01*
X422702Y752113D01*
X421336Y751064D01*
X420287Y749698D01*
X419628Y748107D01*
X419404Y746400D01*
X419628Y744693D01*
X420287Y743102D01*
X421336Y741736D01*
X422702Y740687D01*
X423528Y740345D01*
X423356Y739042D01*
X422987Y738993D01*
X420180Y737830D01*
X417770Y735980D01*
X415920Y733570D01*
X414757Y730762D01*
X414360Y727750D01*
X414757Y724737D01*
X415920Y721930D01*
X417770Y719520D01*
X420180Y717670D01*
X422987Y716507D01*
X426000Y716110D01*
X429012Y716507D01*
X431820Y717670D01*
X434230Y719520D01*
X436080Y721930D01*
X437243Y724737D01*
X437640Y727750D01*
X437243Y730762D01*
X436080Y733570D01*
X434230Y735980D01*
X431820Y737830D01*
X429012Y738993D01*
X428644Y739042D01*
X428472Y740345D01*
X429298Y740687D01*
X430664Y741736D01*
X431713Y743102D01*
X432372Y744693D01*
X432596Y746400D01*
X432372Y748107D01*
X431713Y749698D01*
X430664Y751064D01*
X429298Y752113D01*
X427707Y752772D01*
X426000Y752996D01*
D02*
G37*
G36*
X446000D02*
X444293Y752772D01*
X442702Y752113D01*
X441336Y751064D01*
X440287Y749698D01*
X439628Y748107D01*
X439404Y746400D01*
X439628Y744693D01*
X440287Y743102D01*
X441336Y741736D01*
X442702Y740687D01*
X444293Y740028D01*
X446000Y739803D01*
X447707Y740028D01*
X449298Y740687D01*
X450664Y741736D01*
X451713Y743102D01*
X452372Y744693D01*
X452596Y746400D01*
X452372Y748107D01*
X451713Y749698D01*
X450664Y751064D01*
X449298Y752113D01*
X447707Y752772D01*
X446000Y752996D01*
D02*
G37*
G36*
X406000Y754596D02*
X404293Y754372D01*
X402702Y753713D01*
X401336Y752664D01*
X400287Y751298D01*
X399628Y749707D01*
X399404Y748000D01*
X399628Y746293D01*
X400287Y744702D01*
X401336Y743336D01*
X402702Y742287D01*
X404293Y741628D01*
X406000Y741404D01*
X407707Y741628D01*
X409298Y742287D01*
X410664Y743336D01*
X411713Y744702D01*
X412372Y746293D01*
X412596Y748000D01*
X412372Y749707D01*
X411713Y751298D01*
X410664Y752664D01*
X409298Y753713D01*
X407707Y754372D01*
X406000Y754596D01*
D02*
G37*
G36*
X546000Y787246D02*
X544293Y787022D01*
X542702Y786363D01*
X541336Y785314D01*
X540287Y783948D01*
X539628Y782357D01*
X539404Y780650D01*
X539628Y778943D01*
X540287Y777352D01*
X541336Y775986D01*
X542702Y774937D01*
X544293Y774278D01*
X546000Y774053D01*
X547707Y774278D01*
X549298Y774937D01*
X550664Y775986D01*
X551713Y777352D01*
X552372Y778943D01*
X552596Y780650D01*
X552372Y782357D01*
X551713Y783948D01*
X550664Y785314D01*
X549298Y786363D01*
X547707Y787022D01*
X546000Y787246D01*
D02*
G37*
G36*
X545000Y811345D02*
X543293Y811121D01*
X541702Y810462D01*
X540336Y809413D01*
X539287Y808047D01*
X538628Y806456D01*
X538404Y804749D01*
X538628Y803042D01*
X539287Y801451D01*
X540336Y800085D01*
X541702Y799036D01*
X543293Y798377D01*
X545000Y798152D01*
X546707Y798377D01*
X548298Y799036D01*
X549664Y800085D01*
X550713Y801451D01*
X551372Y803042D01*
X551596Y804749D01*
X551372Y806456D01*
X550713Y808047D01*
X549664Y809413D01*
X548298Y810462D01*
X546707Y811121D01*
X545000Y811345D01*
D02*
G37*
G36*
X569000D02*
X567293Y811121D01*
X565702Y810462D01*
X564336Y809413D01*
X563287Y808047D01*
X562628Y806456D01*
X562404Y804749D01*
X562628Y803042D01*
X563287Y801451D01*
X564336Y800085D01*
X565702Y799036D01*
X567293Y798377D01*
X569000Y798152D01*
X570707Y798377D01*
X572298Y799036D01*
X573664Y800085D01*
X574713Y801451D01*
X575372Y803042D01*
X575596Y804749D01*
X575372Y806456D01*
X574713Y808047D01*
X573664Y809413D01*
X572298Y810462D01*
X570707Y811121D01*
X569000Y811345D01*
D02*
G37*
G36*
X496000Y766596D02*
X494293Y766372D01*
X492702Y765713D01*
X491336Y764664D01*
X490287Y763298D01*
X489628Y761707D01*
X489404Y760000D01*
X489628Y758293D01*
X490287Y756702D01*
X491336Y755336D01*
X492702Y754287D01*
X494293Y753628D01*
X496000Y753403D01*
X497707Y753628D01*
X499298Y754287D01*
X500664Y755336D01*
X501713Y756702D01*
X502372Y758293D01*
X502596Y760000D01*
X502372Y761707D01*
X501713Y763298D01*
X500664Y764664D01*
X499298Y765713D01*
X497707Y766372D01*
X496000Y766596D01*
D02*
G37*
G36*
X516000Y786596D02*
X514293Y786372D01*
X512702Y785713D01*
X511336Y784664D01*
X510287Y783298D01*
X509628Y781707D01*
X509404Y780000D01*
X509628Y778293D01*
X510287Y776702D01*
X511336Y775336D01*
X512702Y774287D01*
X514293Y773628D01*
X516000Y773404D01*
X517707Y773628D01*
X519298Y774287D01*
X520664Y775336D01*
X521713Y776702D01*
X522372Y778293D01*
X522596Y780000D01*
X522372Y781707D01*
X521713Y783298D01*
X520664Y784664D01*
X519298Y785713D01*
X517707Y786372D01*
X516000Y786596D01*
D02*
G37*
G36*
X569000D02*
X567293Y786372D01*
X565702Y785713D01*
X564336Y784664D01*
X563287Y783298D01*
X562628Y781707D01*
X562404Y780000D01*
X562628Y778293D01*
X563287Y776702D01*
X564336Y775336D01*
X565702Y774287D01*
X567293Y773628D01*
X569000Y773404D01*
X570707Y773628D01*
X572298Y774287D01*
X573664Y775336D01*
X574713Y776702D01*
X575372Y778293D01*
X575596Y780000D01*
X575372Y781707D01*
X574713Y783298D01*
X573664Y784664D01*
X572298Y785713D01*
X570707Y786372D01*
X569000Y786596D01*
D02*
G37*
%LPD*%
D34*
X1224000Y1034200D02*
D03*
X295000Y1135800D02*
D03*
D36*
X1175000Y363000D02*
Y413000D01*
X971000Y406000D02*
Y487200D01*
X623000Y616000D02*
Y741000D01*
X648000Y804000D02*
X731000D01*
X623000Y779000D02*
X648000Y804000D01*
X623000Y741000D02*
Y779000D01*
X504000Y659000D02*
Y697000D01*
X499000Y654000D02*
X504000Y659000D01*
X452000Y654000D02*
X499000D01*
D37*
X1046000Y536000D02*
X1094000D01*
X1022000D02*
X1046000D01*
X1049000Y533000D01*
Y471700D02*
Y533000D01*
X1157500Y387000D02*
X1163000D01*
X1155500Y385000D02*
X1157500Y387000D01*
X1161000Y397000D02*
X1162000D01*
X1160000Y396000D02*
X1161000Y397000D01*
X1058496Y325000D02*
X1095500D01*
X1043496Y310000D02*
X1058496Y325000D01*
X1043496Y285399D02*
Y310000D01*
X1094000Y330000D02*
X1160000Y396000D01*
X1056000Y330000D02*
X1094000D01*
X1018096Y292096D02*
X1056000Y330000D01*
X1095500Y325000D02*
X1155500Y385000D01*
X1018096Y285399D02*
Y292096D01*
X982000Y406000D02*
X997000Y421000D01*
X971000Y406000D02*
X982000D01*
X1021000Y369500D02*
X1027000Y363500D01*
Y322000D02*
Y363500D01*
X1022000Y317000D02*
X1027000Y322000D01*
X924000Y541000D02*
X939000Y526000D01*
Y471000D02*
Y526000D01*
X1069500Y383500D02*
Y409500D01*
D39*
X364000Y920000D02*
X392000Y948000D01*
X763000D02*
X810000Y901000D01*
X392000Y948000D02*
X763000D01*
D40*
X809600Y746400D02*
X835000D01*
X832000Y724000D02*
X835000Y721000D01*
X811000Y724000D02*
X832000D01*
X787000Y748000D02*
X811000Y724000D01*
X657000Y748000D02*
X787000D01*
X796000Y760000D02*
X809600Y746400D01*
X675000Y760000D02*
X796000D01*
X630650Y835950D02*
Y910000D01*
Y835950D02*
X644000Y822600D01*
X738400D01*
X763800Y797200D01*
X835000D01*
D41*
X935000Y435584D02*
X949416D01*
X960000Y425000D01*
Y347000D02*
Y425000D01*
D43*
X296000Y1135800D02*
X339800D01*
X433000Y1229000D01*
X1097000D01*
X1190200Y1135800D01*
X1226000D01*
X369000Y1085000D02*
X458000Y1174000D01*
X294000Y1085000D02*
X369000D01*
X458000Y1174000D02*
X1072000D01*
X1161000Y1085000D01*
X1224000D01*
X1034000Y1009000D02*
X1156000D01*
X1181200Y1034200D01*
X1224000D01*
X484460Y1116000D02*
X605000D01*
X402660Y1034200D02*
X484460Y1116000D01*
X294000Y1034200D02*
X402660D01*
X607500Y1113500D02*
X623000Y1098000D01*
X721000Y1111000D02*
X850000D01*
X650000Y1040000D02*
X721000Y1111000D01*
X850000D02*
X892000Y1069000D01*
X623000Y1022000D02*
Y1098000D01*
D44*
X783000Y814000D02*
X792000Y823000D01*
Y836000D01*
X866000Y910000D01*
X987000D01*
X1014000Y937000D01*
Y949000D01*
D46*
X644000Y850000D02*
Y926000D01*
Y850000D02*
X659000Y835000D01*
X706000D01*
D49*
X1199000Y456000D02*
X1256000D01*
X1199000D02*
Y573000D01*
X1257000D01*
X1199000Y317000D02*
X1256000D01*
X1199000Y260000D02*
Y317000D01*
D50*
X256000Y260000D02*
Y1260000D01*
X1256000Y260000D02*
Y1260000D01*
X256000Y260000D02*
X1256000D01*
X256000Y1260000D02*
X1256000D01*
D51*
X1138750Y532500D02*
D03*
X1169500Y292500D02*
D03*
X835000Y428750D02*
D03*
D52*
X1207000Y415900D02*
D03*
Y358100D02*
D03*
D53*
X1049000Y349000D02*
D03*
X1014250D02*
D03*
D54*
X992600Y564800D02*
D03*
X967200D02*
D03*
X941800D02*
D03*
X891000D02*
D03*
X916400D02*
D03*
X1018096Y564799D02*
D03*
X1043496D02*
D03*
X1068896D02*
D03*
X1094296D02*
D03*
X992600Y285400D02*
D03*
X967200D02*
D03*
X941800D02*
D03*
X891000D02*
D03*
X916400D02*
D03*
X1018096Y285399D02*
D03*
X1043496D02*
D03*
X1068896D02*
D03*
X1094296D02*
D03*
X636400Y300000D02*
D03*
X392600Y630000D02*
D03*
D55*
X865600Y564800D02*
D03*
X841000Y484900D02*
D03*
X841000Y352000D02*
D03*
X865600Y285400D02*
D03*
X286000Y445000D02*
D03*
X611000Y300000D02*
D03*
X1199000Y701000D02*
D03*
Y806050D02*
D03*
X1060000Y848000D02*
D03*
X418000Y630000D02*
D03*
X835000Y848000D02*
D03*
X426000Y727750D02*
D03*
D56*
X841000Y510300D02*
D03*
X841000Y377400D02*
D03*
X286000Y419600D02*
D03*
X1199000Y675600D02*
D03*
Y650200D02*
D03*
Y624800D02*
D03*
Y780650D02*
D03*
X1060000Y721000D02*
D03*
Y746400D02*
D03*
Y771800D02*
D03*
Y822600D02*
D03*
Y797200D02*
D03*
X1059999Y695504D02*
D03*
Y670104D02*
D03*
Y644704D02*
D03*
Y619304D02*
D03*
X835000Y721000D02*
D03*
Y746400D02*
D03*
Y771800D02*
D03*
Y822600D02*
D03*
Y797200D02*
D03*
X834999Y695504D02*
D03*
Y670104D02*
D03*
Y644704D02*
D03*
Y619304D02*
D03*
D57*
X295000Y555000D02*
D03*
X630000D02*
D03*
X1115000Y633000D02*
D03*
X306000Y1210000D02*
D03*
X1206000D02*
D03*
X295000Y637000D02*
D03*
D58*
X1224000Y1135800D02*
D03*
Y1085000D02*
D03*
X295000Y1034200D02*
D03*
Y1085000D02*
D03*
D59*
X1014000Y949000D02*
D03*
D60*
X1034000Y1009000D02*
D03*
D61*
X1014000Y1069000D02*
D03*
X892000D02*
D03*
Y949000D02*
D03*
D62*
X1067700Y412300D02*
D03*
X1049000Y471700D02*
D03*
X1094000Y536000D02*
D03*
X1070000Y535000D02*
D03*
X1046000Y536000D02*
D03*
X1022000D02*
D03*
D63*
X1131000Y384500D02*
D03*
X1044000Y439000D02*
D03*
X1040000Y369000D02*
D03*
X1138000Y482000D02*
D03*
Y449000D02*
D03*
X1022000Y401542D02*
D03*
X895000Y486000D02*
D03*
X1163000Y387000D02*
D03*
X1162000Y397000D02*
D03*
D64*
X471000Y349000D02*
D03*
X438000Y363000D02*
D03*
X520175Y468769D02*
D03*
X346000Y748000D02*
D03*
X364000D02*
D03*
X385460D02*
D03*
X406000D02*
D03*
X426000Y746400D02*
D03*
X446000D02*
D03*
X496000Y760000D02*
D03*
X516000Y780000D02*
D03*
X546000Y780650D02*
D03*
X569000Y780000D02*
D03*
Y804749D02*
D03*
X545000D02*
D03*
X406000Y727750D02*
D03*
X623000Y1060000D02*
D03*
Y1076000D02*
D03*
X667000Y1057000D02*
D03*
X682000Y1072000D02*
D03*
X698000Y1088000D02*
D03*
X623000Y1095000D02*
D03*
X528600Y654000D02*
D03*
Y616000D02*
D03*
X556000D02*
D03*
X586000D02*
D03*
X786000Y651550D02*
D03*
Y676950D02*
D03*
Y702350D02*
D03*
Y727750D02*
D03*
X996000Y644704D02*
D03*
Y670104D02*
D03*
Y721000D02*
D03*
Y771800D02*
D03*
Y822600D02*
D03*
X434460Y651550D02*
D03*
D65*
X1175000Y413000D02*
D03*
Y363000D02*
D03*
X997000Y421000D02*
D03*
X972000Y489000D02*
D03*
X971000Y406000D02*
D03*
X924000Y541000D02*
D03*
X1022000Y317000D02*
D03*
X1021000Y369500D02*
D03*
X935000Y435584D02*
D03*
X1069500Y383500D02*
D03*
X939000Y471000D02*
D03*
X960000Y347000D02*
D03*
X348500Y415000D02*
D03*
X407610Y523044D02*
D03*
X577000Y519588D02*
D03*
X640001Y435584D02*
D03*
X553000Y519588D02*
D03*
X505000Y518588D02*
D03*
X449000Y308800D02*
D03*
X326044Y289544D02*
D03*
X511350Y372956D02*
D03*
X368000Y307500D02*
D03*
X584633Y307524D02*
D03*
X547000Y311500D02*
D03*
X517000Y311500D02*
D03*
X623000Y616000D02*
D03*
X657000Y748000D02*
D03*
X675000Y760000D02*
D03*
X364000Y920000D02*
D03*
X731000Y804000D02*
D03*
X623000Y741000D02*
D03*
X504000Y697000D02*
D03*
X452000Y654000D02*
D03*
X644000Y926000D02*
D03*
X706000Y835000D02*
D03*
X630650Y910000D02*
D03*
X783000Y814000D02*
D03*
X810000Y901000D02*
D03*
M02*
