G04*
G04 #@! TF.GenerationSoftware,Altium Limited,CircuitStudio,1.5.2 (30)*
G04*
G04 Layer_Color=8150272*
%FSLAX44Y44*%
%MOMM*%
G71*
G01*
G75*
%ADD45C,0.8000*%
%ADD49C,0.1000*%
%ADD50C,0.1500*%
%ADD93R,2.3032X2.3032*%
%ADD95C,4.2032*%
%ADD96C,0.8532*%
%ADD97C,1.4612*%
%ADD98R,2.0032X2.0032*%
%ADD99C,2.0032*%
%ADD100R,2.0032X2.0032*%
%ADD101C,6.2032*%
%ADD102C,2.3032*%
%ADD103R,2.1832X2.1832*%
%ADD104C,2.1382*%
%ADD105C,2.1832*%
%ADD106C,0.9532*%
%ADD107C,0.9432*%
%ADD108C,1.0032*%
%ADD109C,1.4732*%
%ADD110C,1.8000*%
D45*
X971000Y406000D02*
Y488000D01*
X1175000Y363000D02*
Y413000D01*
D49*
X1199000Y456000D02*
X1256000D01*
X1199000D02*
Y573000D01*
X1257000D01*
X1199000Y317000D02*
X1256000D01*
X1199000Y260000D02*
Y317000D01*
D50*
X256000Y260000D02*
Y1260000D01*
X1256000Y260000D02*
Y1260000D01*
X256000Y260000D02*
X1256000D01*
X256000Y1260000D02*
X1256000D01*
D93*
X1224000Y1034200D02*
D03*
X295000Y1135800D02*
D03*
D95*
X1138750Y532500D02*
D03*
X1169500Y292500D02*
D03*
X835000Y428750D02*
D03*
D96*
X1207000Y415900D02*
D03*
Y358100D02*
D03*
D97*
X1049000Y349000D02*
D03*
X1014250D02*
D03*
D98*
X992600Y564800D02*
D03*
X967200D02*
D03*
X941800D02*
D03*
X891000D02*
D03*
X916400D02*
D03*
X1018096Y564799D02*
D03*
X1043496D02*
D03*
X1068896D02*
D03*
X1094296D02*
D03*
X992600Y285400D02*
D03*
X967200D02*
D03*
X941800D02*
D03*
X891000D02*
D03*
X916400D02*
D03*
X1018096Y285399D02*
D03*
X1043496D02*
D03*
X1068896D02*
D03*
X1094296D02*
D03*
X636400Y300000D02*
D03*
X392600Y630000D02*
D03*
D99*
X865600Y564800D02*
D03*
X841000Y484900D02*
D03*
X841000Y352000D02*
D03*
X865600Y285400D02*
D03*
X286000Y445000D02*
D03*
X611000Y300000D02*
D03*
X1199000Y701000D02*
D03*
Y806050D02*
D03*
X1060000Y848000D02*
D03*
X418000Y630000D02*
D03*
X835000Y848000D02*
D03*
X426000Y727750D02*
D03*
D100*
X841000Y510300D02*
D03*
X841000Y377400D02*
D03*
X286000Y419600D02*
D03*
X1199000Y675600D02*
D03*
Y650200D02*
D03*
Y624800D02*
D03*
Y780650D02*
D03*
X1060000Y721000D02*
D03*
Y746400D02*
D03*
Y771800D02*
D03*
Y822600D02*
D03*
Y797200D02*
D03*
X1059999Y695504D02*
D03*
Y670104D02*
D03*
Y644704D02*
D03*
Y619304D02*
D03*
X835000Y721000D02*
D03*
Y746400D02*
D03*
Y771800D02*
D03*
Y822600D02*
D03*
Y797200D02*
D03*
X834999Y695504D02*
D03*
Y670104D02*
D03*
Y644704D02*
D03*
Y619304D02*
D03*
D101*
X295000Y555000D02*
D03*
X630000D02*
D03*
X1115000Y633000D02*
D03*
X306000Y1210000D02*
D03*
X1206000D02*
D03*
X295000Y637000D02*
D03*
D102*
X1224000Y1135800D02*
D03*
Y1085000D02*
D03*
X295000Y1034200D02*
D03*
Y1085000D02*
D03*
D103*
X1014000Y949000D02*
D03*
D104*
X1034000Y1009000D02*
D03*
D105*
X1014000Y1069000D02*
D03*
X892000D02*
D03*
Y949000D02*
D03*
D106*
X1067700Y412300D02*
D03*
X1049000Y471700D02*
D03*
X1094000Y536000D02*
D03*
X1070000Y535000D02*
D03*
X1046000Y536000D02*
D03*
X1022000D02*
D03*
D107*
X1131000Y384500D02*
D03*
X1044000Y439000D02*
D03*
X1040000Y369000D02*
D03*
X1138000Y482000D02*
D03*
Y449000D02*
D03*
X1022000Y401542D02*
D03*
X895000Y486000D02*
D03*
X1163000Y387000D02*
D03*
X1162000Y397000D02*
D03*
D108*
X471000Y349000D02*
D03*
X438000Y363000D02*
D03*
X520175Y468769D02*
D03*
X346000Y748000D02*
D03*
X364000D02*
D03*
X385460D02*
D03*
X406000D02*
D03*
X426000Y746400D02*
D03*
X446000D02*
D03*
X496000Y760000D02*
D03*
X516000Y780000D02*
D03*
X546000Y780650D02*
D03*
X569000Y780000D02*
D03*
Y804749D02*
D03*
X545000D02*
D03*
X406000Y727750D02*
D03*
X623000Y1060000D02*
D03*
Y1076000D02*
D03*
X667000Y1057000D02*
D03*
X682000Y1072000D02*
D03*
X698000Y1088000D02*
D03*
X623000Y1095000D02*
D03*
X528600Y654000D02*
D03*
Y616000D02*
D03*
X556000D02*
D03*
X586000D02*
D03*
X786000Y651550D02*
D03*
Y676950D02*
D03*
Y702350D02*
D03*
Y727750D02*
D03*
X996000Y644704D02*
D03*
Y670104D02*
D03*
Y721000D02*
D03*
Y771800D02*
D03*
Y822600D02*
D03*
X434460Y651550D02*
D03*
D109*
X1175000Y413000D02*
D03*
Y363000D02*
D03*
X997000Y421000D02*
D03*
X972000Y489000D02*
D03*
X971000Y406000D02*
D03*
X924000Y541000D02*
D03*
X1022000Y317000D02*
D03*
X1021000Y369500D02*
D03*
X935000Y435584D02*
D03*
X1069500Y383500D02*
D03*
X939000Y471000D02*
D03*
X960000Y347000D02*
D03*
X348500Y415000D02*
D03*
X407610Y523044D02*
D03*
X577000Y519588D02*
D03*
X640001Y435584D02*
D03*
X553000Y519588D02*
D03*
X505000Y518588D02*
D03*
X449000Y308800D02*
D03*
X326044Y289544D02*
D03*
X511350Y372956D02*
D03*
X368000Y307500D02*
D03*
X584633Y307524D02*
D03*
X547000Y311500D02*
D03*
X517000Y311500D02*
D03*
X623000Y616000D02*
D03*
X657000Y748000D02*
D03*
X675000Y760000D02*
D03*
X364000Y920000D02*
D03*
X731000Y804000D02*
D03*
X623000Y741000D02*
D03*
X504000Y697000D02*
D03*
X452000Y654000D02*
D03*
X644000Y926000D02*
D03*
X706000Y835000D02*
D03*
X630650Y910000D02*
D03*
X783000Y814000D02*
D03*
X810000Y901000D02*
D03*
D110*
X369000Y1085000D02*
X458000Y1174000D01*
X294000Y1085000D02*
X369000D01*
X458000Y1174000D02*
X1072000D01*
X1161000Y1085000D01*
X1224000D01*
X1190200Y1135800D02*
X1226000D01*
X1097000Y1229000D02*
X1190200Y1135800D01*
X433000Y1229000D02*
X1097000D01*
X339800Y1135800D02*
X433000Y1229000D01*
X1034000Y1009000D02*
X1156000D01*
X1181200Y1034200D01*
X1224000D01*
X623000Y1022000D02*
Y1098000D01*
X850000Y1111000D02*
X892000Y1069000D01*
X650000Y1040000D02*
X721000Y1111000D01*
X850000D01*
X607500Y1113500D02*
X623000Y1098000D01*
X294000Y1034200D02*
X402660D01*
X484460Y1116000D01*
X605000D01*
X294000Y1135800D02*
X337800D01*
M02*
