G04*
G04 #@! TF.GenerationSoftware,Altium Limited,CircuitStudio,1.5.2 (30)*
G04*
G04 Layer_Physical_Order=1*
G04 Layer_Color=13260*
%FSLAX44Y44*%
%MOMM*%
G71*
G01*
G75*
%ADD10R,1.2000X1.3000*%
%ADD11R,1.3000X1.2000*%
%ADD12R,2.0000X2.1800*%
%ADD13R,1.1500X0.3000*%
%ADD14R,1.1500X0.6000*%
%ADD15R,0.9000X0.8000*%
G04:AMPARAMS|DCode=16|XSize=1.29mm|YSize=0.59mm|CornerRadius=0.0738mm|HoleSize=0mm|Usage=FLASHONLY|Rotation=270.000|XOffset=0mm|YOffset=0mm|HoleType=Round|Shape=RoundedRectangle|*
%AMROUNDEDRECTD16*
21,1,1.2900,0.4425,0,0,270.0*
21,1,1.1425,0.5900,0,0,270.0*
1,1,0.1475,-0.2213,-0.5713*
1,1,0.1475,-0.2213,0.5713*
1,1,0.1475,0.2213,0.5713*
1,1,0.1475,0.2213,-0.5713*
%
%ADD16ROUNDEDRECTD16*%
%ADD17R,4.0000X2.0000*%
%ADD18R,2.8750X2.0250*%
G04:AMPARAMS|DCode=19|XSize=1.97mm|YSize=0.6mm|CornerRadius=0.075mm|HoleSize=0mm|Usage=FLASHONLY|Rotation=90.000|XOffset=0mm|YOffset=0mm|HoleType=Round|Shape=RoundedRectangle|*
%AMROUNDEDRECTD19*
21,1,1.9700,0.4500,0,0,90.0*
21,1,1.8200,0.6000,0,0,90.0*
1,1,0.1500,0.2250,0.9100*
1,1,0.1500,0.2250,-0.9100*
1,1,0.1500,-0.2250,-0.9100*
1,1,0.1500,-0.2250,0.9100*
%
%ADD19ROUNDEDRECTD19*%
%ADD20R,2.0000X4.0000*%
G04:AMPARAMS|DCode=21|XSize=1.09mm|YSize=0.61mm|CornerRadius=0.0763mm|HoleSize=0mm|Usage=FLASHONLY|Rotation=270.000|XOffset=0mm|YOffset=0mm|HoleType=Round|Shape=RoundedRectangle|*
%AMROUNDEDRECTD21*
21,1,1.0900,0.4575,0,0,270.0*
21,1,0.9375,0.6100,0,0,270.0*
1,1,0.1525,-0.2288,-0.4688*
1,1,0.1525,-0.2288,0.4688*
1,1,0.1525,0.2288,0.4688*
1,1,0.1525,0.2288,-0.4688*
%
%ADD21ROUNDEDRECTD21*%
%ADD22R,1.0000X2.2500*%
%ADD23R,1.0500X1.8750*%
%ADD24R,0.8000X0.9000*%
%ADD25R,0.9900X0.9200*%
%ADD26R,1.7000X0.6500*%
G04:AMPARAMS|DCode=27|XSize=1.09mm|YSize=0.61mm|CornerRadius=0.0763mm|HoleSize=0mm|Usage=FLASHONLY|Rotation=0.000|XOffset=0mm|YOffset=0mm|HoleType=Round|Shape=RoundedRectangle|*
%AMROUNDEDRECTD27*
21,1,1.0900,0.4575,0,0,0.0*
21,1,0.9375,0.6100,0,0,0.0*
1,1,0.1525,0.4688,-0.2288*
1,1,0.1525,-0.4688,-0.2288*
1,1,0.1525,-0.4688,0.2288*
1,1,0.1525,0.4688,0.2288*
%
%ADD27ROUNDEDRECTD27*%
%ADD28R,1.6000X3.0000*%
%ADD29R,6.7000X6.7000*%
G04:AMPARAMS|DCode=30|XSize=1.59mm|YSize=0.57mm|CornerRadius=0.0712mm|HoleSize=0mm|Usage=FLASHONLY|Rotation=180.000|XOffset=0mm|YOffset=0mm|HoleType=Round|Shape=RoundedRectangle|*
%AMROUNDEDRECTD30*
21,1,1.5900,0.4275,0,0,180.0*
21,1,1.4475,0.5700,0,0,180.0*
1,1,0.1425,-0.7238,0.2138*
1,1,0.1425,0.7238,0.2138*
1,1,0.1425,0.7238,-0.2138*
1,1,0.1425,-0.7238,-0.2138*
%
%ADD30ROUNDEDRECTD30*%
G04:AMPARAMS|DCode=31|XSize=2.09mm|YSize=1.39mm|CornerRadius=0.1737mm|HoleSize=0mm|Usage=FLASHONLY|Rotation=90.000|XOffset=0mm|YOffset=0mm|HoleType=Round|Shape=RoundedRectangle|*
%AMROUNDEDRECTD31*
21,1,2.0900,1.0425,0,0,90.0*
21,1,1.7425,1.3900,0,0,90.0*
1,1,0.3475,0.5212,0.8712*
1,1,0.3475,0.5212,-0.8712*
1,1,0.3475,-0.5212,-0.8712*
1,1,0.3475,-0.5212,0.8712*
%
%ADD31ROUNDEDRECTD31*%
G04:AMPARAMS|DCode=32|XSize=0.26mm|YSize=0.96mm|CornerRadius=0.0325mm|HoleSize=0mm|Usage=FLASHONLY|Rotation=270.000|XOffset=0mm|YOffset=0mm|HoleType=Round|Shape=RoundedRectangle|*
%AMROUNDEDRECTD32*
21,1,0.2600,0.8950,0,0,270.0*
21,1,0.1950,0.9600,0,0,270.0*
1,1,0.0650,-0.4475,-0.0975*
1,1,0.0650,-0.4475,0.0975*
1,1,0.0650,0.4475,0.0975*
1,1,0.0650,0.4475,-0.0975*
%
%ADD32ROUNDEDRECTD32*%
G04:AMPARAMS|DCode=33|XSize=0.96mm|YSize=0.26mm|CornerRadius=0.0325mm|HoleSize=0mm|Usage=FLASHONLY|Rotation=270.000|XOffset=0mm|YOffset=0mm|HoleType=Round|Shape=RoundedRectangle|*
%AMROUNDEDRECTD33*
21,1,0.9600,0.1950,0,0,270.0*
21,1,0.8950,0.2600,0,0,270.0*
1,1,0.0650,-0.0975,-0.4475*
1,1,0.0650,-0.0975,0.4475*
1,1,0.0650,0.0975,0.4475*
1,1,0.0650,0.0975,-0.4475*
%
%ADD33ROUNDEDRECTD33*%
%ADD34R,2.1000X2.1000*%
%ADD35R,2.1500X4.5000*%
%ADD36C,1.0000*%
%ADD37C,0.2000*%
%ADD38C,0.4000*%
%ADD39C,0.3000*%
%ADD40C,0.5000*%
%ADD41C,0.2540*%
%ADD42C,0.5400*%
%ADD43C,2.0000*%
%ADD44C,0.7000*%
%ADD45C,0.8000*%
%ADD46C,0.6000*%
%ADD47C,1.2000*%
%ADD48C,1.5000*%
%ADD49C,0.1000*%
%ADD50C,0.1500*%
%ADD51C,4.0000*%
%ADD52C,0.6500*%
%ADD53C,1.2580*%
%ADD54R,1.8000X1.8000*%
%ADD55C,1.8000*%
%ADD56R,1.8000X1.8000*%
%ADD57C,6.0000*%
%ADD58C,2.1000*%
%ADD59R,1.9800X1.9800*%
%ADD60C,1.9350*%
%ADD61C,1.9800*%
%ADD62C,0.7500*%
%ADD63C,0.7400*%
%ADD64C,0.8000*%
%ADD65C,1.2700*%
G36*
X991391Y511505D02*
Y506510D01*
X990121Y505984D01*
X959972Y536132D01*
X960510Y537391D01*
X965505D01*
X991391Y511505D01*
D02*
G37*
G36*
X1019707Y425326D02*
X1020825Y425104D01*
X1028874D01*
X1029844Y424844D01*
X1030104Y423874D01*
Y415825D01*
X1030326Y414707D01*
X1030391Y414611D01*
Y393040D01*
X1023460D01*
Y386565D01*
X1015040D01*
Y390540D01*
X996960D01*
Y373460D01*
X1011875D01*
X1012580Y372404D01*
X1012339Y371821D01*
X1012033Y369500D01*
X1012339Y367179D01*
X1013235Y365017D01*
X1014107Y363879D01*
X1013481Y362609D01*
X1002495D01*
X988609Y376495D01*
Y415245D01*
X989879Y415676D01*
X990660Y414660D01*
X992517Y413235D01*
X994679Y412339D01*
X997000Y412033D01*
X999321Y412339D01*
X1001483Y413235D01*
X1003340Y414660D01*
X1004765Y416517D01*
X1005661Y418679D01*
X1005967Y421000D01*
X1005687Y423121D01*
X1005862Y423551D01*
X1006593Y424391D01*
X1008000D01*
X1009381Y424665D01*
X1010467Y425391D01*
X1019611D01*
X1019707Y425326D01*
D02*
G37*
G36*
X482000Y936000D02*
X491000Y927000D01*
X533000D01*
X536000Y924000D01*
X538000Y922000D01*
Y862590D01*
X535040D01*
Y883000D01*
X462960D01*
Y862590D01*
X455000D01*
Y889000D01*
Y907000D01*
X444000Y918000D01*
X431213Y930787D01*
X431699Y931960D01*
X433460D01*
Y941000D01*
Y950040D01*
X427920D01*
X427000Y950885D01*
Y954881D01*
X427460Y955960D01*
X428270Y955960D01*
X433000D01*
Y965000D01*
X436000D01*
Y968000D01*
X444540D01*
Y974040D01*
X439034D01*
X438576Y974345D01*
X437000Y974659D01*
X435424Y974345D01*
X434966Y974040D01*
X428270D01*
X427460Y974040D01*
X427000Y975119D01*
Y975119D01*
Y977410D01*
X445500D01*
X446491Y977607D01*
X447331Y978169D01*
X447331Y978169D01*
X453162Y984000D01*
X482000D01*
Y936000D01*
D02*
G37*
G36*
X924931Y375233D02*
X924920Y375140D01*
X923925Y374476D01*
X923200Y373391D01*
X922946Y372113D01*
Y360687D01*
X923200Y359409D01*
X923361Y359168D01*
Y355606D01*
X922894Y355139D01*
X908139D01*
Y359460D01*
X912040D01*
Y376410D01*
X924169D01*
X924931Y375233D01*
D02*
G37*
G36*
X474973Y553477D02*
X491000Y537450D01*
Y495000D01*
X488475Y492475D01*
X470997Y492497D01*
X468500Y490000D01*
Y445000D01*
X478523Y434977D01*
X480389D01*
X480601Y433910D01*
X481328Y432822D01*
X482416Y432095D01*
X483700Y431840D01*
X488200D01*
X489484Y432095D01*
X490572Y432822D01*
X491299Y433910D01*
X491511Y434977D01*
X493089D01*
X493301Y433910D01*
X494028Y432822D01*
X495116Y432095D01*
X496400Y431840D01*
X500900D01*
X502184Y432095D01*
X503272Y432822D01*
X503999Y433910D01*
X504211Y434977D01*
X505789D01*
X506001Y433910D01*
X506728Y432822D01*
X507816Y432095D01*
X509100Y431840D01*
X513600D01*
X514884Y432095D01*
X515972Y432822D01*
X516699Y433910D01*
X516911Y434977D01*
X518489D01*
X518701Y433910D01*
X519428Y432822D01*
X520516Y432095D01*
X521800Y431840D01*
X526300D01*
X527584Y432095D01*
X528672Y432822D01*
X529399Y433910D01*
X529639Y435116D01*
X541000Y446477D01*
X608500Y446477D01*
Y396000D01*
X647102Y396000D01*
X648000Y395102D01*
X648000Y288887D01*
X647100Y287991D01*
X626000Y288084D01*
X626000Y340477D01*
X604000Y340477D01*
X537000D01*
X531000Y346477D01*
X531000Y405647D01*
X529085Y405648D01*
X528672Y406266D01*
X527584Y406993D01*
X526300Y407248D01*
X521800D01*
X520516Y406993D01*
X519428Y406266D01*
X519018Y405653D01*
X516381Y405654D01*
X515972Y406266D01*
X514884Y406993D01*
X513600Y407248D01*
X509100D01*
X507816Y406993D01*
X506728Y406266D01*
X506323Y405659D01*
X503676Y405661D01*
X503272Y406266D01*
X502184Y406993D01*
X500900Y407248D01*
X496400D01*
X495116Y406993D01*
X494028Y406266D01*
X493627Y405666D01*
X490972Y405667D01*
X490572Y406266D01*
X489484Y406993D01*
X488200Y407248D01*
X483700D01*
X482416Y406993D01*
X481328Y406266D01*
X480932Y405673D01*
X446000Y405691D01*
X443500Y410000D01*
Y457500D01*
X441000Y460000D01*
X428500D01*
X423500Y465000D01*
Y527500D01*
X418500Y532500D01*
X396500D01*
X390000Y526000D01*
X390000Y525477D01*
Y465377D01*
X386523Y461900D01*
X361600Y461900D01*
X353500Y470000D01*
X353500Y540000D01*
X366977Y553477D01*
X474973Y553477D01*
D02*
G37*
G36*
X924241Y508040D02*
X924200Y507980D01*
X923946Y506701D01*
Y495276D01*
X924200Y493997D01*
X924361Y493756D01*
Y492629D01*
X923872Y492139D01*
X911431D01*
X911396Y492190D01*
X912075Y493460D01*
X913040D01*
Y509310D01*
X923562D01*
X924241Y508040D01*
D02*
G37*
G36*
X435000Y432500D02*
Y383000D01*
X447000Y371000D01*
Y341900D01*
X430668Y325568D01*
X413432Y325568D01*
X407610Y331390D01*
Y365000D01*
X399411Y365069D01*
X392988Y371413D01*
X392600Y432500D01*
X396000Y435000D01*
X433500D01*
X435000Y432500D01*
D02*
G37*
G36*
X538000Y847250D02*
X461250D01*
X461000Y847000D01*
X455000Y853000D01*
Y860000D01*
X462960D01*
Y849960D01*
X535040D01*
Y860000D01*
X538000D01*
Y847250D01*
D02*
G37*
G36*
X1156347Y399771D02*
X1156122Y399435D01*
X1155638Y397000D01*
X1156122Y394565D01*
X1157501Y392501D01*
X1158501Y391833D01*
Y391499D01*
X1157122Y389435D01*
X1156638Y387000D01*
X1157122Y384565D01*
X1158501Y382501D01*
X1160565Y381122D01*
X1163000Y380638D01*
X1165435Y381122D01*
X1167436Y382459D01*
X1170613Y379283D01*
X1170127Y378109D01*
X1134953D01*
X1134568Y379379D01*
X1135499Y380001D01*
X1136500Y381500D01*
X1125500D01*
X1126501Y380001D01*
X1127432Y379379D01*
X1127047Y378109D01*
X1125500D01*
X1124119Y377835D01*
X1123810Y377628D01*
X1122540Y378307D01*
Y381500D01*
X1114000D01*
Y387500D01*
X1122540D01*
Y393540D01*
X1123458Y394391D01*
X1140309D01*
X1141690Y394665D01*
X1142861Y395448D01*
X1148304Y400891D01*
X1155748D01*
X1156347Y399771D01*
D02*
G37*
G36*
X915158Y541945D02*
X915033Y541000D01*
X915339Y538679D01*
X916235Y536517D01*
X917660Y534660D01*
X919517Y533235D01*
X921679Y532339D01*
X924000Y532033D01*
X926321Y532339D01*
X928483Y533235D01*
X930340Y534660D01*
X931181Y534715D01*
X933000Y532896D01*
X933000Y512798D01*
X932102Y511900D01*
X891500D01*
X891000Y511400D01*
Y493900D01*
X884000Y486900D01*
Y462798D01*
X883102Y461900D01*
X855307Y461900D01*
X854326Y462556D01*
X852750Y462869D01*
X827625D01*
X826733Y463774D01*
X827206Y495900D01*
X872000Y495900D01*
Y514900D01*
X879000Y521900D01*
X889500Y521900D01*
Y524460D01*
X890040D01*
Y537540D01*
X890040D01*
X889500Y538080D01*
Y539400D01*
X893000Y542900D01*
X914320D01*
X915158Y541945D01*
D02*
G37*
G36*
X1040391Y412563D02*
Y403000D01*
X1040665Y401619D01*
X1041448Y400448D01*
X1046448Y395448D01*
X1047619Y394665D01*
X1049000Y394391D01*
X1084542D01*
X1085460Y393540D01*
Y388109D01*
X1077169D01*
X1075840Y389840D01*
X1073983Y391265D01*
X1071821Y392161D01*
X1069500Y392467D01*
X1067179Y392161D01*
X1065017Y391265D01*
X1063160Y389840D01*
X1061810Y388082D01*
X1061670Y388079D01*
X1060540Y388889D01*
Y393040D01*
X1043460D01*
Y375720D01*
X1043044Y375378D01*
X1042205Y374924D01*
X1040540Y375255D01*
Y393040D01*
X1037609D01*
Y412563D01*
X1038025Y412904D01*
X1039975D01*
X1040391Y412563D01*
D02*
G37*
G36*
X933000Y406000D02*
Y403697D01*
X932861Y403000D01*
Y396832D01*
X932700Y396591D01*
X932446Y395312D01*
Y383887D01*
X932700Y382609D01*
X932861Y382368D01*
Y379000D01*
X891500D01*
X891000Y378500D01*
Y361000D01*
X884000Y354000D01*
Y329898D01*
X883102Y329000D01*
X827611Y329000D01*
X826719Y329905D01*
X827206Y363000D01*
X872000Y363000D01*
Y382000D01*
X879000Y389000D01*
X889500Y389000D01*
X889500Y406500D01*
X893000Y410000D01*
X929000D01*
X933000Y406000D01*
D02*
G37*
G36*
X1084460Y425695D02*
Y415564D01*
X1075505Y406609D01*
X1072617D01*
X1072311Y407879D01*
X1073625Y409846D01*
X1074113Y412300D01*
X1073625Y414754D01*
X1072235Y416835D01*
X1070154Y418225D01*
X1067700Y418713D01*
X1065246Y418225D01*
X1063165Y416835D01*
X1062623Y416782D01*
X1057896Y421508D01*
Y423874D01*
X1058156Y424844D01*
X1059126Y425104D01*
X1067175D01*
X1068293Y425326D01*
X1068389Y425391D01*
X1081000D01*
X1082381Y425665D01*
X1083190Y426206D01*
X1084460Y425695D01*
D02*
G37*
G36*
X1061810Y378918D02*
X1063160Y377160D01*
X1065017Y375735D01*
X1067179Y374839D01*
X1069500Y374533D01*
X1070262Y374634D01*
X1075964Y368932D01*
X1076541Y368546D01*
X1077115Y368158D01*
X1077125Y368156D01*
X1077134Y368150D01*
X1077815Y368014D01*
X1078494Y367875D01*
X1122203Y367615D01*
X1122214Y367617D01*
X1122225Y367615D01*
X1122906Y367751D01*
X1123586Y367882D01*
X1123595Y367888D01*
X1123606Y367890D01*
X1124184Y368276D01*
X1124762Y368657D01*
X1124768Y368666D01*
X1124777Y368672D01*
X1126995Y370891D01*
X1168594D01*
X1169025Y369621D01*
X1168660Y369340D01*
X1167235Y367483D01*
X1166339Y365321D01*
X1166304Y365060D01*
X1157310Y356065D01*
X1156040Y356540D01*
Y356540D01*
X1137960D01*
Y355605D01*
X1132040D01*
Y356540D01*
X1113960D01*
Y355605D01*
X1059605D01*
Y374960D01*
X1060540D01*
Y378111D01*
X1061670Y378921D01*
X1061810Y378918D01*
D02*
G37*
G36*
X988838Y433942D02*
X982448Y427552D01*
X981665Y426381D01*
X981391Y425000D01*
Y375000D01*
X981599Y373952D01*
X980492Y373264D01*
X978605Y375150D01*
Y401308D01*
X978765Y401517D01*
X979661Y403679D01*
X979967Y406000D01*
X979661Y408321D01*
X978765Y410483D01*
X977340Y412340D01*
X975483Y413765D01*
X973321Y414661D01*
X971000Y414967D01*
X968679Y414661D01*
X966517Y413765D01*
X964660Y412340D01*
X963737Y411139D01*
X957000D01*
X955033Y410747D01*
X953366Y409634D01*
X951286Y407553D01*
X950299Y408363D01*
X950748Y409034D01*
X951139Y411000D01*
X950748Y412966D01*
X949885Y414258D01*
Y426391D01*
X958609Y435115D01*
X988352D01*
X988838Y433942D01*
D02*
G37*
G36*
X1036960Y508936D02*
Y493460D01*
X1042498D01*
X1042665Y492619D01*
X1043448Y491448D01*
X1045113Y489783D01*
X1044627Y488609D01*
X1030495D01*
X1026818Y492287D01*
X1027304Y493460D01*
X1031040D01*
Y510540D01*
X1018564D01*
X1016818Y512287D01*
X1017304Y513460D01*
X1031040D01*
X1031040Y513460D01*
Y513460D01*
X1032310Y513586D01*
X1036960Y508936D01*
D02*
G37*
G36*
X1080448Y510448D02*
X1084960Y505936D01*
Y493460D01*
X1090391D01*
Y486495D01*
X1085448Y481552D01*
X1084665Y480381D01*
X1084648Y480291D01*
X1083353D01*
X1083335Y480381D01*
X1082552Y481552D01*
X1073609Y490495D01*
Y493460D01*
X1079040D01*
Y510269D01*
X1080186Y510840D01*
X1080448Y510448D01*
D02*
G37*
G36*
X956391Y477505D02*
Y460373D01*
X955217Y459887D01*
X947299Y467805D01*
X947661Y468679D01*
X947967Y471000D01*
X947661Y473321D01*
X946765Y475483D01*
X945340Y477340D01*
X943483Y478765D01*
X942070Y479351D01*
X942440Y480572D01*
X943500Y480361D01*
X945467Y480752D01*
X947134Y481866D01*
X948634Y483366D01*
X949581Y484314D01*
X956391Y477505D01*
D02*
G37*
G36*
X1012960Y505936D02*
Y493460D01*
X1018391D01*
Y492000D01*
X1018665Y490619D01*
X1019448Y489448D01*
X1026448Y482448D01*
X1027619Y481665D01*
X1027704Y481648D01*
X1027579Y480378D01*
X1010726D01*
X1004609Y486495D01*
Y512627D01*
X1005783Y513113D01*
X1012960Y505936D01*
D02*
G37*
G36*
X620950Y962945D02*
X621484Y963051D01*
X622572Y963778D01*
X623299Y964866D01*
X623554Y966150D01*
Y972462D01*
X623731Y972536D01*
X625001Y971688D01*
Y957990D01*
X618006Y950994D01*
X616781Y949162D01*
X616359Y947040D01*
X613460D01*
Y928960D01*
X630540D01*
Y947040D01*
X630540Y947040D01*
X630540D01*
X631076Y948088D01*
X634644Y951656D01*
X634644Y951656D01*
X635869Y953488D01*
X636298Y955650D01*
X636298Y955650D01*
Y972449D01*
X636431Y972504D01*
X637701Y971656D01*
Y932373D01*
X637660Y932340D01*
X636235Y930483D01*
X635339Y928321D01*
X635033Y926000D01*
X635339Y923679D01*
X636235Y921517D01*
X637660Y919660D01*
X639517Y918235D01*
X641679Y917339D01*
X644000Y917033D01*
X646321Y917339D01*
X648483Y918235D01*
X650340Y919660D01*
X651765Y921517D01*
X652661Y923679D01*
X652967Y926000D01*
X652661Y928321D01*
X651765Y930483D01*
X650340Y932340D01*
X648998Y933370D01*
Y972480D01*
X649131Y972535D01*
X650402Y971687D01*
Y948950D01*
X650401Y948950D01*
X650831Y946788D01*
X652056Y944956D01*
X659460Y937552D01*
Y927960D01*
X662558D01*
X662781Y926838D01*
X664006Y925006D01*
X677420Y911592D01*
X677960Y910540D01*
X677960D01*
X677960Y910540D01*
Y893460D01*
X696040D01*
Y894395D01*
X714850D01*
X722395Y886850D01*
Y871000D01*
Y806456D01*
X722339Y806321D01*
X722033Y804000D01*
X722339Y801679D01*
X723235Y799517D01*
X724660Y797660D01*
X726517Y796235D01*
X728638Y795356D01*
X737371Y786622D01*
X738946Y785414D01*
X739706Y785099D01*
X740780Y784654D01*
X742749Y784395D01*
X760000D01*
X761968Y784654D01*
X762707Y784960D01*
X766540D01*
Y788137D01*
X766586Y788197D01*
X767346Y790032D01*
X767605Y792000D01*
X767346Y793968D01*
X766586Y795803D01*
X766540Y795863D01*
Y799040D01*
X762707D01*
X761968Y799346D01*
X760000Y799605D01*
X745899D01*
X739734Y805770D01*
X739661Y806321D01*
X738765Y808483D01*
X737605Y809995D01*
Y867850D01*
X741525Y871770D01*
X755710D01*
Y867460D01*
X771290D01*
Y891285D01*
X793878Y913872D01*
X795086Y915447D01*
X795531Y916522D01*
X795846Y917282D01*
X796105Y919250D01*
Y920710D01*
X796290D01*
Y944540D01*
X780710D01*
Y922215D01*
X758122Y899628D01*
X756914Y898053D01*
X756377Y896756D01*
X756154Y896218D01*
X755895Y894250D01*
Y891290D01*
X755710D01*
Y886980D01*
X738375D01*
X737605Y887655D01*
Y890000D01*
X737346Y891968D01*
X737123Y892506D01*
X736586Y893802D01*
X735378Y895378D01*
X723378Y907377D01*
X721803Y908586D01*
X720506Y909123D01*
X719968Y909346D01*
X718000Y909605D01*
X696040D01*
Y910540D01*
X692541D01*
X692219Y912162D01*
X691728Y912896D01*
X690994Y913994D01*
X690994Y913994D01*
X676540Y928448D01*
Y946040D01*
X666948D01*
X661699Y951290D01*
Y973801D01*
X726061Y973958D01*
X726960Y973061D01*
Y970460D01*
X741040D01*
Y973995D01*
X747885Y974011D01*
X748960Y972744D01*
Y960460D01*
X763040D01*
Y972211D01*
X764882Y974053D01*
X768061Y974061D01*
X768960Y973164D01*
Y962460D01*
X771404D01*
Y958732D01*
X758836Y946164D01*
X757787Y944798D01*
X757680Y944540D01*
X755710D01*
Y920710D01*
X771290D01*
Y939961D01*
X782664Y951336D01*
X783713Y952702D01*
X784372Y954293D01*
X784596Y956000D01*
Y962460D01*
X787040D01*
Y974107D01*
X802962Y974146D01*
X803861Y973249D01*
Y934000D01*
X804252Y932033D01*
X805366Y930366D01*
X874861Y860872D01*
Y742633D01*
X847713Y715485D01*
X846540Y715971D01*
Y732540D01*
X823460D01*
Y709460D01*
X840029D01*
X840515Y708287D01*
X839272Y707044D01*
X823459D01*
Y683964D01*
X846539D01*
Y699777D01*
X883634Y736871D01*
X884748Y738538D01*
X885139Y740505D01*
Y863000D01*
X884748Y864967D01*
X883634Y866634D01*
X814139Y936128D01*
Y974173D01*
X955496Y974518D01*
X956395Y973621D01*
Y930000D01*
X956654Y928032D01*
X956877Y927494D01*
X957414Y926197D01*
X958622Y924622D01*
X986622Y896622D01*
X988197Y895414D01*
X989494Y894877D01*
X990032Y894654D01*
X992000Y894395D01*
X1176850D01*
X1219195Y852050D01*
Y632405D01*
X1210540D01*
Y636340D01*
X1187460D01*
Y632405D01*
X1185454D01*
X1116978Y700882D01*
X1115403Y702090D01*
X1114106Y702627D01*
X1113568Y702850D01*
X1111600Y703109D01*
X1071539D01*
Y707044D01*
X1048459D01*
Y703109D01*
X936704D01*
X934736Y702850D01*
X934199Y702627D01*
X932902Y702090D01*
X931327Y700882D01*
X854050Y623605D01*
X846539D01*
Y630844D01*
X823459D01*
Y623605D01*
X627692D01*
X627483Y623765D01*
X625321Y624661D01*
X623000Y624967D01*
X620679Y624661D01*
X618517Y623765D01*
X616660Y622340D01*
X615235Y620483D01*
X614339Y618321D01*
X614033Y616000D01*
X614339Y613679D01*
X615235Y611517D01*
X616660Y609660D01*
X618517Y608235D01*
X620679Y607339D01*
X623000Y607033D01*
X625321Y607339D01*
X627483Y608235D01*
X627692Y608395D01*
X823459D01*
Y607764D01*
X846539D01*
Y608395D01*
X857200D01*
X859168Y608654D01*
X859706Y608877D01*
X861003Y609414D01*
X862578Y610622D01*
X939854Y687899D01*
X1048459D01*
Y683964D01*
X1071539D01*
Y687899D01*
X1108450D01*
X1176926Y619422D01*
X1178502Y618214D01*
X1179799Y617677D01*
X1180336Y617454D01*
X1182304Y617195D01*
X1187460D01*
Y613260D01*
X1210540D01*
Y617195D01*
X1226800D01*
X1228768Y617454D01*
X1230602Y618214D01*
X1232178Y619422D01*
X1233386Y620998D01*
X1234146Y622832D01*
X1234405Y624800D01*
Y855200D01*
X1234146Y857168D01*
X1233923Y857706D01*
X1233386Y859003D01*
X1232178Y860578D01*
X1185378Y907378D01*
X1183802Y908586D01*
X1182505Y909123D01*
X1181968Y909346D01*
X1180000Y909605D01*
X995150D01*
X971605Y933150D01*
Y974557D01*
X1012603Y974657D01*
X1062673Y944776D01*
X1062866Y944707D01*
X1063038Y944595D01*
X1063338Y944540D01*
X1063625Y944437D01*
X1063830Y944448D01*
X1064032Y944410D01*
X1064330Y944473D01*
X1064634Y944489D01*
X1064819Y944577D01*
X1065020Y944620D01*
X1065272Y944792D01*
X1065547Y944923D01*
X1065684Y945075D01*
X1065853Y945191D01*
X1066020Y945447D01*
X1066224Y945673D01*
X1066293Y945866D01*
X1066404Y946038D01*
X1070405Y956038D01*
X1070459Y956331D01*
X1070561Y956612D01*
X1070551Y956823D01*
X1070590Y957032D01*
X1070528Y957323D01*
X1070514Y957621D01*
X1070424Y957813D01*
X1070380Y958020D01*
X1070212Y958266D01*
X1070085Y958536D01*
X1069929Y958679D01*
X1069809Y958853D01*
X1069559Y959016D01*
X1069339Y959217D01*
X1045659Y973514D01*
X1045998Y974738D01*
X1250746Y975237D01*
X1251645Y974340D01*
Y600000D01*
X1122376D01*
X1122225Y601270D01*
X1125087Y601957D01*
X1129818Y603917D01*
X1134186Y606593D01*
X1138080Y609920D01*
X1141407Y613814D01*
X1144083Y618181D01*
X1146043Y622914D01*
X1147239Y627894D01*
X1147404Y630000D01*
X1082596D01*
X1082761Y627894D01*
X1083957Y622914D01*
X1085917Y618181D01*
X1088593Y613814D01*
X1091920Y609920D01*
X1095814Y606593D01*
X1100182Y603917D01*
X1104913Y601957D01*
X1107775Y601270D01*
X1107624Y600000D01*
X260355D01*
Y969102D01*
X261253Y970000D01*
X364460Y970000D01*
Y967960D01*
X381540D01*
Y969102D01*
X382438Y970000D01*
X384460D01*
Y955920D01*
X401540D01*
Y957395D01*
X407460D01*
Y955960D01*
X423330D01*
X423593Y955833D01*
X424360Y954964D01*
X424410Y954881D01*
Y954881D01*
X424410Y954744D01*
Y950885D01*
X424059Y950545D01*
X423284Y950040D01*
X407920D01*
Y948605D01*
X402000D01*
Y950040D01*
X384920D01*
Y937025D01*
X383747Y936539D01*
X382000Y938285D01*
Y950040D01*
X364920D01*
Y931960D01*
X376675D01*
X383342Y925293D01*
X382856Y924119D01*
X371916D01*
X371765Y924483D01*
X370340Y926340D01*
X368483Y927765D01*
X366321Y928661D01*
X364000Y928967D01*
X361679Y928661D01*
X359517Y927765D01*
X357660Y926340D01*
X356235Y924483D01*
X355339Y922321D01*
X355033Y920000D01*
X355339Y917679D01*
X356235Y915517D01*
X357660Y913660D01*
X359517Y912235D01*
X361679Y911339D01*
X364000Y911033D01*
X366321Y911339D01*
X368483Y912235D01*
X370340Y913660D01*
X371765Y915517D01*
X371916Y915881D01*
X396294D01*
X399181Y912994D01*
Y908558D01*
X398678Y908222D01*
X397951Y907134D01*
X397696Y905850D01*
Y887650D01*
X397951Y886366D01*
X398239Y885935D01*
X397560Y884665D01*
X396340D01*
X395661Y885935D01*
X395949Y886366D01*
X396204Y887650D01*
Y893750D01*
X390600D01*
Y896750D01*
D01*
Y893750D01*
X384995D01*
Y887650D01*
X385251Y886366D01*
X385539Y885935D01*
X384860Y884665D01*
X383640D01*
X382961Y885935D01*
X383249Y886366D01*
X383504Y887650D01*
Y905850D01*
X383249Y907134D01*
X382522Y908222D01*
X381434Y908949D01*
X380150Y909204D01*
X375650D01*
X374366Y908949D01*
X373278Y908222D01*
X372551Y907134D01*
X372295Y905850D01*
Y900869D01*
X365956D01*
X349540Y917285D01*
Y929040D01*
X332460D01*
Y910960D01*
X344215D01*
X361337Y893837D01*
X362674Y892944D01*
X364250Y892631D01*
X372295D01*
Y887650D01*
X372551Y886366D01*
X373278Y885278D01*
X374366Y884551D01*
X375650Y884296D01*
X380035D01*
Y875000D01*
X396950D01*
X413865D01*
Y884296D01*
X418250D01*
X419534Y884551D01*
X420622Y885278D01*
X421349Y886366D01*
X421604Y887650D01*
Y905850D01*
X421349Y907134D01*
X420622Y908222D01*
X420119Y908558D01*
Y918000D01*
X419806Y919576D01*
X418913Y920913D01*
X410913Y928913D01*
X409576Y929806D01*
X408000Y930119D01*
X390490D01*
X390045Y930690D01*
X390664Y931960D01*
X402000D01*
Y933395D01*
X407920D01*
Y931960D01*
X425000D01*
Y947481D01*
X425873Y947968D01*
X426270Y948071D01*
X426554Y947898D01*
X426929Y947647D01*
X426984Y947636D01*
X427031Y947607D01*
X427477Y947538D01*
X427920Y947450D01*
Y931960D01*
X427920D01*
X428624Y930787D01*
Y930787D01*
X428689Y930458D01*
X428819Y929805D01*
X429047Y842000D01*
X542239D01*
X542000Y934000D01*
X490000D01*
Y949460D01*
X493500D01*
Y961375D01*
X496500D01*
Y964375D01*
X504290D01*
Y972603D01*
X505322Y973864D01*
X544567Y973516D01*
X611446Y973679D01*
X612346Y972782D01*
Y966150D01*
X612601Y964866D01*
X613328Y963778D01*
X614416Y963051D01*
X614950Y962945D01*
Y975250D01*
X620950D01*
Y962945D01*
D02*
G37*
G36*
X888677Y486195D02*
X888638Y486000D01*
X889122Y483565D01*
X890501Y481501D01*
X891536Y480810D01*
X891150Y479540D01*
X887960D01*
Y474000D01*
X897000D01*
X906040D01*
Y479540D01*
X898850D01*
X898464Y480810D01*
X899499Y481501D01*
X900878Y483565D01*
X901126Y484811D01*
X902504Y485229D01*
X904366Y483366D01*
X906033Y482252D01*
X908000Y481861D01*
X939874D01*
X941232Y480954D01*
X940773Y479733D01*
X939000Y479967D01*
X936679Y479661D01*
X934517Y478765D01*
X932660Y477340D01*
X931310Y475582D01*
X931170Y475579D01*
X930040Y476389D01*
Y479540D01*
X924000D01*
Y471000D01*
Y462460D01*
X930040D01*
Y465611D01*
X931170Y466421D01*
X931310Y466418D01*
X932660Y464660D01*
X934517Y463235D01*
X936679Y462339D01*
X939000Y462033D01*
X941321Y462339D01*
X942195Y462701D01*
X950391Y454505D01*
Y450000D01*
X950559Y449155D01*
X949745Y447885D01*
X943416D01*
X941929Y447589D01*
X940669Y446747D01*
X937919Y443997D01*
X937321Y444245D01*
X935000Y444551D01*
X932679Y444245D01*
X931310Y443678D01*
X930040Y444527D01*
Y459540D01*
X911960D01*
Y458605D01*
X906040D01*
Y459540D01*
X887960D01*
Y458605D01*
X885029D01*
X884643Y459875D01*
X884933Y460069D01*
X885831Y460967D01*
X886393Y461807D01*
X886590Y462798D01*
Y485827D01*
X887557Y486794D01*
X888677Y486195D01*
D02*
G37*
G36*
X984391Y501505D02*
Y478000D01*
X984665Y476619D01*
X985448Y475448D01*
X996448Y464448D01*
X997619Y463665D01*
X999000Y463391D01*
X1028905D01*
X1029667Y462376D01*
X1029212Y461309D01*
X963609D01*
Y479000D01*
X963335Y480381D01*
X962552Y481552D01*
X953633Y490471D01*
X953639Y490500D01*
Y493756D01*
X953800Y493997D01*
X954054Y495276D01*
Y506701D01*
X953800Y507980D01*
X953075Y509064D01*
X951991Y509788D01*
X950713Y510042D01*
X946288D01*
X945613Y509908D01*
X944343Y510754D01*
Y514422D01*
X945613Y515268D01*
X946288Y515134D01*
X950287D01*
X966861Y498560D01*
Y496263D01*
X965660Y495340D01*
X964235Y493483D01*
X963339Y491321D01*
X963033Y489000D01*
X963339Y486679D01*
X964235Y484517D01*
X965660Y482660D01*
X967517Y481235D01*
X969679Y480339D01*
X972000Y480033D01*
X974321Y480339D01*
X976483Y481235D01*
X978340Y482660D01*
X979765Y484517D01*
X980661Y486679D01*
X980967Y489000D01*
X980661Y491321D01*
X979765Y493483D01*
X978340Y495340D01*
X977139Y496263D01*
Y500688D01*
X976748Y502655D01*
X975634Y504322D01*
X954054Y525901D01*
Y529901D01*
X954018Y530081D01*
X955189Y530707D01*
X984391Y501505D01*
D02*
G37*
G36*
X1228760Y424660D02*
X1237691D01*
Y349340D01*
X1228760D01*
Y339509D01*
X1214540D01*
Y349340D01*
X1205760D01*
X1204540Y349460D01*
X1204540Y350610D01*
Y351391D01*
X1205810Y352433D01*
X1207000Y352197D01*
X1209259Y352646D01*
X1211174Y353926D01*
X1212454Y355841D01*
X1212903Y358100D01*
X1212454Y360359D01*
X1211174Y362274D01*
X1209259Y363554D01*
X1208411Y363723D01*
X1208043Y364938D01*
X1216552Y373448D01*
X1217335Y374619D01*
X1217609Y376000D01*
Y398000D01*
X1217335Y399381D01*
X1216552Y400552D01*
X1208043Y409062D01*
X1208411Y410277D01*
X1209259Y410446D01*
X1211174Y411726D01*
X1212454Y413641D01*
X1212903Y415900D01*
X1212454Y418159D01*
X1211174Y420074D01*
X1209259Y421354D01*
X1207000Y421803D01*
X1205810Y421567D01*
X1204540Y422609D01*
Y423390D01*
X1204540Y424540D01*
X1205760Y424660D01*
X1214540D01*
Y434491D01*
X1228760D01*
Y424660D01*
D02*
G37*
G36*
X336000Y384500D02*
X349500Y371000D01*
X388500D01*
X394925Y365860D01*
X397592Y363227D01*
X397998Y362959D01*
X398400Y362685D01*
X398419Y362681D01*
X398435Y362671D01*
X398913Y362579D01*
X399067Y362547D01*
X403500Y359000D01*
Y337500D01*
X401900Y335900D01*
X377440D01*
X377040Y337004D01*
X377040Y337170D01*
Y338044D01*
X368000D01*
X358960D01*
Y337170D01*
X358960Y337004D01*
X358559Y335900D01*
X264650D01*
X260671Y338553D01*
X261497Y430000D01*
X274460D01*
Y427100D01*
X286000D01*
X297540D01*
Y430000D01*
X336000D01*
X336000Y384500D01*
D02*
G37*
G36*
X1251645Y451540D02*
X1228760D01*
Y441709D01*
X1214540D01*
Y451540D01*
X1189460D01*
Y445304D01*
X1188287Y444818D01*
X1178609Y454495D01*
Y459960D01*
X1183540D01*
Y478040D01*
X1178609D01*
Y483960D01*
X1183540D01*
Y502040D01*
X1166460D01*
Y483960D01*
X1171391D01*
Y478040D01*
X1166460D01*
Y459960D01*
X1171391D01*
Y453000D01*
X1171665Y451619D01*
X1172448Y450448D01*
X1187348Y435548D01*
X1188519Y434765D01*
X1189460Y434578D01*
Y425810D01*
X1189460Y424660D01*
X1188240Y424540D01*
X1188240D01*
X1187960D01*
Y416540D01*
Y416139D01*
X1183322D01*
X1182765Y417483D01*
X1181340Y419340D01*
X1179483Y420765D01*
X1177321Y421661D01*
X1175000Y421967D01*
X1172679Y421661D01*
X1170517Y420765D01*
X1168660Y419340D01*
X1167235Y417483D01*
X1166339Y415321D01*
X1166033Y413000D01*
X1166339Y410679D01*
X1166877Y409379D01*
X1166029Y408109D01*
X1147040D01*
Y420540D01*
X1128960D01*
Y403460D01*
X1134391D01*
Y401609D01*
X1082373D01*
X1081887Y402783D01*
X1089064Y409960D01*
X1101540D01*
Y428040D01*
X1086804D01*
X1086318Y429213D01*
X1098552Y441448D01*
X1099335Y442619D01*
X1099609Y444000D01*
Y476505D01*
X1109552Y486448D01*
X1110335Y487619D01*
X1110609Y489000D01*
Y537000D01*
X1110335Y538381D01*
X1109552Y539552D01*
X1098609Y550495D01*
Y553259D01*
X1105836D01*
Y576339D01*
X1082756D01*
Y553259D01*
X1091391D01*
Y549000D01*
X1091665Y547619D01*
X1092448Y546448D01*
X1095482Y543413D01*
X1094857Y542243D01*
X1094000Y542413D01*
X1091546Y541925D01*
X1089465Y540535D01*
X1088075Y538454D01*
X1087646Y536298D01*
X1086351D01*
X1086335Y536381D01*
X1085552Y537552D01*
X1072505Y550599D01*
Y553259D01*
X1080436D01*
Y576339D01*
X1057356D01*
Y553259D01*
X1065287D01*
Y549104D01*
X1065561Y547723D01*
X1066344Y546552D01*
X1070357Y542538D01*
X1069738Y541361D01*
X1067546Y540925D01*
X1065465Y539535D01*
X1064075Y537454D01*
X1063587Y535000D01*
X1064075Y532546D01*
X1064667Y531660D01*
X1064068Y530540D01*
X1060960D01*
X1060609Y531665D01*
Y537000D01*
X1060335Y538381D01*
X1059552Y539552D01*
X1047115Y551989D01*
X1047129Y553259D01*
X1055036D01*
Y576339D01*
X1031956D01*
Y553259D01*
X1039887D01*
Y550504D01*
X1040161Y549123D01*
X1040944Y547952D01*
X1045322Y543573D01*
X1044904Y542195D01*
X1043546Y541925D01*
X1041465Y540535D01*
X1040075Y538454D01*
X1039587Y536000D01*
X1040075Y533546D01*
X1041235Y531810D01*
X1040793Y530681D01*
X1040672Y530540D01*
X1037609D01*
Y541000D01*
X1037335Y542381D01*
X1036552Y543552D01*
X1033552Y546552D01*
X1032381Y547335D01*
X1031000Y547609D01*
X1027495D01*
X1023018Y552086D01*
X1023504Y553259D01*
X1029636D01*
Y576339D01*
X1006556D01*
Y553259D01*
X1014487D01*
Y551904D01*
X1014761Y550523D01*
X1015544Y549352D01*
X1021322Y543573D01*
X1020904Y542195D01*
X1019546Y541925D01*
X1017465Y540535D01*
X1016075Y538454D01*
X1015587Y536000D01*
X1016075Y533546D01*
X1017235Y531810D01*
X1016793Y530681D01*
X1016672Y530540D01*
X1012960D01*
Y517804D01*
X1011787Y517318D01*
X1010609Y518495D01*
Y540000D01*
X1010335Y541381D01*
X1009552Y542552D01*
X1000018Y552087D01*
X1000504Y553260D01*
X1004140D01*
Y576340D01*
X981060D01*
Y553260D01*
X990391D01*
Y553000D01*
X990665Y551619D01*
X991448Y550448D01*
X1003391Y538505D01*
Y524142D01*
X1002217Y523656D01*
X973787Y552087D01*
X974273Y553260D01*
X978740D01*
Y576340D01*
X955660D01*
Y553260D01*
X963652D01*
X963865Y552188D01*
X964648Y551017D01*
X997118Y518546D01*
X997032Y517869D01*
X995693Y517411D01*
X969552Y543552D01*
X968381Y544335D01*
X967000Y544609D01*
X961495D01*
X953890Y552215D01*
X953340Y553260D01*
X953340D01*
X953340Y553260D01*
Y576340D01*
X930260D01*
Y557704D01*
X929087Y557218D01*
X927940Y558364D01*
Y576340D01*
X904860D01*
Y553260D01*
X922836D01*
X924977Y551119D01*
X924383Y549916D01*
X924000Y549967D01*
X921679Y549661D01*
X919517Y548765D01*
X917660Y547340D01*
X916590Y545946D01*
X915699Y545373D01*
X915311Y545293D01*
X914898Y545375D01*
X914490Y545484D01*
X914405Y545473D01*
X914320Y545490D01*
X893000D01*
X892009Y545293D01*
X891169Y544731D01*
X887669Y541231D01*
X887107Y540391D01*
X886910Y539400D01*
Y538080D01*
X886467Y537540D01*
X875960D01*
Y524460D01*
X876102D01*
X876628Y523190D01*
X870169Y516731D01*
X869607Y515891D01*
X869410Y514900D01*
Y498490D01*
X853698D01*
X852540Y499760D01*
Y507300D01*
X841000D01*
X829460D01*
Y499760D01*
X829460Y498760D01*
X828302Y498490D01*
X828302Y498490D01*
X827206D01*
X826729Y498395D01*
X826250Y498307D01*
X826234Y498296D01*
X826215Y498293D01*
X825811Y498023D01*
X825402Y497758D01*
X825391Y497742D01*
X825375Y497731D01*
X825105Y497327D01*
X824828Y496926D01*
X824824Y496907D01*
X824813Y496891D01*
X824718Y496414D01*
X824616Y495938D01*
X824144Y463812D01*
X824078Y463734D01*
X823121Y462869D01*
X819706D01*
X818119Y464456D01*
Y540294D01*
X838506Y560681D01*
X854815D01*
X855520Y558980D01*
X857370Y556570D01*
X859780Y554720D01*
X862588Y553557D01*
X865600Y553160D01*
X868613Y553557D01*
X871420Y554720D01*
X873830Y556570D01*
X875680Y558980D01*
X876843Y561787D01*
X877240Y564800D01*
X876843Y567812D01*
X875680Y570620D01*
X873830Y573030D01*
X871420Y574880D01*
X868613Y576043D01*
X865600Y576440D01*
X862588Y576043D01*
X859780Y574880D01*
X857370Y573030D01*
X855520Y570620D01*
X854815Y568919D01*
X836800D01*
X835224Y568606D01*
X833887Y567713D01*
X811087Y544913D01*
X810194Y543576D01*
X809881Y542000D01*
Y462750D01*
X810194Y461174D01*
X811087Y459837D01*
X815087Y455837D01*
X816424Y454944D01*
X818000Y454631D01*
X851044D01*
X857587Y448087D01*
X858924Y447194D01*
X860500Y446881D01*
X862960D01*
Y442460D01*
X881040D01*
Y443395D01*
X887960D01*
Y442460D01*
X906040D01*
Y443395D01*
X911960D01*
Y442460D01*
X927470D01*
X928096Y441190D01*
X927235Y440067D01*
X926339Y437905D01*
X926033Y435584D01*
X926339Y433263D01*
X927235Y431101D01*
X928660Y429244D01*
X930517Y427819D01*
X932679Y426923D01*
X935000Y426617D01*
X937321Y426923D01*
X939483Y427819D01*
X941019Y428997D01*
X942188Y428365D01*
X942115Y428000D01*
Y414383D01*
X935944Y408211D01*
X934300Y408363D01*
X930831Y411831D01*
X930831Y411831D01*
X930328Y412168D01*
X929991Y412393D01*
X929000Y412590D01*
X893000D01*
X892009Y412393D01*
X891169Y411831D01*
X887669Y408331D01*
X887107Y407491D01*
X886910Y406500D01*
Y402540D01*
X874960D01*
Y389460D01*
X874960Y389460D01*
X874960D01*
X874626Y388288D01*
X870169Y383831D01*
X869607Y382991D01*
X869410Y382000D01*
Y365590D01*
X853698D01*
X852540Y366860D01*
Y378364D01*
X852960Y379460D01*
X853810Y379460D01*
X857000D01*
Y386000D01*
Y392540D01*
X852960D01*
Y390036D01*
X852540Y388940D01*
X851690Y388940D01*
X844000D01*
Y377400D01*
X841000D01*
Y374400D01*
X829460D01*
Y366860D01*
X829460Y365860D01*
X828302Y365590D01*
X827206D01*
X826729Y365495D01*
X826250Y365407D01*
X826234Y365396D01*
X826215Y365393D01*
X825810Y365122D01*
X825402Y364858D01*
X825391Y364842D01*
X825375Y364831D01*
X825104Y364426D01*
X824828Y364026D01*
X824824Y364007D01*
X824813Y363991D01*
X824718Y363514D01*
X824616Y363038D01*
X824130Y329943D01*
X824131Y329933D01*
X824129Y329924D01*
X824222Y329439D01*
X824312Y328949D01*
X824318Y328941D01*
X824319Y328931D01*
X824591Y328518D01*
X824861Y328101D01*
X824869Y328095D01*
X824875Y328087D01*
X825766Y327182D01*
X825774Y327177D01*
X825779Y327169D01*
X826192Y326893D01*
X826602Y326615D01*
X826611Y326613D01*
X826620Y326607D01*
X827107Y326510D01*
X827592Y326410D01*
X827601Y326412D01*
X827611Y326410D01*
X862960Y326410D01*
Y320259D01*
X860222Y317522D01*
X859014Y315947D01*
X858477Y314650D01*
X858254Y314112D01*
X857995Y312144D01*
Y294110D01*
X857370Y293630D01*
X855520Y291220D01*
X854357Y288412D01*
X853960Y285400D01*
X854357Y282387D01*
X855520Y279580D01*
X857370Y277170D01*
X859780Y275320D01*
X862588Y274157D01*
X865600Y273760D01*
X868613Y274157D01*
X871420Y275320D01*
X873830Y277170D01*
X875680Y279580D01*
X876843Y282387D01*
X877240Y285400D01*
X876843Y288412D01*
X875680Y291220D01*
X873830Y293630D01*
X873205Y294110D01*
Y308994D01*
X874215Y310004D01*
X881040D01*
Y310939D01*
X887960D01*
Y310004D01*
X906040D01*
Y310939D01*
X911960D01*
Y310004D01*
X930040D01*
Y327084D01*
X911960D01*
Y326149D01*
X906040D01*
Y327084D01*
X887960D01*
Y326149D01*
X885663D01*
X885458Y326436D01*
X885184Y327419D01*
X885831Y328067D01*
X886393Y328907D01*
X886590Y329898D01*
Y352927D01*
X892817Y359154D01*
X893960Y359460D01*
X893960Y359460D01*
Y359460D01*
X893960Y359460D01*
X897861D01*
Y353000D01*
X898252Y351034D01*
X899366Y349366D01*
X900475Y348257D01*
X900000Y347110D01*
Y341544D01*
X906040D01*
Y344861D01*
X911960D01*
Y341544D01*
X921000D01*
X930040D01*
Y344861D01*
X943689D01*
X944297Y344253D01*
X945557Y343411D01*
X947044Y343115D01*
X951987D01*
X952235Y342517D01*
X953660Y340660D01*
X955517Y339235D01*
X957679Y338339D01*
X960000Y338033D01*
X962321Y338339D01*
X964483Y339235D01*
X966340Y340660D01*
X967765Y342517D01*
X968661Y344679D01*
X968967Y347000D01*
X968661Y349321D01*
X967765Y351483D01*
X966340Y353340D01*
X964483Y354765D01*
X962321Y355661D01*
X960000Y355967D01*
X957679Y355661D01*
X955517Y354765D01*
X953909Y353532D01*
X953046Y353795D01*
X952639Y354096D01*
Y359168D01*
X952800Y359409D01*
X953054Y360687D01*
Y372113D01*
X952800Y373391D01*
X952075Y374476D01*
X950991Y375200D01*
X949713Y375454D01*
X945287D01*
X944409Y375279D01*
X943139Y376030D01*
Y379970D01*
X944409Y380721D01*
X945287Y380546D01*
X949713D01*
X950991Y380800D01*
X952075Y381525D01*
X952800Y382609D01*
X953054Y383887D01*
Y394787D01*
X959128Y400861D01*
X963395D01*
Y372000D01*
X963654Y370032D01*
X963877Y369494D01*
X964414Y368198D01*
X965622Y366622D01*
X988622Y343622D01*
X990198Y342414D01*
X990957Y342099D01*
X992032Y341654D01*
X994000Y341395D01*
X1009656D01*
X1009797Y341287D01*
X1011945Y340397D01*
X1014250Y340094D01*
X1016555Y340397D01*
X1018703Y341287D01*
X1020547Y342702D01*
X1021963Y344547D01*
X1022853Y346695D01*
X1023156Y349000D01*
X1022853Y351305D01*
X1021963Y353453D01*
X1021451Y354121D01*
X1022077Y355391D01*
X1037505D01*
X1040747Y352149D01*
X1040397Y351305D01*
X1040094Y349000D01*
X1040397Y346695D01*
X1041287Y344547D01*
X1042702Y342702D01*
X1044547Y341287D01*
X1046695Y340397D01*
X1049000Y340094D01*
X1051287Y340395D01*
X1113960D01*
Y339460D01*
X1132040D01*
Y340395D01*
X1137960D01*
Y339460D01*
X1156040D01*
Y340395D01*
X1160000D01*
X1161968Y340654D01*
X1162505Y340877D01*
X1163802Y341414D01*
X1165378Y342622D01*
X1177060Y354304D01*
X1177321Y354339D01*
X1179483Y355235D01*
X1181340Y356660D01*
X1182262Y357861D01*
X1187960D01*
Y357460D01*
Y349460D01*
X1188240D01*
X1189460Y349340D01*
X1189460Y348190D01*
Y322460D01*
X1214540D01*
Y332291D01*
X1228760D01*
Y322460D01*
X1251645D01*
Y264355D01*
X260355D01*
Y332102D01*
X261253Y333000D01*
X358960Y333000D01*
Y328544D01*
X368000D01*
X377040D01*
Y332102D01*
X377938Y333000D01*
X386960D01*
Y321004D01*
X401040D01*
Y332102D01*
X401938Y333000D01*
X405020D01*
Y331390D01*
X405217Y330399D01*
X405779Y329559D01*
X411601Y323736D01*
X412441Y323175D01*
X413432Y322978D01*
X430668Y322978D01*
X431659Y323175D01*
X432499Y323736D01*
X441267Y332504D01*
X442458Y332455D01*
X443345Y331531D01*
Y329844D01*
X449000D01*
X454655D01*
Y331531D01*
X454615Y331730D01*
X455658Y333000D01*
X476960D01*
Y320004D01*
X495040D01*
Y324514D01*
X495634Y324910D01*
X503634Y332910D01*
X503694Y333000D01*
X507960D01*
Y332544D01*
X517000D01*
X526482D01*
X526938Y333000D01*
X537960D01*
Y332544D01*
X547000D01*
X556482D01*
X556938Y333000D01*
X577093Y333000D01*
Y328568D01*
X592173D01*
Y332102D01*
X593071Y333000D01*
X620735D01*
X621587Y307245D01*
X620331Y306796D01*
X619230Y308230D01*
X616820Y310080D01*
X614012Y311243D01*
X614000Y311245D01*
Y300000D01*
Y288755D01*
X614012Y288757D01*
X616820Y289920D01*
X619230Y291770D01*
X620762Y293766D01*
X622047Y293354D01*
X622422Y282000D01*
X650000Y282000D01*
Y287308D01*
X650110Y287473D01*
X650390Y287890D01*
X650391Y287893D01*
X650393Y287896D01*
X650491Y288388D01*
X650590Y288881D01*
X650589Y288884D01*
X650590Y288887D01*
X650590Y395102D01*
X650393Y396093D01*
X650000Y396681D01*
Y404102D01*
X650898Y405000D01*
X662541D01*
Y414540D01*
X640001D01*
Y420540D01*
X662541D01*
Y427000D01*
X665000D01*
X665000Y594102D01*
X665898Y595000D01*
X1251645D01*
Y451540D01*
D02*
G37*
G36*
Y349340D02*
X1244909D01*
Y424660D01*
X1251645D01*
Y349340D01*
D02*
G37*
%LPC*%
G36*
X902540Y561800D02*
X894000D01*
Y553260D01*
X902540D01*
Y561800D01*
D02*
G37*
G36*
X888000Y576340D02*
X879460D01*
Y567800D01*
X888000D01*
Y576340D01*
D02*
G37*
G36*
X561836Y613000D02*
X559000D01*
Y610164D01*
X559298Y610287D01*
X560664Y611336D01*
X561713Y612702D01*
X561836Y613000D01*
D02*
G37*
G36*
X553000D02*
X550164D01*
X550287Y612702D01*
X551336Y611336D01*
X552702Y610287D01*
X553000Y610164D01*
Y613000D01*
D02*
G37*
G36*
X888000Y561800D02*
X879460D01*
Y553260D01*
X888000D01*
Y561800D01*
D02*
G37*
G36*
X292000Y634000D02*
X262596D01*
X262761Y631894D01*
X263957Y626913D01*
X265917Y622182D01*
X268593Y617814D01*
X271920Y613920D01*
X275814Y610593D01*
X280182Y607917D01*
X284914Y605957D01*
X289894Y604761D01*
X292000Y604595D01*
Y634000D01*
D02*
G37*
G36*
X1071539Y630844D02*
X1048459D01*
Y607764D01*
X1071539D01*
Y630844D01*
D02*
G37*
G36*
X327405Y634000D02*
X298000D01*
Y604595D01*
X300106Y604761D01*
X305086Y605957D01*
X309818Y607917D01*
X314186Y610593D01*
X318080Y613920D01*
X321407Y617814D01*
X324083Y622182D01*
X326043Y626913D01*
X327239Y631894D01*
X327405Y634000D01*
D02*
G37*
G36*
X534436Y613000D02*
X531600D01*
Y610164D01*
X531898Y610287D01*
X533264Y611336D01*
X534313Y612702D01*
X534436Y613000D01*
D02*
G37*
G36*
X525600D02*
X522764D01*
X522887Y612702D01*
X523936Y611336D01*
X525302Y610287D01*
X525600Y610164D01*
Y613000D01*
D02*
G37*
G36*
X902540Y576340D02*
X894000D01*
Y567800D01*
X902540D01*
Y576340D01*
D02*
G37*
G36*
X1135000Y487500D02*
X1133501Y486499D01*
X1132500Y485000D01*
X1135000D01*
Y487500D01*
D02*
G37*
G36*
X1163540Y490000D02*
X1158000D01*
Y483960D01*
X1163540D01*
Y490000D01*
D02*
G37*
G36*
X1141000Y487500D02*
Y485000D01*
X1143500D01*
X1142499Y486499D01*
X1141000Y487500D01*
D02*
G37*
G36*
X1163540Y502040D02*
X1158000D01*
Y496000D01*
X1163540D01*
Y502040D01*
D02*
G37*
G36*
X1152000D02*
X1146460D01*
Y496000D01*
X1152000D01*
Y502040D01*
D02*
G37*
G36*
X918000Y479540D02*
X911960D01*
Y474000D01*
X918000D01*
Y479540D01*
D02*
G37*
G36*
X1163540Y478040D02*
X1158000D01*
Y472000D01*
X1163540D01*
Y478040D01*
D02*
G37*
G36*
X1135000Y479000D02*
X1132500D01*
X1133501Y477501D01*
X1135000Y476500D01*
Y479000D01*
D02*
G37*
G36*
X1152000Y490000D02*
X1146460D01*
Y483960D01*
X1152000D01*
Y490000D01*
D02*
G37*
G36*
X1143500Y479000D02*
X1141000D01*
Y476500D01*
X1142499Y477501D01*
X1143500Y479000D01*
D02*
G37*
G36*
X858000Y527540D02*
X853960D01*
Y524000D01*
X858000D01*
Y527540D01*
D02*
G37*
G36*
X868040Y518000D02*
X864000D01*
Y514460D01*
X868040D01*
Y518000D01*
D02*
G37*
G36*
Y527540D02*
X864000D01*
Y524000D01*
X868040D01*
Y527540D01*
D02*
G37*
G36*
X1141750Y554854D02*
Y535500D01*
X1161104D01*
X1160964Y536919D01*
X1159675Y541167D01*
X1157582Y545083D01*
X1154765Y548515D01*
X1151333Y551332D01*
X1147417Y553425D01*
X1143169Y554714D01*
X1141750Y554854D01*
D02*
G37*
G36*
X1135750D02*
X1134331Y554714D01*
X1130083Y553425D01*
X1126167Y551332D01*
X1122735Y548515D01*
X1119918Y545083D01*
X1117825Y541167D01*
X1116536Y536919D01*
X1116396Y535500D01*
X1135750D01*
Y554854D01*
D02*
G37*
G36*
X1161104Y529500D02*
X1141750D01*
Y510146D01*
X1143169Y510286D01*
X1147417Y511575D01*
X1151333Y513668D01*
X1154765Y516485D01*
X1157582Y519917D01*
X1159675Y523833D01*
X1160964Y528081D01*
X1161104Y529500D01*
D02*
G37*
G36*
X1135750D02*
X1116396D01*
X1116536Y528081D01*
X1117825Y523833D01*
X1119918Y519917D01*
X1122735Y516485D01*
X1126167Y513668D01*
X1130083Y511575D01*
X1134331Y510286D01*
X1135750Y510146D01*
Y529500D01*
D02*
G37*
G36*
X838000Y521840D02*
X829460D01*
Y513300D01*
X838000D01*
Y521840D01*
D02*
G37*
G36*
X858000Y518000D02*
X853960D01*
Y514460D01*
X858000D01*
Y518000D01*
D02*
G37*
G36*
X852540Y521840D02*
X844000D01*
Y513300D01*
X852540D01*
Y521840D01*
D02*
G37*
G36*
X546000Y664040D02*
X540460D01*
Y658000D01*
X546000D01*
Y664040D01*
D02*
G37*
G36*
X531600Y659836D02*
Y657000D01*
X534436D01*
X534313Y657298D01*
X533264Y658664D01*
X531898Y659713D01*
X531600Y659836D01*
D02*
G37*
G36*
X525600D02*
X525302Y659713D01*
X523936Y658664D01*
X522887Y657298D01*
X522764Y657000D01*
X525600D01*
Y659836D01*
D02*
G37*
G36*
X1056999Y667104D02*
X1048459D01*
Y658564D01*
X1056999D01*
Y667104D01*
D02*
G37*
G36*
X846539Y681644D02*
X823459D01*
Y658564D01*
X846539D01*
Y681644D01*
D02*
G37*
G36*
X557540Y664040D02*
X552000D01*
Y658000D01*
X557540D01*
Y664040D01*
D02*
G37*
G36*
X356540Y662000D02*
X351000D01*
Y655960D01*
X356540D01*
Y662000D01*
D02*
G37*
G36*
X534436Y651000D02*
X531600D01*
Y648164D01*
X531898Y648287D01*
X533264Y649336D01*
X534313Y650702D01*
X534436Y651000D01*
D02*
G37*
G36*
X525600D02*
X522764D01*
X522887Y650702D01*
X523936Y649336D01*
X525302Y648287D01*
X525600Y648164D01*
Y651000D01*
D02*
G37*
G36*
X999000Y650540D02*
Y647704D01*
X1001836D01*
X1001713Y648002D01*
X1000664Y649368D01*
X999298Y650417D01*
X999000Y650540D01*
D02*
G37*
G36*
X345000Y662000D02*
X339460D01*
Y655960D01*
X345000D01*
Y662000D01*
D02*
G37*
G36*
X789000Y657386D02*
Y654550D01*
X791836D01*
X791713Y654848D01*
X790664Y656214D01*
X789298Y657263D01*
X789000Y657386D01*
D02*
G37*
G36*
X783000D02*
X782702Y657263D01*
X781336Y656214D01*
X780287Y654848D01*
X780164Y654550D01*
X783000D01*
Y657386D01*
D02*
G37*
G36*
X735338Y682404D02*
X720863D01*
X719593Y682151D01*
X718518Y681432D01*
X717799Y680357D01*
X717546Y679088D01*
Y674812D01*
X717799Y673543D01*
X718518Y672468D01*
X719593Y671749D01*
X720863Y671496D01*
X735338D01*
X736607Y671749D01*
X737682Y672468D01*
X738401Y673543D01*
X738654Y674812D01*
Y679088D01*
X738401Y680357D01*
X737682Y681432D01*
X736607Y682151D01*
X735338Y682404D01*
D02*
G37*
G36*
X791836Y673950D02*
X789000D01*
Y671114D01*
X789298Y671237D01*
X790664Y672286D01*
X791713Y673652D01*
X791836Y673950D01*
D02*
G37*
G36*
X783000D02*
X780164D01*
X780287Y673652D01*
X781336Y672286D01*
X782702Y671237D01*
X783000Y671114D01*
Y673950D01*
D02*
G37*
G36*
X1056999Y681644D02*
X1048459D01*
Y673104D01*
X1056999D01*
Y681644D01*
D02*
G37*
G36*
X999000Y675940D02*
Y673104D01*
X1001836D01*
X1001713Y673402D01*
X1000664Y674768D01*
X999298Y675817D01*
X999000Y675940D01*
D02*
G37*
G36*
X993000D02*
X992702Y675817D01*
X991336Y674768D01*
X990287Y673402D01*
X990164Y673104D01*
X993000D01*
Y675940D01*
D02*
G37*
G36*
X356540Y674040D02*
X351000D01*
Y668000D01*
X356540D01*
Y674040D01*
D02*
G37*
G36*
X1071540Y808740D02*
X1048460D01*
Y785660D01*
X1071540D01*
Y789595D01*
X1120650D01*
X1138395Y771850D01*
Y715000D01*
X1138654Y713032D01*
X1138877Y712494D01*
X1139414Y711197D01*
X1140622Y709622D01*
X1180022Y670222D01*
X1181597Y669014D01*
X1182894Y668477D01*
X1183432Y668254D01*
X1185400Y667995D01*
X1187460D01*
Y664060D01*
X1210540D01*
Y687140D01*
X1187460D01*
Y685955D01*
X1186287Y685469D01*
X1153605Y718150D01*
Y775000D01*
X1153346Y776968D01*
X1152966Y777885D01*
X1152586Y778802D01*
X1151378Y780378D01*
X1129178Y802578D01*
X1127603Y803786D01*
X1126306Y804323D01*
X1125768Y804546D01*
X1123800Y804805D01*
X1071540D01*
Y808740D01*
D02*
G37*
G36*
X735338Y669704D02*
X720863D01*
X719593Y669451D01*
X718518Y668732D01*
X717799Y667656D01*
X717546Y666387D01*
Y662113D01*
X717799Y660843D01*
X718518Y659768D01*
X719593Y659049D01*
X720863Y658796D01*
X735338D01*
X736607Y659049D01*
X737682Y659768D01*
X738401Y660843D01*
X738654Y662113D01*
Y666387D01*
X738401Y667656D01*
X737682Y668732D01*
X736607Y669451D01*
X735338Y669704D01*
D02*
G37*
G36*
X1071539Y667104D02*
X1062999D01*
Y658564D01*
X1071539D01*
Y667104D01*
D02*
G37*
G36*
X345000Y674040D02*
X339460D01*
Y668000D01*
X345000D01*
Y674040D01*
D02*
G37*
G36*
X1001836Y667104D02*
X999000D01*
Y664268D01*
X999298Y664391D01*
X1000664Y665440D01*
X1001713Y666806D01*
X1001836Y667104D01*
D02*
G37*
G36*
X993000D02*
X990164D01*
X990287Y666806D01*
X991336Y665440D01*
X992702Y664391D01*
X993000Y664268D01*
Y667104D01*
D02*
G37*
G36*
Y650540D02*
X992702Y650417D01*
X991336Y649368D01*
X990287Y648002D01*
X990164Y647704D01*
X993000D01*
Y650540D01*
D02*
G37*
G36*
X589000Y621836D02*
Y619000D01*
X591836D01*
X591713Y619298D01*
X590664Y620664D01*
X589298Y621713D01*
X589000Y621836D01*
D02*
G37*
G36*
X583000D02*
X582702Y621713D01*
X581336Y620664D01*
X580287Y619298D01*
X580164Y619000D01*
X583000D01*
Y621836D01*
D02*
G37*
G36*
X559000D02*
Y619000D01*
X561836D01*
X561713Y619298D01*
X560664Y620664D01*
X559298Y621713D01*
X559000Y621836D01*
D02*
G37*
G36*
X846539Y656244D02*
X823459D01*
Y633164D01*
X846539D01*
Y656244D01*
D02*
G37*
G36*
X404140Y641540D02*
X395600D01*
Y633000D01*
X404140D01*
Y641540D01*
D02*
G37*
G36*
X389600D02*
X381060D01*
Y633000D01*
X389600D01*
Y641540D01*
D02*
G37*
G36*
X553000Y621836D02*
X552702Y621713D01*
X551336Y620664D01*
X550287Y619298D01*
X550164Y619000D01*
X553000D01*
Y621836D01*
D02*
G37*
G36*
X389600Y627000D02*
X381060D01*
Y618460D01*
X389600D01*
Y627000D01*
D02*
G37*
G36*
X591836Y613000D02*
X589000D01*
Y610164D01*
X589298Y610287D01*
X590664Y611336D01*
X591713Y612702D01*
X591836Y613000D01*
D02*
G37*
G36*
X583000D02*
X580164D01*
X580287Y612702D01*
X581336Y611336D01*
X582702Y610287D01*
X583000Y610164D01*
Y613000D01*
D02*
G37*
G36*
X531600Y621836D02*
Y619000D01*
X534436D01*
X534313Y619298D01*
X533264Y620664D01*
X531898Y621713D01*
X531600Y621836D01*
D02*
G37*
G36*
X525600D02*
X525302Y621713D01*
X523936Y620664D01*
X522887Y619298D01*
X522764Y619000D01*
X525600D01*
Y621836D01*
D02*
G37*
G36*
X404140Y627000D02*
X395600D01*
Y618460D01*
X404140D01*
Y627000D01*
D02*
G37*
G36*
X791836Y648550D02*
X789000D01*
Y645714D01*
X789298Y645837D01*
X790664Y646886D01*
X791713Y648252D01*
X791836Y648550D01*
D02*
G37*
G36*
X783000D02*
X780164D01*
X780287Y648252D01*
X781336Y646886D01*
X782702Y645837D01*
X783000Y645714D01*
Y648550D01*
D02*
G37*
G36*
X298000Y669405D02*
Y640000D01*
X327405D01*
X327239Y642106D01*
X326043Y647086D01*
X324083Y651818D01*
X321407Y656186D01*
X318080Y660080D01*
X314186Y663407D01*
X309818Y666083D01*
X305086Y668043D01*
X300106Y669239D01*
X298000Y669405D01*
D02*
G37*
G36*
X735338Y657004D02*
X720863D01*
X719593Y656751D01*
X718518Y656032D01*
X717799Y654957D01*
X717546Y653688D01*
Y649413D01*
X717799Y648143D01*
X718518Y647068D01*
X719593Y646349D01*
X720863Y646096D01*
X735338D01*
X736607Y646349D01*
X737682Y647068D01*
X738401Y648143D01*
X738654Y649413D01*
Y653688D01*
X738401Y654957D01*
X737682Y656032D01*
X736607Y656751D01*
X735338Y657004D01*
D02*
G37*
G36*
X557540Y652000D02*
X552000D01*
Y645960D01*
X557540D01*
Y652000D01*
D02*
G37*
G36*
X546000D02*
X540460D01*
Y645960D01*
X546000D01*
Y652000D01*
D02*
G37*
G36*
X292000Y669405D02*
X289894Y669239D01*
X284914Y668043D01*
X280182Y666083D01*
X275814Y663407D01*
X271920Y660080D01*
X268593Y656186D01*
X265917Y651818D01*
X263957Y647086D01*
X262761Y642106D01*
X262596Y640000D01*
X292000D01*
Y669405D01*
D02*
G37*
G36*
X1118000Y665405D02*
Y636000D01*
X1147404D01*
X1147239Y638106D01*
X1146043Y643086D01*
X1144083Y647819D01*
X1141407Y652186D01*
X1138080Y656080D01*
X1134186Y659407D01*
X1129818Y662083D01*
X1125087Y664043D01*
X1120106Y665239D01*
X1118000Y665405D01*
D02*
G37*
G36*
X1112000D02*
X1109894Y665239D01*
X1104913Y664043D01*
X1100182Y662083D01*
X1095814Y659407D01*
X1091920Y656080D01*
X1088593Y652186D01*
X1085917Y647819D01*
X1083957Y643086D01*
X1082761Y638106D01*
X1082596Y636000D01*
X1112000D01*
Y665405D01*
D02*
G37*
G36*
X1071539Y656244D02*
X1048459D01*
Y633164D01*
X1071539D01*
Y656244D01*
D02*
G37*
G36*
X1001836Y641704D02*
X999000D01*
Y638868D01*
X999298Y638991D01*
X1000664Y640040D01*
X1001713Y641406D01*
X1001836Y641704D01*
D02*
G37*
G36*
X993000D02*
X990164D01*
X990287Y641406D01*
X991336Y640040D01*
X992702Y638991D01*
X993000Y638868D01*
Y641704D01*
D02*
G37*
G36*
X1071540Y783340D02*
X1048460D01*
Y760260D01*
X1071540D01*
Y764195D01*
X1113050D01*
X1119395Y757850D01*
Y705000D01*
X1119654Y703032D01*
X1119877Y702494D01*
X1120414Y701197D01*
X1121622Y699622D01*
X1176422Y644822D01*
X1177997Y643614D01*
X1178757Y643299D01*
X1179832Y642854D01*
X1181800Y642595D01*
X1187460D01*
Y638660D01*
X1210540D01*
Y661740D01*
X1187460D01*
Y657805D01*
X1184950D01*
X1134605Y708150D01*
Y761000D01*
X1134346Y762968D01*
X1134123Y763505D01*
X1133586Y764802D01*
X1132378Y766378D01*
X1121578Y777178D01*
X1120003Y778386D01*
X1118706Y778923D01*
X1118168Y779146D01*
X1116200Y779405D01*
X1071540D01*
Y783340D01*
D02*
G37*
G36*
X1152000Y478040D02*
X1146460D01*
Y472000D01*
X1152000D01*
Y478040D01*
D02*
G37*
G36*
X514000Y308500D02*
X508620D01*
X509235Y307017D01*
X510660Y305160D01*
X512517Y303735D01*
X514000Y303120D01*
Y308500D01*
D02*
G37*
G36*
X608000Y311245D02*
X607988Y311243D01*
X605180Y310080D01*
X602770Y308230D01*
X600920Y305820D01*
X599757Y303013D01*
X599755Y303000D01*
X608000D01*
Y311245D01*
D02*
G37*
G36*
X525380Y308500D02*
X520000D01*
Y303120D01*
X521483Y303735D01*
X523340Y305160D01*
X524765Y307017D01*
X525380Y308500D01*
D02*
G37*
G36*
X555380Y308500D02*
X550000D01*
Y303120D01*
X551483Y303735D01*
X553340Y305160D01*
X554765Y307017D01*
X555380Y308500D01*
D02*
G37*
G36*
X544000D02*
X538620D01*
X539235Y307017D01*
X540659Y305160D01*
X542517Y303735D01*
X544000Y303120D01*
Y308500D01*
D02*
G37*
G36*
X457380Y305800D02*
X452000D01*
Y300420D01*
X453483Y301035D01*
X455340Y302460D01*
X456765Y304317D01*
X457380Y305800D01*
D02*
G37*
G36*
X376380Y304500D02*
X371000D01*
Y299120D01*
X372483Y299735D01*
X374340Y301159D01*
X375765Y303017D01*
X376380Y304500D01*
D02*
G37*
G36*
X365000D02*
X359620D01*
X360235Y303017D01*
X361660Y301159D01*
X363517Y299735D01*
X365000Y299120D01*
Y304500D01*
D02*
G37*
G36*
X581633Y304524D02*
X576253D01*
X576868Y303040D01*
X578293Y301183D01*
X580150Y299758D01*
X581633Y299144D01*
Y304524D01*
D02*
G37*
G36*
X446000Y305800D02*
X440620D01*
X441235Y304317D01*
X442660Y302460D01*
X444517Y301035D01*
X446000Y300420D01*
Y305800D01*
D02*
G37*
G36*
X593013Y304524D02*
X587633D01*
Y299144D01*
X589117Y299758D01*
X590974Y301183D01*
X592398Y303040D01*
X593013Y304524D01*
D02*
G37*
G36*
X377040Y322544D02*
X368000D01*
X358960D01*
Y317004D01*
X364395D01*
X364648Y315734D01*
X363517Y315265D01*
X361660Y313840D01*
X360235Y311983D01*
X359620Y310500D01*
X376380D01*
X375765Y311983D01*
X374340Y313840D01*
X372483Y315265D01*
X371352Y315734D01*
X371604Y317004D01*
X377040D01*
Y322544D01*
D02*
G37*
G36*
X1156040Y325000D02*
X1150000D01*
Y319460D01*
X1156040D01*
Y325000D01*
D02*
G37*
G36*
X1144000D02*
X1137960D01*
Y319460D01*
X1144000D01*
Y325000D01*
D02*
G37*
G36*
X1022000Y325967D02*
X1019679Y325661D01*
X1017517Y324765D01*
X1015660Y323340D01*
X1014235Y321483D01*
X1013873Y320609D01*
X980000D01*
X980000Y320609D01*
X978619Y320335D01*
X977448Y319552D01*
X964648Y306752D01*
X963865Y305581D01*
X963591Y304200D01*
Y296940D01*
X955660D01*
Y273860D01*
X978740D01*
Y296940D01*
X970809D01*
Y302705D01*
X981495Y313391D01*
X1013873D01*
X1014235Y312517D01*
X1015660Y310660D01*
X1017517Y309235D01*
X1019679Y308339D01*
X1022000Y308033D01*
X1024321Y308339D01*
X1026483Y309235D01*
X1028340Y310660D01*
X1029765Y312517D01*
X1030661Y314679D01*
X1030967Y317000D01*
X1030661Y319321D01*
X1029765Y321483D01*
X1028340Y323340D01*
X1026483Y324765D01*
X1024321Y325661D01*
X1022000Y325967D01*
D02*
G37*
G36*
X1076000Y336040D02*
X1070460D01*
Y330000D01*
X1076000D01*
Y336040D01*
D02*
G37*
G36*
X1132040Y336540D02*
X1113960D01*
Y331715D01*
X1109500Y327255D01*
X1107540Y329215D01*
Y336040D01*
X1090460D01*
Y317960D01*
X1097285D01*
X1098745Y316500D01*
X1088918Y306674D01*
X1087710Y305098D01*
X1087172Y303801D01*
X1086950Y303264D01*
X1086691Y301296D01*
Y296939D01*
X1082756D01*
Y273859D01*
X1105836D01*
Y296939D01*
X1102054D01*
X1101964Y298209D01*
X1108865Y305110D01*
X1110135D01*
X1114960Y300285D01*
Y293460D01*
X1133040D01*
Y310540D01*
X1126215D01*
X1120255Y316500D01*
X1123215Y319460D01*
X1132040D01*
Y336540D01*
D02*
G37*
G36*
X1087540Y324000D02*
X1082000D01*
Y317960D01*
X1087540D01*
Y324000D01*
D02*
G37*
G36*
X454655Y323844D02*
X449000D01*
X443345D01*
Y322156D01*
X443602Y320868D01*
X444332Y319776D01*
X445424Y319046D01*
X446712Y318789D01*
X447038D01*
X447121Y317519D01*
X446679Y317461D01*
X444517Y316565D01*
X442660Y315140D01*
X441235Y313283D01*
X440620Y311800D01*
X457380D01*
X456765Y313283D01*
X455340Y315140D01*
X453483Y316565D01*
X451321Y317461D01*
X450879Y317519D01*
X450962Y318789D01*
X451287D01*
X452576Y319046D01*
X453668Y319776D01*
X454398Y320868D01*
X454655Y322156D01*
Y323844D01*
D02*
G37*
G36*
X592173Y322568D02*
X577093D01*
Y312301D01*
X576868Y312007D01*
X576253Y310524D01*
X593013D01*
X592398Y312007D01*
X592173Y312301D01*
Y322568D01*
D02*
G37*
G36*
X526040Y326544D02*
X517000D01*
X507960D01*
Y321004D01*
X513396D01*
X513648Y319734D01*
X512517Y319265D01*
X510660Y317840D01*
X509235Y315983D01*
X508620Y314500D01*
X525380D01*
X524765Y315983D01*
X523340Y317840D01*
X521483Y319265D01*
X520352Y319734D01*
X520605Y321004D01*
X526040D01*
Y326544D01*
D02*
G37*
G36*
X1076000Y324000D02*
X1070460D01*
Y317960D01*
X1076000D01*
Y324000D01*
D02*
G37*
G36*
X556040Y326544D02*
X547000D01*
X537960D01*
Y321004D01*
X543396D01*
X543648Y319734D01*
X542517Y319265D01*
X540659Y317840D01*
X539235Y315983D01*
X538620Y314500D01*
X555380D01*
X554765Y315983D01*
X553340Y317840D01*
X551483Y319265D01*
X550352Y319734D01*
X550605Y321004D01*
X556040D01*
Y326544D01*
D02*
G37*
G36*
X1172500Y314854D02*
Y295500D01*
X1191854D01*
X1191714Y296919D01*
X1190425Y301167D01*
X1188332Y305083D01*
X1185515Y308515D01*
X1182083Y311332D01*
X1178167Y313425D01*
X1173919Y314714D01*
X1172500Y314854D01*
D02*
G37*
G36*
X1065896Y282399D02*
X1057356D01*
Y273859D01*
X1065896D01*
Y282399D01*
D02*
G37*
G36*
X1055036Y296939D02*
X1031956D01*
Y273859D01*
X1055036D01*
Y296939D01*
D02*
G37*
G36*
X1080436Y282399D02*
X1071896D01*
Y273859D01*
X1080436D01*
Y282399D01*
D02*
G37*
G36*
X927940Y296940D02*
X904860D01*
Y273860D01*
X927940D01*
Y296940D01*
D02*
G37*
G36*
X902540D02*
X879460D01*
Y273860D01*
X902540D01*
Y296940D01*
D02*
G37*
G36*
X1029636Y296939D02*
X1006556D01*
Y273859D01*
X1029636D01*
Y296939D01*
D02*
G37*
G36*
X1166500Y289500D02*
X1147146D01*
X1147286Y288081D01*
X1148575Y283833D01*
X1150668Y279917D01*
X1153485Y276485D01*
X1156917Y273668D01*
X1160833Y271575D01*
X1165081Y270286D01*
X1166500Y270146D01*
Y289500D01*
D02*
G37*
G36*
X305000Y286544D02*
X295460D01*
Y267004D01*
X305000D01*
Y286544D01*
D02*
G37*
G36*
X1191854Y289500D02*
X1172500D01*
Y270146D01*
X1173919Y270286D01*
X1178167Y271575D01*
X1182083Y273668D01*
X1185515Y276485D01*
X1188332Y279917D01*
X1190425Y283833D01*
X1191714Y288081D01*
X1191854Y289500D01*
D02*
G37*
G36*
X1133040Y279000D02*
X1127000D01*
Y273460D01*
X1133040D01*
Y279000D01*
D02*
G37*
G36*
X1121000D02*
X1114960D01*
Y273460D01*
X1121000D01*
Y279000D01*
D02*
G37*
G36*
X953340Y296940D02*
X930260D01*
Y273860D01*
X953340D01*
Y296940D01*
D02*
G37*
G36*
X608000Y297000D02*
X599755D01*
X599757Y296987D01*
X600920Y294180D01*
X602770Y291770D01*
X605180Y289920D01*
X607988Y288757D01*
X608000Y288755D01*
Y297000D01*
D02*
G37*
G36*
X1080436Y296939D02*
X1071896D01*
Y288399D01*
X1080436D01*
Y296939D01*
D02*
G37*
G36*
X305000Y312084D02*
X295460D01*
Y292544D01*
X305000D01*
Y312084D01*
D02*
G37*
G36*
X1166500Y314854D02*
X1165081Y314714D01*
X1160833Y313425D01*
X1156917Y311332D01*
X1153485Y308515D01*
X1150668Y305083D01*
X1148575Y301167D01*
X1147286Y296919D01*
X1147146Y295500D01*
X1166500D01*
Y314854D01*
D02*
G37*
G36*
X329044Y297924D02*
Y292544D01*
X334424D01*
X333809Y294027D01*
X332384Y295884D01*
X330527Y297309D01*
X329044Y297924D01*
D02*
G37*
G36*
X1065896Y296939D02*
X1057356D01*
Y288399D01*
X1065896D01*
Y296939D01*
D02*
G37*
G36*
X320540Y312084D02*
X311000D01*
Y289544D01*
Y267004D01*
X320540D01*
Y281140D01*
X321810Y281675D01*
X323044Y281164D01*
Y289544D01*
Y297924D01*
X321810Y297413D01*
X320540Y297948D01*
Y312084D01*
D02*
G37*
G36*
X1004140Y296940D02*
X981060D01*
Y273860D01*
X1004140D01*
Y296940D01*
D02*
G37*
G36*
X334424Y286544D02*
X329044D01*
Y281164D01*
X330527Y281779D01*
X332384Y283204D01*
X333809Y285061D01*
X334424Y286544D01*
D02*
G37*
G36*
X1133040Y290540D02*
X1127000D01*
Y285000D01*
X1133040D01*
Y290540D01*
D02*
G37*
G36*
X1121000D02*
X1114960D01*
Y285000D01*
X1121000D01*
Y290540D01*
D02*
G37*
G36*
X1121540Y428040D02*
X1116000D01*
Y422000D01*
X1121540D01*
Y428040D01*
D02*
G37*
G36*
X1110000D02*
X1104460D01*
Y422000D01*
X1110000D01*
Y428040D01*
D02*
G37*
G36*
X1135000Y429000D02*
X1128960D01*
Y423460D01*
X1135000D01*
Y429000D01*
D02*
G37*
G36*
X832000Y451104D02*
X830581Y450964D01*
X826333Y449675D01*
X822417Y447582D01*
X818985Y444765D01*
X816168Y441333D01*
X814075Y437417D01*
X812786Y433169D01*
X812646Y431750D01*
X832000D01*
Y451104D01*
D02*
G37*
G36*
X1147040Y429000D02*
X1141000D01*
Y423460D01*
X1147040D01*
Y429000D01*
D02*
G37*
G36*
X1121540Y416000D02*
X1116000D01*
Y409960D01*
X1121540D01*
Y416000D01*
D02*
G37*
G36*
X857354Y425750D02*
X838000D01*
Y406396D01*
X839419Y406536D01*
X843667Y407825D01*
X847583Y409918D01*
X851015Y412735D01*
X853832Y416167D01*
X855925Y420083D01*
X857214Y424331D01*
X857354Y425750D01*
D02*
G37*
G36*
X832000D02*
X812646D01*
X812786Y424331D01*
X814075Y420083D01*
X816168Y416167D01*
X818985Y412735D01*
X822417Y409918D01*
X826333Y407825D01*
X830581Y406536D01*
X832000Y406396D01*
Y425750D01*
D02*
G37*
G36*
X278500Y412100D02*
X274460D01*
Y408060D01*
X278500D01*
Y412100D01*
D02*
G37*
G36*
X1110000Y416000D02*
X1104460D01*
Y409960D01*
X1110000D01*
Y416000D01*
D02*
G37*
G36*
X297540Y412100D02*
X293500D01*
Y408060D01*
X297540D01*
Y412100D01*
D02*
G37*
G36*
X838000Y451104D02*
Y431750D01*
X857354D01*
X857214Y433169D01*
X855925Y437417D01*
X853832Y441333D01*
X851015Y444765D01*
X847583Y447582D01*
X843667Y449675D01*
X839419Y450964D01*
X838000Y451104D01*
D02*
G37*
G36*
X1163540Y466000D02*
X1158000D01*
Y459960D01*
X1163540D01*
Y466000D01*
D02*
G37*
G36*
X1152000D02*
X1146460D01*
Y459960D01*
X1152000D01*
Y466000D01*
D02*
G37*
G36*
X894000Y468000D02*
X887960D01*
Y462460D01*
X894000D01*
Y468000D01*
D02*
G37*
G36*
X918000Y468000D02*
X911960D01*
Y462460D01*
X918000D01*
Y468000D01*
D02*
G37*
G36*
X906040Y468000D02*
X900000D01*
Y462460D01*
X906040D01*
Y468000D01*
D02*
G37*
G36*
X1141000Y454500D02*
Y452000D01*
X1143500D01*
X1142499Y453499D01*
X1141000Y454500D01*
D02*
G37*
G36*
X1147040Y440540D02*
X1141000D01*
Y435000D01*
X1147040D01*
Y440540D01*
D02*
G37*
G36*
X1135000D02*
X1128960D01*
Y435000D01*
X1135000D01*
Y440540D01*
D02*
G37*
G36*
X1135000Y446000D02*
X1132500D01*
X1133501Y444501D01*
X1135000Y443500D01*
Y446000D01*
D02*
G37*
G36*
Y454500D02*
X1133501Y453499D01*
X1132500Y452000D01*
X1135000D01*
Y454500D01*
D02*
G37*
G36*
X1143500Y446000D02*
X1141000D01*
Y443500D01*
X1142499Y444501D01*
X1143500Y446000D01*
D02*
G37*
G36*
X1003000Y410540D02*
X996960D01*
Y405000D01*
X1003000D01*
Y410540D01*
D02*
G37*
G36*
X300500Y354044D02*
X295460D01*
Y339004D01*
X300500D01*
Y354044D01*
D02*
G37*
G36*
X1156040Y336540D02*
X1150000D01*
Y331000D01*
X1156040D01*
Y336540D01*
D02*
G37*
G36*
X320540Y354044D02*
X315500D01*
Y339004D01*
X320540D01*
Y354044D01*
D02*
G37*
G36*
X360500Y354084D02*
X358960D01*
Y353044D01*
X360500D01*
Y354084D01*
D02*
G37*
G36*
X894000Y347084D02*
X887960D01*
Y341544D01*
X894000D01*
Y347084D01*
D02*
G37*
G36*
X1144000Y336540D02*
X1137960D01*
Y331000D01*
X1144000D01*
Y336540D01*
D02*
G37*
G36*
X894000Y335544D02*
X887960D01*
Y330004D01*
X894000D01*
Y335544D01*
D02*
G37*
G36*
X1087540Y336040D02*
X1082000D01*
Y330000D01*
X1087540D01*
Y336040D01*
D02*
G37*
G36*
X906040Y335544D02*
X900000D01*
Y330004D01*
X906040D01*
Y335544D01*
D02*
G37*
G36*
X930040Y335544D02*
X924000D01*
Y330004D01*
X930040D01*
Y335544D01*
D02*
G37*
G36*
X918000D02*
X911960D01*
Y330004D01*
X918000D01*
Y335544D01*
D02*
G37*
G36*
X377040Y354084D02*
X375500D01*
Y353044D01*
X377040D01*
Y354084D01*
D02*
G37*
G36*
X1003000Y399000D02*
X996960D01*
Y393460D01*
X1003000D01*
Y399000D01*
D02*
G37*
G36*
X867040Y392540D02*
X863000D01*
Y389000D01*
X867040D01*
Y392540D01*
D02*
G37*
G36*
X1015040Y410540D02*
X1009000D01*
Y402000D01*
Y393460D01*
X1015040D01*
Y398533D01*
X1016310Y398826D01*
X1017501Y397043D01*
X1019000Y396042D01*
Y401542D01*
Y407042D01*
X1017501Y406041D01*
X1016310Y404258D01*
X1015040Y404551D01*
Y410540D01*
D02*
G37*
G36*
X1025000Y407042D02*
Y404542D01*
X1027500D01*
X1026499Y406041D01*
X1025000Y407042D01*
D02*
G37*
G36*
X1027500Y398542D02*
X1025000D01*
Y396042D01*
X1026499Y397043D01*
X1027500Y398542D01*
D02*
G37*
G36*
X1134000Y390000D02*
Y387500D01*
X1136500D01*
X1135499Y388999D01*
X1134000Y390000D01*
D02*
G37*
G36*
X320540Y384084D02*
X315500D01*
Y369044D01*
X320540D01*
Y384084D01*
D02*
G37*
G36*
X300500D02*
X295460D01*
Y369044D01*
X300500D01*
Y384084D01*
D02*
G37*
G36*
X867040Y383000D02*
X863000D01*
Y379460D01*
X867040D01*
Y383000D01*
D02*
G37*
G36*
X1128000Y390000D02*
X1126501Y388999D01*
X1125500Y387500D01*
X1128000D01*
Y390000D01*
D02*
G37*
G36*
X838000Y388940D02*
X829460D01*
Y380400D01*
X838000D01*
Y388940D01*
D02*
G37*
G36*
X1071539Y681644D02*
X1062999D01*
Y673104D01*
X1071539D01*
Y681644D01*
D02*
G37*
G36*
X670040Y899000D02*
X664000D01*
Y893460D01*
X670040D01*
Y899000D01*
D02*
G37*
G36*
X658000D02*
X651960D01*
Y893460D01*
X658000D01*
Y899000D01*
D02*
G37*
G36*
X535040Y922040D02*
X502000D01*
Y889000D01*
X535040D01*
Y922040D01*
D02*
G37*
G36*
X387600Y909055D02*
X387066Y908949D01*
X385978Y908222D01*
X385251Y907134D01*
X384995Y905850D01*
Y899750D01*
X387600D01*
Y909055D01*
D02*
G37*
G36*
X619540Y919040D02*
X602460D01*
Y900960D01*
X619540D01*
Y904861D01*
X623387D01*
X624310Y903660D01*
X626167Y902235D01*
X628329Y901339D01*
X630650Y901033D01*
X632971Y901339D01*
X635133Y902235D01*
X636990Y903660D01*
X638415Y905517D01*
X639311Y907679D01*
X639617Y910000D01*
X639311Y912321D01*
X638415Y914483D01*
X636990Y916340D01*
X635133Y917765D01*
X632971Y918661D01*
X630650Y918967D01*
X628329Y918661D01*
X626167Y917765D01*
X624310Y916340D01*
X623387Y915139D01*
X619540D01*
Y919040D01*
D02*
G37*
G36*
X562513Y965674D02*
X552088D01*
X550419Y965342D01*
X549004Y964396D01*
X548058Y962981D01*
X547726Y961312D01*
Y943887D01*
X548058Y942218D01*
X549004Y940804D01*
X550419Y939858D01*
X552088Y939526D01*
X552161D01*
Y937700D01*
X552552Y935733D01*
X553666Y934066D01*
X581366Y906366D01*
X582460Y905636D01*
Y900960D01*
X599540D01*
Y919040D01*
X583227D01*
X563656Y938612D01*
X564024Y939827D01*
X564182Y939858D01*
X565596Y940804D01*
X566542Y942218D01*
X566874Y943887D01*
Y961312D01*
X566542Y962981D01*
X565596Y964396D01*
X564182Y965342D01*
X562513Y965674D01*
D02*
G37*
G36*
X393600Y909055D02*
Y899750D01*
X396204D01*
Y905850D01*
X395949Y907134D01*
X395222Y908222D01*
X394134Y908949D01*
X393600Y909055D01*
D02*
G37*
G36*
X496000Y922040D02*
X462960D01*
Y889000D01*
X496000D01*
Y922040D01*
D02*
G37*
G36*
X670040Y890540D02*
X651960D01*
Y880948D01*
X648010Y876999D01*
X635461D01*
X635461Y877000D01*
X635440Y878260D01*
X635440Y878410D01*
Y881050D01*
X624400D01*
X613360D01*
Y878410D01*
X613360Y878260D01*
Y877700D01*
Y877140D01*
X613360Y876990D01*
Y865710D01*
X613360Y865560D01*
Y865000D01*
Y864440D01*
X613360Y864290D01*
Y853010D01*
X613360Y852860D01*
Y852300D01*
Y851740D01*
X613360Y851590D01*
Y840160D01*
X633852D01*
X643006Y831006D01*
X643006Y831006D01*
X644104Y830272D01*
X644838Y829781D01*
X647000Y829352D01*
X652960D01*
Y826460D01*
X657881D01*
Y797706D01*
X643087Y782913D01*
X642194Y781576D01*
X641881Y780000D01*
Y715350D01*
X642194Y713774D01*
X643087Y712437D01*
X656087Y699437D01*
X657424Y698544D01*
X659000Y698231D01*
X664075D01*
X664318Y697868D01*
X665393Y697149D01*
X666663Y696896D01*
X681137D01*
X682407Y697149D01*
X683482Y697868D01*
X684201Y698943D01*
X684454Y700212D01*
Y704488D01*
X684201Y705757D01*
X683482Y706832D01*
X682407Y707551D01*
X681137Y707804D01*
X666663D01*
X665393Y707551D01*
X664318Y706832D01*
X664075Y706469D01*
X660706D01*
X650119Y717056D01*
Y739504D01*
X651389Y740210D01*
X651861Y739917D01*
Y733000D01*
X652252Y731033D01*
X653366Y729366D01*
X658616Y724116D01*
X660284Y723002D01*
X662250Y722611D01*
X665300D01*
X665393Y722549D01*
X666663Y722296D01*
X681137D01*
X682407Y722549D01*
X683482Y723268D01*
X684201Y724343D01*
X684454Y725612D01*
Y729887D01*
X684201Y731156D01*
X683482Y732232D01*
X682407Y732951D01*
X681137Y733204D01*
X666663D01*
X665393Y732951D01*
X665300Y732889D01*
X664379D01*
X662139Y735128D01*
Y737873D01*
X663409Y737999D01*
X663599Y737043D01*
X664318Y735968D01*
X665393Y735249D01*
X666663Y734996D01*
X681137D01*
X682407Y735249D01*
X683482Y735968D01*
X684201Y737043D01*
X684454Y738313D01*
Y742588D01*
X684201Y743857D01*
X683482Y744932D01*
X682407Y745651D01*
X681137Y745904D01*
X679039D01*
Y752050D01*
X679483Y752235D01*
X681340Y753660D01*
X682765Y755517D01*
X683661Y757679D01*
X683967Y760000D01*
X683661Y762321D01*
X682765Y764483D01*
X681340Y766340D01*
X679483Y767765D01*
X677321Y768661D01*
X675000Y768967D01*
X672679Y768661D01*
X670517Y767765D01*
X668660Y766340D01*
X667235Y764483D01*
X666339Y762321D01*
X666033Y760000D01*
X666339Y757679D01*
X667235Y755517D01*
X668660Y753660D01*
X668761Y753581D01*
Y745904D01*
X666972D01*
X665811Y746821D01*
X665967Y748000D01*
X665661Y750321D01*
X664765Y752483D01*
X663340Y754340D01*
X661483Y755765D01*
X659321Y756661D01*
X657000Y756967D01*
X654679Y756661D01*
X652517Y755765D01*
X651389Y754900D01*
X650119Y755527D01*
Y778294D01*
X664913Y793087D01*
X665806Y794424D01*
X666119Y796000D01*
Y826460D01*
X671040D01*
Y843540D01*
X652960D01*
Y840648D01*
X649340D01*
X640044Y849944D01*
X638212Y851169D01*
X636832Y851443D01*
X636303Y852843D01*
X636424Y853001D01*
X652960D01*
Y846460D01*
X671040D01*
Y847395D01*
X677960D01*
Y846460D01*
X696040D01*
Y863540D01*
X677960D01*
Y862605D01*
X671040D01*
Y863540D01*
X661003D01*
X660512Y863868D01*
X658350Y864298D01*
X658350Y864298D01*
X636952D01*
X636560Y865000D01*
X636952Y865701D01*
X650350D01*
X650350Y865701D01*
X652512Y866131D01*
X654344Y867356D01*
X660448Y873460D01*
X670040D01*
Y874395D01*
X677960D01*
Y873460D01*
X696040D01*
Y890540D01*
X677960D01*
Y889605D01*
X670040D01*
Y890540D01*
D02*
G37*
G36*
X757540Y858040D02*
X754000D01*
Y854000D01*
X757540D01*
Y858040D01*
D02*
G37*
G36*
X748000D02*
X744460D01*
Y854000D01*
X748000D01*
Y858040D01*
D02*
G37*
G36*
X611540Y759200D02*
X606000D01*
Y753160D01*
X611540D01*
Y759200D01*
D02*
G37*
G36*
X635440Y889840D02*
X627400D01*
Y887050D01*
X635440D01*
Y889840D01*
D02*
G37*
G36*
X621400D02*
X613360D01*
Y887050D01*
X621400D01*
Y889840D01*
D02*
G37*
G36*
X600000Y759200D02*
X594460D01*
Y753160D01*
X600000D01*
Y759200D01*
D02*
G37*
G36*
X658000Y910540D02*
X651960D01*
Y905000D01*
X658000D01*
Y910540D01*
D02*
G37*
G36*
X610540Y935000D02*
X605000D01*
Y928960D01*
X610540D01*
Y935000D01*
D02*
G37*
G36*
X599000D02*
X593460D01*
Y928960D01*
X599000D01*
Y935000D01*
D02*
G37*
G36*
X696540Y934000D02*
X691000D01*
Y927960D01*
X696540D01*
Y934000D01*
D02*
G37*
G36*
X445000Y938000D02*
X439460D01*
Y931960D01*
X445000D01*
Y938000D01*
D02*
G37*
G36*
X562000Y745040D02*
X556460D01*
Y739000D01*
X562000D01*
Y745040D01*
D02*
G37*
G36*
X573540D02*
X568000D01*
Y739000D01*
X573540D01*
Y745040D01*
D02*
G37*
G36*
X892000Y961547D02*
X888753Y961120D01*
X885726Y959866D01*
X883128Y957872D01*
X881134Y955274D01*
X879880Y952247D01*
X879453Y949000D01*
X879880Y945752D01*
X881134Y942726D01*
X883128Y940128D01*
X885726Y938134D01*
X888753Y936880D01*
X892000Y936453D01*
X895247Y936880D01*
X898274Y938134D01*
X900872Y940128D01*
X902866Y942726D01*
X904120Y945752D01*
X904547Y949000D01*
X904120Y952247D01*
X902866Y955274D01*
X900872Y957872D01*
X898274Y959866D01*
X895247Y961120D01*
X892000Y961547D01*
D02*
G37*
G36*
X685000Y934000D02*
X679460D01*
Y927960D01*
X685000D01*
Y934000D01*
D02*
G37*
G36*
X725100Y745904D02*
X720863D01*
X719593Y745651D01*
X718518Y744932D01*
X717799Y743857D01*
X717718Y743450D01*
X725100D01*
Y745904D01*
D02*
G37*
G36*
X735338D02*
X731100D01*
Y743450D01*
X738482D01*
X738401Y743857D01*
X737682Y744932D01*
X736607Y745651D01*
X735338Y745904D01*
D02*
G37*
G36*
X670040Y910540D02*
X664000D01*
Y905000D01*
X670040D01*
Y910540D01*
D02*
G37*
G36*
X318000Y917000D02*
X312460D01*
Y910960D01*
X318000D01*
Y917000D01*
D02*
G37*
G36*
X329540Y929040D02*
X324000D01*
Y923000D01*
X329540D01*
Y929040D01*
D02*
G37*
G36*
X318000D02*
X312460D01*
Y923000D01*
X318000D01*
Y929040D01*
D02*
G37*
G36*
X329540Y917000D02*
X324000D01*
Y910960D01*
X329540D01*
Y917000D01*
D02*
G37*
G36*
X330350Y853100D02*
X324810D01*
Y847060D01*
X330350D01*
Y853100D01*
D02*
G37*
G36*
X846540Y808740D02*
X823460D01*
Y785660D01*
X846540D01*
Y808740D01*
D02*
G37*
G36*
X318000Y794040D02*
X312460D01*
Y788000D01*
X318000D01*
Y794040D01*
D02*
G37*
G36*
X846540Y834140D02*
X823460D01*
Y827739D01*
X815600D01*
X813633Y827347D01*
X811966Y826234D01*
X805366Y819634D01*
X804252Y817967D01*
X803861Y816000D01*
Y810128D01*
X773872Y780139D01*
X713000D01*
X711033Y779748D01*
X709366Y778634D01*
X689366Y758634D01*
X688252Y756966D01*
X687861Y755000D01*
Y697129D01*
X685521Y694789D01*
X682500D01*
X682407Y694851D01*
X681137Y695104D01*
X666663D01*
X665393Y694851D01*
X664318Y694132D01*
X663599Y693056D01*
X663346Y691787D01*
Y687513D01*
X663599Y686243D01*
X664318Y685168D01*
X665393Y684449D01*
X666663Y684196D01*
X681137D01*
X682407Y684449D01*
X682500Y684511D01*
X687650D01*
X689616Y684902D01*
X691284Y686016D01*
X696634Y691366D01*
X697748Y693034D01*
X698139Y695000D01*
Y752871D01*
X715128Y769861D01*
X776000D01*
X777967Y770252D01*
X779634Y771366D01*
X812634Y804366D01*
X813748Y806033D01*
X814139Y808000D01*
Y813872D01*
X817729Y817461D01*
X823460D01*
Y811060D01*
X846540D01*
Y834140D01*
D02*
G37*
G36*
X993000Y819600D02*
X990164D01*
X990287Y819302D01*
X991336Y817936D01*
X992702Y816887D01*
X993000Y816764D01*
Y819600D01*
D02*
G37*
G36*
X999000Y828436D02*
Y825600D01*
X1001836D01*
X1001713Y825898D01*
X1000664Y827264D01*
X999298Y828313D01*
X999000Y828436D01*
D02*
G37*
G36*
X993000D02*
X992702Y828313D01*
X991336Y827264D01*
X990287Y825898D01*
X990164Y825600D01*
X993000D01*
Y828436D01*
D02*
G37*
G36*
X1001836Y819600D02*
X999000D01*
Y816764D01*
X999298Y816887D01*
X1000664Y817936D01*
X1001713Y819302D01*
X1001836Y819600D01*
D02*
G37*
G36*
X598000Y791749D02*
X593960D01*
Y788209D01*
X598000D01*
Y791749D01*
D02*
G37*
G36*
Y801289D02*
X593960D01*
Y797749D01*
X598000D01*
Y801289D01*
D02*
G37*
G36*
X608040D02*
X604000D01*
Y797749D01*
X608040D01*
Y801289D01*
D02*
G37*
G36*
X767540Y836040D02*
X754460D01*
Y822310D01*
X754460Y821960D01*
X753615Y821040D01*
X753615Y821040D01*
X743460D01*
Y806960D01*
X756540D01*
Y820690D01*
X756540Y821040D01*
X757385Y821960D01*
X759331D01*
X763460Y817831D01*
Y806960D01*
X776540D01*
X776540Y806960D01*
Y806960D01*
X777752Y806821D01*
X778517Y806235D01*
X780679Y805339D01*
X783000Y805033D01*
X785321Y805339D01*
X787483Y806235D01*
X789340Y807660D01*
X790765Y809517D01*
X791661Y811679D01*
X791967Y814000D01*
X791661Y816321D01*
X790765Y818483D01*
X789340Y820340D01*
X787483Y821765D01*
X785321Y822661D01*
X783000Y822967D01*
X780679Y822661D01*
X778517Y821765D01*
X777752Y821179D01*
X776540Y821040D01*
X775763Y821988D01*
X775689Y822357D01*
X774355Y824355D01*
X767540Y831169D01*
Y836040D01*
D02*
G37*
G36*
X1060000Y859640D02*
X1056988Y859243D01*
X1054180Y858080D01*
X1051770Y856230D01*
X1049920Y853820D01*
X1048757Y851012D01*
X1048361Y848000D01*
X1048757Y844987D01*
X1049920Y842180D01*
X1051770Y839770D01*
X1054180Y837920D01*
X1056988Y836757D01*
X1060000Y836360D01*
X1063013Y836757D01*
X1065820Y837920D01*
X1068230Y839770D01*
X1068710Y840395D01*
X1129850D01*
X1169572Y800672D01*
X1171148Y799464D01*
X1172445Y798926D01*
X1172982Y798704D01*
X1174950Y798445D01*
X1190290D01*
X1190770Y797820D01*
X1193180Y795970D01*
X1195987Y794807D01*
X1199000Y794410D01*
X1202012Y794807D01*
X1204820Y795970D01*
X1207230Y797820D01*
X1209080Y800230D01*
X1210243Y803037D01*
X1210639Y806050D01*
X1210243Y809062D01*
X1209080Y811870D01*
X1207230Y814280D01*
X1204820Y816130D01*
X1202012Y817293D01*
X1199000Y817690D01*
X1195987Y817293D01*
X1193180Y816130D01*
X1190770Y814280D01*
X1190290Y813655D01*
X1178100D01*
X1138378Y853378D01*
X1136803Y854586D01*
X1135506Y855123D01*
X1134968Y855346D01*
X1133000Y855605D01*
X1068710D01*
X1068230Y856230D01*
X1065820Y858080D01*
X1063013Y859243D01*
X1060000Y859640D01*
D02*
G37*
G36*
X608040Y791749D02*
X604000D01*
Y788209D01*
X608040D01*
Y791749D01*
D02*
G37*
G36*
X486540Y837040D02*
X465460D01*
Y804215D01*
X449850Y788605D01*
X443500D01*
Y790540D01*
X425420D01*
Y788605D01*
X414540D01*
Y790040D01*
X397460D01*
Y771960D01*
X414540D01*
Y773395D01*
X453000D01*
X454968Y773654D01*
X455505Y773877D01*
X456802Y774414D01*
X458378Y775622D01*
X481378Y798622D01*
X482586Y800198D01*
X482901Y800957D01*
X483316Y801960D01*
X486540D01*
Y837040D01*
D02*
G37*
G36*
X584640Y889840D02*
X562560D01*
Y878410D01*
X562560Y878260D01*
Y877700D01*
Y877140D01*
X562560Y876990D01*
Y865710D01*
X562560Y865560D01*
Y865000D01*
Y864440D01*
X562560Y864290D01*
Y853590D01*
X554000D01*
X553009Y853393D01*
X552169Y852831D01*
X551607Y851991D01*
X551410Y851000D01*
Y843073D01*
X545927Y837590D01*
X536000D01*
X535105Y837412D01*
X534704Y837679D01*
X533713Y837876D01*
X533713D01*
X533713D01*
X533319Y837798D01*
X532722Y837679D01*
X532722Y837679D01*
X532722D01*
X531549Y837193D01*
X531549Y837193D01*
X531320Y837040D01*
X511460D01*
Y805792D01*
X511233Y804540D01*
X510942Y804455D01*
X510641Y804417D01*
X510560Y804371D01*
X510469Y804353D01*
X510373Y804289D01*
X510263Y804257D01*
X509218Y803712D01*
X508912Y803465D01*
X508584Y803247D01*
X471927Y766590D01*
X396073D01*
X395831Y766831D01*
X393190Y769473D01*
Y770000D01*
Y771960D01*
X394540D01*
Y790040D01*
X393190D01*
Y796960D01*
X394000D01*
Y815040D01*
X393190D01*
Y818067D01*
X395291Y820169D01*
X396381Y821259D01*
X397651Y820733D01*
Y815040D01*
X396920D01*
Y796960D01*
X414000D01*
Y815040D01*
X408949D01*
Y844101D01*
X409081Y844252D01*
X410351Y843773D01*
Y838000D01*
X410351Y838000D01*
X410781Y835838D01*
X412006Y834006D01*
X428811Y817200D01*
Y810540D01*
X425420D01*
Y793460D01*
X443500D01*
Y810540D01*
X440108D01*
Y819540D01*
X439678Y821702D01*
X439188Y822436D01*
X438454Y823534D01*
X438454Y823534D01*
X421648Y840340D01*
Y847250D01*
X421604Y847471D01*
Y856350D01*
X421349Y857634D01*
X420622Y858722D01*
X419534Y859449D01*
X418250Y859704D01*
X413865D01*
Y869000D01*
X396950D01*
X380035D01*
Y859704D01*
X375650D01*
X374366Y859449D01*
X373278Y858722D01*
X372551Y857634D01*
X372295Y856350D01*
Y847471D01*
X372252Y847250D01*
Y842549D01*
X351310D01*
X350350Y843508D01*
Y853100D01*
X333270D01*
Y839095D01*
X331523Y837349D01*
X330350Y837835D01*
Y841060D01*
X324810D01*
Y835020D01*
X327535D01*
X328021Y833847D01*
X319215Y825040D01*
X312460D01*
Y806960D01*
X329214D01*
X329540Y806960D01*
X330410Y806050D01*
Y794949D01*
X329540Y794040D01*
X329140Y794040D01*
X324000D01*
Y785000D01*
Y775960D01*
X329140D01*
X329540Y775960D01*
X330410Y775050D01*
Y722000D01*
X330607Y721009D01*
X331169Y720169D01*
X353169Y698169D01*
X354009Y697607D01*
X355000Y697410D01*
X359062D01*
X359960Y696512D01*
Y681460D01*
X360395D01*
Y674040D01*
X359460D01*
Y655960D01*
X376540D01*
Y657651D01*
X386386D01*
X386452Y657324D01*
X387182Y656232D01*
X388274Y655502D01*
X389562Y655245D01*
X394137D01*
X395426Y655502D01*
X396518Y656232D01*
X397248Y657324D01*
X397505Y658613D01*
Y667988D01*
X397248Y669276D01*
X396518Y670368D01*
X395426Y671098D01*
X395215Y671140D01*
X395341Y672410D01*
X406659D01*
X406785Y671140D01*
X406574Y671098D01*
X405481Y670368D01*
X404752Y669276D01*
X404495Y667988D01*
Y658613D01*
X404752Y657324D01*
X405481Y656232D01*
X406574Y655502D01*
X406904Y655436D01*
X407237Y654937D01*
X419523Y642652D01*
X418961Y641513D01*
X418000Y641639D01*
X414987Y641243D01*
X412180Y640080D01*
X409770Y638230D01*
X407920Y635820D01*
X406757Y633013D01*
X406361Y630000D01*
X406757Y626987D01*
X407920Y624180D01*
X409770Y621770D01*
X412180Y619920D01*
X414987Y618757D01*
X418000Y618360D01*
X421012Y618757D01*
X421184Y618828D01*
X426006Y614006D01*
X426006Y614006D01*
X427838Y612781D01*
X430000Y612351D01*
X467000D01*
X467000Y612351D01*
X469162Y612781D01*
X470994Y614006D01*
X484948Y627960D01*
X489540D01*
Y631351D01*
X690000D01*
X690000Y631351D01*
X692162Y631781D01*
X693994Y633006D01*
X694994Y634006D01*
X694994Y634006D01*
X696218Y635838D01*
X696648Y638000D01*
X696648Y638000D01*
Y661000D01*
X696218Y663162D01*
X695728Y663896D01*
X694994Y664994D01*
X694994Y664994D01*
X691744Y668244D01*
X689912Y669469D01*
X687750Y669899D01*
X687750Y669899D01*
X673900D01*
X672921Y669704D01*
X666663D01*
X665393Y669451D01*
X664318Y668732D01*
X663599Y667656D01*
X663346Y666387D01*
Y662113D01*
X663599Y660843D01*
X664318Y659768D01*
X665393Y659049D01*
X666663Y658796D01*
X672921D01*
X673900Y658602D01*
X685351D01*
Y655347D01*
X684820Y655166D01*
X684081Y655136D01*
X683482Y656032D01*
X682407Y656751D01*
X681137Y657004D01*
X674879D01*
X673900Y657198D01*
X631376D01*
X631051Y657461D01*
X630403Y658468D01*
X630605Y660000D01*
Y735035D01*
X630611Y735043D01*
X631719Y734707D01*
X631881Y734554D01*
Y686350D01*
X632194Y684774D01*
X633087Y683437D01*
X642487Y674037D01*
X643824Y673144D01*
X645400Y672831D01*
X664075D01*
X664318Y672468D01*
X665393Y671749D01*
X666663Y671496D01*
X681137D01*
X682407Y671749D01*
X683482Y672468D01*
X684201Y673543D01*
X684454Y674812D01*
Y679088D01*
X684201Y680357D01*
X683482Y681432D01*
X682407Y682151D01*
X681137Y682404D01*
X666663D01*
X665393Y682151D01*
X664318Y681432D01*
X664075Y681069D01*
X647106D01*
X640119Y688056D01*
Y791749D01*
X639806Y793325D01*
X638913Y794662D01*
X630040Y803534D01*
Y811289D01*
X615960D01*
Y798209D01*
X623715D01*
X629365Y792559D01*
X628839Y791289D01*
X626860D01*
X626800Y791335D01*
X624966Y792095D01*
X622997Y792354D01*
X621029Y792095D01*
X619195Y791335D01*
X619135Y791289D01*
X615960D01*
Y787462D01*
X615651Y786717D01*
X615392Y784749D01*
Y771240D01*
X614460D01*
Y753160D01*
X615395D01*
Y745692D01*
X615235Y745483D01*
X614339Y743321D01*
X614033Y741000D01*
X614339Y738679D01*
X615235Y736517D01*
X615395Y736308D01*
Y663150D01*
X614850Y662605D01*
X577540D01*
Y664040D01*
X577138D01*
X576652Y665213D01*
X581598Y670160D01*
X590440D01*
Y681590D01*
X590440Y681740D01*
Y682300D01*
Y682860D01*
X590440Y683010D01*
Y685650D01*
X579400D01*
X568360D01*
Y683010D01*
X568360Y682860D01*
Y682300D01*
Y681740D01*
X568360Y681590D01*
Y672898D01*
X565006Y669544D01*
X563781Y667711D01*
X563352Y665550D01*
X563352Y665550D01*
Y664040D01*
X560460D01*
Y645960D01*
X577540D01*
Y647395D01*
X617697D01*
X619288Y646331D01*
X621450Y645901D01*
X621450Y645901D01*
X673900D01*
X674879Y646096D01*
X681137D01*
X682407Y646349D01*
X683482Y647068D01*
X684081Y647964D01*
X684820Y647934D01*
X685351Y647753D01*
Y642648D01*
X492507D01*
X491880Y643919D01*
X492286Y644447D01*
X492823Y645744D01*
X493046Y646282D01*
X493305Y648250D01*
Y669135D01*
X493498Y669424D01*
X493755Y670713D01*
Y675287D01*
X493498Y676576D01*
X492769Y677668D01*
X491676Y678398D01*
X490832Y678566D01*
X489502Y679586D01*
X487668Y680346D01*
X485700Y680605D01*
X483732Y680346D01*
X481898Y679586D01*
X480568Y678566D01*
X479724Y678398D01*
X478632Y677668D01*
X477902Y676576D01*
X477645Y675287D01*
Y670713D01*
X477902Y669424D01*
X478095Y669135D01*
Y651400D01*
X475622Y648928D01*
X474414Y647353D01*
X473877Y646056D01*
X473870Y646040D01*
X472460D01*
Y631448D01*
X470713Y629701D01*
X469540Y630187D01*
Y646040D01*
X458316D01*
X457885Y647310D01*
X458340Y647660D01*
X459765Y649517D01*
X460661Y651679D01*
X460695Y651940D01*
X465106Y656351D01*
X466268Y656504D01*
X468102Y657264D01*
X469432Y658284D01*
X470276Y658452D01*
X471368Y659182D01*
X472098Y660274D01*
X472355Y661562D01*
Y666137D01*
X472098Y667426D01*
X471368Y668518D01*
X470276Y669248D01*
X469432Y669416D01*
X468102Y670436D01*
X466268Y671196D01*
X464374Y671445D01*
X464271Y671600D01*
X464417Y672842D01*
X464543Y672899D01*
X464686Y673052D01*
X464860Y673169D01*
X465027Y673419D01*
X465232Y673639D01*
X465372Y673864D01*
X465497Y674199D01*
X465660Y674518D01*
X465672Y674669D01*
X465725Y674810D01*
X465712Y675168D01*
X465741Y675525D01*
X466223Y676116D01*
X466379Y676248D01*
X466777Y676495D01*
X468988D01*
X470276Y676752D01*
X471368Y677482D01*
X472098Y678574D01*
X472355Y679863D01*
Y684437D01*
X472098Y685726D01*
X471559Y686533D01*
X471643Y686602D01*
X471724Y686702D01*
X471831Y686773D01*
X472043Y687089D01*
X472284Y687383D01*
X472321Y687506D01*
X472393Y687613D01*
X472467Y687986D01*
X472577Y688350D01*
X472565Y688478D01*
X472590Y688604D01*
Y710712D01*
X472558Y710870D01*
X472570Y711030D01*
X472461Y711361D01*
X472393Y711703D01*
X472303Y711837D01*
X472253Y711990D01*
X472025Y712253D01*
X471831Y712543D01*
X471697Y712632D01*
X471592Y712754D01*
X470632Y713503D01*
X470321Y713659D01*
X470031Y713852D01*
X469873Y713884D01*
X469729Y713956D01*
X469382Y713982D01*
X469040Y714050D01*
X469040D01*
Y721950D01*
X469040D01*
X469382Y722018D01*
X469729Y722044D01*
X469873Y722116D01*
X470031Y722148D01*
X470321Y722341D01*
X470632Y722497D01*
X471592Y723246D01*
X471697Y723367D01*
X471831Y723457D01*
X472025Y723747D01*
X472253Y724010D01*
X472303Y724163D01*
X472393Y724297D01*
X472461Y724639D01*
X472570Y724970D01*
X472558Y725130D01*
X472590Y725288D01*
Y738410D01*
X521000D01*
X521991Y738607D01*
X522831Y739169D01*
X523393Y740009D01*
X523590Y741000D01*
Y759584D01*
X524494Y760475D01*
X587058Y759569D01*
X587067Y759570D01*
X587077Y759568D01*
X587565Y759662D01*
X588052Y759751D01*
X588060Y759756D01*
X588069Y759758D01*
X588483Y760030D01*
X588900Y760301D01*
X588905Y760308D01*
X588913Y760314D01*
X589818Y761205D01*
X589823Y761213D01*
X589831Y761218D01*
X590107Y761631D01*
X590385Y762041D01*
X590387Y762050D01*
X590393Y762058D01*
X590490Y762546D01*
X590590Y763031D01*
X590588Y763040D01*
X590590Y763050D01*
Y851000D01*
X590393Y851991D01*
X590018Y852552D01*
X589831Y852831D01*
X589831D01*
Y852831D01*
X589552Y853018D01*
X588991Y853393D01*
X588000Y853590D01*
X585910Y853590D01*
X585910D01*
X584968Y854152D01*
X584668Y854522D01*
X584640Y854617D01*
Y864290D01*
X584640Y864440D01*
Y865000D01*
Y865560D01*
X584640Y865710D01*
Y876990D01*
X584640Y877140D01*
Y877700D01*
Y878260D01*
X584640Y878410D01*
Y889840D01*
D02*
G37*
G36*
X318810Y841060D02*
X313270D01*
Y835020D01*
X318810D01*
Y841060D01*
D02*
G37*
G36*
X1071540Y834140D02*
X1048460D01*
Y811060D01*
X1071540D01*
Y814995D01*
X1126250D01*
X1165972Y775272D01*
X1167548Y774064D01*
X1168845Y773527D01*
X1169382Y773304D01*
X1171350Y773045D01*
X1187460D01*
Y769110D01*
X1210540D01*
Y792190D01*
X1187460D01*
Y788255D01*
X1174500D01*
X1134778Y827978D01*
X1133203Y829186D01*
X1131906Y829723D01*
X1131368Y829946D01*
X1129400Y830205D01*
X1071540D01*
Y834140D01*
D02*
G37*
G36*
X318810Y853100D02*
X313270D01*
Y847060D01*
X318810D01*
Y853100D01*
D02*
G37*
G36*
X777540Y858040D02*
X764460D01*
Y846441D01*
X764432Y845219D01*
D01*
D01*
X764403Y845000D01*
X764460Y843960D01*
X764540D01*
X764628Y843293D01*
X765287Y841702D01*
X766336Y840336D01*
X777336Y829336D01*
X778702Y828287D01*
X780293Y827628D01*
X782000Y827404D01*
X782960D01*
Y825460D01*
X801040D01*
Y842540D01*
X782960D01*
X782960Y842540D01*
Y842540D01*
X782042Y843287D01*
X777540Y847789D01*
Y858040D01*
D02*
G37*
G36*
X1001836Y768800D02*
X999000D01*
Y765964D01*
X999298Y766087D01*
X1000664Y767136D01*
X1001713Y768502D01*
X1001836Y768800D01*
D02*
G37*
G36*
X600000Y771240D02*
X594460D01*
Y765200D01*
X600000D01*
Y771240D01*
D02*
G37*
G36*
X611540D02*
X606000D01*
Y765200D01*
X611540D01*
Y771240D01*
D02*
G37*
G36*
X993000Y768800D02*
X990164D01*
X990287Y768502D01*
X991336Y767136D01*
X992702Y766087D01*
X993000Y765964D01*
Y768800D01*
D02*
G37*
G36*
X757540Y848000D02*
X754000D01*
Y843960D01*
X757540D01*
Y848000D01*
D02*
G37*
G36*
X810000Y909967D02*
X807679Y909661D01*
X805517Y908765D01*
X803660Y907340D01*
X802235Y905483D01*
X801339Y903321D01*
X801033Y901000D01*
X801339Y898679D01*
X801526Y898227D01*
X794590Y891290D01*
X780710D01*
Y867460D01*
X785404D01*
Y862540D01*
X782960D01*
Y845460D01*
X801040D01*
Y862540D01*
X798596D01*
Y875875D01*
X798372Y877582D01*
X797713Y879173D01*
X796664Y880539D01*
X796887Y881936D01*
X807403Y892453D01*
X807679Y892339D01*
X810000Y892033D01*
X812321Y892339D01*
X814483Y893235D01*
X816340Y894660D01*
X817765Y896517D01*
X817916Y896881D01*
X823294D01*
X855881Y864294D01*
Y780706D01*
X851094Y775919D01*
X846540D01*
Y783340D01*
X823460D01*
Y760260D01*
X846540D01*
Y767681D01*
X852800D01*
X854376Y767994D01*
X855713Y768887D01*
X862913Y776087D01*
X863806Y777424D01*
X864119Y779000D01*
Y866000D01*
X863806Y867576D01*
X862913Y868913D01*
X827913Y903913D01*
X826576Y904806D01*
X825000Y905119D01*
X817916D01*
X817765Y905483D01*
X816340Y907340D01*
X814483Y908765D01*
X812321Y909661D01*
X810000Y909967D01*
D02*
G37*
G36*
X318000Y782000D02*
X312460D01*
Y775960D01*
X318000D01*
Y782000D01*
D02*
G37*
G36*
X835000Y859640D02*
X831988Y859243D01*
X829180Y858080D01*
X826770Y856230D01*
X824920Y853820D01*
X823757Y851012D01*
X823361Y848000D01*
X823757Y844987D01*
X824920Y842180D01*
X826770Y839770D01*
X829180Y837920D01*
X831988Y836757D01*
X835000Y836360D01*
X838012Y836757D01*
X840820Y837920D01*
X843230Y839770D01*
X845080Y842180D01*
X846243Y844987D01*
X846640Y848000D01*
X846243Y851012D01*
X845080Y853820D01*
X843230Y856230D01*
X840820Y858080D01*
X838012Y859243D01*
X835000Y859640D01*
D02*
G37*
G36*
X999000Y777636D02*
Y774800D01*
X1001836D01*
X1001713Y775098D01*
X1000664Y776464D01*
X999298Y777513D01*
X999000Y777636D01*
D02*
G37*
G36*
X748000Y848000D02*
X744460D01*
Y843960D01*
X748000D01*
Y848000D01*
D02*
G37*
G36*
X706000Y843967D02*
X703679Y843661D01*
X701517Y842765D01*
X699660Y841340D01*
X699129Y840648D01*
X696040D01*
Y843540D01*
X677960D01*
Y826460D01*
X696040D01*
Y829352D01*
X699129D01*
X699660Y828660D01*
X701517Y827235D01*
X703679Y826339D01*
X706000Y826033D01*
X708321Y826339D01*
X710483Y827235D01*
X712340Y828660D01*
X713765Y830517D01*
X714661Y832679D01*
X714967Y835000D01*
X714661Y837321D01*
X713765Y839483D01*
X712340Y841340D01*
X710483Y842765D01*
X708321Y843661D01*
X706000Y843967D01*
D02*
G37*
G36*
X993000Y777636D02*
X992702Y777513D01*
X991336Y776464D01*
X990287Y775098D01*
X990164Y774800D01*
X993000D01*
Y777636D01*
D02*
G37*
G36*
X738482Y737450D02*
X731100D01*
Y734996D01*
X735338D01*
X736607Y735249D01*
X737682Y735968D01*
X738401Y737043D01*
X738482Y737450D01*
D02*
G37*
G36*
X1202000Y712245D02*
Y704000D01*
X1210245D01*
X1210243Y704013D01*
X1209080Y706820D01*
X1207230Y709230D01*
X1204820Y711080D01*
X1202012Y712243D01*
X1202000Y712245D01*
D02*
G37*
G36*
X590440Y719840D02*
X568360D01*
Y708410D01*
X568360Y708260D01*
Y707700D01*
Y707140D01*
X568360Y706990D01*
Y704350D01*
X579400D01*
X590440D01*
Y706990D01*
X590440Y707140D01*
Y707700D01*
Y708260D01*
X590440Y708410D01*
Y719840D01*
D02*
G37*
G36*
X783000Y708186D02*
X782702Y708063D01*
X781336Y707014D01*
X780287Y705648D01*
X780164Y705350D01*
X783000D01*
Y708186D01*
D02*
G37*
G36*
X1196000Y712245D02*
X1195987Y712243D01*
X1193180Y711080D01*
X1190770Y709230D01*
X1188920Y706820D01*
X1187757Y704013D01*
X1187755Y704000D01*
X1196000D01*
Y712245D01*
D02*
G37*
G36*
X735338Y707804D02*
X720863D01*
X719593Y707551D01*
X718518Y706832D01*
X717799Y705757D01*
X717546Y704488D01*
Y700212D01*
X717799Y698943D01*
X718518Y697868D01*
X719593Y697149D01*
X720863Y696896D01*
X735338D01*
X736607Y697149D01*
X737682Y697868D01*
X738401Y698943D01*
X738654Y700212D01*
Y704488D01*
X738401Y705757D01*
X737682Y706832D01*
X736607Y707551D01*
X735338Y707804D01*
D02*
G37*
G36*
X587912Y965674D02*
X585700D01*
Y955600D01*
X592274D01*
Y961312D01*
X591942Y962981D01*
X590996Y964396D01*
X589581Y965342D01*
X587912Y965674D01*
D02*
G37*
G36*
X579700D02*
X577487D01*
X575818Y965342D01*
X574404Y964396D01*
X573458Y962981D01*
X573126Y961312D01*
Y955600D01*
X579700D01*
Y965674D01*
D02*
G37*
G36*
X789000Y708186D02*
Y705350D01*
X791836D01*
X791713Y705648D01*
X790664Y707014D01*
X789298Y708063D01*
X789000Y708186D01*
D02*
G37*
G36*
X741040Y954000D02*
X737000D01*
Y950460D01*
X741040D01*
Y954000D01*
D02*
G37*
G36*
X731000D02*
X726960D01*
Y950460D01*
X731000D01*
Y954000D01*
D02*
G37*
G36*
X504290Y958375D02*
X499500D01*
Y949460D01*
X504290D01*
Y958375D01*
D02*
G37*
G36*
X738482Y712050D02*
X731100D01*
Y709596D01*
X735338D01*
X736607Y709849D01*
X737682Y710568D01*
X738401Y711643D01*
X738482Y712050D01*
D02*
G37*
G36*
X1071540Y732540D02*
X1048460D01*
Y709460D01*
X1071540D01*
Y732540D01*
D02*
G37*
G36*
X681137Y720504D02*
X666663D01*
X665393Y720251D01*
X664318Y719532D01*
X663599Y718456D01*
X663346Y717188D01*
Y712913D01*
X663599Y711643D01*
X664318Y710568D01*
X665393Y709849D01*
X666663Y709596D01*
X681137D01*
X682407Y709849D01*
X683482Y710568D01*
X684201Y711643D01*
X684454Y712913D01*
Y717188D01*
X684201Y718456D01*
X683482Y719532D01*
X682407Y720251D01*
X681137Y720504D01*
D02*
G37*
G36*
X725100Y712050D02*
X717718D01*
X717799Y711643D01*
X718518Y710568D01*
X719593Y709849D01*
X720863Y709596D01*
X725100D01*
Y712050D01*
D02*
G37*
G36*
X791836Y699350D02*
X789000D01*
Y696514D01*
X789298Y696637D01*
X790664Y697686D01*
X791713Y699052D01*
X791836Y699350D01*
D02*
G37*
G36*
X553540Y745040D02*
X536460D01*
Y726960D01*
X540881D01*
Y719910D01*
X540881D01*
X539640Y719840D01*
X539611Y719840D01*
X517560D01*
Y708410D01*
X517560Y708260D01*
Y707700D01*
Y707140D01*
X517560Y706990D01*
Y704350D01*
X528600D01*
Y698350D01*
X517560D01*
Y695710D01*
X517560Y695560D01*
Y695000D01*
Y694440D01*
X517560Y694290D01*
Y691650D01*
X528600D01*
Y685650D01*
X517560D01*
Y683010D01*
X517560Y682860D01*
X517539Y681599D01*
X509649D01*
Y690129D01*
X510340Y690660D01*
X511765Y692517D01*
X512661Y694679D01*
X512967Y697000D01*
X512661Y699321D01*
X511765Y701483D01*
X510340Y703340D01*
X508483Y704765D01*
X506321Y705661D01*
X506060Y705695D01*
X498378Y713378D01*
X496802Y714586D01*
X495506Y715123D01*
X494968Y715346D01*
X493000Y715605D01*
X484000D01*
X482032Y715346D01*
X480197Y714586D01*
X480137Y714540D01*
X476960D01*
Y710707D01*
X476654Y709968D01*
X476395Y708000D01*
X476654Y706032D01*
X476960Y705293D01*
Y701460D01*
X480137D01*
X480197Y701414D01*
X482032Y700654D01*
X484000Y700395D01*
X489850D01*
X495304Y694940D01*
X495339Y694679D01*
X496235Y692517D01*
X497660Y690660D01*
X498352Y690129D01*
Y679000D01*
X498352Y679000D01*
X498782Y676838D01*
X500006Y675006D01*
X503056Y671956D01*
X503056Y671956D01*
X504154Y671222D01*
X504888Y670731D01*
X507050Y670301D01*
X517560D01*
Y670160D01*
X539640D01*
Y671831D01*
X541950D01*
X543526Y672144D01*
X544863Y673037D01*
X547913Y676087D01*
X548806Y677424D01*
X549119Y679000D01*
Y726960D01*
X553540D01*
Y745040D01*
D02*
G37*
G36*
X735338Y695104D02*
X720863D01*
X719593Y694851D01*
X718518Y694132D01*
X717799Y693056D01*
X717546Y691787D01*
Y687513D01*
X717799Y686243D01*
X718518Y685168D01*
X719593Y684449D01*
X720863Y684196D01*
X735338D01*
X736607Y684449D01*
X737682Y685168D01*
X738401Y686243D01*
X738654Y687513D01*
Y691787D01*
X738401Y693056D01*
X737682Y694132D01*
X736607Y694851D01*
X735338Y695104D01*
D02*
G37*
G36*
X741040Y963540D02*
X737000D01*
Y960000D01*
X741040D01*
Y963540D01*
D02*
G37*
G36*
X789000Y682786D02*
Y679950D01*
X791836D01*
X791713Y680248D01*
X790664Y681614D01*
X789298Y682663D01*
X789000Y682786D01*
D02*
G37*
G36*
X479290Y973290D02*
X474500D01*
Y964375D01*
X479290D01*
Y973290D01*
D02*
G37*
G36*
X468500D02*
X463710D01*
Y964375D01*
X468500D01*
Y973290D01*
D02*
G37*
G36*
X783000Y682786D02*
X782702Y682663D01*
X781336Y681614D01*
X780287Y680248D01*
X780164Y679950D01*
X783000D01*
Y682786D01*
D02*
G37*
G36*
X731000Y963540D02*
X726960D01*
Y960000D01*
X731000D01*
Y963540D01*
D02*
G37*
G36*
X1210245Y698000D02*
X1202000D01*
Y689755D01*
X1202012Y689757D01*
X1204820Y690920D01*
X1207230Y692770D01*
X1209080Y695180D01*
X1210243Y697988D01*
X1210245Y698000D01*
D02*
G37*
G36*
X590440Y698350D02*
X579400D01*
X568360D01*
Y695710D01*
X568360Y695560D01*
Y695000D01*
Y694440D01*
X568360Y694290D01*
Y691650D01*
X579400D01*
X590440D01*
Y694290D01*
X590440Y694440D01*
Y695000D01*
Y695560D01*
X590440Y695710D01*
Y698350D01*
D02*
G37*
G36*
X783000Y699350D02*
X780164D01*
X780287Y699052D01*
X781336Y697686D01*
X782702Y696637D01*
X783000Y696514D01*
Y699350D01*
D02*
G37*
G36*
X1196000Y698000D02*
X1187755D01*
X1187757Y697988D01*
X1188920Y695180D01*
X1190770Y692770D01*
X1193180Y690920D01*
X1195987Y689757D01*
X1196000Y689755D01*
Y698000D01*
D02*
G37*
G36*
X444540Y962000D02*
X439000D01*
Y955960D01*
X444540D01*
Y962000D01*
D02*
G37*
G36*
X381540Y961960D02*
X376000D01*
Y955920D01*
X381540D01*
Y961960D01*
D02*
G37*
G36*
X370000D02*
X364460D01*
Y955920D01*
X370000D01*
Y961960D01*
D02*
G37*
G36*
X789000Y733586D02*
Y730750D01*
X791836D01*
X791713Y731048D01*
X790664Y732414D01*
X789298Y733463D01*
X789000Y733586D01*
D02*
G37*
G36*
X783000D02*
X782702Y733463D01*
X781336Y732414D01*
X780287Y731048D01*
X780164Y730750D01*
X783000D01*
Y733586D01*
D02*
G37*
G36*
X993000Y726836D02*
X992702Y726713D01*
X991336Y725664D01*
X990287Y724298D01*
X990164Y724000D01*
X993000D01*
Y726836D01*
D02*
G37*
G36*
X738482Y724750D02*
X731100D01*
Y722296D01*
X735338D01*
X736607Y722549D01*
X737682Y723268D01*
X738401Y724343D01*
X738482Y724750D01*
D02*
G37*
G36*
X791836D02*
X789000D01*
Y721914D01*
X789298Y722037D01*
X790664Y723086D01*
X791713Y724452D01*
X791836Y724750D01*
D02*
G37*
G36*
X735338Y733204D02*
X731100D01*
Y730750D01*
X738482D01*
X738401Y731156D01*
X737682Y732232D01*
X736607Y732951D01*
X735338Y733204D01*
D02*
G37*
G36*
X725100Y724750D02*
X717718D01*
X717799Y724343D01*
X718518Y723268D01*
X719593Y722549D01*
X720863Y722296D01*
X725100D01*
Y724750D01*
D02*
G37*
G36*
X685000Y946040D02*
X679460D01*
Y940000D01*
X685000D01*
Y946040D01*
D02*
G37*
G36*
X579700Y949600D02*
X573126D01*
Y943887D01*
X573458Y942218D01*
X574404Y940804D01*
X575818Y939858D01*
X577487Y939526D01*
X579700D01*
Y949600D01*
D02*
G37*
G36*
X1026440Y961440D02*
X1001560D01*
Y936560D01*
X1026440D01*
Y961440D01*
D02*
G37*
G36*
X725100Y733204D02*
X720863D01*
X719593Y732951D01*
X718518Y732232D01*
X717799Y731156D01*
X717718Y730750D01*
X725100D01*
Y733204D01*
D02*
G37*
G36*
X999000Y726836D02*
Y724000D01*
X1001836D01*
X1001713Y724298D01*
X1000664Y725664D01*
X999298Y726713D01*
X999000Y726836D01*
D02*
G37*
G36*
X562000Y733000D02*
X556460D01*
Y726960D01*
X562000D01*
Y733000D01*
D02*
G37*
G36*
X573540D02*
X568000D01*
Y726960D01*
X573540D01*
Y733000D01*
D02*
G37*
G36*
X846540Y757940D02*
X823460D01*
Y750519D01*
X823400D01*
X821824Y750206D01*
X820487Y749313D01*
X819594Y747976D01*
X819281Y746400D01*
X819594Y744824D01*
X820487Y743487D01*
X821824Y742594D01*
X823400Y742281D01*
X823460D01*
Y734860D01*
X846540D01*
Y757940D01*
D02*
G37*
G36*
X468500Y958375D02*
X463710D01*
Y949460D01*
X468500D01*
Y958375D01*
D02*
G37*
G36*
X439460Y950040D02*
Y944000D01*
X445000D01*
Y950040D01*
X439460D01*
D02*
G37*
G36*
X725100Y720504D02*
X720863D01*
X719593Y720251D01*
X718518Y719532D01*
X717799Y718456D01*
X717718Y718050D01*
X725100D01*
Y720504D01*
D02*
G37*
G36*
X1001836Y718000D02*
X999000D01*
Y715164D01*
X999298Y715287D01*
X1000664Y716336D01*
X1001713Y717702D01*
X1001836Y718000D01*
D02*
G37*
G36*
X993000D02*
X990164D01*
X990287Y717702D01*
X991336Y716336D01*
X992702Y715287D01*
X993000Y715164D01*
Y718000D01*
D02*
G37*
G36*
X479290Y958375D02*
X474500D01*
Y949460D01*
X479290D01*
Y958375D01*
D02*
G37*
G36*
X725100Y737450D02*
X717718D01*
X717799Y737043D01*
X718518Y735968D01*
X719593Y735249D01*
X720863Y734996D01*
X725100D01*
Y737450D01*
D02*
G37*
G36*
X696540Y946040D02*
X691000D01*
Y940000D01*
X696540D01*
Y946040D01*
D02*
G37*
G36*
X783000Y724750D02*
X780164D01*
X780287Y724452D01*
X781336Y723086D01*
X782702Y722037D01*
X783000Y721914D01*
Y724750D01*
D02*
G37*
G36*
X1071540Y757940D02*
X1048460D01*
Y734860D01*
X1071540D01*
Y757940D01*
D02*
G37*
G36*
X592274Y949600D02*
X585700D01*
Y939526D01*
X587912D01*
X589581Y939858D01*
X590996Y940804D01*
X591942Y942218D01*
X592190Y943466D01*
X593460Y943341D01*
Y941000D01*
X599000D01*
Y947040D01*
X593544D01*
X593460Y947040D01*
X592274Y947242D01*
Y949600D01*
D02*
G37*
G36*
X735338Y720504D02*
X731100D01*
Y718050D01*
X738482D01*
X738401Y718456D01*
X737682Y719532D01*
X736607Y720251D01*
X735338Y720504D01*
D02*
G37*
G36*
X605000Y947040D02*
Y941000D01*
X610540D01*
Y947040D01*
X605000D01*
D02*
G37*
G36*
X491040Y734540D02*
X476960D01*
Y721460D01*
X491040D01*
Y734540D01*
D02*
G37*
%LPD*%
G36*
X389410Y696512D02*
Y678600D01*
X389439Y678453D01*
X389427Y678304D01*
X389537Y677962D01*
X389607Y677609D01*
X389691Y677485D01*
X389736Y677342D01*
X391736Y673742D01*
X391969Y673468D01*
X392169Y673169D01*
X392293Y673086D01*
X392390Y672972D01*
X392710Y672807D01*
X393009Y672607D01*
X392797Y671355D01*
X389562D01*
X388274Y671098D01*
X387182Y670368D01*
X386452Y669276D01*
X386386Y668949D01*
X376540D01*
Y674040D01*
X375605D01*
Y681460D01*
X378040D01*
Y697410D01*
X388512D01*
X389410Y696512D01*
D02*
G37*
G36*
X431000Y632881D02*
X452460D01*
Y627960D01*
X467312D01*
X467798Y626787D01*
X464660Y623648D01*
X432340D01*
X429172Y626816D01*
X429243Y626987D01*
X429640Y630000D01*
X429389Y631907D01*
X430529Y632975D01*
X431000Y632881D01*
D02*
G37*
G36*
X425960Y671540D02*
X425960Y671140D01*
Y666000D01*
X435000D01*
Y660000D01*
X425960D01*
Y654550D01*
X434460D01*
Y651550D01*
X437460D01*
Y645714D01*
X437758Y645837D01*
X439124Y646886D01*
X440173Y648252D01*
X440832Y649843D01*
X441056Y651550D01*
X440840Y653190D01*
X440850Y653522D01*
X441420Y654375D01*
X442665Y654420D01*
X443033Y654000D01*
X443339Y651679D01*
X444235Y649517D01*
X445660Y647660D01*
X447517Y646235D01*
X449679Y645339D01*
X452000Y645033D01*
X452460Y644630D01*
Y641119D01*
X432706D01*
X415706Y658119D01*
X415805Y658613D01*
Y667988D01*
X415548Y669276D01*
X414818Y670368D01*
X413726Y671098D01*
X413516Y671140D01*
X413641Y672410D01*
X425051D01*
X425960Y671540D01*
D02*
G37*
G36*
X344976Y832906D02*
X344976Y832906D01*
X346074Y832172D01*
X346808Y831681D01*
X348970Y831252D01*
X377721D01*
X378335Y830433D01*
X378460Y830196D01*
X376836Y828590D01*
X350288D01*
X350130Y828558D01*
X349970Y828570D01*
X349639Y828461D01*
X349297Y828393D01*
X349163Y828303D01*
X349010Y828252D01*
X348747Y828025D01*
X348457Y827831D01*
X348368Y827697D01*
X348246Y827592D01*
X347497Y826632D01*
X347341Y826321D01*
X347147Y826031D01*
X347116Y825873D01*
X347044Y825729D01*
X347018Y825382D01*
X346950Y825040D01*
X332661D01*
X331906Y826080D01*
X340845Y835020D01*
X342862D01*
X344976Y832906D01*
D02*
G37*
G36*
X562560Y848950D02*
X573600D01*
X584640D01*
Y849879D01*
X585910Y851000D01*
X588000Y851000D01*
Y763050D01*
X587095Y762158D01*
X521000Y763116D01*
Y741000D01*
X470000D01*
Y725288D01*
X469040Y724540D01*
X468730Y724540D01*
X465000D01*
Y718000D01*
Y711460D01*
X468730D01*
X469040Y711460D01*
X470000Y710712D01*
Y688604D01*
X469018Y687798D01*
X468988Y687805D01*
X467300D01*
Y682150D01*
X464300D01*
Y679150D01*
X456387D01*
X456502Y678574D01*
X457231Y677482D01*
X458324Y676752D01*
X459613Y676495D01*
X462460D01*
X463168Y675225D01*
X463029Y675000D01*
X444040D01*
Y680000D01*
X435000D01*
X425960D01*
Y675000D01*
X394000D01*
X392000Y678600D01*
Y700000D01*
X355000Y700000D01*
X333000Y722000D01*
Y775960D01*
X338000D01*
Y785000D01*
Y794040D01*
X333000D01*
Y806960D01*
X338000D01*
Y816000D01*
X341000D01*
Y819000D01*
X349540D01*
Y825040D01*
X350288Y826000D01*
X377900D01*
X387000Y835000D01*
X387600Y834913D01*
Y847250D01*
X393600D01*
Y834945D01*
X393730Y834971D01*
X395000Y834219D01*
Y823540D01*
X393460Y822000D01*
X390600Y819140D01*
Y815040D01*
X388460D01*
Y806000D01*
Y796960D01*
X390600D01*
Y790040D01*
X389000D01*
Y781000D01*
Y771960D01*
X390600D01*
Y770000D01*
Y768400D01*
X394000Y765000D01*
X395000Y764000D01*
X473000D01*
X510415Y801415D01*
X511460Y801960D01*
X511460Y801960D01*
Y801960D01*
X511460Y801960D01*
X519000D01*
Y819500D01*
X522000D01*
Y822500D01*
X532540D01*
Y834801D01*
X533713Y835287D01*
X535000Y834000D01*
X536000Y835000D01*
X547000D01*
X554000Y842000D01*
Y851000D01*
X562560D01*
Y848950D01*
D02*
G37*
%LPC*%
G36*
X548000Y810585D02*
Y807749D01*
X550836D01*
X550713Y808047D01*
X549664Y809413D01*
X548298Y810462D01*
X548000Y810585D01*
D02*
G37*
G36*
X542000D02*
X541702Y810462D01*
X540336Y809413D01*
X539287Y808047D01*
X539164Y807749D01*
X542000D01*
Y810585D01*
D02*
G37*
G36*
X349540Y813000D02*
X344000D01*
Y806960D01*
X349540D01*
Y813000D01*
D02*
G37*
G36*
X566000Y810585D02*
X565702Y810462D01*
X564336Y809413D01*
X563287Y808047D01*
X563164Y807749D01*
X566000D01*
Y810585D01*
D02*
G37*
G36*
X570600Y842950D02*
X562560D01*
Y840160D01*
X570600D01*
Y842950D01*
D02*
G37*
G36*
X382460Y815040D02*
X376920D01*
Y809000D01*
X382460D01*
Y815040D01*
D02*
G37*
G36*
X572000Y810585D02*
Y807749D01*
X574836D01*
X574713Y808047D01*
X573664Y809413D01*
X572298Y810462D01*
X572000Y810585D01*
D02*
G37*
G36*
X584640Y842950D02*
X576600D01*
Y840160D01*
X584640D01*
Y842950D01*
D02*
G37*
G36*
X451836Y743400D02*
X449000D01*
Y740564D01*
X449298Y740687D01*
X450664Y741736D01*
X451713Y743102D01*
X451836Y743400D01*
D02*
G37*
G36*
X443000D02*
X440164D01*
X440287Y743102D01*
X441336Y741736D01*
X442702Y740687D01*
X443000Y740564D01*
Y743400D01*
D02*
G37*
G36*
X351836Y745000D02*
X349000D01*
Y742164D01*
X349298Y742287D01*
X350664Y743336D01*
X351713Y744702D01*
X351836Y745000D01*
D02*
G37*
G36*
X343000D02*
X340164D01*
X340287Y744702D01*
X341336Y743336D01*
X342702Y742287D01*
X343000Y742164D01*
Y745000D01*
D02*
G37*
G36*
X403000Y733586D02*
X402702Y733463D01*
X401336Y732414D01*
X400287Y731048D01*
X400164Y730750D01*
X403000D01*
Y733586D01*
D02*
G37*
G36*
X411836Y724750D02*
X409000D01*
Y721914D01*
X409298Y722037D01*
X410664Y723086D01*
X411713Y724452D01*
X411836Y724750D01*
D02*
G37*
G36*
X431836Y743400D02*
X420164D01*
X420287Y743102D01*
X421336Y741736D01*
X422702Y740687D01*
X423528Y740345D01*
X423356Y739042D01*
X422987Y738993D01*
X420180Y737830D01*
X417770Y735980D01*
X415920Y733570D01*
X414757Y730762D01*
X414755Y730750D01*
X437245D01*
X437243Y730762D01*
X436080Y733570D01*
X434230Y735980D01*
X431820Y737830D01*
X429012Y738993D01*
X428644Y739042D01*
X428472Y740345D01*
X429298Y740687D01*
X430664Y741736D01*
X431713Y743102D01*
X431836Y743400D01*
D02*
G37*
G36*
X409000Y733586D02*
Y730750D01*
X411836D01*
X411713Y731048D01*
X410664Y732414D01*
X409298Y733463D01*
X409000Y733586D01*
D02*
G37*
G36*
X361000Y745000D02*
X358164D01*
X358287Y744702D01*
X359336Y743336D01*
X360702Y742287D01*
X361000Y742164D01*
Y745000D01*
D02*
G37*
G36*
X423000Y752236D02*
X422702Y752113D01*
X421336Y751064D01*
X420287Y749698D01*
X420164Y749400D01*
X423000D01*
Y752236D01*
D02*
G37*
G36*
X411836Y745000D02*
X409000D01*
Y742164D01*
X409298Y742287D01*
X410664Y743336D01*
X411713Y744702D01*
X411836Y745000D01*
D02*
G37*
G36*
X443000Y752236D02*
X442702Y752113D01*
X441336Y751064D01*
X440287Y749698D01*
X440164Y749400D01*
X443000D01*
Y752236D01*
D02*
G37*
G36*
X429000D02*
Y749400D01*
X431836D01*
X431713Y749698D01*
X430664Y751064D01*
X429298Y752113D01*
X429000Y752236D01*
D02*
G37*
G36*
X382460Y745000D02*
X379624D01*
X379747Y744702D01*
X380796Y743336D01*
X382162Y742287D01*
X382460Y742164D01*
Y745000D01*
D02*
G37*
G36*
X369836D02*
X367000D01*
Y742164D01*
X367298Y742287D01*
X368664Y743336D01*
X369713Y744702D01*
X369836Y745000D01*
D02*
G37*
G36*
X403000D02*
X400164D01*
X400287Y744702D01*
X401336Y743336D01*
X402702Y742287D01*
X403000Y742164D01*
Y745000D01*
D02*
G37*
G36*
X391296D02*
X388460D01*
Y742164D01*
X388758Y742287D01*
X390124Y743336D01*
X391173Y744702D01*
X391296Y745000D01*
D02*
G37*
G36*
X398000Y692613D02*
X397424Y692498D01*
X396331Y691768D01*
X395602Y690676D01*
X395345Y689388D01*
Y687700D01*
X398000D01*
Y692613D01*
D02*
G37*
G36*
X444040Y691540D02*
X438000D01*
Y686000D01*
X444040D01*
Y691540D01*
D02*
G37*
G36*
X366000Y707000D02*
X359960D01*
Y701460D01*
X366000D01*
Y707000D01*
D02*
G37*
G36*
X404000Y692613D02*
Y687700D01*
X406655D01*
Y689388D01*
X406398Y690676D01*
X405668Y691768D01*
X404576Y692498D01*
X404000Y692613D01*
D02*
G37*
G36*
X406655Y681700D02*
X404000D01*
Y676787D01*
X404576Y676902D01*
X405668Y677632D01*
X406398Y678724D01*
X406655Y680013D01*
Y681700D01*
D02*
G37*
G36*
X398000D02*
X395345D01*
Y680013D01*
X395602Y678724D01*
X396331Y677632D01*
X397424Y676902D01*
X398000Y676787D01*
Y681700D01*
D02*
G37*
G36*
X432000Y691540D02*
X425960D01*
Y686000D01*
X432000D01*
Y691540D01*
D02*
G37*
G36*
X461300Y687805D02*
X459613D01*
X458324Y687548D01*
X457231Y686818D01*
X456502Y685726D01*
X456387Y685150D01*
X461300D01*
Y687805D01*
D02*
G37*
G36*
X378040Y707000D02*
X372000D01*
Y701460D01*
X378040D01*
Y707000D01*
D02*
G37*
G36*
X437245Y724750D02*
X429000D01*
Y716505D01*
X429012Y716507D01*
X431820Y717670D01*
X434230Y719520D01*
X436080Y721930D01*
X437243Y724737D01*
X437245Y724750D01*
D02*
G37*
G36*
X423000D02*
X414755D01*
X414757Y724737D01*
X415920Y721930D01*
X417770Y719520D01*
X420180Y717670D01*
X422987Y716507D01*
X423000Y716505D01*
Y724750D01*
D02*
G37*
G36*
X403000D02*
X400164D01*
X400287Y724452D01*
X401336Y723086D01*
X402702Y722037D01*
X403000Y721914D01*
Y724750D01*
D02*
G37*
G36*
X459000Y724540D02*
X454960D01*
Y721000D01*
X459000D01*
Y724540D01*
D02*
G37*
G36*
X366000Y718540D02*
X359960D01*
Y713000D01*
X366000D01*
Y718540D01*
D02*
G37*
G36*
X459000Y715000D02*
X454960D01*
Y711460D01*
X459000D01*
Y715000D01*
D02*
G37*
G36*
X431460Y648550D02*
X428624D01*
X428747Y648252D01*
X429796Y646886D01*
X431162Y645837D01*
X431460Y645714D01*
Y648550D01*
D02*
G37*
G36*
X378040Y718540D02*
X372000D01*
Y713000D01*
X378040D01*
Y718540D01*
D02*
G37*
G36*
X449000Y752236D02*
Y749400D01*
X451836D01*
X451713Y749698D01*
X450664Y751064D01*
X449298Y752113D01*
X449000Y752236D01*
D02*
G37*
G36*
X566000Y785836D02*
X565702Y785713D01*
X564336Y784664D01*
X563287Y783298D01*
X563164Y783000D01*
X566000D01*
Y785836D01*
D02*
G37*
G36*
X519000D02*
Y783000D01*
X521836D01*
X521713Y783298D01*
X520664Y784664D01*
X519298Y785713D01*
X519000Y785836D01*
D02*
G37*
G36*
X543000Y786486D02*
X542702Y786363D01*
X541336Y785314D01*
X540287Y783948D01*
X540164Y783650D01*
X543000D01*
Y786486D01*
D02*
G37*
G36*
X572000Y785836D02*
Y783000D01*
X574836D01*
X574713Y783298D01*
X573664Y784664D01*
X572298Y785713D01*
X572000Y785836D01*
D02*
G37*
G36*
X551836Y777650D02*
X549000D01*
Y774814D01*
X549298Y774937D01*
X550664Y775986D01*
X551713Y777352D01*
X551836Y777650D01*
D02*
G37*
G36*
X543000D02*
X540164D01*
X540287Y777352D01*
X541336Y775986D01*
X542702Y774937D01*
X543000Y774814D01*
Y777650D01*
D02*
G37*
G36*
X513000Y785836D02*
X512702Y785713D01*
X511336Y784664D01*
X510287Y783298D01*
X510164Y783000D01*
X513000D01*
Y785836D01*
D02*
G37*
G36*
X349540Y782000D02*
X344000D01*
Y775960D01*
X349540D01*
Y782000D01*
D02*
G37*
G36*
X549000Y786486D02*
Y783650D01*
X551836D01*
X551713Y783948D01*
X550664Y785314D01*
X549298Y786363D01*
X549000Y786486D01*
D02*
G37*
G36*
X566000Y801749D02*
X563164D01*
X563287Y801451D01*
X564336Y800085D01*
X565702Y799036D01*
X566000Y798913D01*
Y801749D01*
D02*
G37*
G36*
X550836D02*
X548000D01*
Y798913D01*
X548298Y799036D01*
X549664Y800085D01*
X550713Y801451D01*
X550836Y801749D01*
D02*
G37*
G36*
X532540Y816500D02*
X525000D01*
Y801960D01*
X532540D01*
Y816500D01*
D02*
G37*
G36*
X574836Y801749D02*
X572000D01*
Y798913D01*
X572298Y799036D01*
X573664Y800085D01*
X574713Y801451D01*
X574836Y801749D01*
D02*
G37*
G36*
X349540Y794040D02*
X344000D01*
Y788000D01*
X349540D01*
Y794040D01*
D02*
G37*
G36*
X383000Y790040D02*
X377460D01*
Y784000D01*
X383000D01*
Y790040D01*
D02*
G37*
G36*
X542000Y801749D02*
X539164D01*
X539287Y801451D01*
X540336Y800085D01*
X541702Y799036D01*
X542000Y798913D01*
Y801749D01*
D02*
G37*
G36*
X382460Y803000D02*
X376920D01*
Y796960D01*
X382460D01*
Y803000D01*
D02*
G37*
G36*
X388460Y753836D02*
Y751000D01*
X391296D01*
X391173Y751298D01*
X390124Y752664D01*
X388758Y753713D01*
X388460Y753836D01*
D02*
G37*
G36*
X382460D02*
X382162Y753713D01*
X380796Y752664D01*
X379747Y751298D01*
X379624Y751000D01*
X382460D01*
Y753836D01*
D02*
G37*
G36*
X409000D02*
Y751000D01*
X411836D01*
X411713Y751298D01*
X410664Y752664D01*
X409298Y753713D01*
X409000Y753836D01*
D02*
G37*
G36*
X403000D02*
X402702Y753713D01*
X401336Y752664D01*
X400287Y751298D01*
X400164Y751000D01*
X403000D01*
Y753836D01*
D02*
G37*
G36*
X349000D02*
Y751000D01*
X351836D01*
X351713Y751298D01*
X350664Y752664D01*
X349298Y753713D01*
X349000Y753836D01*
D02*
G37*
G36*
X343000D02*
X342702Y753713D01*
X341336Y752664D01*
X340287Y751298D01*
X340164Y751000D01*
X343000D01*
Y753836D01*
D02*
G37*
G36*
X367000D02*
Y751000D01*
X369836D01*
X369713Y751298D01*
X368664Y752664D01*
X367298Y753713D01*
X367000Y753836D01*
D02*
G37*
G36*
X361000D02*
X360702Y753713D01*
X359336Y752664D01*
X358287Y751298D01*
X358164Y751000D01*
X361000D01*
Y753836D01*
D02*
G37*
G36*
X493000Y757000D02*
X490164D01*
X490287Y756702D01*
X491336Y755336D01*
X492702Y754287D01*
X493000Y754164D01*
Y757000D01*
D02*
G37*
G36*
X521836Y777000D02*
X519000D01*
Y774164D01*
X519298Y774287D01*
X520664Y775336D01*
X521713Y776702D01*
X521836Y777000D01*
D02*
G37*
G36*
X513000D02*
X510164D01*
X510287Y776702D01*
X511336Y775336D01*
X512702Y774287D01*
X513000Y774164D01*
Y777000D01*
D02*
G37*
G36*
X574836D02*
X572000D01*
Y774164D01*
X572298Y774287D01*
X573664Y775336D01*
X574713Y776702D01*
X574836Y777000D01*
D02*
G37*
G36*
X566000D02*
X563164D01*
X563287Y776702D01*
X564336Y775336D01*
X565702Y774287D01*
X566000Y774164D01*
Y777000D01*
D02*
G37*
G36*
X493000Y765836D02*
X492702Y765713D01*
X491336Y764664D01*
X490287Y763298D01*
X490164Y763000D01*
X493000D01*
Y765836D01*
D02*
G37*
G36*
X501836Y757000D02*
X499000D01*
Y754164D01*
X499298Y754287D01*
X500664Y755336D01*
X501713Y756702D01*
X501836Y757000D01*
D02*
G37*
G36*
X383000Y778000D02*
X377460D01*
Y771960D01*
X383000D01*
Y778000D01*
D02*
G37*
G36*
X499000Y765836D02*
Y763000D01*
X501836D01*
X501713Y763298D01*
X500664Y764664D01*
X499298Y765713D01*
X499000Y765836D01*
D02*
G37*
%LPD*%
D10*
X1099000Y327000D02*
D03*
X1079000D02*
D03*
X1155000Y493000D02*
D03*
X1175000D02*
D03*
Y469000D02*
D03*
X1155000D02*
D03*
X1093000Y419000D02*
D03*
X1113000D02*
D03*
X1094000Y384500D02*
D03*
X1114000D02*
D03*
X730000Y1000000D02*
D03*
X750000D02*
D03*
X622000Y938000D02*
D03*
X602000D02*
D03*
X668000Y937000D02*
D03*
X688000D02*
D03*
X623000Y762200D02*
D03*
X603000D02*
D03*
X549000Y655000D02*
D03*
X569000D02*
D03*
X565000Y736000D02*
D03*
X545000D02*
D03*
X481000Y637000D02*
D03*
X461000D02*
D03*
X368000Y665000D02*
D03*
X348000D02*
D03*
X416460Y941000D02*
D03*
X436460D02*
D03*
X416000Y965000D02*
D03*
X436000D02*
D03*
X321000Y920000D02*
D03*
X341000D02*
D03*
X373460Y941000D02*
D03*
X393460D02*
D03*
X321000Y785000D02*
D03*
X341000D02*
D03*
X321000Y816000D02*
D03*
X341000D02*
D03*
X321810Y844060D02*
D03*
X341810D02*
D03*
X406000Y781000D02*
D03*
X386000D02*
D03*
X405460Y806000D02*
D03*
X385460D02*
D03*
X591000Y910000D02*
D03*
X611000D02*
D03*
X373000Y964960D02*
D03*
X393000D02*
D03*
X1052000Y384000D02*
D03*
X1032000D02*
D03*
D11*
X1094000Y522000D02*
D03*
Y502000D02*
D03*
X1070000Y522000D02*
D03*
Y502000D02*
D03*
X1046000Y522000D02*
D03*
Y502000D02*
D03*
X1022000Y522000D02*
D03*
Y502000D02*
D03*
X1138000Y412000D02*
D03*
Y432000D02*
D03*
X1123000Y348000D02*
D03*
Y328000D02*
D03*
X1147000Y348000D02*
D03*
Y328000D02*
D03*
X1124000Y302000D02*
D03*
Y282000D02*
D03*
X1006000Y382000D02*
D03*
Y402000D02*
D03*
X921000Y318544D02*
D03*
Y338544D02*
D03*
X897000Y318544D02*
D03*
Y338544D02*
D03*
X872000D02*
D03*
Y318544D02*
D03*
X921000Y451000D02*
D03*
Y471000D02*
D03*
X897000Y451000D02*
D03*
Y471000D02*
D03*
X872000D02*
D03*
Y451000D02*
D03*
X481000Y481544D02*
D03*
Y501544D02*
D03*
X505000Y480544D02*
D03*
Y500544D02*
D03*
X529000Y481544D02*
D03*
Y501544D02*
D03*
X553000D02*
D03*
Y481544D02*
D03*
X577000Y501544D02*
D03*
Y481544D02*
D03*
X601000Y500544D02*
D03*
Y480544D02*
D03*
X368000Y325544D02*
D03*
Y345544D02*
D03*
X486000Y348544D02*
D03*
Y328544D02*
D03*
X517000Y329544D02*
D03*
Y349544D02*
D03*
X547000Y329544D02*
D03*
Y349544D02*
D03*
X778000Y971000D02*
D03*
Y991000D02*
D03*
X792000Y854000D02*
D03*
Y834000D02*
D03*
X661000Y902000D02*
D03*
Y882000D02*
D03*
X687000Y902000D02*
D03*
Y882000D02*
D03*
X687000Y835000D02*
D03*
Y855000D02*
D03*
X662000D02*
D03*
Y835000D02*
D03*
X369000Y690000D02*
D03*
Y710000D02*
D03*
X435000Y663000D02*
D03*
Y683000D02*
D03*
X434460Y802000D02*
D03*
Y782000D02*
D03*
X904000Y522000D02*
D03*
Y502000D02*
D03*
X903000Y388000D02*
D03*
Y368000D02*
D03*
D12*
X1241300Y438100D02*
D03*
Y335900D02*
D03*
X1202000Y438100D02*
D03*
Y335900D02*
D03*
D13*
X1196250Y389500D02*
D03*
Y384500D02*
D03*
Y394500D02*
D03*
Y379500D02*
D03*
Y399500D02*
D03*
Y374500D02*
D03*
Y404500D02*
D03*
Y369500D02*
D03*
D14*
Y419000D02*
D03*
Y411000D02*
D03*
Y363000D02*
D03*
Y355000D02*
D03*
D15*
X861000Y521000D02*
D03*
X883000Y531000D02*
D03*
Y511000D02*
D03*
X860000Y386000D02*
D03*
X882000Y396000D02*
D03*
Y376000D02*
D03*
X394000Y347544D02*
D03*
Y327544D02*
D03*
X416000Y337544D02*
D03*
X756000Y967000D02*
D03*
X734000Y957000D02*
D03*
Y977000D02*
D03*
X462000Y718000D02*
D03*
X484000Y728000D02*
D03*
Y708000D02*
D03*
X601000Y794749D02*
D03*
X623000Y804749D02*
D03*
Y784749D02*
D03*
D16*
X948500Y524188D02*
D03*
X939000D02*
D03*
X929500D02*
D03*
Y500988D02*
D03*
X939000D02*
D03*
X948500D02*
D03*
X947500Y389600D02*
D03*
X938000D02*
D03*
X928500D02*
D03*
Y366400D02*
D03*
X938000D02*
D03*
X947500D02*
D03*
D17*
X568001Y417540D02*
D03*
X640001D02*
D03*
D18*
X505000Y419544D02*
D03*
X396950Y872000D02*
D03*
D19*
X485950Y444294D02*
D03*
X498650D02*
D03*
X511350D02*
D03*
X524050D02*
D03*
Y394794D02*
D03*
X511350D02*
D03*
X498650D02*
D03*
X485950D02*
D03*
X656050Y1024750D02*
D03*
X643350D02*
D03*
X630650D02*
D03*
X617950D02*
D03*
Y975250D02*
D03*
X630650D02*
D03*
X643350D02*
D03*
X656050D02*
D03*
X416000Y847250D02*
D03*
X403300D02*
D03*
X390600D02*
D03*
X377900D02*
D03*
Y896750D02*
D03*
X390600D02*
D03*
X403300D02*
D03*
X416000D02*
D03*
D20*
X308000Y361544D02*
D03*
Y289544D02*
D03*
D21*
X458150Y348244D02*
D03*
X449000Y326844D02*
D03*
X439850Y348244D02*
D03*
X391850Y663300D02*
D03*
X401000Y684700D02*
D03*
X410150Y663300D02*
D03*
D22*
X584633Y359568D02*
D03*
Y325568D02*
D03*
D23*
X788500Y879375D02*
D03*
X763500D02*
D03*
Y932625D02*
D03*
X788500D02*
D03*
X496500Y961375D02*
D03*
X471500D02*
D03*
Y1014625D02*
D03*
X496500D02*
D03*
D24*
X761000Y829000D02*
D03*
X751000Y851000D02*
D03*
X771000D02*
D03*
X760000Y792000D02*
D03*
X750000Y814000D02*
D03*
X770000D02*
D03*
D25*
X522000Y1028750D02*
D03*
Y1013250D02*
D03*
D26*
X579400Y675950D02*
D03*
Y688650D02*
D03*
Y701350D02*
D03*
Y714050D02*
D03*
X528600D02*
D03*
Y701350D02*
D03*
Y688650D02*
D03*
Y675950D02*
D03*
X573600Y845950D02*
D03*
Y858650D02*
D03*
Y871350D02*
D03*
Y884050D02*
D03*
X624400D02*
D03*
Y871350D02*
D03*
Y858650D02*
D03*
Y845950D02*
D03*
D27*
X464300Y682150D02*
D03*
X485700Y673000D02*
D03*
X464300Y663850D02*
D03*
D28*
X522000Y819500D02*
D03*
X476000D02*
D03*
D29*
X499000Y886000D02*
D03*
D30*
X728100Y651550D02*
D03*
Y664250D02*
D03*
Y676950D02*
D03*
Y689650D02*
D03*
Y702350D02*
D03*
Y715050D02*
D03*
Y727750D02*
D03*
Y740450D02*
D03*
X673900D02*
D03*
Y727750D02*
D03*
Y715050D02*
D03*
Y702350D02*
D03*
Y689650D02*
D03*
Y676950D02*
D03*
Y664250D02*
D03*
Y651550D02*
D03*
D31*
X557300Y1043400D02*
D03*
X582700D02*
D03*
Y952600D02*
D03*
X557300D02*
D03*
D32*
X1025300Y449000D02*
D03*
Y444000D02*
D03*
Y439000D02*
D03*
Y434000D02*
D03*
Y429000D02*
D03*
X1062700D02*
D03*
Y434000D02*
D03*
Y439000D02*
D03*
Y444000D02*
D03*
Y449000D02*
D03*
D33*
X1054000Y457700D02*
D03*
X1049000D02*
D03*
X1044000D02*
D03*
X1039000D02*
D03*
X1034000D02*
D03*
Y420300D02*
D03*
X1039000D02*
D03*
X1044000D02*
D03*
X1049000D02*
D03*
X1054000D02*
D03*
D34*
X1044000Y439000D02*
D03*
X1224000Y1034200D02*
D03*
X295000Y1135800D02*
D03*
D35*
X373310Y490691D02*
D03*
X407610D02*
D03*
Y405691D02*
D03*
X373310D02*
D03*
D36*
X640001Y435584D02*
X828166D01*
X1160000Y348000D02*
X1175000Y363000D01*
X1147000Y348000D02*
X1160000D01*
X1049000D02*
X1147000D01*
X1109500Y316500D02*
X1121000Y328000D01*
X1094296Y301296D02*
X1109500Y316500D01*
X1124000Y302000D01*
X1099000Y327000D02*
X1109500Y316500D01*
X1094296Y285399D02*
Y301296D01*
X971000Y372000D02*
X994000Y349000D01*
X971000Y372000D02*
Y406000D01*
X1049000Y348000D02*
X1052000Y351000D01*
X994000Y349000D02*
X1014250D01*
X1052000Y351000D02*
Y384000D01*
X865600Y285400D02*
Y312144D01*
X872000Y318544D01*
X897000Y451000D02*
X921000D01*
X872000D02*
X897000D01*
Y318544D02*
X921000D01*
X872000D02*
X897000D01*
X407610Y505000D02*
Y523044D01*
X577000Y501544D02*
Y519588D01*
X640001Y417540D02*
Y435584D01*
X553000Y501544D02*
Y519588D01*
X505000Y500544D02*
Y518588D01*
X449000Y308800D02*
Y326844D01*
X308000Y289544D02*
X326044D01*
X511350Y372956D02*
Y391000D01*
X368000Y307500D02*
Y325544D01*
X584633Y307524D02*
Y325568D01*
X547000Y311500D02*
Y329544D01*
X517000Y311500D02*
Y329544D01*
X458450Y348544D02*
X486000D01*
X529000Y481544D02*
X553000D01*
X577000D02*
X600000D01*
X730874Y803874D02*
X742749Y792000D01*
X622997Y762999D02*
Y784749D01*
X623000Y741000D02*
Y762200D01*
Y660000D02*
Y741000D01*
X687000Y902000D02*
X718000D01*
X730000Y890000D01*
Y871000D02*
Y890000D01*
X788500Y919250D02*
Y932625D01*
X738375Y879375D02*
X763500D01*
Y894250D02*
X788500Y919250D01*
X763500Y879375D02*
Y894250D01*
X730000Y871000D02*
X738375Y879375D01*
X730000Y804749D02*
Y871000D01*
X742749Y792000D02*
X760000D01*
X484000Y708000D02*
X493000D01*
X504000Y697000D01*
X452000Y654000D02*
X461850Y663850D01*
X464300D01*
X485700Y648250D02*
Y673000D01*
X481000Y643550D02*
X485700Y648250D01*
X481000Y637000D02*
Y643550D01*
X569000Y655000D02*
X618000D01*
X623000Y660000D01*
X662000Y855000D02*
X687000D01*
Y882000D02*
X687000Y882000D01*
X661000Y882000D02*
X687000D01*
X393000Y965000D02*
X417460D01*
X406000Y781000D02*
X453000D01*
X476000Y804000D02*
Y819500D01*
X453000Y781000D02*
X476000Y804000D01*
X393460Y941000D02*
X416460D01*
X368000Y665000D02*
Y689000D01*
X1199000Y624800D02*
X1226800D01*
X1185400Y675600D02*
X1199000D01*
X1060000Y797200D02*
X1123800D01*
X1181800Y650200D02*
X1199000D01*
X1060000Y771800D02*
X1116200D01*
X1059999Y695504D02*
X1111600D01*
X1182304Y624800D01*
X1199000D01*
X1127000Y705000D02*
X1181800Y650200D01*
X1127000Y705000D02*
Y761000D01*
X1116200Y771800D02*
X1127000Y761000D01*
X1146000Y715000D02*
X1185400Y675600D01*
X1146000Y715000D02*
Y775000D01*
X1123800Y797200D02*
X1146000Y775000D01*
X1060000Y822600D02*
X1129400D01*
X1171350Y780650D01*
X1199000D01*
X1060000Y848000D02*
X1133000D01*
X1174950Y806050D01*
X1199000D01*
X1226800Y624800D02*
Y855200D01*
X1180000Y902000D02*
X1226800Y855200D01*
X964000Y930000D02*
X992000Y902000D01*
X1180000D01*
X964000Y930000D02*
Y1041000D01*
X992000Y1069000D01*
X1014000D01*
X623000Y616000D02*
X857200D01*
X936704Y695504D01*
X1059999D01*
D37*
X1214000Y376000D02*
Y398000D01*
X1201000Y363000D02*
X1214000Y376000D01*
X1196250Y363000D02*
X1201000D01*
X1201000Y411000D02*
X1214000Y398000D01*
X1196250Y411000D02*
X1201000D01*
X1062000Y412300D02*
X1067700D01*
X895000Y480000D02*
Y486000D01*
Y480000D02*
X897000Y478000D01*
Y471000D02*
Y478000D01*
X1040000Y369000D02*
X1042205Y371205D01*
Y394795D01*
X1039000Y398000D02*
X1042205Y394795D01*
X1039000Y398000D02*
Y420300D01*
X1070000Y521000D02*
Y535000D01*
X1056000Y485000D02*
X1068896Y472104D01*
Y451000D02*
Y472104D01*
X1066896Y449000D02*
X1068896Y451000D01*
X1054000Y480000D02*
X1058000Y476000D01*
X1034231Y480000D02*
X1054000D01*
X1031000Y476769D02*
X1034231Y480000D01*
X1049000Y457700D02*
Y471700D01*
X1009231Y476769D02*
X1031000D01*
X1054000Y457700D02*
Y463000D01*
X1058000Y467000D02*
Y476000D01*
X1054000Y463000D02*
X1058000Y467000D01*
X1029000Y485000D02*
X1056000D01*
X1022000Y492000D02*
X1029000Y485000D01*
X1022000Y492000D02*
Y502000D01*
X1060000Y490000D02*
X1074500Y475500D01*
X1050000Y490000D02*
X1060000D01*
X1046000Y494000D02*
X1050000Y490000D01*
X1046000Y494000D02*
Y502000D01*
X1074500Y448500D02*
Y475500D01*
X1094000Y522000D02*
Y536000D01*
X1046000Y522000D02*
Y536000D01*
X1022000Y522000D02*
Y536000D01*
Y522000D02*
X1022000Y522000D01*
X1175000Y453000D02*
Y469000D01*
Y453000D02*
X1189900Y438100D01*
X1202000D01*
X1180500Y402000D02*
X1183000Y404500D01*
X1169500Y402000D02*
X1180500D01*
X1167000Y404500D02*
X1169500Y402000D01*
X1183000Y404500D02*
X1196250D01*
X1146809D02*
X1167000D01*
X1163000Y387000D02*
X1168000D01*
X1162000Y397000D02*
X1173000D01*
X1174000Y396000D01*
X1178000Y392000D01*
X1168000Y387000D02*
X1175500Y379500D01*
X1196250D01*
Y389500D02*
X1206500D01*
X1208000Y388000D01*
Y381000D02*
Y388000D01*
X1206500Y379500D02*
X1208000Y381000D01*
X1196250Y379500D02*
X1206500D01*
X1180500Y384500D02*
X1196250D01*
X1178000Y387000D02*
X1180500Y384500D01*
X1178000Y387000D02*
Y392000D01*
X1180500Y394500D01*
X1196250D01*
X1140309Y398000D02*
X1146809Y404500D01*
X1138000Y398000D02*
X1140309D01*
X1049000D02*
X1138000D01*
Y412000D01*
X1125500Y374500D02*
X1196250D01*
X1122225Y371225D02*
X1125500Y374500D01*
X1078516Y371484D02*
X1122225Y371225D01*
X1066500Y383500D02*
X1078516Y371484D01*
X1066500Y383500D02*
X1069500D01*
X1070500Y384500D02*
X1094000D01*
X985000Y425000D02*
X994000Y434000D01*
X985000Y375000D02*
Y425000D01*
Y375000D02*
X1001000Y359000D01*
X997000Y421000D02*
X1004000Y428000D01*
X1047000Y351000D02*
X1052000D01*
X1039000Y359000D02*
X1047000Y351000D01*
X1001000Y359000D02*
X1039000D01*
X1122000Y348000D02*
X1123000Y347000D01*
X1088000Y443000D02*
Y479000D01*
X1079000Y434000D02*
X1088000Y443000D01*
X1062700Y434000D02*
X1079000D01*
X1094000Y485000D02*
Y502000D01*
X1088000Y479000D02*
X1094000Y485000D01*
X1080000Y443000D02*
Y479000D01*
X1070000Y489000D02*
X1080000Y479000D01*
X1070000Y489000D02*
Y502000D01*
X941000Y550000D02*
X988000Y503000D01*
Y478000D02*
Y503000D01*
Y478000D02*
X999000Y467000D01*
X1036000D01*
X1044000Y457700D02*
Y466000D01*
X1038000Y472000D02*
X1044000Y466000D01*
X1004000Y472000D02*
X1038000D01*
X995000Y481000D02*
X1004000Y472000D01*
X995000Y481000D02*
Y513000D01*
X967200Y553569D02*
X1001000Y519769D01*
X967200Y553569D02*
Y564800D01*
X931200Y550000D02*
X941000D01*
X916400Y564800D02*
X931200Y550000D01*
X939000Y524188D02*
Y532000D01*
X930000Y541000D02*
X939000Y532000D01*
X924000Y541000D02*
X930000D01*
X1007000Y517000D02*
Y540000D01*
X994000Y553000D02*
X1007000Y540000D01*
X994000Y553000D02*
Y562800D01*
X1062700Y429000D02*
X1081000D01*
X1095000Y549000D02*
Y564095D01*
Y549000D02*
X1107000Y537000D01*
Y489000D02*
Y537000D01*
X1096000Y478000D02*
X1107000Y489000D01*
X1096000Y444000D02*
Y478000D01*
X1081000Y429000D02*
X1096000Y444000D01*
X1076000Y439000D02*
X1080000Y443000D01*
X1070000Y444000D02*
X1074500Y448500D01*
X1062700Y449000D02*
X1066896D01*
X1007000Y517000D02*
X1022000Y502000D01*
X1083000Y513000D02*
Y535000D01*
X1068896Y549104D02*
X1083000Y535000D01*
X1068896Y549104D02*
Y564799D01*
X1043496Y550504D02*
X1057000Y537000D01*
Y515000D02*
Y537000D01*
X1026000Y544000D02*
X1031000D01*
X1034000Y541000D01*
Y517000D02*
X1046000Y505000D01*
X992000Y564800D02*
X994000Y562800D01*
X1018096Y551904D02*
X1026000Y544000D01*
X1018096Y551904D02*
Y564799D01*
X1043496Y550504D02*
Y564799D01*
X1001000Y485000D02*
Y519769D01*
Y485000D02*
X1009231Y476769D01*
X967000Y541000D02*
X995000Y513000D01*
X960000Y541000D02*
X967000D01*
X1036000Y467000D02*
X1039000Y464000D01*
Y457700D02*
Y464000D01*
X967200Y285400D02*
Y304200D01*
X980000Y317000D01*
X1022000D01*
X1021000Y369500D02*
X1032000Y380500D01*
Y384000D01*
X941800Y559200D02*
Y564800D01*
Y559200D02*
X960000Y541000D01*
X1034000Y517000D02*
Y541000D01*
X1046000Y502000D02*
Y505000D01*
X1057000Y515000D02*
X1070000Y502000D01*
X1083000Y513000D02*
X1094000Y502000D01*
X939000Y471000D02*
X954000Y456000D01*
Y450000D02*
Y456000D01*
X948500Y490500D02*
X960000Y479000D01*
Y457700D02*
Y479000D01*
X954000Y450000D02*
X955000Y449000D01*
X960000Y457700D02*
X1034000D01*
X939000Y471000D02*
X940000D01*
X941000Y470000D01*
X1008000Y428000D02*
X1009000Y429000D01*
X1004000Y428000D02*
X1008000D01*
X994000Y434000D02*
X1025300D01*
X1122000Y348000D02*
X1123000D01*
X1032000Y384000D02*
X1034000Y386000D01*
X1030956Y382956D02*
X1032000Y384000D01*
X1034000Y386000D02*
Y420300D01*
X1008000Y382956D02*
X1030956D01*
X1077000Y403000D02*
X1093000Y419000D01*
X1054000Y403000D02*
X1077000D01*
X1049000Y408000D02*
X1054000Y403000D01*
X1044000D02*
X1049000Y398000D01*
X1044000Y403000D02*
Y420300D01*
X1054000D02*
X1062000Y412300D01*
X1009000Y429000D02*
X1025300D01*
X955000Y449000D02*
X1025300D01*
X1142000Y469000D02*
X1155000D01*
X1175000D02*
Y493000D01*
X1202000Y438100D02*
X1241300D01*
Y335900D02*
Y438100D01*
X1202000Y335900D02*
X1241300D01*
X1049000Y408000D02*
Y420300D01*
X1062700Y439000D02*
X1076000D01*
X1062700Y444000D02*
X1070000D01*
X928500Y389600D02*
Y396500D01*
X903000Y386000D02*
Y388000D01*
X866900Y480100D02*
X872000Y475000D01*
D38*
X1114000Y384500D02*
X1131000D01*
X1138000Y432000D02*
Y449000D01*
X1183000Y345000D02*
X1193000Y355000D01*
X1196250D01*
X1184000Y425000D02*
X1190000Y419000D01*
X1196250D01*
D39*
X860500Y451000D02*
X872000D01*
X852750Y458750D02*
X860500Y451000D01*
X818000Y458750D02*
X852750D01*
X814000Y462750D02*
X818000Y458750D01*
X814000Y462750D02*
Y542000D01*
X836800Y564800D02*
X865600D01*
X814000Y542000D02*
X836800Y564800D01*
X646000Y780000D02*
X662000Y796000D01*
X646000Y715350D02*
Y780000D01*
Y715350D02*
X659000Y702350D01*
X403300Y896750D02*
Y914700D01*
X398000Y920000D02*
X403300Y914700D01*
X364000Y920000D02*
X398000D01*
X860000Y779000D02*
Y866000D01*
X852800Y771800D02*
X860000Y779000D01*
X835000Y771800D02*
X852800D01*
X750000Y993000D02*
Y1000000D01*
X756000Y967000D02*
Y974500D01*
X659000Y702350D02*
X673900D01*
X645400Y676950D02*
X673900D01*
X636000Y686350D02*
X645400Y676950D01*
X662000Y796000D02*
Y835000D01*
X661000Y882000D02*
X687000D01*
X341810Y841810D02*
Y844060D01*
X321000Y821000D02*
X341810Y841810D01*
X321000Y816000D02*
Y821000D01*
X437000Y970540D02*
X440540Y967000D01*
X496500Y1014625D02*
X522375D01*
X341000Y920000D02*
X364250Y896750D01*
X377900D01*
X373460Y941000D02*
X388460Y926000D01*
X408000D01*
X416000Y918000D01*
Y896750D02*
Y918000D01*
X403300Y847250D02*
X405000Y845550D01*
X462000Y718000D02*
X463450Y716550D01*
X401000Y684700D02*
X402700Y683000D01*
X368000Y665000D02*
X369700Y663300D01*
X410150Y657850D02*
Y663300D01*
Y657850D02*
X431000Y637000D01*
X461000D01*
X528600Y675950D02*
X541950D01*
X545000Y679000D01*
Y736000D01*
X636000Y686350D02*
Y791749D01*
X623000Y804749D02*
X636000Y791749D01*
X823400Y746400D02*
X835000D01*
X810000Y901000D02*
X825000D01*
X788500Y879375D02*
X810000Y900875D01*
Y901000D01*
X825000D02*
X860000Y866000D01*
D40*
X1175000Y413000D02*
X1177000Y411000D01*
X1196250D01*
X1175000Y363000D02*
X1196250D01*
X957000Y406000D02*
X963900D01*
X972000Y489000D02*
Y500688D01*
X948500Y524188D02*
X972000Y500688D01*
X947500Y396500D02*
X957000Y406000D01*
X947500Y389600D02*
Y396500D01*
X945000Y487000D02*
X948500Y490500D01*
X943500Y485500D02*
X945000Y487000D01*
X938000Y403000D02*
X946000Y411000D01*
X926000Y487000D02*
X945000D01*
X908000D02*
X926000D01*
X929500Y490500D01*
Y500988D01*
X904000Y491000D02*
Y502000D01*
Y491000D02*
X908000Y487000D01*
X948500Y490500D02*
Y500988D01*
X938000Y389600D02*
Y403000D01*
Y366400D02*
Y389600D01*
X925022Y350000D02*
X944044D01*
X906000D02*
X925022D01*
X928500Y353478D01*
Y366400D01*
X947500Y353456D02*
Y366400D01*
X903000Y353000D02*
Y368000D01*
Y353000D02*
X906000Y350000D01*
X944044D02*
X947500Y353456D01*
X612956Y500544D02*
X617950Y495550D01*
Y474450D02*
Y495550D01*
X605044Y461544D02*
X617950Y474450D01*
X601000Y500544D02*
X612956D01*
X531000Y461544D02*
X605044D01*
X485950Y350594D02*
X488000Y348544D01*
X524050Y454594D02*
X531000Y461544D01*
X529000Y477594D02*
Y481544D01*
X511350Y459944D02*
X529000Y477594D01*
X498650Y463194D02*
X505000Y469544D01*
X498650Y444294D02*
Y463194D01*
X485950Y444294D02*
Y458294D01*
X481000Y463244D02*
X485950Y458294D01*
X517000Y349544D02*
X524050Y356594D01*
Y394794D01*
X498650Y371894D02*
Y394794D01*
Y371894D02*
X500000Y370544D01*
Y336544D02*
Y370544D01*
X492000Y328544D02*
X500000Y336544D01*
X486000Y328544D02*
X492000D01*
X485950Y350594D02*
Y394794D01*
X481000Y463244D02*
Y481544D01*
X505000Y469544D02*
Y480544D01*
X511350Y444294D02*
Y459944D01*
X524050Y444294D02*
Y454594D01*
X730000Y1000000D02*
Y1015000D01*
X734000Y1019000D01*
X790000D01*
X809000Y1000000D01*
Y934000D02*
Y1000000D01*
Y934000D02*
X880000Y863000D01*
Y740505D02*
Y863000D01*
X834999Y695504D02*
X880000Y740505D01*
X657000Y733000D02*
Y748000D01*
Y733000D02*
X662250Y727750D01*
X673900D01*
Y758900D02*
X675000Y760000D01*
X673900Y740450D02*
Y758900D01*
X815600Y822600D02*
X835000D01*
X809000Y816000D02*
X815600Y822600D01*
X809000Y808000D02*
Y816000D01*
X776000Y775000D02*
X809000Y808000D01*
X713000Y775000D02*
X776000D01*
X693000Y755000D02*
X713000Y775000D01*
X693000Y695000D02*
Y755000D01*
X687650Y689650D02*
X693000Y695000D01*
X673900Y689650D02*
X687650D01*
X557300Y937700D02*
Y952600D01*
X611000Y910000D02*
X630650D01*
X522000Y1031750D02*
X524250D01*
X557300Y937700D02*
X585000Y910000D01*
X591000D01*
X449625Y1014625D02*
X471500D01*
X429000Y994000D02*
X449625Y1014625D01*
X264000Y1075000D02*
X274000Y1085000D01*
X294000D01*
X264000Y1013000D02*
Y1075000D01*
Y1013000D02*
X283000Y994000D01*
X429000D01*
D41*
X957000Y439000D02*
X1025300D01*
X946000Y428000D02*
X957000Y439000D01*
X946000Y411000D02*
Y428000D01*
X935000Y435584D02*
X943416Y444000D01*
X944044Y350000D02*
X947044Y347000D01*
X960000D01*
X943416Y444000D02*
X1025300D01*
X360500Y562500D02*
X491350D01*
X308500Y510500D02*
X360500Y562500D01*
X308500Y412500D02*
Y510500D01*
X491350Y562500D02*
X529000Y524850D01*
Y501544D02*
Y524850D01*
D42*
X939000Y500988D02*
Y524188D01*
D43*
X1161000Y1085000D02*
X1224000D01*
X1072000Y1174000D02*
X1161000Y1085000D01*
X458000Y1174000D02*
X1072000D01*
X294000Y1085000D02*
X369000D01*
X1188200Y1135800D02*
X1224000D01*
X1095000Y1229000D02*
X1188200Y1135800D01*
X369000Y1085000D02*
X458000Y1174000D01*
X1181200Y1034200D02*
X1224000D01*
X1156000Y1009000D02*
X1181200Y1034200D01*
X1034000Y1009000D02*
X1156000D01*
X623000Y1022000D02*
Y1098000D01*
X850000Y1111000D02*
X892000Y1069000D01*
X650000Y1023000D02*
Y1040000D01*
X721000Y1111000D01*
X850000D01*
X607500Y1113500D02*
X623000Y1098000D01*
X294000Y1034200D02*
X402660D01*
X484460Y1116000D01*
X605000D01*
X294000Y1135800D02*
X339800D01*
X433000Y1229000D01*
X1095000D01*
D44*
X770000Y814000D02*
Y820000D01*
X761000Y829000D02*
X770000Y820000D01*
X734000Y977000D02*
X750000Y993000D01*
X770000Y814000D02*
X783000D01*
X783000Y814000D01*
D45*
X788500Y879375D02*
X792000Y875875D01*
Y854000D02*
Y875875D01*
X782000Y834000D02*
X792000D01*
X771000Y845000D02*
X782000Y834000D01*
X778000Y956000D02*
Y971000D01*
X763500Y941500D02*
X778000Y956000D01*
X763500Y932625D02*
Y941500D01*
X772500Y991000D02*
X778000D01*
X756000Y974500D02*
X772500Y991000D01*
D46*
X504000Y679000D02*
Y697000D01*
X507050Y675950D02*
X528600D01*
X504000Y679000D02*
X507050Y675950D01*
X467000Y618000D02*
X483500Y634500D01*
X485700Y637000D02*
X690000D01*
X691000Y638000D01*
Y661000D01*
X687750Y664250D02*
X691000Y661000D01*
X673900Y664250D02*
X687750D01*
X618000Y655000D02*
X621450Y651550D01*
X673900D01*
X687000Y902000D02*
Y910000D01*
X668000Y929000D02*
X687000Y910000D01*
X668000Y929000D02*
Y937000D01*
X643350Y926650D02*
Y975250D01*
Y926650D02*
X644000Y926000D01*
X687000Y835000D02*
X706000D01*
X647000D02*
X662000D01*
X636050Y845950D02*
X647000Y835000D01*
X624400Y845950D02*
X636050D01*
X658350Y858650D02*
X662000Y855000D01*
X624400Y858650D02*
X658350D01*
X661000Y882000D02*
X661000Y882000D01*
X650350Y871350D02*
X661000Y882000D01*
X624400Y871350D02*
X650350D01*
X656050Y948950D02*
X668000Y937000D01*
X656050Y948950D02*
Y975250D01*
X622000Y938000D02*
Y947000D01*
X630650Y955650D01*
Y975250D01*
X348970Y836900D02*
X377900D01*
X341810Y844060D02*
X348970Y836900D01*
X377900D02*
Y847250D01*
X434460Y802000D02*
Y819540D01*
X416000Y838000D02*
X434460Y819540D01*
X416000Y838000D02*
Y847250D01*
X403300Y808160D02*
X405460Y806000D01*
X403300Y808160D02*
Y847250D01*
X369700Y663300D02*
X391850D01*
X418000Y630000D02*
X430000Y618000D01*
X467000D01*
X569000Y655000D02*
Y665550D01*
X579400Y675950D01*
D47*
X582700Y1088700D02*
X607500Y1113500D01*
X582700Y1043400D02*
Y1088700D01*
D48*
X557300Y1043400D02*
Y1060700D01*
X549000Y1069000D02*
X557300Y1060700D01*
X531000Y1069000D02*
X549000D01*
X522000Y1060000D02*
X531000Y1069000D01*
X522000Y1036000D02*
Y1060000D01*
D49*
X1199000Y456000D02*
X1256000D01*
X1199000D02*
Y573000D01*
X1257000D01*
X1199000Y317000D02*
X1256000D01*
X1199000Y260000D02*
Y317000D01*
D50*
X256000Y260000D02*
Y1260000D01*
X1256000Y260000D02*
Y1260000D01*
X256000Y260000D02*
X1256000D01*
X256000Y1260000D02*
X1256000D01*
D51*
X1138750Y532500D02*
D03*
X1169500Y292500D02*
D03*
X835000Y428750D02*
D03*
D52*
X1207000Y415900D02*
D03*
Y358100D02*
D03*
D53*
X1049000Y349000D02*
D03*
X1014250D02*
D03*
D54*
X992600Y564800D02*
D03*
X967200D02*
D03*
X941800D02*
D03*
X891000D02*
D03*
X916400D02*
D03*
X1018096Y564799D02*
D03*
X1043496D02*
D03*
X1068896D02*
D03*
X1094296D02*
D03*
X992600Y285400D02*
D03*
X967200D02*
D03*
X941800D02*
D03*
X891000D02*
D03*
X916400D02*
D03*
X1018096Y285399D02*
D03*
X1043496D02*
D03*
X1068896D02*
D03*
X1094296D02*
D03*
X636400Y300000D02*
D03*
X392600Y630000D02*
D03*
D55*
X865600Y564800D02*
D03*
X841000Y484900D02*
D03*
X841000Y352000D02*
D03*
X865600Y285400D02*
D03*
X286000Y445000D02*
D03*
X611000Y300000D02*
D03*
X1199000Y701000D02*
D03*
Y806050D02*
D03*
X1060000Y848000D02*
D03*
X418000Y630000D02*
D03*
X835000Y848000D02*
D03*
X426000Y727750D02*
D03*
D56*
X841000Y510300D02*
D03*
X841000Y377400D02*
D03*
X286000Y419600D02*
D03*
X1199000Y675600D02*
D03*
Y650200D02*
D03*
Y624800D02*
D03*
Y780650D02*
D03*
X1060000Y721000D02*
D03*
Y746400D02*
D03*
Y771800D02*
D03*
Y822600D02*
D03*
Y797200D02*
D03*
X1059999Y695504D02*
D03*
Y670104D02*
D03*
Y644704D02*
D03*
Y619304D02*
D03*
X835000Y721000D02*
D03*
Y746400D02*
D03*
Y771800D02*
D03*
Y822600D02*
D03*
Y797200D02*
D03*
X834999Y695504D02*
D03*
Y670104D02*
D03*
Y644704D02*
D03*
Y619304D02*
D03*
D57*
X295000Y555000D02*
D03*
X630000D02*
D03*
X1115000Y633000D02*
D03*
X306000Y1210000D02*
D03*
X1206000D02*
D03*
X295000Y637000D02*
D03*
D58*
X1224000Y1135800D02*
D03*
Y1085000D02*
D03*
X295000Y1034200D02*
D03*
Y1085000D02*
D03*
D59*
X1014000Y949000D02*
D03*
D60*
X1034000Y1009000D02*
D03*
D61*
X1014000Y1069000D02*
D03*
X892000D02*
D03*
Y949000D02*
D03*
D62*
X1067700Y412300D02*
D03*
X1049000Y471700D02*
D03*
X1094000Y536000D02*
D03*
X1070000Y535000D02*
D03*
X1046000Y536000D02*
D03*
X1022000D02*
D03*
D63*
X1131000Y384500D02*
D03*
X1044000Y439000D02*
D03*
X1040000Y369000D02*
D03*
X1138000Y482000D02*
D03*
Y449000D02*
D03*
X1022000Y401542D02*
D03*
X895000Y486000D02*
D03*
X1163000Y387000D02*
D03*
X1162000Y397000D02*
D03*
D64*
X471000Y349000D02*
D03*
X438000Y363000D02*
D03*
X520175Y468769D02*
D03*
X346000Y748000D02*
D03*
X364000D02*
D03*
X385460D02*
D03*
X406000D02*
D03*
X426000Y746400D02*
D03*
X446000D02*
D03*
X496000Y760000D02*
D03*
X516000Y780000D02*
D03*
X546000Y780650D02*
D03*
X569000Y780000D02*
D03*
Y804749D02*
D03*
X545000D02*
D03*
X406000Y727750D02*
D03*
X623000Y1060000D02*
D03*
Y1076000D02*
D03*
X667000Y1057000D02*
D03*
X682000Y1072000D02*
D03*
X698000Y1088000D02*
D03*
X623000Y1095000D02*
D03*
X528600Y654000D02*
D03*
Y616000D02*
D03*
X556000D02*
D03*
X586000D02*
D03*
X786000Y651550D02*
D03*
Y676950D02*
D03*
Y702350D02*
D03*
Y727750D02*
D03*
X996000Y644704D02*
D03*
Y670104D02*
D03*
Y721000D02*
D03*
Y771800D02*
D03*
Y822600D02*
D03*
X434460Y651550D02*
D03*
D65*
X1175000Y413000D02*
D03*
Y363000D02*
D03*
X997000Y421000D02*
D03*
X972000Y489000D02*
D03*
X971000Y406000D02*
D03*
X924000Y541000D02*
D03*
X1022000Y317000D02*
D03*
X1021000Y369500D02*
D03*
X935000Y435584D02*
D03*
X1069500Y383500D02*
D03*
X939000Y471000D02*
D03*
X960000Y347000D02*
D03*
X348500Y415000D02*
D03*
X407610Y523044D02*
D03*
X577000Y519588D02*
D03*
X640001Y435584D02*
D03*
X553000Y519588D02*
D03*
X505000Y518588D02*
D03*
X449000Y308800D02*
D03*
X326044Y289544D02*
D03*
X511350Y372956D02*
D03*
X368000Y307500D02*
D03*
X584633Y307524D02*
D03*
X547000Y311500D02*
D03*
X517000Y311500D02*
D03*
X623000Y616000D02*
D03*
X657000Y748000D02*
D03*
X675000Y760000D02*
D03*
X364000Y920000D02*
D03*
X731000Y804000D02*
D03*
X623000Y741000D02*
D03*
X504000Y697000D02*
D03*
X452000Y654000D02*
D03*
X644000Y926000D02*
D03*
X706000Y835000D02*
D03*
X630650Y910000D02*
D03*
X783000Y814000D02*
D03*
X810000Y901000D02*
D03*
M02*
