G04*
G04 #@! TF.GenerationSoftware,Altium Limited,CircuitStudio,1.5.2 (30)*
G04*
G04 Layer_Color=12697792*
%FSLAX44Y44*%
%MOMM*%
G71*
G01*
G75*
%ADD51C,0.1500*%
%ADD52C,0.1000*%
%ADD53C,4.0000*%
%ADD54C,1.2580*%
%ADD55C,1.9800*%
%ADD56C,1.9350*%
%ADD58C,2.1000*%
%ADD59C,6.0000*%
%ADD60R,1.8000X1.8000*%
%ADD61C,1.8000*%
%ADD62R,1.8000X1.8000*%
%ADD63C,0.6500*%
%ADD64C,3.2500*%
%ADD65C,1.3980*%
%ADD66R,1.3980X1.3980*%
D51*
X256000Y1260000D02*
X1256000D01*
X256000Y260000D02*
X1256000D01*
Y1260000D01*
X256000Y260000D02*
Y1260000D01*
D52*
X1196000Y260000D02*
Y310000D01*
Y573000D02*
X1257000D01*
X1196000Y460000D02*
Y573000D01*
Y460000D02*
X1252000D01*
X1196000Y260000D02*
X1199000D01*
X1252000Y460000D02*
X1256000D01*
X1196000Y310000D02*
X1242000D01*
X1256000D01*
Y317000D01*
D53*
X283000Y318000D02*
D03*
Y545000D02*
D03*
X494793Y553756D02*
D03*
X835000Y428750D02*
D03*
X1169500Y292500D02*
D03*
X1138750Y532500D02*
D03*
D54*
X1001750Y1130000D02*
D03*
X967000D02*
D03*
X1014250Y349000D02*
D03*
X1049000D02*
D03*
D55*
X894000Y950000D02*
D03*
Y1070000D02*
D03*
X1016000D02*
D03*
Y950000D02*
D03*
D56*
X1036000Y1010000D02*
D03*
D58*
X295000Y1135800D02*
D03*
Y1085000D02*
D03*
Y1034200D02*
D03*
X1224000D02*
D03*
Y1085000D02*
D03*
Y1135800D02*
D03*
D59*
X295000Y637000D02*
D03*
X1206000Y1210000D02*
D03*
X306000D02*
D03*
X1115000Y633000D02*
D03*
D60*
X834999Y619304D02*
D03*
Y644704D02*
D03*
Y670104D02*
D03*
Y695504D02*
D03*
X835000Y797200D02*
D03*
Y822600D02*
D03*
Y771800D02*
D03*
Y746400D02*
D03*
Y721000D02*
D03*
X1059999Y619304D02*
D03*
Y644704D02*
D03*
Y670104D02*
D03*
Y695504D02*
D03*
X1060000Y797200D02*
D03*
Y822600D02*
D03*
Y771800D02*
D03*
Y746400D02*
D03*
Y721000D02*
D03*
X1199000Y780650D02*
D03*
Y624800D02*
D03*
Y650200D02*
D03*
Y675600D02*
D03*
X841000Y377400D02*
D03*
X841000Y510300D02*
D03*
D61*
X835000Y848000D02*
D03*
X418000Y630000D02*
D03*
X1060000Y848000D02*
D03*
X1199000Y806050D02*
D03*
Y701000D02*
D03*
X865600Y285400D02*
D03*
X841000Y352000D02*
D03*
X841000Y484900D02*
D03*
X865600Y564800D02*
D03*
X397923Y560396D02*
D03*
D62*
X392600Y630000D02*
D03*
X1094296Y285399D02*
D03*
X1068896D02*
D03*
X1043496D02*
D03*
X1018096D02*
D03*
X916400Y285400D02*
D03*
X891000D02*
D03*
X941800D02*
D03*
X967200D02*
D03*
X992600D02*
D03*
X1094296Y564799D02*
D03*
X1068896D02*
D03*
X1043496D02*
D03*
X1018096D02*
D03*
X916400Y564800D02*
D03*
X891000D02*
D03*
X941800D02*
D03*
X967200D02*
D03*
X992600D02*
D03*
X448722Y560396D02*
D03*
X423322D02*
D03*
D63*
X1207000Y358100D02*
D03*
Y415900D02*
D03*
D64*
X331883Y287346D02*
D03*
X458882D02*
D03*
D65*
X359683Y330546D02*
D03*
X369883Y312746D02*
D03*
X380083Y330546D02*
D03*
X390283Y312746D02*
D03*
X400482Y330546D02*
D03*
X410682Y312746D02*
D03*
X420882Y330546D02*
D03*
D66*
X431082Y312746D02*
D03*
M02*
