M48
;Layer_Color=6321
;FILE_FORMAT=4:4
METRIC,LZ
;TYPE=PLATED
T1F00S00C0.5000
T2F00S00C0.6000
T3F00S00C0.7112
T4F00S00C0.7500
T5F00S00C1.0000
T6F00S00C1.2900
T7F00S00C1.3200
T8F00S00C1.4000
T9F00S00C3.0000
;TYPE=NON_PLATED
T10F00S00C0.6500
%
T01
X0104Y00369
X01131Y003845
X01163Y00387
X01162Y00397
X01138Y00449
Y00482
X01094Y00536
X0107Y00535
X01046Y00536
X01022
X01049Y004717
X01044Y00439
X010677Y004123
X01022Y00401542
X00895Y00486
T02
X00438Y00363
X00471Y00349
X00996Y00644704
Y00670104
Y00721
Y007718
X00786Y0072775
Y0070235
Y0067695
Y0065155
X00586Y00616
X00556
X005286
Y00654
X0043446Y0065155
X00426Y007464
X00446
X00406Y00748
Y0072775
X00496Y0076
X00516Y0078
X00546Y0078065
X00569Y0078
X00520175Y00468769
X0038546Y00748
X00364
X00346
X00545Y00804749
X00569
X00623Y0106
Y01076
Y01095
X00667Y01057
X00682Y01072
X00698Y01088
X00996Y008226
T03
X00326044Y00289544
X00368Y003075
X00449Y003088
X00517Y003115
X00547Y003115
X00584633Y00307524
X0051135Y00372956
X0096Y00347
X01021Y003695
X01022Y00317
X010695Y003835
X01175Y00363
Y00413
X00997Y00421
X00971Y00406
X00935Y00435584
X00939Y00471
X00972Y00489
X00924Y00541
X00577Y00519588
X00553
X00505Y00518588
X0040761Y00523044
X00452Y00654
X00504Y00697
X00623Y00741
X00657Y00748
X00675Y0076
X00623Y00616
X00640001Y00435584
X003485Y00415
X00364Y0092
X0063065Y0091
X00644Y00926
X00706Y00835
X00731Y00804
X00783Y00814
X0081Y00901
T04
X0101425Y00349
X01049
T05
X00611Y003
X006364
X008656Y002854
X00891
X009164
X009418
X009672
X009926
X01018096Y00285399
X01043496
X01068896
X01094296
X00841Y00352
Y003774
X01199Y006248
Y006502
Y006756
Y00701
Y0078065
X0106Y007718
Y007464
Y00721
X01059999Y00695504
Y00670104
Y00644704
Y00619304
X01068896Y00564799
X01043496
X01018096
X009926Y005648
X009672
X009418
X009164
X00891
X008656
X00841Y005103
Y004849
X00834999Y00619304
Y00644704
Y00670104
Y00695504
X00835Y00721
Y007464
Y007718
X01094296Y00564799
X00418Y0063
X00426Y0072775
X003926Y0063
X00286Y00445
Y004196
X00835Y007972
Y008226
Y00848
X0106
Y008226
Y007972
X01199Y0080605
T06
X01034Y01009
T07
X00892Y00949
Y01069
X01014
Y00949
T08
X00295Y010342
Y01085
Y011358
X01224
Y01085
Y010342
T09
X011695Y002925
X0113875Y005325
X01115Y00633
X00835Y0042875
X0063Y00555
X00295
Y00637
X01206Y0121
X00306
T10
X01207Y003581
Y004159
M30
